<svg width="375" height="667" viewBox="0 0 375 667" fill="none" xmlns="http://www.w3.org/2000/svg">
<g opacity="0.5" clip-path="url(#clip0_700:3341)">
<path opacity="0.1" d="M819.79 254.78C819.569 256.083 819.348 257.385 819.103 258.688C811.21 303.04 798.323 345.8 779.161 385.059C778.532 386.362 777.892 387.664 777.24 388.967C764.943 413.721 749.842 436.984 732.234 458.298C722.687 469.799 712.28 480.719 699.905 488.603C682.559 499.651 662.279 504.14 642.348 507.814C621.638 511.64 600.66 514.792 579.728 518.281C572.309 519.49 564.935 520.757 557.609 522.083C537.388 525.735 517.317 529.956 497.724 535.549C473.498 542.527 449.994 551.516 427.875 564.25C426.105 565.258 424.355 566.292 422.624 567.355C420.89 568.401 419.132 569.471 417.444 570.564C415.756 571.657 414.056 572.739 412.38 573.844L409.795 575.588C408.945 576.146 408.107 576.751 407.269 577.309C404.778 579.007 402.321 580.798 399.865 582.519L399.772 582.589C398.154 583.751 396.547 584.914 394.94 586.077C385.872 592.787 377.001 599.811 368.165 606.858L362.588 611.312C359.709 613.591 356.83 615.867 353.95 618.138C352.262 619.476 350.551 620.801 348.851 622.127C347.617 623.092 346.395 624.057 345.138 625.011C338.839 629.86 332.46 634.605 325.952 639.14C324.404 640.221 322.832 641.303 321.296 642.361C308.269 651.262 294.413 658.887 279.921 665.131L279.735 665.212C272.597 668.251 265.252 670.781 257.755 672.783C253.46 673.945 249.164 674.864 244.81 675.585C233.211 677.589 221.372 677.793 209.71 676.19C186.788 672.945 165.309 662.235 142.445 658.653C95.2733 651.339 49.4635 674.934 5.07391 693.459C-5.7916 698.002 -16.7774 702.266 -27.8835 706.251C-35.2411 708.902 -42.6335 711.425 -50.0609 713.821C-95.3102 728.441 -141.936 738.404 -189.213 743.556C-208.515 745.661 -228.643 746.661 -248.295 745.149C-255.715 744.605 -263.1 743.646 -270.414 742.277C-295.292 737.625 -318.517 727.753 -337.225 709.716C-352.767 694.959 -363.733 675.667 -372.092 655.537C-375.452 647.451 -378.413 639.179 -380.974 630.721C-385 617.465 -388.024 603.925 -390.02 590.217C-390.474 587.124 -390.881 584.019 -391.184 580.914C-391.789 575.588 -392.239 570.239 -392.534 564.866C-394.164 536.312 -391.372 507.678 -384.257 479.975C-376.329 449.286 -363.104 419.9 -357.283 388.92C-357.039 387.618 -356.818 386.315 -356.597 385.013C-355.821 380.361 -355.231 375.624 -354.827 370.802C-351.893 332.915 -363.244 295.831 -372.208 258.688C-372.522 257.385 -372.837 256.083 -373.139 254.78C-374.11 250.664 -375.029 246.543 -375.898 242.419C-384.199 203.136 -386.469 161.098 -379.1 121.897C-378.867 120.594 -378.599 119.28 -378.332 117.989C-373.361 93.708 -364.583 70.6129 -351.137 50.0414C-337.341 28.9232 -319.227 11.3519 -299.914 -4.09135C-290.484 -11.6114 -280.732 -18.6469 -270.658 -25.1979C-263.417 -29.896 -256.044 -34.3421 -248.539 -38.5363C-187.898 -72.2602 -118.712 -88.7384 -50.3053 -85.052C-46.6809 -84.8659 -43.0642 -84.6179 -39.4553 -84.3077C-35.6679 -83.9821 -31.8922 -83.5945 -28.1281 -83.1449C15.9123 -78.063 58.7651 -65.4689 101.362 -51.6886C115.634 -47.037 129.872 -42.3854 144.11 -37.7339C150.443 -35.6717 156.772 -33.6366 163.097 -31.6287C194.122 -21.8487 225.66 -13.0224 257.488 -6.37061C264.869 -4.82008 272.242 -3.40524 279.607 -2.12605C305.213 2.45594 331.125 5.1225 357.128 5.85139C367.218 6.09948 377.307 5.99481 387.397 5.53741C392.496 5.30483 397.599 4.96373 402.705 4.51408C455.454 0.00204468 506.316 -15.1272 557.388 -29.3378C564.769 -31.3961 572.161 -33.4428 579.507 -35.4197C589.216 -38.0246 598.937 -40.5481 608.693 -42.8738C669.438 -57.4449 723.572 -49.0721 780.046 -19.0229C792.851 -12.1967 805.657 -3.96342 813.573 8.78189C821.49 21.5272 823.411 37.3077 824.878 52.4951C826.95 74.1016 828.37 96.0106 828.824 118.013C828.824 119.315 828.824 120.617 828.906 121.92C829.93 166.47 827.218 211.358 819.79 254.78Z" fill="#3498DB"/>
<path opacity="0.1" d="M416.885 385.059H412.915V386.792V388.967H417.409L416.885 385.059ZM371.89 385.059C371.884 385.09 371.884 385.122 371.89 385.152L371.541 388.385V388.676V388.967H406V388.734L408.456 385.059H371.89ZM279.746 385.059V258.688H319.328C318.909 258.339 318.478 257.99 318.036 257.664L317.454 257.222C317.209 257.025 316.965 256.839 316.709 256.664C316.453 256.49 315.847 256.048 315.393 255.746C314.939 255.443 314.66 255.246 314.229 255.001L313.961 254.827H313.903H279.746V247.908L278.827 248.35L277.849 248.896H277.779L277.569 249.024L276.964 249.419C276.755 249.547 276.545 249.675 276.347 249.815C275.742 250.222 275.183 250.664 274.543 251.117L273.961 251.582C273.565 251.885 273.192 252.199 272.796 252.513C271.248 253.78 269.723 255.106 268.14 256.327C267.744 256.641 267.348 256.943 266.976 257.234C266.129 257.853 265.251 258.428 264.345 258.955C263.968 259.189 263.58 259.402 263.18 259.595L262.529 259.897L261.935 260.153C260.536 260.742 259.087 261.202 257.604 261.525V385.059H198.232C198.232 385.199 198.313 385.327 198.348 385.466C198.674 386.629 199 387.792 199.314 388.955H257.616V524.421H258.524L259.56 524.49L261.446 524.63L264.496 524.932L265.87 525.095L267.383 525.281H267.604C268.477 525.397 269.362 525.537 270.258 525.677L270.829 525.77L272.11 525.979L273.949 526.304L278.361 526.072L278.967 526.2C279.211 526.2 279.455 526.293 279.711 526.351V388.967H371.459V388.676V388.385L371.809 385.152C371.803 385.122 371.803 385.09 371.809 385.059H279.746ZM416.885 385.059H412.915V386.792V388.967H417.409L416.885 385.059ZM369.41 385.059L369.015 388.967H407.35L409.958 385.059H369.41ZM279.77 385.059V258.688H319.351C318.932 258.339 318.501 257.99 318.059 257.664L317.477 257.222C317.233 257.025 316.988 256.839 316.732 256.664C316.476 256.49 315.87 256.048 315.416 255.746C314.962 255.443 314.683 255.246 314.252 255.001L313.985 254.827H313.903H279.746V247.908L278.827 248.35L277.849 248.896H277.779L277.569 249.024L276.964 249.419C276.755 249.547 276.545 249.675 276.347 249.815C275.742 250.222 275.183 250.664 274.543 251.117L273.961 251.582C273.565 251.885 273.192 252.199 272.796 252.513C271.248 253.78 269.723 255.106 268.14 256.327C267.744 256.641 267.348 256.943 266.976 257.234C266.129 257.853 265.251 258.428 264.345 258.955C263.968 259.189 263.58 259.402 263.18 259.595L262.529 259.897L261.935 260.153C260.536 260.742 259.087 261.202 257.604 261.525V385.059H198.232C198.232 385.199 198.313 385.327 198.348 385.466C198.674 386.629 199.012 387.792 199.326 388.955H257.616V524.409L258.524 524.467L259.56 524.537L261.446 524.676L264.496 524.979L265.87 525.142L267.383 525.328H267.604C268.477 525.444 269.362 525.583 270.258 525.723L270.829 525.816L272.11 526.025L273.949 526.351L278.361 526.118L278.967 526.246C279.211 526.246 279.455 526.339 279.711 526.398V388.967H369.015L369.434 385.059H279.77ZM579.728 121.897H829.127C829.127 120.594 829.127 119.292 829.045 117.989H579.728V-35.4429C572.324 -33.466 564.932 -31.4193 557.609 -29.361V117.989H286.359L285.672 117.245L286.708 116.082L387.595 5.47926C377.505 5.94443 367.416 6.04909 357.326 5.79325L279.746 90.8008V-2.14931C272.342 -3.4285 264.969 -4.84335 257.627 -6.39387V86.5213L144.203 -37.7571C129.965 -42.4087 115.728 -47.1417 101.455 -51.7118L255.625 117.245L254.938 117.989H-28.0349V-83.1914C-31.8068 -83.6178 -35.5826 -84.0054 -39.3622 -84.3543C-42.9711 -84.6721 -46.5878 -84.9202 -50.2122 -85.0985V117.989H-248.446V-38.5362C-255.966 -34.3498 -263.339 -29.9037 -270.565 -25.1979V117.989H-378.378C-378.646 119.28 -378.914 120.594 -379.146 121.897H-270.658V254.78H-373.139C-372.837 256.083 -372.522 257.385 -372.208 258.688H-270.612V385.059H-356.632C-356.853 386.362 -357.074 387.664 -357.318 388.967H-270.612V742.312C-263.298 743.681 -255.913 744.64 -248.492 745.184V388.967H-50.2122V713.856C-42.7771 711.445 -35.3847 708.921 -28.0349 706.286V388.967H257.581V672.829C265.077 670.828 272.422 668.298 279.56 665.259L279.746 665.177V388.967H557.539V522.083C564.904 520.757 572.277 519.49 579.658 518.281V388.967H777.182C777.834 387.664 778.474 386.362 779.103 385.059H579.728V258.688H819.115C819.359 257.385 819.581 256.083 819.802 254.78H579.728V121.897ZM-248.434 121.897H-50.2122V254.78H-248.446L-248.434 121.897ZM-248.434 385.059V258.688H-50.2122V385.059H-248.434ZM-28.0233 121.897H257.581V254.78H-28.0349L-28.0233 121.897ZM-28.0233 385.059V258.688H257.581V385.059H-28.0233ZM557.551 385.059H279.746V258.688H557.539L557.551 385.059ZM557.551 254.815H279.746V125.455L283.646 121.897H557.539L557.551 254.815ZM371.902 385.059C371.896 385.09 371.896 385.122 371.902 385.152L371.552 388.385V388.676V388.967H406.012V388.734L408.468 385.059H371.902ZM416.897 385.059H412.927V386.792V388.967H417.42L416.897 385.059ZM279.758 385.059V258.688H319.34C318.921 258.339 318.49 257.99 318.047 257.664L317.465 257.222C317.221 257.025 316.976 256.839 316.72 256.664C316.464 256.49 315.859 256.048 315.405 255.746C314.951 255.443 314.671 255.246 314.241 255.001L313.973 254.827H313.915H279.746V247.908L278.827 248.35L277.849 248.896H277.779L277.569 249.024L276.964 249.419C276.755 249.547 276.545 249.675 276.347 249.815C275.742 250.222 275.183 250.664 274.543 251.117L273.961 251.582C273.565 251.885 273.192 252.199 272.796 252.513C271.248 253.78 269.723 255.106 268.14 256.327C267.744 256.641 267.348 256.943 266.976 257.234C266.129 257.853 265.251 258.428 264.345 258.955C263.968 259.189 263.58 259.402 263.18 259.595L262.529 259.897L261.935 260.153C260.536 260.742 259.087 261.202 257.604 261.525V385.059H198.232C198.232 385.199 198.313 385.327 198.348 385.466C198.674 386.629 199 387.792 199.314 388.955H257.616V524.421H258.524L259.56 524.49L261.446 524.63L264.496 524.932L265.87 525.095L267.383 525.281H267.604C268.477 525.397 269.362 525.537 270.258 525.677L270.829 525.77L272.11 525.979L273.949 526.304L278.361 526.072L278.967 526.2C279.211 526.2 279.455 526.293 279.711 526.351V388.967H371.459V388.676V388.385L371.809 385.152C371.803 385.122 371.803 385.09 371.809 385.059H279.758Z" fill="#3498DB"/>
<path d="M362.449 611.359C359.569 613.638 356.69 615.913 353.811 618.185C352.123 619.522 350.411 620.848 348.712 622.174C347.478 623.139 346.255 624.104 344.998 625.057C338.7 629.907 332.32 634.651 325.812 639.187C324.264 640.268 322.692 641.35 321.156 642.408C308.129 651.309 294.273 658.934 279.781 665.177L279.595 665.259V611.359H362.449Z" fill="#65617D"/>
<path d="M491.997 399.526L493.301 359.348C492.521 358.743 491.729 358.185 490.972 357.627C491.294 345.648 490.608 333.663 488.923 321.798C483.661 281.62 449.493 280.748 439.854 289.039C438.576 290.141 437.183 291.1 435.698 291.9C436.571 286.167 437.654 280.422 438.434 274.747C442.648 244.14 436.105 209.707 412.333 189.926C402.379 181.658 390.214 176.576 379.282 169.657C359.701 157.318 344.229 139.096 324.427 127.083C304.625 115.07 276.813 110.57 259.537 126.013C252.843 131.991 248.524 140.282 241.655 146.05C228.849 156.795 208.884 157.504 197.708 169.506C197.149 170.11 196.614 170.727 196.101 171.378C186.788 183.309 189.338 200.229 192.306 215.033C195.88 232.848 194.402 247.129 209.699 252.245C209.757 252.955 209.804 253.664 209.885 254.362C211.13 265.291 214.75 275.816 220.493 285.201C226.236 294.585 233.963 302.603 243.134 308.692L240.654 309.576C234.041 311.902 228.093 314.158 224.286 315.705C210.316 321.391 180.909 328.799 180.909 328.799C180.909 328.799 180.211 337.172 180.339 349.522C170.536 360.162 154.18 378.861 149.372 389.944C142.387 406.108 102.922 452.403 92.4094 459.392C81.897 466.381 70.4998 474.672 70.4998 474.672C70.4998 474.672 53.8523 483.847 45.9709 484.72C40.511 485.324 23.619 482.091 23.619 482.091C23.619 482.091 -43.8442 399.526 -39.467 462.88C-35.0897 526.235 18.7994 528.386 18.7994 528.386L73.1309 527.514C73.1309 527.514 102.491 531.445 115.634 520.537C126.857 511.234 185.019 460.194 203.703 437.041C204.134 437.518 204.565 437.983 205.019 438.436C205.019 438.436 212.458 428.831 213.343 438.436C214.227 448.042 208.511 452.391 211.585 455.88C214.658 459.368 223.855 471.602 224.286 476.405C224.716 481.208 212.027 500.826 233.483 515.711C233.82 515.943 234.181 516.164 234.577 516.385C238.407 525.095 250.584 533.619 250.584 533.619L316.301 532.747L440.296 542.353C440.296 542.353 443.987 539.108 448.981 533.805C455.651 539.922 464.907 545.167 475.337 541.946C475.337 541.946 490.239 524.049 490.681 512.257C490.681 512.257 481.042 487.359 476.711 479.94C472.38 472.521 479.785 456.357 479.785 456.357C479.785 456.357 485.035 440.634 488.108 440.634C491.182 440.634 488.981 430.168 488.981 430.168C487.82 428.457 487.093 426.49 486.863 424.435C486.634 422.38 486.91 420.301 487.666 418.376C490.239 411.76 491.997 399.526 491.997 399.526Z" fill="url(#paint0_linear_700:3341)"/>
<path d="M417.665 390.478L413.008 395.921L394.195 417.806L369.62 419.295L330.283 421.714C330.283 421.714 277.244 357.871 287.209 343.974C290.829 338.962 291.423 332.345 290.701 326.101C290.608 325.24 290.48 324.38 290.329 323.531C289.136 316.923 287.053 310.508 284.135 304.459L285.439 303.866L286.278 303.482L332.658 282.341L344.136 277.108C344.708 280.268 345.768 283.321 347.28 286.155C347.501 286.597 347.745 287.039 348.001 287.458C363.822 313.623 414.557 297.075 414.557 297.075L417.665 390.478Z" fill="#EE8E9E"/>
<path d="M348.711 622.174C347.477 623.139 346.255 624.104 344.998 625.058C338.7 629.907 332.32 634.651 325.812 639.187C324.264 640.268 322.692 641.35 321.156 642.408H257.581H-28.0351H-50.2124L-160.086 638.477L-248.446 637.733L-270.565 636.57L-380.928 630.756C-384.971 617.49 -388.01 603.939 -390.02 590.217C-390.474 587.124 -390.881 584.019 -391.184 580.914L-270.612 587.589L-248.493 588.833L-50.2589 599.881L-28.0817 601.114L257.534 617.045L279.513 618.278H279.7L348.711 622.174Z" fill="#D48A9B"/>
<path d="M497.654 535.55C473.428 542.527 449.924 551.516 427.805 564.25C426.047 565.261 424.312 566.296 422.554 567.355C420.796 568.413 419.062 569.471 417.374 570.564C415.686 571.657 413.986 572.739 412.31 573.844L409.725 575.588L407.199 577.309C404.708 579.018 402.251 580.798 399.795 582.519L399.702 582.589C398.084 583.751 396.477 584.914 394.87 586.077C385.802 592.787 376.931 599.811 368.095 606.858C366.232 608.347 364.366 609.831 362.495 611.312L353.88 618.138C352.192 619.476 350.481 620.801 348.781 622.127C347.547 623.092 346.325 624.057 345.068 625.011L279.874 621.906H279.688L257.709 620.883L-28.035 607.358L-50.2123 606.3L-248.446 596.892L-270.565 595.834L-390.02 590.217C-390.474 587.124 -390.881 584.019 -391.184 580.914C-391.789 575.588 -392.24 570.239 -392.534 564.866L-270.577 521.839L-248.458 514.013L-228.364 506.919L-191.751 508.826L-107.128 513.164L-50.1773 516.152L-28.0001 517.315L-13.8322 518.06L-10.4445 518.246L108.789 524.467L110.046 524.549L163.249 527.316H163.854H164.203L169.523 527.584L187.661 528.537L210.339 529.7L217.813 530.096L219.222 530.177L229.792 530.723L232.807 530.875L242.901 531.41L246.917 531.631H247.045H247.883L257.325 532.131L271.947 532.898H272.016L276.557 533.131H277.046L279.758 533.282L286.417 533.631L292.238 533.933H292.296L298.827 534.27H298.932L303.879 534.538L307.675 534.735L321.144 535.445L323.565 535.573H324.404L325.568 535.643L329.514 535.852L331.284 535.945L345.021 536.654H346.278L366.558 536.48H366.698L443.8 535.852H445.279H446.839H451.425L476.246 535.654H479.947L497.654 535.55Z" fill="#EFC6CD"/>
<path d="M-22.7146 537.143L-15.5433 575.251L179.431 572.32C179.431 572.32 194.099 576.553 193.773 564.831C193.773 564.831 223.448 536.817 373.753 569.39L316.045 524.118L158.301 532.584L-24.6122 527.7L-22.7146 537.143Z" fill="#3498DB"/>
<path d="M-19.129 528.026L-12.2837 569.39C-12.2837 569.39 155.356 564.506 181.712 569.064L161.793 531.282C161.793 531.282 60.4298 521.839 -19.129 528.026Z" fill="white"/>
<path opacity="0.1" d="M-19.129 528.026L-12.2837 569.39C-12.2837 569.39 155.356 564.506 181.712 569.064L161.793 531.282C161.793 531.282 60.4298 521.839 -19.129 528.026Z" fill="black"/>
<path d="M-16.6262 527.875L-9.87406 566.343C-9.87406 566.343 155.635 561.808 181.712 566.041L162.073 530.91C162.073 530.91 61.9315 522.118 -16.6262 527.875Z" fill="white"/>
<path opacity="0.1" d="M-13.5875 529.061L-7.01001 565.041C-7.01001 565.041 154.867 560.796 180.42 564.762L161.212 531.886C161.212 531.886 63.2589 523.63 -13.5875 529.061Z" fill="black"/>
<path d="M-12.2839 527.747L-5.6715 563.796C-5.6715 563.796 156.205 559.552 181.759 563.517L162.503 530.607C162.503 530.607 64.5625 522.362 -12.2839 527.747Z" fill="white"/>
<path d="M3.80499 479.498C3.80499 479.498 -18.8031 457.787 -17.9299 486.01C-17.0568 514.234 3.80499 479.498 3.80499 479.498Z" fill="#EE8E9E"/>
<path d="M206.823 429.994C206.323 432.18 203.89 435.808 200.095 440.355C180.49 463.939 124.715 512.955 113.784 522.048C100.745 532.91 71.6175 529.026 71.6175 529.026L17.7167 529.898C17.7167 529.898 -35.7533 527.723 -40.1073 464.776C-44.4612 401.828 22.4898 483.882 22.4898 483.882C22.4898 483.882 39.2538 487.092 44.6671 486.487C52.4903 485.627 69.0098 476.509 69.0098 476.509C69.0098 476.509 80.3138 468.253 90.7447 461.31C101.176 454.368 140.303 408.329 147.265 392.258C151.677 382.059 165.891 365.383 175.705 354.568C181.34 348.347 185.519 344.102 185.519 344.102C185.519 344.102 209.862 416.527 206.823 429.994Z" fill="#EE8E9E"/>
<path opacity="0.1" d="M206.824 429.994C206.323 432.18 203.89 435.808 200.095 440.355C180.304 420.225 176.171 380.059 175.705 354.522C181.34 348.3 185.519 344.056 185.519 344.056C185.519 344.056 209.862 416.527 206.824 429.994Z" fill="black"/>
<path opacity="0.1" d="M412.997 395.921L394.196 417.806L369.62 419.295L330.283 421.714C330.283 421.714 277.244 357.871 287.209 343.974C290.829 338.962 291.423 332.345 290.701 326.101C290.608 325.24 290.48 324.38 290.329 323.531C289.136 316.923 287.053 310.508 284.135 304.459L285.439 303.866L286.278 303.482C288.348 309.243 289.776 315.213 290.538 321.286C290.666 322.112 290.783 322.972 290.899 323.856C291.307 326.996 291.679 330.485 292.063 334.322C295.09 369.465 317.221 382.687 327.21 386.897C330.421 388.25 333.561 389.767 336.616 391.444C346.226 396.738 357.308 398.739 368.165 397.142C392.822 393.909 412.927 376.012 412.927 376.012L413.032 393.63L412.997 395.921Z" fill="black"/>
<path d="M413.753 532.479C413.753 532.479 252.04 532.038 230.724 517.28C209.408 502.523 222.039 482.975 221.597 478.196C221.154 473.416 212.039 461.264 209 457.775C205.962 454.287 211.608 449.961 210.735 440.413C209.862 430.866 202.481 440.413 202.481 440.413C172.038 409.573 178.558 331.415 178.558 331.415C178.558 331.415 207.662 324.042 221.632 318.379C225.415 316.844 231.306 314.658 237.93 312.297L240.386 311.413C257.465 305.308 277.768 298.412 277.768 298.412C277.768 298.412 281.668 295.656 285.591 303.901C287.384 307.692 289.188 313.797 290.632 323.554C290.76 324.38 290.876 325.24 290.992 326.124C291.4 329.264 291.772 332.752 292.157 336.59C295.183 371.733 317.314 384.955 327.303 389.164C330.514 390.518 333.654 392.035 336.709 393.711C346.319 399.005 357.401 401.007 368.258 399.41C392.915 396.177 413.02 378.28 413.02 378.28L413.125 395.898L413.427 448.833L413.753 532.479Z" fill="#DFE5EE"/>
<path d="M406.792 463.869L404.184 480.37C404.184 480.37 339.841 496.43 314.637 501.209C289.432 505.989 235.078 499.907 231.166 510.326C227.255 520.746 247.686 535.084 247.686 535.084L312.879 534.212L435.907 543.771C435.907 543.771 482.858 502.512 467.642 473.846C452.427 445.181 406.792 463.869 406.792 463.869Z" fill="#EE8E9E"/>
<path opacity="0.1" d="M274.205 333.59C274.205 333.59 244.635 357.906 250.293 369.639C255.951 381.373 274.205 333.59 274.205 333.59Z" fill="black"/>
<path opacity="0.1" d="M237.685 377.442C237.685 377.442 207.685 429.122 209.431 433.029C211.177 436.936 219.431 450.833 218.989 440.413C218.546 429.994 237.685 377.442 237.685 377.442Z" fill="black"/>
<path opacity="0.1" d="M249.862 386.571C249.862 386.571 242.877 418.702 235.951 432.168C229.024 445.635 249.862 386.571 249.862 386.571Z" fill="black"/>
<path opacity="0.1" d="M348.06 287.493C342.311 298.022 334.122 307.024 324.178 313.745C314.233 320.466 302.822 324.71 290.899 326.124H290.76C272.004 328.324 253.108 323.383 237.837 312.286C255.299 305.983 277.674 298.401 277.674 298.401C277.674 298.401 281.574 295.645 285.498 303.889L344.195 277.143C344.854 280.796 346.163 284.301 348.06 287.493Z" fill="black"/>
<path d="M357.233 248.908C357.255 261.986 353.843 274.841 347.338 286.19C344.23 291.602 340.465 296.61 336.127 301.099C324.025 313.685 307.898 321.649 290.538 323.612H290.387C287.612 323.93 284.821 324.089 282.028 324.089C263.55 324.089 245.718 317.294 231.935 305C218.152 292.705 209.383 275.772 207.301 257.432C206.977 254.618 206.817 251.787 206.823 248.954C206.823 229.03 214.747 209.923 228.85 195.834C242.954 181.746 262.083 173.831 282.028 173.831C301.974 173.831 321.103 181.746 335.206 195.834C349.31 209.923 357.233 229.03 357.233 248.954V248.908Z" fill="#EE8E9E"/>
<path opacity="0.1" d="M412.985 395.932L413.288 448.867C401.367 449.402 390.133 447.856 381.25 440.146C375.068 434.773 371.471 427.354 369.608 419.33C368.223 412.865 367.714 406.243 368.095 399.642C368.089 399.576 368.089 399.51 368.095 399.444C368.828 384.827 372.193 370.209 370.423 355.685C368.654 341.16 359.841 325.833 345.452 322.775C342.611 322.159 339.422 321.938 337.396 319.856C335.161 317.53 335.265 313.914 335.51 310.692L335.929 305.262C336.034 303.866 336.08 302.482 336.08 301.099C336.072 288.752 331.772 276.791 323.916 267.26C316.06 257.728 305.135 251.217 293.006 248.838L292.541 248.757C288.489 247.943 284.275 247.14 280.224 248.071C272.517 249.85 267.534 257.316 260.433 260.862C246.812 267.654 224.099 260.223 209.838 257.885C208.907 257.734 208.022 257.56 207.172 257.362C206.849 254.548 206.689 251.717 206.695 248.885C206.7 237.378 209.352 226.027 214.444 215.706C219.537 205.386 226.935 196.372 236.067 189.359C245.199 182.347 255.822 177.524 267.116 175.262C278.41 173 290.074 173.36 301.207 176.314C312.339 179.267 322.644 184.736 331.326 192.298C340.008 199.86 346.834 209.313 351.28 219.928C355.725 230.543 357.67 242.036 356.964 253.521C356.258 265.006 352.921 276.175 347.21 286.167C347.431 286.609 347.675 287.051 347.932 287.469C363.753 313.635 414.487 297.087 414.487 297.087L417.537 390.455L412.985 395.932Z" fill="black"/>
<path d="M263.169 259.572C270.224 256.013 275.206 248.547 282.96 246.78C286.999 245.849 291.214 246.652 295.288 247.454L295.754 247.547C308.577 250.082 320.024 257.226 327.926 267.628C335.828 278.029 339.637 290.964 338.63 303.983L338.211 309.413C337.955 312.623 337.85 316.263 340.108 318.565C342.122 320.647 345.312 320.891 348.153 321.472C362.542 324.542 371.355 339.788 373.124 354.394C374.894 369 371.471 383.664 370.796 398.34C370.121 413.015 372.821 429.215 383.928 438.855C401.39 453.973 427.933 445.367 451.042 443.983C440.82 443.983 433.16 433.448 432.601 423.261C432.042 413.074 436.583 403.375 440.925 394.188C445.267 385.001 449.621 375.117 448.655 364.953C447.328 350.998 436.315 339.823 432.101 326.391C427.188 310.762 431.926 293.982 434.15 277.736C438.329 247.315 431.821 213.067 408.247 193.403C398.375 185.181 386.303 180.123 375.453 173.238C356.011 160.923 340.679 142.864 321.028 130.886C301.377 118.908 273.786 114.466 256.638 129.816C250.002 135.758 245.718 144.003 238.896 149.736C225.566 160.958 204.379 161.168 193.692 174.936C184.495 186.786 186.986 203.613 189.931 218.324C193.855 237.942 191.643 253.211 212.633 256.699C226.835 258.944 249.537 266.375 263.169 259.572Z" fill="#603556"/>
<path opacity="0.1" d="M436.117 434.61C419.295 436.669 402.624 437.727 390.377 427.121C379.271 417.481 376.535 401.293 377.245 386.606C377.956 371.919 381.355 357.243 379.574 342.649C377.793 328.054 368.991 312.809 354.602 309.739C351.762 309.134 348.584 308.913 346.558 306.832C344.311 304.506 344.404 300.878 344.66 297.668L345.08 292.237C346.086 279.22 342.277 266.287 334.374 255.887C326.472 245.488 315.025 238.346 302.203 235.814L301.738 235.721C297.663 234.918 293.449 234.116 289.409 235.046C281.702 236.825 276.72 244.349 269.618 247.838C255.986 254.641 233.297 247.21 219.012 244.873C198.057 241.442 200.246 226.15 196.311 206.497C194.111 195.519 192.167 183.356 195.147 172.959C194.588 173.552 194.053 174.122 193.54 174.832C184.343 186.681 186.835 203.508 189.78 218.219C193.703 237.837 191.491 253.106 212.481 256.595C226.754 258.92 249.455 266.363 263.088 259.56C270.142 256.001 275.125 248.536 282.878 246.768C286.918 245.838 291.132 246.64 295.207 247.443L295.672 247.536C308.495 250.07 319.942 257.215 327.844 267.616C335.747 278.017 339.555 290.952 338.549 303.971L338.129 309.402C337.873 312.611 337.769 316.251 340.027 318.554C342.041 320.635 345.231 320.879 348.071 321.461C362.461 324.531 371.273 339.776 373.043 354.382C374.812 368.988 371.401 383.652 370.714 398.328C370.028 413.004 372.74 429.203 383.846 438.843C401.309 453.961 427.852 445.355 450.96 443.972C444.685 444.007 439.412 440.029 436.117 434.61Z" fill="black"/>
<path d="M-36.347 473.405L35.4237 446.658C37.1204 446.025 38.9991 446.091 40.6471 446.841C42.2952 447.591 43.5778 448.964 44.2131 450.658C44.8465 452.353 44.7805 454.23 44.0296 455.876C43.2787 457.522 41.9043 458.804 40.2084 459.438L-31.5623 486.185L-46.9525 484.65L-36.347 473.405Z" fill="#5C5C8E"/>
<path opacity="0.1" d="M42.0477 448.472C42.6805 450.168 42.6129 452.046 41.8597 453.693C41.1065 455.339 39.7294 456.62 38.0313 457.252L-33.7859 484.092L-45.3344 482.929L-46.9991 484.696L-31.6089 486.231L40.1618 459.485C41.8577 458.85 43.2321 457.569 43.983 455.923C44.7339 454.276 44.7999 452.4 44.1665 450.705C43.6376 449.292 42.6551 448.094 41.3725 447.298C41.6307 447.669 41.8566 448.062 42.0477 448.472Z" fill="white"/>
<path d="M189 555.028C189 555.028 251.166 541.992 355.475 558.517L314.613 528.561L240.27 513.362L187.673 527.316L189 555.028Z" fill="white"/>
<path opacity="0.1" d="M189 555.028C189 555.028 251.166 541.992 355.475 558.517L314.613 528.561L240.27 513.362L187.673 527.316L189 555.028Z" fill="black"/>
<path d="M181.712 569.122C181.712 569.122 213.017 484.533 373.799 569.39L316.092 532.293C316.092 532.293 177.847 494.139 161.875 538.108L181.712 569.122Z" fill="white"/>
<path opacity="0.1" d="M181.712 569.064C181.712 569.064 213.017 478.626 373.799 570.692L316.092 530.456C316.092 530.456 177.801 484.824 161.794 532.584L181.712 569.064Z" fill="black"/>
<path d="M181.712 569.099C181.712 569.099 213.017 477.323 373.799 569.39L316.092 529.154C316.092 529.154 177.847 484.824 161.875 532.642L181.712 569.099Z" fill="white"/>
<path opacity="0.1" d="M181.712 569.122C181.712 569.122 213.017 467.125 373.799 570.692L316.045 525.421C316.045 525.421 177.801 478.905 161.828 532.584L181.712 569.122Z" fill="black"/>
<path d="M181.712 569.064C181.712 569.064 213.017 465.822 373.799 569.39L316.045 524.118C316.045 524.118 177.801 477.603 161.828 531.282L181.712 569.064Z" fill="white"/>
</g>
<g opacity="0.7">
<circle cx="48.5" cy="-23.5" r="88.5" fill="#3498DB"/>
<circle cx="48.5" cy="-23.5" r="88.5" fill="#3498DB"/>
<circle cx="-20.5" cy="35.5" r="59.5" fill="#3498DB"/>
<circle cx="-20.5" cy="35.5" r="59.5" fill="#3498DB"/>
<circle cx="127.5" cy="-58.5" r="59.5" fill="#3498DB"/>
<circle cx="127.5" cy="-58.5" r="59.5" fill="#3498DB"/>
</g>
<g opacity="0.7">
<circle cx="315.5" cy="630.5" r="88.5" fill="#3498DB"/>
<circle cx="315.5" cy="630.5" r="88.5" fill="#3498DB"/>
<circle cx="246.5" cy="689.5" r="59.5" fill="#3498DB"/>
<circle cx="246.5" cy="689.5" r="59.5" fill="#3498DB"/>
<circle cx="394.5" cy="595.5" r="59.5" fill="#3498DB"/>
<circle cx="394.5" cy="595.5" r="59.5" fill="#3498DB"/>
</g>
<defs>
<linearGradient id="paint0_linear_700:3341" x1="226.812" y1="542.899" x2="226.812" y2="116.105" gradientUnits="userSpaceOnUse">
<stop stop-color="#808080" stop-opacity="0.25"/>
<stop offset="0.54" stop-color="#808080" stop-opacity="0.12"/>
<stop offset="1" stop-color="#808080" stop-opacity="0.1"/>
</linearGradient>
<clipPath id="clip0_700:3341">
<rect width="1233" height="918" fill="white" transform="translate(-393 -154)"/>
</clipPath>
</defs>
</svg>
