<svg width="375" height="661" viewBox="0 0 375 661" fill="none" xmlns="http://www.w3.org/2000/svg">
<g filter="url(#filter0_dddddd_712:3342)">
<rect x="24" y="75" width="330" height="514" rx="26" fill="#FDF3F3"/>
</g>
<g clip-path="url(#clip0_712:3342)">
<path opacity="0.1" d="M345.049 154.779C345.049 154.982 345.049 155.185 345.049 155.385C345.013 158.882 344.806 162.371 344.427 165.851C344.428 165.872 344.428 165.894 344.427 165.915C344.397 166.204 344.363 166.49 344.33 166.779C344.274 167.268 344.214 167.753 344.147 168.242C343.372 174.191 342.088 180.063 340.311 185.794C337.931 193.538 334.565 200.944 330.297 207.832C328.984 209.937 327.586 211.976 326.102 213.946C325.31 214.99 324.502 216.011 323.667 217.015C323.081 217.718 322.484 218.409 321.877 219.09L321.497 219.509C318.3 223.017 314.853 226.291 311.184 229.304C305.196 234.265 298.748 238.58 292.197 242.584C291.825 242.813 291.449 243.039 291.073 243.249C291.047 243.268 291.019 243.284 290.99 243.298C282.087 248.678 272.855 253.533 263.343 257.419C252.93 261.685 242.177 264.787 231.145 266.144C215.768 268.032 200.205 266.496 184.921 263.856C172.209 261.674 159.652 258.675 147.326 254.879L145.297 254.244C144.246 253.909 143.195 253.568 142.146 253.22C135.81 251.125 129.544 248.798 123.349 246.238C107.791 239.833 92.9278 231.858 78.9914 222.435C77.217 221.242 75.4682 220.023 73.7448 218.777C71.3361 217.044 68.9563 215.26 66.6052 213.424L65.1547 212.3C59.0021 207.485 53.2376 202.195 47.9146 196.477C40.755 188.69 34.6368 179.906 30.6146 169.878C29.9802 168.302 29.3991 166.696 28.8713 165.06L28.8214 164.897C28.5552 164.066 28.309 163.235 28.0828 162.37C27.7501 161.133 27.4584 159.881 27.2078 158.613C27.1546 158.37 27.108 158.128 27.0647 157.882C26.2696 153.615 25.9184 149.277 26.0168 144.938C26.1 141.136 26.5456 137.35 27.3475 133.633C28.1684 129.779 29.4333 126.034 31.1169 122.471C32.6385 119.268 34.5771 116.279 36.8825 113.584C38.5025 111.699 40.3243 109.998 42.3154 108.51C45.9251 105.824 49.9274 103.952 54.076 102.472C56.0256 101.774 58.0018 101.162 59.988 100.593C61.3953 100.188 62.8092 99.8021 64.2165 99.4231L68.3685 98.3026C71.03 97.5778 73.6916 96.833 76.3132 96.0283C83.4594 93.8472 90.4626 91.2072 96.9401 87.2705C97.9648 86.6488 99.0095 85.9672 100.054 85.2357C101.385 84.3114 102.696 83.3072 103.993 82.2233C105.304 81.1261 106.588 79.9524 107.813 78.7089C108.002 78.5161 108.188 78.3232 108.375 78.127C109.373 77.0764 110.341 75.9758 111.239 74.8321C111.678 74.2735 112.104 73.7049 112.51 73.1264C113.072 72.3251 113.605 71.5105 114.097 70.6726C116.566 66.4832 118.089 61.8616 117.91 56.9906C117.883 56.188 117.811 55.3877 117.693 54.5933C117.261 51.6575 116.845 48.7914 116.539 45.9885C115.255 34.3945 115.797 23.8812 124.504 14.0029C135.33 1.724 152.32 -0.779657 167.787 0.20119C212.504 3.02736 253.212 28.5427 288.987 58.919C292.081 61.5435 295.137 64.2034 298.156 66.8988C298.917 67.5771 299.678 68.2598 300.441 68.947C306.097 74.0374 311.666 79.3174 316.853 84.973C317.272 85.4319 317.691 85.8907 318.104 86.3529C318.357 86.6388 318.613 86.9214 318.863 87.2107C320.479 89.0394 322.049 90.9124 323.57 92.8298C327.646 97.9199 331.245 103.374 334.323 109.122C339.035 118.143 342.225 127.879 343.765 137.939C344.343 141.592 344.724 145.273 344.906 148.968C344.962 150.055 344.999 151.145 345.019 152.233C345.019 152.582 345.019 152.927 345.019 153.277C345.052 153.782 345.052 154.274 345.049 154.779Z" fill="#3498DB"/>
<path d="M157.074 149.202L151.751 243.892L157.074 243.962L161.399 147.872L157.074 149.202Z" fill="#3F3D56"/>
<path d="M137.445 197.177H71.5722V211.474H137.445V197.177Z" fill="#3498DB"/>
<path d="M141.77 209.808V218.786H73.7247C71.316 217.052 68.9362 215.268 66.5851 213.432V209.808H141.77Z" fill="#3F3D56"/>
<path d="M155.357 189.377C155.171 190.238 154.928 191.089 154.672 191.937C153.917 194.387 153.009 196.805 152.832 199.351C152.596 202.716 153.498 206.63 151.169 209.073C150.57 209.705 149.788 210.177 149.253 210.852C149.17 210.958 149.094 211.069 149.026 211.185C148.547 211.976 148.491 212.94 148.484 213.845C148.49 215.774 148.615 217.7 148.86 219.613C149.648 226.197 151.205 232.793 149.159 239.008C148.789 240.085 148.357 241.141 147.865 242.17C146.867 244.364 145.779 246.529 145.453 248.906C145.214 250.668 145.287 252.483 145.274 254.276C144.222 253.941 143.172 253.599 142.123 253.251C135.786 251.157 129.521 248.829 123.326 246.269C123.342 246.179 123.359 246.086 123.372 245.997C123.848 243.037 123.196 240.012 122.404 237.126C120.741 231.011 118.385 224.957 116.991 218.799C116.43 216.394 116.062 213.948 115.89 211.484C115.85 210.932 115.827 210.377 115.824 209.822C115.807 209.097 115.824 208.372 115.854 207.64C115.923 206.181 115.987 204.448 114.819 203.561C114.177 203.079 113.328 202.996 112.58 202.703C111.136 202.141 110.148 200.838 109.003 199.794C108.457 199.264 107.791 198.876 107.061 198.661C106.331 198.447 105.56 198.413 104.815 198.563C97.3359 200.276 91.8398 206.616 84.8799 209.822C84.6104 209.948 84.3409 210.068 84.0681 210.181C83.1678 210.51 82.3109 210.948 81.5164 211.484C80.958 211.871 80.5531 212.442 80.3719 213.097C80.1956 213.801 80.3486 214.54 80.4351 215.264C80.5751 216.443 80.5246 217.636 80.2854 218.799C80.1952 219.249 80.0763 219.693 79.9294 220.129C79.6633 220.917 79.3073 221.688 78.9679 222.456C77.1936 221.264 75.4447 220.045 73.7214 218.799C71.3127 217.065 68.9328 215.281 66.5818 213.446L65.1545 212.299C59.0019 207.484 53.2374 202.193 47.9144 196.475C48.6231 194.48 49.6478 192.625 50.1401 190.58C50.4196 189.407 50.5227 188.186 50.9087 187.046C51.3537 185.864 51.9727 184.754 52.7451 183.754C55.5742 179.811 59.0286 176.357 62.9721 173.527C67.0941 170.574 71.855 168.207 75.5645 164.856C77.0699 163.538 78.3676 162.002 79.4137 160.297C79.477 160.194 79.5368 160.084 79.5901 159.965C79.8796 159.363 80.0802 158.722 80.1856 158.063C80.4517 156.573 80.4118 154.937 80.5449 153.508C85.0638 154.289 89.6707 154.428 94.2285 153.92C99.535 153.325 104.725 151.852 110.031 151.28C110.431 151.233 110.833 151.197 111.236 151.164C112.936 151.027 114.639 150.997 116.346 151.017C117.773 151.017 119.2 151.08 120.628 151.127L136.341 151.659C138.081 151.719 139.857 151.785 141.477 152.42C143.4 153.175 144.941 154.678 146.175 156.33C146.331 156.543 146.488 156.756 146.634 156.975C147.65 158.456 148.464 160.065 149.056 161.76C149.119 161.933 149.179 162.093 149.236 162.282C149.386 162.744 149.515 163.21 149.632 163.682C149.722 164.051 149.801 164.42 149.875 164.792C150.241 166.634 150.457 168.516 151.036 170.295C151.076 170.425 151.119 170.554 151.165 170.681C151.861 172.629 153.015 174.375 153.887 176.247C154.515 177.602 154.995 179.021 155.317 180.479C155.969 183.408 155.983 186.442 155.357 189.377Z" fill="#35323E"/>
<path d="M107.596 70.3883C106.192 69.2711 104.156 70.0891 102.513 70.8106C101.135 71.4188 99.7162 71.9309 98.2675 72.3433C97.971 72.4574 97.6495 72.4907 97.336 72.4398C96.6706 72.2802 96.3911 71.4922 95.8954 71.0134C95.0337 70.1855 93.6231 70.3816 92.5119 70.8305C91.4007 71.2794 90.3028 71.9277 89.1118 71.828C87.8409 71.7282 86.7364 70.7906 85.4522 70.7607C83.1899 70.7075 81.2902 73.4938 79.151 72.7556C77.8468 72.3068 76.8221 70.6111 75.538 71.0932C74.5399 71.4722 74.45 72.8521 73.8479 73.7531C73.1392 74.8038 71.7586 75.0997 70.5775 75.5652C66.8547 77.0348 64.3894 81.1809 64.8752 85.1509C65.1446 87.342 66.2059 89.3502 66.9079 91.4416C68.9906 97.5229 68.2753 104.382 70.9002 110.247C71.2329 109.935 71.4192 109.818 71.7419 109.509C70.912 111.229 70.7519 113.197 71.2928 115.029C71.5689 115.95 72.0181 116.807 72.3574 117.708C72.7099 118.719 72.9945 119.752 73.2091 120.801L76.1035 133.562C77.2347 138.549 78.3692 143.536 78.5654 148.643C78.6877 151.964 78.4332 155.288 77.8069 158.552C83.0501 157.684 87.8476 155.36 93.1607 155.39C95.1103 155.39 97.0432 155.722 98.9761 155.988C104.612 156.776 110.296 157.162 115.987 157.142C116.872 157.192 117.758 157.068 118.595 156.776C119.327 156.463 119.926 155.908 120.618 155.506C121.972 154.708 123.612 154.508 125.172 154.508C132.289 154.379 139.145 156.982 146.215 157.9C149.006 152.045 149.173 145.029 147.03 138.908C146.395 137.089 145.54 135.317 145.287 133.405C145.185 132.23 145.159 131.05 145.207 129.871C145.196 126.853 144.652 123.862 143.6 121.033C143.188 119.926 142.692 118.799 142.735 117.619C142.778 116.438 143.361 115.338 143.933 114.294C145.094 112.166 146.262 110.018 147.902 108.222C149.582 106.367 151.685 104.954 153.764 103.568L158.897 100.123C158.195 95.6908 157.29 91.0227 155.411 86.9463C153.531 82.87 150.72 79.1228 146.917 76.7389C145.635 75.9681 144.293 75.301 142.905 74.7439C140.962 73.926 138.939 73.2045 136.833 73.0815C134.438 72.9452 132.079 73.5869 129.714 73.9858C122.268 75.2393 113.505 75.0864 107.596 70.3883Z" fill="#3498DB"/>
<path d="M163.728 147.3L161.286 150.382L156.682 156.191L151.358 162.904L149.871 164.779H146.987L75.5611 164.862L30.8307 164.912H28.8345C28.5683 164.081 28.3221 163.25 28.0959 162.385C27.7632 161.148 27.4716 159.896 27.2209 158.628C27.1677 158.385 27.1211 158.143 27.0779 157.896L43.3066 147.293L49.4082 147.26L68.0722 147.154L78.4955 147.094H80.3985H81.5928L88.5395 147.057L141.484 146.755L144.192 146.738H145.367L148.477 146.721L160.052 146.655L162.274 145.81L162.437 145.983L163.728 147.3Z" fill="#3F3D56"/>
<path d="M162.73 145.638L162.454 145.97L160.637 148.108L156.898 152.52L149.056 161.76L79.5901 159.988L27.2077 158.658C27.1545 158.415 27.1079 158.172 27.0646 157.926C26.2695 153.659 25.9183 149.322 26.0166 144.983L31.8255 142.01L33.1562 141.325L43.5129 136.005L52.6021 131.35L76.3097 134.429L81.5596 135.111L83.9351 135.417L87.4117 135.869L87.7045 135.909L142.223 142.974L148.248 143.756L151.784 144.215L162.683 145.631L162.73 145.638Z" fill="#504F60"/>
<path d="M151.418 161.597L151.362 162.904L151.029 170.282L149.239 210.846L148.86 219.613L147.862 242.17L147.3 254.911L145.27 254.276C144.219 253.941 143.169 253.6 142.12 253.252L146.987 164.809L147.09 162.954L149.233 162.289L151.418 161.597Z" fill="#3F3D56"/>
<path d="M30.9837 161.501L30.834 164.915L30.6144 169.903C29.9801 168.327 29.399 166.721 28.8711 165.085L28.8212 164.922C28.5551 164.091 28.3089 163.26 28.0826 162.395L30.9837 161.501Z" fill="#3F3D56"/>
<path d="M117.983 111.228C126.435 111.228 133.287 101.999 133.287 90.6137C133.287 79.2287 126.435 69.9993 117.983 69.9993C109.531 69.9993 102.679 79.2287 102.679 90.6137C102.679 101.999 109.531 111.228 117.983 111.228Z" fill="#A1616A"/>
<path opacity="0.1" d="M117.983 111.228C126.435 111.228 133.287 101.999 133.287 90.6137C133.287 79.2287 126.435 69.9993 117.983 69.9993C109.531 69.9993 102.679 79.2287 102.679 90.6137C102.679 101.999 109.531 111.228 117.983 111.228Z" fill="black"/>
<path d="M120.145 99.4247C131.905 99.4247 141.438 89.8975 141.438 78.1452C141.438 66.393 131.905 56.8658 120.145 56.8658C108.386 56.8658 98.853 66.393 98.853 78.1452C98.853 89.8975 108.386 99.4247 120.145 99.4247Z" fill="#A1616A"/>
<path d="M120.568 45.3484C119.268 45.452 117.977 45.6487 116.705 45.9369C113.338 46.7549 110.427 48.5703 107.593 50.3524C106.322 51.1537 105.014 51.9883 104.226 53.1653C102.809 55.2766 103.358 57.9631 102.562 60.3072C102.15 61.5108 101.391 62.5914 100.749 63.7119C98.9827 66.7841 98.0578 70.1589 97.1496 73.5004C96.9633 74.192 96.9101 75.1296 97.6653 75.3956C98.1001 75.4859 98.5525 75.4346 98.9561 75.2493C101.342 74.4613 104.372 74.2352 106.142 75.8345C107.912 77.4338 107.762 80.2699 109.868 81.4869C112.28 82.8933 116.047 81.1943 118.236 82.8534C119.174 83.5649 119.513 84.7054 120.282 85.5632C122.072 87.5581 125.515 87.4617 128.379 87.0594C130.023 86.8266 132.039 86.6704 133.037 87.8241C133.516 88.3694 133.653 89.1175 134.208 89.6096C135.206 90.5007 137.033 90.0485 138.008 89.1341C138.982 88.2198 139.448 86.9829 140.26 85.9555C141.84 83.9606 144.618 82.8733 146.248 80.9017C147.612 79.2392 148.025 77.1578 148.398 75.1496L149.785 67.7051C150.347 64.6861 150.859 61.3878 149.159 58.7279C148.554 57.7703 147.686 56.9457 147.163 55.9549C146.814 55.2899 146.618 54.5884 146.212 53.9599C145.73 53.3053 145.155 52.725 144.505 52.2376L141.221 49.5212C140.099 48.5391 138.898 47.6495 137.632 46.8613C132.944 44.1315 125.924 44.8497 120.568 45.3484Z" fill="#464353"/>
<path d="M50.4363 100.163C49.6478 101.001 48.9192 101.905 48.0741 102.69C47.3308 103.35 46.5534 103.972 45.7453 104.552C44.4411 105.527 43.1658 106.537 41.9193 107.581C40.6189 108.608 39.4422 109.783 38.4128 111.082C36.6362 113.466 35.7945 116.432 34.131 118.895C32.6605 121.08 30.5878 122.805 29.094 124.973C28.4387 125.885 27.952 126.906 27.6568 127.989C27.4365 129.037 27.3372 130.107 27.3607 131.178C27.3308 132.933 27.3042 134.709 27.6635 136.428C28.0228 138.147 28.8113 139.836 30.162 140.963C31.4162 142.01 33.0365 142.492 34.6234 142.891C35.4418 143.094 36.3268 143.284 37.1053 142.961C37.6749 142.673 38.1694 142.257 38.5492 141.744L42.598 137.089C45.3062 133.964 48.1207 130.772 51.8369 128.943C53.0013 128.375 54.229 127.946 55.3967 127.394C60.3472 125.01 63.8471 120.129 65.2045 114.809C65.5372 113.509 65.7501 112.182 65.9663 110.856L66.5519 107.218C66.5968 107.036 66.5968 106.845 66.5519 106.663C66.4602 106.458 66.3126 106.283 66.126 106.158C63.3058 103.881 60.6653 101.391 58.2279 98.7098C57.649 98.0714 57.1067 97.197 56.438 96.6617C55.5996 95.9967 55.6629 96.0466 54.6548 96.6617C53.1041 97.6429 51.6863 98.8196 50.4363 100.163Z" fill="#A1616A"/>
<path d="M78.1329 124.368C78.0992 124.291 78.0503 124.221 77.989 124.163C77.9278 124.106 77.8554 124.061 77.7764 124.032C77.6973 124.002 77.6132 123.989 77.529 123.993C77.4448 123.998 77.3623 124.019 77.2865 124.055C77.2106 124.092 77.143 124.144 77.0877 124.207C77.0324 124.271 76.9905 124.345 76.9645 124.425C76.9385 124.505 76.929 124.59 76.9366 124.674C76.9441 124.758 76.9686 124.839 77.0084 124.913L76.6757 125.076L86.5966 145.398L88.3898 144.524L78.4689 124.189L78.1329 124.368Z" fill="#3F3D56"/>
<path opacity="0.04" d="M50.4363 100.163C49.6478 101.001 48.9192 101.905 48.0741 102.69C47.3308 103.35 46.5534 103.972 45.7453 104.552C44.4411 105.527 43.1658 106.537 41.9193 107.581C40.6189 108.608 39.4422 109.783 38.4128 111.082C36.6362 113.466 35.7945 116.432 34.131 118.895C32.6605 121.08 30.5878 122.805 29.094 124.973C28.4387 125.885 27.952 126.906 27.6568 127.989C27.4365 129.037 27.3372 130.107 27.3607 131.178C27.3308 132.933 27.3042 134.709 27.6635 136.428C28.0228 138.147 28.8113 139.836 30.162 140.963C31.4162 142.01 33.0365 142.492 34.6234 142.891C35.4418 143.094 36.3268 143.284 37.1053 142.961C37.6749 142.673 38.1694 142.257 38.5492 141.744L42.598 137.089C45.3062 133.964 48.1207 130.772 51.8369 128.943C53.0013 128.375 54.229 127.946 55.3967 127.394C60.3472 125.01 63.8471 120.129 65.2045 114.809C65.5372 113.509 65.7501 112.182 65.9663 110.856L66.5519 107.218C66.5968 107.036 66.5968 106.845 66.5519 106.663C66.4602 106.458 66.3126 106.283 66.126 106.158C63.3058 103.881 60.6653 101.391 58.2279 98.7098C57.649 98.0714 57.1067 97.197 56.438 96.6617C55.5996 95.9967 55.6629 96.0466 54.6548 96.6617C53.1041 97.6429 51.6863 98.8196 50.4363 100.163Z" fill="black"/>
<path d="M165.129 137.615C165.095 139.736 165.012 141.92 164.131 143.855C163.751 144.693 163.162 145.518 162.281 145.794C161.747 145.917 161.195 145.937 160.654 145.854C154.127 145.28 147.55 145.802 141.195 147.396C142.891 144.005 141.917 139.939 142.386 136.175C142.516 135.148 142.752 134.137 142.842 133.106C143.174 129.449 141.607 125.898 140.889 122.287C140.265 119.161 140.265 115.943 140.889 112.817C141.011 112.013 141.288 111.24 141.704 110.54C142.191 109.859 142.832 109.302 143.574 108.914C146.268 107.381 149.446 107.205 152.473 107.408C154.512 107.544 158.601 107.351 160.301 108.605C162.161 109.978 162.75 114.59 163.252 116.721C164.004 119.99 164.516 123.309 164.783 126.652C165.109 130.296 165.179 133.957 165.129 137.615Z" fill="#A1616A"/>
<path d="M45.955 144.976L57.9319 152.956L111.828 150.961L76.23 144.976H45.955Z" fill="white"/>
<path d="M61.7478 81.5732C59.7816 83.3055 58.1148 85.347 56.2517 87.1923C53.6966 89.7259 50.7922 91.8805 47.9011 94.025C48.9377 94.3146 49.8813 94.8682 50.6394 95.6318C51.3976 96.3953 51.9443 97.3425 52.2261 98.3807C52.3525 98.8694 52.4158 99.3781 52.5588 99.8569C52.8915 100.991 53.6234 101.968 54.4086 102.849C57.7821 106.65 62.503 109.463 64.4925 114.154C64.5574 114.382 64.6982 114.582 64.8917 114.719C65.0536 114.791 65.2334 114.812 65.4074 114.779C67.2073 114.59 68.5846 113.14 69.7324 111.73C72.1278 108.738 74.2071 105.433 75.3882 101.782C76.5692 98.1313 76.7589 94.0948 75.4713 90.4773C74.8292 88.6752 73.8378 87.0194 72.8531 85.3803C71.9903 83.9461 71.1297 82.5142 70.2714 81.0845C69.8222 80.3297 69.25 78.797 68.3684 78.4246C66.4654 77.6066 62.9688 80.353 61.7478 81.5732Z" fill="#3498DB"/>
<path d="M159.739 103.062L162.57 109.712C159.488 108.636 156.194 108.308 152.96 108.756C149.726 109.204 146.646 110.415 143.973 112.289C142.359 113.442 140.879 114.892 140.15 116.734C139.79 116.802 139.419 116.768 139.078 116.634C138.737 116.501 138.441 116.274 138.224 115.979C137.798 115.382 137.551 114.677 137.512 113.945C137.249 111.391 138.217 108.887 139.175 106.5C139.621 105.383 140.08 104.242 140.872 103.335C141.664 102.427 142.715 101.829 143.766 101.263C147.12 99.4096 150.633 97.8585 154.263 96.6284C155.793 96.133 157.397 96.143 158.255 97.5727C159.25 99.2784 158.96 101.247 159.739 103.062Z" fill="#3498DB"/>
<path d="M46.0248 123.015C46.7334 123.58 47.3555 124.248 48.0841 124.787C48.8546 125.322 49.6746 125.782 50.5327 126.16L53.8131 127.736C54.8296 128.264 55.8933 128.696 56.9903 129.026C58.3943 129.402 59.8681 129.439 61.2787 129.788C63.0586 130.227 64.6855 131.141 66.4388 131.67C68.192 132.198 70.2448 132.285 71.7086 131.184C72.6235 130.496 73.3155 129.359 74.45 129.189C75.1819 129.093 75.8872 129.445 76.5393 129.788L85.0762 134.273C86.2273 134.878 87.4449 135.55 88.0471 136.704C88.6493 137.857 88.2434 139.61 86.9758 139.909C86.5341 139.959 86.0898 139.985 85.6451 139.985C85.2059 140.038 84.7269 140.298 84.667 140.74C84.6647 141.015 84.7372 141.285 84.8766 141.521C85.2592 142.399 85.3723 143.45 84.9265 144.301C84.4807 145.152 83.3861 145.681 82.5111 145.298C82.6608 146.585 81.2602 147.486 80.0126 147.829C76.8653 148.69 73.5284 148.161 70.3113 147.616C69.0471 147.403 67.7629 147.184 66.6118 146.618C66.0595 146.349 65.5471 146.003 64.9882 145.754C63.4545 145.072 61.7112 145.162 60.0344 145.192C52.2794 145.328 44.5908 143.892 36.9655 142.462C35.5516 142.196 34.0977 141.914 32.8901 141.132C30.5612 139.616 29.6962 136.504 30.0788 133.751C30.4614 130.998 31.8587 128.504 33.2327 126.084L35.0126 122.948C35.2453 122.468 35.571 122.039 35.9708 121.685C38.5891 119.687 43.7824 121.213 46.0248 123.015Z" fill="#A1616A"/>
<path opacity="0.04" d="M46.0248 123.015C46.7334 123.58 47.3555 124.248 48.0841 124.787C48.8546 125.322 49.6746 125.782 50.5327 126.16L53.8131 127.736C54.8296 128.264 55.8933 128.696 56.9903 129.026C58.3943 129.402 59.8681 129.439 61.2787 129.788C63.0586 130.227 64.6855 131.141 66.4388 131.67C68.192 132.198 70.2448 132.285 71.7086 131.184C72.6235 130.496 73.3155 129.359 74.45 129.189C75.1819 129.093 75.8872 129.445 76.5393 129.788L85.0762 134.273C86.2273 134.878 87.4449 135.55 88.0471 136.704C88.6493 137.857 88.2434 139.61 86.9758 139.909C86.5341 139.959 86.0898 139.985 85.6451 139.985C85.2059 140.038 84.7269 140.298 84.667 140.74C84.6647 141.015 84.7372 141.285 84.8766 141.521C85.2592 142.399 85.3723 143.45 84.9265 144.301C84.4807 145.152 83.3861 145.681 82.5111 145.298C82.6608 146.585 81.2602 147.486 80.0126 147.829C76.8653 148.69 73.5284 148.161 70.3113 147.616C69.0471 147.403 67.7629 147.184 66.6118 146.618C66.0595 146.349 65.5471 146.003 64.9882 145.754C63.4545 145.072 61.7112 145.162 60.0344 145.192C52.2794 145.328 44.5908 143.892 36.9655 142.462C35.5516 142.196 34.0977 141.914 32.8901 141.132C30.5612 139.616 29.6962 136.504 30.0788 133.751C30.4614 130.998 31.8587 128.504 33.2327 126.084L35.0126 122.948C35.2453 122.468 35.571 122.039 35.9708 121.685C38.5891 119.687 43.7824 121.213 46.0248 123.015Z" fill="black"/>
<path d="M147.582 128.76C145.849 129.578 143.86 129.658 142.05 130.286C140.24 130.915 138.703 132.045 137.043 132.966C132.718 135.38 127.727 136.291 122.827 137.159C119.856 137.691 116.838 138.223 113.844 138.097C109.792 137.924 105.899 136.574 101.974 135.556C98.0478 134.539 93.8592 133.854 89.9701 134.998C87.9392 135.616 86.0826 136.703 84.5508 138.172C83.0191 139.641 81.8552 141.451 81.1537 143.453C80.3386 145.844 80.2255 148.42 80.3819 150.941C81.2003 151.543 82.3448 150.708 82.7906 149.794C83.2364 148.879 83.4793 147.759 84.3443 147.227C85.8447 147.736 86.2107 149.734 87.4483 150.721C88.2201 151.34 89.2515 151.503 90.2329 151.642L95.2898 152.361C96.5075 152.533 97.9214 152.65 98.8031 151.792C99.2322 151.376 99.4684 150.794 99.861 150.349C100.666 149.458 102.01 149.305 103.208 149.425C106.947 149.797 110.454 152.221 114.167 151.646C115.444 151.449 116.632 150.904 117.85 150.475C125.066 147.928 133.084 149.478 140.593 148.018C143.457 147.463 146.215 146.479 148.94 145.441C150.42 144.879 151.917 144.291 153.182 143.34C154.379 142.42 155.324 141.211 155.927 139.826C156.529 138.441 156.771 136.927 156.628 135.423C156.35 133.132 155.206 131.034 153.431 129.558C152.846 129.06 152.077 128.105 151.375 127.793C150.034 127.204 148.72 128.225 147.582 128.76Z" fill="#A1616A"/>
<g opacity="0.1">
<path opacity="0.1" d="M137.861 86.2847C137.306 85.7926 137.169 85.0445 136.69 84.4992C135.692 83.3455 133.676 83.5017 132.032 83.7345C129.168 84.1368 125.711 84.2299 123.935 82.2383C123.166 81.3804 122.827 80.2433 121.889 79.5285C119.7 77.866 115.933 79.5684 113.521 78.1619C111.415 76.935 111.552 74.0889 109.795 72.5096C108.039 70.9302 104.995 71.1364 102.609 71.9244C102.205 72.1097 101.753 72.161 101.318 72.0707C100.563 71.8047 100.616 70.8671 100.803 70.1755C101.711 66.834 102.636 63.4592 104.402 60.387C105.044 59.2665 105.803 58.1859 106.215 56.9823C106.937 54.8743 106.568 52.4903 107.516 50.4954C106.498 51.1603 105.52 51.8852 104.891 52.8228C103.474 54.9341 104.023 57.6206 103.228 59.9647C102.815 61.1683 102.057 62.2489 101.415 63.3694C99.6481 66.4416 98.7233 69.8164 97.815 73.1579C97.6287 73.8495 97.5755 74.7871 98.3307 75.0531C98.7655 75.1434 99.2179 75.0921 99.6215 74.9068C102.007 74.1188 105.038 73.8927 106.808 75.492C108.578 77.0913 108.428 79.9275 110.534 81.1444C112.946 82.5508 116.712 80.8518 118.901 82.5109C119.839 83.2224 120.179 84.3629 120.947 85.2207C122.737 87.2156 126.18 87.1192 129.045 86.7169C130.688 86.4842 132.704 86.3279 133.703 87.4816C134.182 88.0269 134.318 88.775 134.874 89.2671C135.872 90.1582 137.698 89.706 138.673 88.7917C139.298 88.1412 139.833 87.4098 140.263 86.6172C139.398 86.8798 138.477 86.8399 137.861 86.2847Z" fill="black"/>
<path opacity="0.1" d="M143.923 82.6273C143.709 82.9031 143.51 83.1906 143.327 83.4884C144.605 82.5774 145.959 81.7262 146.914 80.5658C147.162 80.2655 147.384 79.9453 147.579 79.6083C146.252 80.5592 144.868 81.4336 143.923 82.6273Z" fill="black"/>
</g>
<path d="M211.137 148.467L212.135 243.892L216.792 243.227L215.794 148.467H211.137Z" fill="#3F3D56"/>
<path d="M239.083 165.757L240.081 261.181L244.739 260.516L243.741 165.757H239.083Z" fill="#3F3D56"/>
<path d="M326.092 213.961L326.072 212.129V211.039L325.896 194.254L325.619 168.014L325.573 165.75H320.915L320.938 167.931L321.085 181.985L321.148 188.07L321.201 192.998L321.288 201.516L321.341 206.54V207.072L321.411 213.675L321.471 219.497L321.85 219.078C322.46 218.398 323.057 217.706 323.64 217.003L326.092 213.961Z" fill="#3F3D56"/>
<path d="M233.926 181.217L231.265 185.194L233.926 203.311L256.549 209.499H293.145L315.103 210.826L325.563 203.67L323.753 191.382L315.768 181.217H233.926Z" fill="#3498DB"/>
<path d="M231.265 185.194L229.934 196.239C229.934 196.239 222.947 217.894 279.172 216.568C335.397 215.241 325.749 210.822 325.749 210.822L325.417 198.008C325.417 198.008 327.376 204.073 298.801 203.252C270.226 202.43 243.574 199.777 243.574 199.777C243.574 199.777 233.593 201.543 231.265 185.194Z" fill="#3F3D56"/>
<path d="M278.108 86.1915C274.901 87.6511 272.472 90.4806 270.845 93.6094C269.218 96.7381 268.303 100.173 267.402 103.584C266.45 107.182 265.495 110.789 265.003 114.477C264.125 121.033 264.783 127.926 267.798 133.814C270.812 139.703 276.381 144.454 282.902 145.588C285.42 146.03 288.009 145.94 290.554 145.677C295.154 145.191 299.685 144.192 304.064 142.702C308.639 141.156 313.4 138.775 315.436 134.389C316.617 131.846 316.717 128.947 316.66 126.147C316.503 118.517 315.35 110.939 313.23 103.607C312.615 101.479 311.899 99.3349 310.595 97.5427C309.291 95.7506 307.508 94.4373 305.688 93.2204C297.906 87.9836 287.679 81.8425 278.108 86.1915Z" fill="#FBBEBE"/>
<path opacity="0.05" d="M278.108 86.1915C274.901 87.6511 272.472 90.4806 270.845 93.6094C269.218 96.7381 268.303 100.173 267.402 103.584C266.45 107.182 265.495 110.789 265.003 114.477C264.125 121.033 264.783 127.926 267.798 133.814C270.812 139.703 276.381 144.454 282.902 145.588C285.42 146.03 288.009 145.94 290.554 145.677C295.154 145.191 299.685 144.192 304.064 142.702C308.639 141.156 313.4 138.775 315.436 134.389C316.617 131.846 316.717 128.947 316.66 126.147C316.503 118.517 315.35 110.939 313.23 103.607C312.615 101.479 311.899 99.3349 310.595 97.5427C309.291 95.7506 307.508 94.4373 305.688 93.2204C297.906 87.9836 287.679 81.8425 278.108 86.1915Z" fill="black"/>
<path d="M274.505 128.042C275.433 129.317 276.556 130.439 277.832 131.367C280.999 133.555 285.064 133.851 288.91 133.97C291.998 134.064 295.537 133.887 297.474 131.48C298.345 130.396 298.738 129.013 299.091 127.666C301.267 119.398 302.813 110.976 303.715 102.474L312.525 102.504C316.337 118.819 316.025 135.779 315.692 152.533L315.21 176.965L309.534 176.363C296.056 174.937 282.559 173.51 269.009 173.264C261.069 173.118 253.127 173.38 245.214 174.049L257.574 137.322C259.177 132.547 260.798 127.71 261.174 122.692C261.716 115.414 259.673 107.73 262.504 100.997C262.731 100.455 263.017 99.8935 263.532 99.6109C264.048 99.3282 264.7 99.3981 265.292 99.4746C266.41 99.6242 269.827 99.4746 270.639 100.189C271.836 101.227 271.045 101.383 270.622 103.055C269.867 106.048 269.152 108.818 269.162 111.936C269.172 117.599 270.928 123.577 274.505 128.042Z" fill="#3498DB"/>
<path d="M326.092 213.961C327.576 211.993 328.974 209.955 330.287 207.847C329.622 206.424 328.89 205.034 328.308 203.581C327.416 201.353 326.904 198.992 326.398 196.648C326.225 195.85 326.053 195.052 325.882 194.254C324.019 185.573 322.269 176.769 321.907 167.968C321.873 167.236 321.852 166.505 321.843 165.773C321.843 165.667 321.843 165.564 321.843 165.441C321.843 164.639 321.843 163.838 321.843 163.04C321.883 161.045 322.01 159.034 322.239 157.032C322.283 156.64 322.332 156.247 322.386 155.855C322.386 155.769 322.406 155.685 322.419 155.599L345.042 154.774L346.945 154.705C348.253 154.658 349.637 154.585 350.714 153.843C352.528 152.6 352.741 150.05 352.711 147.859C352.6 142.321 351.972 136.805 350.834 131.384C349.976 127.307 348.752 123.141 346.004 120.009C343.748 117.436 340.481 115.564 339.306 112.362C338.871 111.172 338.761 109.865 338.195 108.728C337.63 107.591 336.695 106.756 335.813 105.878C332.71 102.806 330.136 99.2422 328.195 95.3318C326.847 92.6186 325.387 89.6262 323.627 87.751C323.54 87.6545 323.454 87.5648 323.364 87.4783C321.867 85.9987 320.153 85.3504 318.124 86.3578C317.759 86.5408 317.412 86.7567 317.086 87.0029C316.363 87.5551 315.701 88.1839 315.113 88.8781C313.063 91.2338 311.265 93.7967 309.747 96.5254C308.679 98.4465 307.763 100.447 307.005 102.51C306.407 104.14 305.913 105.806 305.525 107.498C305.239 108.751 305.012 110.018 304.833 111.288C304.167 116.063 304.167 120.93 304.261 125.765C304.36 130.207 304.557 134.659 304.959 139.084C305.059 140.155 305.17 141.224 305.292 142.293C305.536 144.405 305.838 146.511 306.197 148.61C306.34 149.411 306.486 150.213 306.649 151.011C306.689 151.223 306.733 151.436 306.776 151.646L306.796 151.735C307.235 153.59 307.576 155.467 307.817 157.358C307.844 157.595 307.864 157.831 307.877 158.066C307.933 159.153 307.924 160.242 307.85 161.328C307.774 162.611 307.654 163.891 307.594 165.175C307.594 165.401 307.594 165.624 307.571 165.84C307.554 166.488 307.571 167.136 307.571 167.785C307.638 169.336 307.823 170.88 308.123 172.403C308.684 175.237 309.654 177.974 311.001 180.529C311.127 180.769 311.257 181.005 311.387 181.237C313.074 184.25 315.203 187.013 316.763 190.095C318.109 192.869 319.115 195.795 319.757 198.81C319.979 199.805 320.19 200.802 320.39 201.802C320.699 203.398 320.975 205.007 321.258 206.616C321.284 206.776 321.314 206.949 321.344 207.095C321.72 209.23 322.116 211.354 322.625 213.439C322.921 214.653 323.254 215.85 323.643 217.027L326.092 213.961Z" fill="#464353"/>
<path d="M321.647 187.754C321.647 188.053 321.627 188.353 321.614 188.655C321.554 190.114 321.42 191.569 321.211 193.014C320.936 194.987 320.453 196.925 319.771 198.796C319.319 200.027 318.743 201.209 318.054 202.324C317.443 203.314 316.726 204.236 315.918 205.074C313.922 207.148 311.047 207.81 308.266 208.684C306.986 209.055 305.75 209.56 304.577 210.191C304.367 210.307 304.161 210.433 303.961 210.566L300.481 212.871C299.397 213.585 298.289 214.327 297.544 215.387C297.421 215.568 297.31 215.756 297.211 215.949C296.74 216.926 296.396 217.958 296.186 219.022C294.376 226.556 292.563 234.097 291.322 241.744C291.239 242.249 291.159 242.758 291.073 243.267L291.043 243.426C291.028 243.389 291.01 243.352 290.989 243.317C282.087 248.696 272.854 253.551 263.343 257.438L261.277 240.148C261.061 238.743 260.99 237.319 261.064 235.899C261.26 233.661 262.172 231.54 262.418 229.309C262.651 227.125 262.238 224.92 261.23 222.968C260.838 222.21 260.345 221.465 260.255 220.618C260.166 219.77 260.655 218.995 261.506 218.909C262.172 218.17 262.225 217.163 262.029 216.166C261.924 215.645 261.768 215.136 261.563 214.646C260.997 213.256 260.282 211.743 260.768 210.324C260.896 210.066 260.954 209.779 260.934 209.492C260.938 209.475 260.938 209.457 260.934 209.439C260.821 209.067 260.378 208.904 260.149 208.588C259.716 208 260.149 207.198 260.415 206.52C260.674 205.791 260.824 205.028 260.861 204.256C260.897 203.827 260.924 203.395 260.971 202.969C261.035 202.393 261.139 201.822 261.28 201.26C262.088 198.075 264.032 195.294 266.746 193.44C268.04 192.569 269.481 191.934 270.802 191.112C272.155 190.201 273.446 189.201 274.668 188.12C277.597 185.682 280.644 183.383 283.807 181.224C287.207 178.903 290.73 176.765 294.36 174.82C295.136 174.401 295.912 173.993 296.688 173.597C297.534 173.153 298.384 172.733 299.24 172.337C301.982 171.03 305.092 171.519 308.123 172.39C309.394 172.752 310.648 173.184 311.859 173.577C313.042 173.961 314.18 174.472 315.253 175.1C317.938 176.676 320.157 179.003 321.078 181.942C321.08 181.961 321.08 181.98 321.078 181.999C321.664 183.841 321.7 185.816 321.647 187.754Z" fill="#F86D70"/>
<path opacity="0.1" d="M321.647 187.754C321.647 188.053 321.627 188.353 321.614 188.655C321.554 190.114 321.42 191.569 321.211 193.014C320.936 194.987 320.453 196.925 319.771 198.796C319.319 200.027 318.743 201.209 318.054 202.324C317.443 203.314 316.726 204.236 315.918 205.074C313.922 207.148 311.047 207.81 308.266 208.684C306.986 209.055 305.75 209.56 304.577 210.191C304.367 210.307 304.161 210.433 303.961 210.566L300.481 212.871C299.397 213.585 298.289 214.327 297.544 215.387C297.421 215.568 297.31 215.756 297.211 215.949C296.74 216.926 296.396 217.958 296.186 219.022C294.376 226.556 292.563 234.097 291.322 241.744C291.239 242.249 291.159 242.758 291.073 243.267L291.043 243.426C291.028 243.389 291.01 243.352 290.989 243.317C282.087 248.696 272.854 253.551 263.343 257.438L261.277 240.148C261.061 238.743 260.99 237.319 261.064 235.899C261.26 233.661 262.172 231.54 262.418 229.309C262.651 227.125 262.238 224.92 261.23 222.968C260.838 222.21 260.345 221.465 260.255 220.618C260.166 219.77 260.655 218.995 261.506 218.909C262.172 218.17 262.225 217.163 262.029 216.166C261.924 215.645 261.768 215.136 261.563 214.646C260.997 213.256 260.282 211.743 260.768 210.324C260.896 210.066 260.954 209.779 260.934 209.492C260.938 209.475 260.938 209.457 260.934 209.439C260.821 209.067 260.378 208.904 260.149 208.588C259.716 208 260.149 207.198 260.415 206.52C260.674 205.791 260.824 205.028 260.861 204.256C260.897 203.827 260.924 203.395 260.971 202.969C261.035 202.393 261.139 201.822 261.28 201.26C262.088 198.075 264.032 195.294 266.746 193.44C268.04 192.569 269.481 191.934 270.802 191.112C272.155 190.201 273.446 189.201 274.668 188.12C277.597 185.682 280.644 183.383 283.807 181.224C287.207 178.903 290.73 176.765 294.36 174.82C295.136 174.401 295.912 173.993 296.688 173.597C297.534 173.153 298.384 172.733 299.24 172.337C301.982 171.03 305.092 171.519 308.123 172.39C309.394 172.752 310.648 173.184 311.859 173.577C313.042 173.961 314.18 174.472 315.253 175.1C317.938 176.676 320.157 179.003 321.078 181.942C321.08 181.961 321.08 181.98 321.078 181.999C321.664 183.841 321.7 185.816 321.647 187.754Z" fill="black"/>
<path d="M290.058 132.68C290.024 132.603 289.975 132.534 289.914 132.476C289.853 132.418 289.78 132.373 289.701 132.344C289.622 132.315 289.538 132.302 289.454 132.306C289.37 132.31 289.287 132.331 289.211 132.368C289.136 132.404 289.068 132.456 289.013 132.52C288.957 132.583 288.915 132.657 288.889 132.737C288.863 132.818 288.854 132.902 288.862 132.986C288.869 133.07 288.894 133.151 288.933 133.226L288.601 133.389L298.522 153.71L300.315 152.836L290.394 132.501L290.058 132.68Z" fill="#3F3D56"/>
<path d="M302.461 111.394C314.22 111.394 323.753 101.867 323.753 90.115C323.753 78.3627 314.22 68.8356 302.461 68.8356C290.701 68.8356 281.168 78.3627 281.168 90.115C281.168 101.867 290.701 111.394 302.461 111.394Z" fill="#FBBEBE"/>
<path d="M330.563 76.9417C330.464 75.2501 330.212 73.5709 329.811 71.9244C328.56 66.548 326.275 61.2548 322.339 57.3946C322.096 56.4508 321.807 55.5197 321.471 54.605C321.464 54.5823 321.457 54.5601 321.447 54.5385C320.273 51.3159 318.576 48.3087 316.424 45.6377C315.176 44.0883 313.559 42.5588 311.57 42.499C311.011 42.479 310.419 42.5755 309.906 42.3194C309.53 42.076 309.212 41.751 308.978 41.3685C307.993 40.1243 306.686 39.1727 305.199 38.6166C303.712 38.0605 302.102 37.921 300.541 38.2132L300.335 38.2564C300.218 38.2797 300.102 38.3063 300.002 38.3362C299.902 38.3661 299.723 38.416 299.583 38.4592C299.736 38.7119 299.886 38.9679 300.032 39.2273C300.427 39.9299 300.793 40.6481 301.13 41.3818C301.409 41.9936 301.668 42.6154 301.905 43.2471C298.498 43.6361 295.724 46.0533 293.189 48.3541L287.22 53.7671C287.209 53.7762 287.199 53.7862 287.19 53.797L287.017 53.9633C286.974 54.0065 286.931 54.0497 286.891 54.0963C286.875 54.1101 286.86 54.1257 286.847 54.1428C286.797 54.196 286.751 54.2525 286.704 54.3091C286.621 54.4138 286.547 54.525 286.481 54.6415C286.449 54.6915 286.42 54.7437 286.395 54.7978C286.386 54.8138 286.378 54.8304 286.372 54.8477C286.35 54.893 286.331 54.9397 286.315 54.9873C286.314 54.9939 286.314 55.0007 286.315 55.0073C286.306 55.0345 286.298 55.0623 286.292 55.0904C286.224 55.3244 286.244 55.5751 286.348 55.7953L290.284 55.8385H290.747C290.767 56.3638 290.783 56.8925 290.803 57.4178C290.179 57.885 289.579 58.3844 289.007 58.914C288.382 59.4914 287.797 60.1089 287.253 60.7627C283.703 65.0485 281.85 70.5845 281.664 76.157C281.664 76.3299 281.664 76.4895 281.664 76.669C281.664 77.1778 281.664 77.6865 281.664 78.1919C281.664 78.5244 281.694 78.8568 281.721 79.1893C281.722 79.6224 281.837 80.0476 282.053 80.4229C282.082 80.4648 282.113 80.5048 282.146 80.5426C282.346 80.7591 282.586 80.9352 282.852 81.0613L283.138 81.2009C283.281 81.2707 283.417 81.3372 283.55 81.4137C284.805 82.1219 285.547 83.4884 286.688 84.3662C286.754 84.4161 286.821 84.466 286.887 84.5092L287.037 84.6089L287.13 84.6688L287.257 84.7419C287.34 84.7919 287.425 84.8374 287.513 84.8782L287.672 84.9581H287.699C287.832 85.0179 287.965 85.0744 288.102 85.1243L288.291 85.1908L288.348 85.2107C288.401 85.2274 288.458 85.2473 288.514 85.2606C288.627 85.2939 288.738 85.3238 288.847 85.3504L289.18 85.4235C289.309 85.4468 289.442 85.4701 289.575 85.4867L289.772 85.5133L289.971 85.5333C290.289 85.5621 290.608 85.5787 290.93 85.5831C291.939 85.5769 292.947 85.507 293.947 85.3737L302.437 84.3762C304.364 84.1534 306.33 83.9307 308.23 84.323C309.84 84.6555 311.324 85.4202 312.887 85.9622C313.24 86.0852 313.593 86.1982 313.949 86.2947C314.078 86.3312 314.211 86.3711 314.344 86.4044L314.527 86.4509L314.953 86.554C315.106 86.5906 315.259 86.6272 315.412 86.6571C315.629 86.7036 315.842 86.7435 316.058 86.7834C316.204 86.8133 316.354 86.8366 316.504 86.8632H316.534L316.959 86.9297H317.063L317.379 86.9729C317.532 86.9962 317.685 87.0162 317.841 87.0328C318.18 87.0749 318.52 87.1115 318.859 87.1425C319.408 87.1957 319.96 87.2356 320.523 87.2689L321.075 87.3021L321.627 87.3287L323.291 87.4019H323.364H323.597C324.288 87.45 324.983 87.4143 325.666 87.2955C325.786 87.2722 325.902 87.2456 326.019 87.2123C326.135 87.1791 326.232 87.1458 326.351 87.1059C327.599 86.6272 328.51 85.5266 329.143 84.3496C329.276 84.1002 329.399 83.8509 329.512 83.5948C329.625 83.3388 329.728 83.0795 329.821 82.8201C329.938 82.4876 330.038 82.1718 330.124 81.8393C330.151 81.7495 330.174 81.6597 330.194 81.5666C330.214 81.4735 330.26 81.2907 330.287 81.151C330.37 80.7687 330.433 80.383 330.48 79.994C330.48 79.8709 330.51 79.7446 330.523 79.6216C330.553 79.2891 330.576 78.9799 330.59 78.654C330.59 78.408 330.59 78.1586 330.59 77.9092C330.586 77.6399 330.563 77.2842 330.563 76.9417ZM322.033 57.092C321.763 56.8393 321.487 56.5966 321.208 56.3672C321.519 56.5633 321.796 56.808 322.03 57.092H322.033Z" fill="#464353"/>
<path d="M261.596 88.9446C259.091 88.6354 256.606 87.5382 254.134 88.0768C252.587 88.4093 251.256 89.3702 250.018 90.3577C245.413 94.0469 241.496 98.5214 238.451 103.574C237.934 104.33 237.571 105.179 237.383 106.075C237.223 107.112 237.506 108.166 237.842 109.16C240.117 115.88 244.985 121.492 247.2 128.232C249.529 135.32 248.721 143.067 247.004 150.329C244.876 159.294 241.418 167.889 236.744 175.831C236.109 177.012 235.314 178.1 234.382 179.063C233.171 180.227 231.544 181.058 230.825 182.581C230.493 183.246 230.396 184.004 230.16 184.715C229.495 186.71 227.884 188.419 227.728 190.524C227.612 192.13 228.373 193.649 228.836 195.179C229.616 197.806 229.533 200.615 228.6 203.192C226.913 207.813 222.501 212.016 223.782 216.767C226.64 215.946 229.807 214.879 231.155 212.229C231.63 211.291 231.867 210.174 232.668 209.489C234.269 208.129 236.993 209.359 238.694 208.109C239.978 207.158 240.024 205.21 239.452 203.714C238.88 202.218 237.895 200.901 237.456 199.361C236.691 196.585 237.915 193.649 237.689 190.78C237.582 189.45 237.173 188.176 237.143 186.853C237.087 184.283 238.511 181.866 240.404 180.12C242.297 178.375 244.635 177.218 246.938 176.077L255.641 171.755C258.798 170.192 262.258 168.287 263.293 164.922C263.685 163.662 263.689 162.319 263.709 161.002C264.005 140.883 269.048 121.17 274.062 101.682C274.841 98.6633 275.632 95.631 276.79 92.7317C277.948 89.8324 280.214 87.5049 281.368 84.8118C274.671 84.0271 268.553 89.8157 261.596 88.9446Z" fill="#464353"/>
<path d="M309.574 215.161C310.342 219.816 310.811 224.571 311.177 229.302C305.189 234.263 298.741 238.579 292.191 242.582C291.818 242.811 291.442 243.037 291.066 243.247L291.036 243.406C291.021 243.369 291.003 243.332 290.983 243.297C290.475 242.199 289.586 241.323 288.481 240.83C286.026 235.676 283.573 230.522 281.122 225.369C279.791 222.586 278.46 219.776 277.795 216.774C277.795 216.711 277.765 216.644 277.755 216.581C277.249 214.254 277.133 211.836 276.797 209.479C276.627 208.129 276.322 206.799 275.889 205.509C275.489 204.362 274.94 203.248 274.455 202.128C273.856 200.745 273.353 199.345 273.33 197.852C273.33 197.376 273.36 196.854 273.127 196.455C272.878 196.112 272.571 195.815 272.219 195.578C271.78 195.188 271.447 194.694 271.251 194.141C271.056 193.588 271.004 192.994 271.101 192.416C269.105 192.519 267.98 194.663 267.179 196.482C266.45 198.261 265.492 199.937 264.331 201.469C263.484 202.564 262.408 203.459 261.177 204.093C261.067 204.146 260.957 204.199 260.844 204.246C258.066 205.469 254.822 205.037 251.812 204.485C249.18 204.003 246.459 203.404 244.343 201.769L244.116 201.589C243.49 201.069 242.931 200.472 242.453 199.814C240.68 197.393 239.895 194.204 239.459 191.169C239.419 190.883 239.379 190.597 239.342 190.311C239.04 188.166 238.956 185.996 239.093 183.834C239.133 183.302 239.189 182.77 239.259 182.241C239.306 181.909 239.356 181.55 239.412 181.204C239.411 181.194 239.411 181.184 239.412 181.174C239.499 180.626 239.592 180.074 239.685 179.512C240.018 177.626 240.35 175.691 241.348 174.069C242.005 173.059 242.834 172.173 243.797 171.449C244.156 171.166 244.526 170.897 244.898 170.638C245.504 170.219 246.126 169.82 246.758 169.444C248.348 168.493 250.018 167.68 251.748 167.017C252.161 166.857 252.58 166.707 252.999 166.565C254.629 165.985 256.383 165.846 258.083 166.162C259.59 166.38 261.112 166.469 262.634 166.428C266.537 166.352 270.456 165.607 274.352 165.125C279.761 164.46 285.573 164.38 290.291 167.12C290.517 167.249 290.737 167.386 290.956 167.529C293.285 169.052 295.161 171.186 296.675 173.57C297.008 174.072 297.297 174.588 297.583 175.11C298.243 176.308 298.839 177.54 299.37 178.8C299.684 179.419 299.854 180.101 299.866 180.795C299.858 180.927 299.84 181.058 299.813 181.187C299.723 181.66 299.543 182.118 299.48 182.597C299.27 184.409 300.811 185.922 301.386 187.648C301.759 188.772 301.719 189.975 301.928 191.159C302.231 192.821 303.046 194.318 303.778 195.814C304.935 198.222 305.924 200.707 306.739 203.252C307.318 205.024 307.814 206.822 308.25 208.638C308.392 209.221 308.526 209.805 308.652 210.39C309.015 211.999 309.311 213.575 309.574 215.161Z" fill="#F86D70"/>
<path d="M345.045 165.923V168.25L344.616 168.244L344.137 168.237L338.787 168.17L325.606 167.998L321.907 167.951L320.948 167.938L315.396 167.868L307.571 167.765L290.97 167.549L262.162 167.176L251.765 167.043L247.593 166.99L243.754 166.94L241.362 166.907L239.096 166.877L222.299 166.661L217.641 166.601L216.626 166.588L215.967 164.889L211.18 152.55L210.305 150.296L210.97 147.636L213.965 149.631L215.808 149.86L246.153 153.631L251.848 154.339L263.925 155.842L275.756 157.311L280.393 157.887L307.837 161.298L315.506 162.252L321.853 163.04L344.423 165.846L345.045 165.923Z" fill="#3F3D56"/>
<path d="M210.97 147.636L216.959 163.263L345.045 165.923V148.966L210.97 147.636Z" fill="#504F60"/>
<path d="M217.624 164.925L218.622 260.35L223.28 259.685L222.282 164.925H217.624Z" fill="#3F3D56"/>
<path d="M344.616 168.24H344.137C343.361 174.19 342.078 180.062 340.301 185.792L338.787 168.17L338.724 167.419L344.32 166.774L344.506 166.754L344.616 168.24Z" fill="#3F3D56"/>
<path d="M326.415 156.946L277.675 157.943L262.538 152.956L303.126 150.628L326.415 156.946Z" fill="white"/>
<path d="M265.276 137.555C264.759 137.753 264.301 138.079 263.945 138.502C263.666 138.961 263.497 139.477 263.449 140.012L262.631 144.889C262.506 145.336 262.528 145.81 262.694 146.243C262.907 146.652 263.526 146.864 263.835 146.525C263.795 147.48 263.878 148.497 264.434 149.275C264.99 150.053 266.154 150.462 266.939 149.92C267.062 150.121 267.228 150.292 267.424 150.422C267.619 150.553 267.841 150.639 268.074 150.675C268.307 150.711 268.544 150.696 268.771 150.631C268.997 150.566 269.206 150.453 269.384 150.299C268.912 150.459 268.879 151.18 269.215 151.546C269.591 151.878 270.071 152.069 270.572 152.088C276.419 152.911 282.379 152.162 287.839 149.917C288.355 149.704 286.997 143.35 286.861 142.698C286.528 141.166 286.362 139.294 285.068 138.263C281.974 135.796 276.477 135.31 272.708 135.603C270.133 135.798 267.614 136.459 265.276 137.555Z" fill="#FBBEBE"/>
<path opacity="0.1" d="M314.867 138.293C302.833 138.522 290.55 138.718 279.066 135.118C280.163 139.366 280.087 143.833 278.846 148.041L335.111 152.696C337.497 152.893 347.388 154.01 349.713 153.448C352.039 152.886 330.201 145.697 331.082 143.473C333.508 137.345 341.632 133.754 335.78 133.525C328.394 133.232 322.309 138.153 314.867 138.293Z" fill="black"/>
<path d="M315.199 138.958C303.166 139.187 290.883 139.383 279.398 135.783C280.496 140.031 280.42 144.498 279.179 148.706L335.444 153.361C337.829 153.558 347.72 154.691 350.046 154.113C352.371 153.534 351.826 150.685 352.707 148.46C355.133 142.333 341.965 134.419 336.113 134.19C328.727 133.897 322.642 138.818 315.199 138.958Z" fill="#464353"/>
<path d="M296.066 139.882C296.583 140.08 297.041 140.406 297.397 140.83C297.675 141.289 297.846 141.805 297.896 142.339L298.715 147.217C298.838 147.663 298.816 148.137 298.651 148.57C298.438 148.979 297.816 149.192 297.51 148.853C297.547 149.807 297.467 150.824 296.911 151.602C296.356 152.381 295.191 152.789 294.403 152.248C294.28 152.448 294.114 152.619 293.918 152.75C293.723 152.88 293.501 152.966 293.268 153.002C293.035 153.038 292.798 153.023 292.571 152.959C292.345 152.894 292.136 152.78 291.958 152.627C292.43 152.786 292.467 153.508 292.131 153.873C291.753 154.205 291.272 154.397 290.77 154.415C284.925 155.239 278.965 154.489 273.506 152.244C272.991 152.031 274.345 145.677 274.485 145.026C274.817 143.493 274.984 141.621 276.278 140.59C279.369 138.123 284.868 137.638 288.637 137.93C291.212 138.126 293.729 138.787 296.066 139.882Z" fill="#FBBEBE"/>
<path d="M216.553 129.292C215.448 130.715 214.34 132.168 213.629 133.828C212.268 136.993 212.467 140.577 212.694 144.015C212.757 145.012 212.837 146.03 213.359 146.858C213.811 147.483 214.406 147.991 215.096 148.337C217.977 149.973 221.35 150.462 224.644 150.828C229.688 151.386 234.749 151.727 239.828 151.849C252.41 152.154 265.186 151.127 277.442 153.976C275.925 151.672 275.929 148.623 276.777 145.997C277.625 143.37 279.259 141.082 280.859 138.831C275.25 137.056 269.235 139.829 263.359 139.553C257.328 139.27 251.745 135.786 245.707 135.789C244.409 135.789 243.088 135.952 241.828 135.64C240.567 135.327 239.346 134.376 239.229 133.083C240.839 133.445 242.366 132.069 243.032 130.559C243.697 129.05 243.817 127.344 244.462 125.824C246.069 122.044 250.411 120.292 253.112 117.18C253.538 116.688 253.941 116.106 253.928 115.454C253.864 114.902 253.632 114.383 253.262 113.968C251.017 110.975 247.633 109.313 244.822 106.986C243.844 106.174 241.871 103.115 240.773 102.833C238.737 102.311 237.01 105.25 235.686 106.683C229.001 113.942 222.623 121.479 216.553 129.292Z" fill="#464353"/>
<path opacity="0.07" d="M283.451 128.448C284.294 129.073 285.043 129.815 285.676 130.652C285.992 131.073 286.216 131.554 286.336 132.066C286.456 132.577 286.468 133.108 286.372 133.625C286.268 132.661 286.483 131.69 286.984 130.86C287.484 130.03 288.242 129.386 289.143 129.026L283.451 128.448Z" fill="black"/>
<g opacity="0.1">
<path opacity="0.1" d="M301.902 41.2554C301.51 40.2162 301.059 39.2004 300.551 38.2131C300.222 38.2763 299.898 38.3595 299.58 38.4625C300.15 39.41 300.665 40.3903 301.12 41.3984C301.376 41.3319 301.636 41.2854 301.902 41.2554Z" fill="black"/>
<path opacity="0.1" d="M321.205 54.3655C321.294 54.4387 321.381 54.5218 321.467 54.5983C321.461 54.5767 321.453 54.5556 321.444 54.5351C321.369 54.4797 321.289 54.4232 321.205 54.3655Z" fill="black"/>
<path opacity="0.1" d="M290.277 55.8285C290.45 55.6922 290.61 55.5492 290.796 55.4162L290.743 53.8369L287.19 53.8003C286.615 54.329 286.002 55.087 286.342 55.7952L290.277 55.8285Z" fill="black"/>
<path opacity="0.1" d="M329.123 82.4145C328.491 83.5915 327.579 84.6953 326.331 85.1708C325.37 85.5365 324.312 85.5033 323.284 85.4568C319.777 85.3138 316.211 85.1575 312.897 83.9971C311.347 83.4518 309.863 82.6904 308.24 82.3546C306.34 81.9623 304.374 82.185 302.447 82.4111L293.957 83.4086C291.452 83.7012 288.661 83.9206 286.661 82.3845C285.517 81.5068 284.778 80.1402 283.524 79.4353C282.995 79.1361 282.366 78.9433 282.023 78.4379C281.807 78.0626 281.692 77.6374 281.691 77.2043C281.664 76.8552 281.647 76.5061 281.634 76.157C281.598 77.1714 281.617 78.1869 281.691 79.1993C281.692 79.6324 281.807 80.0575 282.023 80.4328C282.356 80.9349 282.995 81.1277 283.524 81.4303C284.778 82.1352 285.52 83.5017 286.661 84.3795C288.657 85.9156 291.452 85.7094 293.957 85.4036L302.447 84.4061C304.374 84.18 306.34 83.9572 308.24 84.3496C309.85 84.682 311.334 85.4468 312.897 85.9921C316.224 87.1525 319.777 87.322 323.284 87.4517C324.312 87.4949 325.37 87.5315 326.331 87.1658C327.579 86.6903 328.491 85.5864 329.123 84.4094C330.347 82.1318 330.69 79.5484 330.56 76.945C330.489 78.8515 329.998 80.7189 329.123 82.4145Z" fill="black"/>
</g>
<path opacity="0.1" d="M301.805 43.3934L306.463 47.7157C306.463 47.7157 302.471 46.0533 301.805 43.3934Z" fill="black"/>
</g>
<defs>
<filter id="filter0_dddddd_712:3342" x="-75" y="75" width="528" height="713" filterUnits="userSpaceOnUse" color-interpolation-filters="sRGB">
<feFlood flood-opacity="0" result="BackgroundImageFix"/>
<feColorMatrix in="SourceAlpha" type="matrix" values="0 0 0 0 0 0 0 0 0 0 0 0 0 0 0 0 0 0 127 0" result="hardAlpha"/>
<feOffset dy="2.76726"/>
<feGaussianBlur stdDeviation="1.36979"/>
<feColorMatrix type="matrix" values="0 0 0 0 0 0 0 0 0 0 0 0 0 0 0 0 0 0 0.0477948 0"/>
<feBlend mode="normal" in2="BackgroundImageFix" result="effect1_dropShadow_712:3342"/>
<feColorMatrix in="SourceAlpha" type="matrix" values="0 0 0 0 0 0 0 0 0 0 0 0 0 0 0 0 0 0 127 0" result="hardAlpha"/>
<feOffset dy="6.6501"/>
<feGaussianBlur stdDeviation="3.2918"/>
<feColorMatrix type="matrix" values="0 0 0 0 0 0 0 0 0 0 0 0 0 0 0 0 0 0 0.0686618 0"/>
<feBlend mode="normal" in2="effect1_dropShadow_712:3342" result="effect2_dropShadow_712:3342"/>
<feColorMatrix in="SourceAlpha" type="matrix" values="0 0 0 0 0 0 0 0 0 0 0 0 0 0 0 0 0 0 127 0" result="hardAlpha"/>
<feOffset dy="12.5216"/>
<feGaussianBlur stdDeviation="6.19817"/>
<feColorMatrix type="matrix" values="0 0 0 0 0 0 0 0 0 0 0 0 0 0 0 0 0 0 0.085 0"/>
<feBlend mode="normal" in2="effect2_dropShadow_712:3342" result="effect3_dropShadow_712:3342"/>
<feColorMatrix in="SourceAlpha" type="matrix" values="0 0 0 0 0 0 0 0 0 0 0 0 0 0 0 0 0 0 127 0" result="hardAlpha"/>
<feOffset dy="22.3363"/>
<feGaussianBlur stdDeviation="11.0565"/>
<feColorMatrix type="matrix" values="0 0 0 0 0 0 0 0 0 0 0 0 0 0 0 0 0 0 0.101338 0"/>
<feBlend mode="normal" in2="effect3_dropShadow_712:3342" result="effect4_dropShadow_712:3342"/>
<feColorMatrix in="SourceAlpha" type="matrix" values="0 0 0 0 0 0 0 0 0 0 0 0 0 0 0 0 0 0 127 0" result="hardAlpha"/>
<feOffset dy="41.7776"/>
<feGaussianBlur stdDeviation="20.6799"/>
<feColorMatrix type="matrix" values="0 0 0 0 0 0 0 0 0 0 0 0 0 0 0 0 0 0 0.122205 0"/>
<feBlend mode="normal" in2="effect4_dropShadow_712:3342" result="effect5_dropShadow_712:3342"/>
<feColorMatrix in="SourceAlpha" type="matrix" values="0 0 0 0 0 0 0 0 0 0 0 0 0 0 0 0 0 0 127 0" result="hardAlpha"/>
<feOffset dy="100"/>
<feGaussianBlur stdDeviation="49.5"/>
<feColorMatrix type="matrix" values="0 0 0 0 0 0 0 0 0 0 0 0 0 0 0 0 0 0 0.17 0"/>
<feBlend mode="normal" in2="effect5_dropShadow_712:3342" result="effect6_dropShadow_712:3342"/>
<feBlend mode="normal" in="SourceGraphic" in2="effect6_dropShadow_712:3342" result="shape"/>
</filter>
<clipPath id="clip0_712:3342">
<rect width="327" height="267" fill="white" transform="translate(26)"/>
</clipPath>
</defs>
</svg>
