<svg width="143" height="97" viewBox="0 0 143 97" fill="none" xmlns="http://www.w3.org/2000/svg">
<g opacity="0.2">
<path d="M43.7684 44.9838H25.3612V65.6293H43.7684V44.9838Z" fill="#CCCCCC"/>
<path d="M15.9903 96.6816H6.61939L5.61536 88.6248H16.9944L15.9903 96.6816Z" fill="#E6E6E6"/>
<path d="M34.8075 90.8458L34.4913 95.1822C34.477 95.3785 34.5047 95.5756 34.5725 95.7602C34.6404 95.9449 34.7468 96.1129 34.8847 96.2529C35.0225 96.3929 35.1887 96.5018 35.3719 96.5721C35.5552 96.6425 35.7513 96.6727 35.9471 96.6608L38.1677 96.5259C38.2706 96.5196 38.3708 96.4907 38.4613 96.4412C38.5518 96.3917 38.6303 96.3228 38.6913 96.2394C38.7522 96.156 38.7941 96.0602 38.814 95.9587C38.8338 95.8573 38.8312 95.7527 38.8062 95.6524L37.5735 90.707L34.8075 90.8458Z" fill="#E6E6E6"/>
<path d="M53.3814 93.4101C55.9948 94.0233 57.8617 94.895 59.0881 96.0746C59.5248 96.4915 60.0963 96.7372 60.6985 96.7671C61.4677 96.8076 62.0966 96.7212 62.5692 96.5094H62.5693C62.6904 96.4559 62.795 96.3708 62.8722 96.263C62.9494 96.1553 62.9965 96.0288 63.0085 95.8966C63.0229 95.7623 63.0011 95.6267 62.9455 95.5037C62.89 95.3807 62.8026 95.2749 62.6925 95.1972L56.4944 90.7736L53.8616 91.83L53.2475 92.4461C53.181 92.5128 53.1308 92.594 53.1009 92.6835C53.071 92.7729 53.0622 92.8681 53.0752 92.9615C53.0882 93.0549 53.1226 93.1441 53.1757 93.2219C53.2288 93.2997 53.2992 93.3642 53.3814 93.4101H53.3814Z" fill="#E6E6E6"/>
<path d="M45.3386 22.6085L27.622 22.4439C27.6666 19.8556 28.2669 17.3139 29.5793 15.0395C30.4412 13.5457 30.4226 11.92 30.2149 10.5504C29.8943 8.43684 30.6397 6.27435 32.2961 4.92891C33.5619 3.89893 35.1594 3.36873 36.7879 3.43818L37.1319 3.45256C38.2525 3.49927 39.3434 3.8276 40.3045 4.40742C41.2656 4.98723 42.066 5.79994 42.6324 6.77092C43.208 7.80749 43.4402 9.0008 43.2953 10.1784C43.183 11.2864 43.4517 12.4057 44.0802 13.5357C45.1645 16.017 45.3993 19.192 45.3386 22.6085Z" fill="#2F2E41"/>
<path d="M57.192 91.0043L53.7149 91.9142L36.783 54.9141L37.8413 91.0043H34.3642C30.6487 74.0248 23.9406 54.4287 26.9565 48.2419L44.9466 47.1804L57.192 91.0043Z" fill="#3498DB"/>
<path d="M36.6318 16.3974C39.2201 16.3974 41.3184 14.2928 41.3184 11.6966C41.3184 9.10036 39.2201 6.99573 36.6318 6.99573C34.0436 6.99573 31.9453 9.10036 31.9453 11.6966C31.9453 14.2928 34.0436 16.3974 36.6318 16.3974Z" fill="#FFB9B9"/>
<path d="M40.7137 20.3401L33.0036 19.8852C33.7592 18.1457 34.061 16.4705 33.7595 14.8811H39.5042C39.4912 16.1015 40.0967 18.2125 40.7137 20.3401Z" fill="#FFB9B9"/>
<path d="M45.5513 48.5451L28.6195 49.7583L30.358 19.6578L33.306 18.8237L36.6318 19.5819L39.9577 17.9138L42.0742 18.6722L45.5513 48.5451Z" fill="#3498DB"/>
<path d="M31.4918 70.2295L19.9267 67.5758C23.3656 56.1372 29.561 29.9689 27.5612 20.6433L33.6083 17.9138L31.4918 70.2295Z" fill="#E6E6E6"/>
<path d="M25.8982 37.1722L21.5141 34.4426L25.253 23.4586C25.67 22.3252 26.4687 21.3736 27.5111 20.7683L28.7706 20.0369L28.0147 31.1066L25.8982 37.1722Z" fill="#E6E6E6"/>
<path d="M55.6046 67.7276C51.9544 69.8458 42.8302 71.0267 38.8239 69.5472C38.5291 59.2123 37.951 29.9785 39.8066 17.6106L46.4584 20.3401L45.8537 28.5287C42.6736 35.5335 51.9079 59.9315 55.6046 67.7276Z" fill="#E6E6E6"/>
<path d="M55.0755 35.8075L50.9936 34.4427L45.5513 28.2253L46.4584 20.3401L55.529 33.0779L55.0755 35.8075Z" fill="#E6E6E6"/>
<path d="M42.2832 41.7096C42.35 42.0036 42.5303 42.2591 42.7845 42.4199C43.0388 42.5808 43.3463 42.6339 43.6395 42.5677L47.1044 41.7807L46.6037 39.5623L43.1387 40.3492C42.8454 40.4158 42.5905 40.5966 42.4301 40.8517C42.2697 41.1069 42.2168 41.4155 42.2832 41.7096Z" fill="#FFB9B9"/>
<path d="M40.7136 10.4835C38.1106 9.40988 35.5397 9.33218 33.0036 10.3319L31.9453 6.54089H41.6207L40.7136 10.4835Z" fill="#2F2E41"/>
<path d="M45.4001 39.1435L47.3655 42.7828C50.6711 41.858 53.5359 38.9426 56.2849 35.5041L55.529 33.0779L50.8425 34.291L45.4001 39.1435Z" fill="#E6E6E6"/>
<path d="M43.964 31.6373H43.3593C43.3593 23.0583 41.5983 17.0798 39.8822 17.0798L39.731 16.4733C41.27 16.4733 42.2512 18.9615 42.8033 21.0489C43.5518 23.8787 43.964 27.6391 43.964 31.6373Z" fill="#3F3D56"/>
<path d="M30.0556 29.5142H29.4509C29.4509 21.6573 31.2241 16.7765 33.835 16.7765L33.6839 17.383C31.8779 17.383 30.0556 21.1341 30.0556 29.5142Z" fill="#3F3D56"/>
<path d="M43.6616 33.3054C44.4966 33.3054 45.1734 32.6265 45.1734 31.789C45.1734 30.9515 44.4966 30.2726 43.6616 30.2726C42.8267 30.2726 42.1498 30.9515 42.1498 31.789C42.1498 32.6265 42.8267 33.3054 43.6616 33.3054Z" fill="#3F3D56"/>
<path d="M27.6368 33.1537H27.0321C27.0321 30.9797 28.2528 29.2111 29.7533 29.2111V29.8176C28.5862 29.8176 27.6368 31.3142 27.6368 33.1537Z" fill="#3F3D56"/>
<path d="M32.4745 33.1537H31.8697C31.8697 31.3142 30.9203 29.8176 29.7533 29.8176V29.2111C31.2537 29.2111 32.4745 30.9797 32.4745 33.1537Z" fill="#3F3D56"/>
<path d="M32.1721 33.9118C32.5061 33.9118 32.7768 33.6403 32.7768 33.3053C32.7768 32.9703 32.5061 32.6987 32.1721 32.6987C31.8382 32.6987 31.5674 32.9703 31.5674 33.3053C31.5674 33.6403 31.8382 33.9118 32.1721 33.9118Z" fill="#3F3D56"/>
<path d="M27.3344 33.9118C27.6684 33.9118 27.9391 33.6403 27.9391 33.3053C27.9391 32.9703 27.6684 32.6987 27.3344 32.6987C27.0004 32.6987 26.7297 32.9703 26.7297 33.3053C26.7297 33.6403 27.0004 33.9118 27.3344 33.9118Z" fill="#3F3D56"/>
<path d="M19.7755 27.7277L23.5485 28.4034L32.1721 40.7028L27.5907 39.6215L19.7755 27.7277Z" fill="#3498DB"/>
<path d="M19.1063 27.577C19.0488 27.5779 18.9926 27.5942 18.9436 27.6244C18.8946 27.6545 18.8545 27.6973 18.8276 27.7482C18.8007 27.7992 18.7879 27.8565 18.7906 27.9141C18.7933 27.9717 18.8114 28.0275 18.843 28.0757L26.9039 40.3435C26.9489 40.4121 27.0184 40.4608 27.0981 40.4795L30.8486 41.3646C30.9118 41.3796 30.9781 41.3749 31.0386 41.3511C31.0991 41.3274 31.151 41.2858 31.1874 41.2318C31.2237 41.1778 31.2429 41.114 31.2423 41.0489C31.2417 40.9837 31.2214 40.9203 31.184 40.867L22.3336 28.2444C22.3096 28.21 22.2791 28.1807 22.2438 28.1581C22.2085 28.1356 22.1691 28.1202 22.1279 28.1129L19.1668 27.5825C19.1468 27.5789 19.1266 27.5771 19.1063 27.577Z" fill="#3F3D56"/>
<path d="M24.1348 36.3484L24.3588 38.6119L27.8941 38.2599C28.1933 38.2301 28.4685 38.0823 28.6591 37.849C28.8497 37.6157 28.9401 37.316 28.9104 37.0158C28.8807 36.7157 28.7333 36.4396 28.5007 36.2485C28.2681 36.0573 27.9693 35.9666 27.6701 35.9964L24.1348 36.3484Z" fill="#FFB9B9"/>
<path d="M21.0606 36.0862C21.0658 36.858 21.3748 37.5965 21.9204 38.1408C22.466 38.685 23.2039 38.9909 23.9734 38.9918H24.5547L24.9779 35.4543L21.4739 34.189L21.0606 36.0862Z" fill="#E6E6E6"/>
<path d="M143 0H74.0566V36.4234H143V0Z" fill="#E6E6E6"/>
<path d="M76.0647 34.4092H140.992V2.01416H76.0647V34.4092Z" fill="white"/>
<path d="M104.178 6.71399H81.0848V29.8773H104.178V6.71399Z" fill="#3F3D56"/>
<path d="M98.6554 17.2886C99.0251 17.2886 99.3247 16.988 99.3247 16.6172C99.3247 16.2464 99.0251 15.9458 98.6554 15.9458C98.2857 15.9458 97.986 16.2464 97.986 16.6172C97.986 16.988 98.2857 17.2886 98.6554 17.2886Z" fill="#3498DB"/>
<path d="M96.1453 14.9386C96.515 14.9386 96.8147 14.638 96.8147 14.2672C96.8147 13.8964 96.515 13.5958 96.1453 13.5958C95.7756 13.5958 95.476 13.8964 95.476 14.2672C95.476 14.638 95.7756 14.9386 96.1453 14.9386Z" fill="#3498DB"/>
<path d="M95.8106 16.6171C95.5643 16.6171 95.3229 16.6858 95.1132 16.8153C94.9285 16.5367 94.7114 16.2811 94.4664 16.054C94.4693 16.0182 94.4719 15.9823 94.4719 15.9457C94.4721 15.6822 94.3949 15.4245 94.2501 15.2048C94.1052 14.985 93.8991 14.8128 93.6574 14.7098C93.4156 14.6067 93.149 14.5774 92.8907 14.6253C92.6324 14.6733 92.394 14.7964 92.205 14.9794C91.8465 14.9284 91.4829 14.9252 91.1235 14.9699C91.1238 14.9594 91.1251 14.9492 91.1251 14.9386C91.1254 14.7138 91.0694 14.4926 90.9624 14.2952C90.8553 14.0977 90.7005 13.9304 90.5122 13.8086C90.3239 13.6867 90.1081 13.6142 89.8847 13.5977C89.6612 13.5812 89.4372 13.6213 89.2331 13.7142C89.0291 13.8071 88.8516 13.9498 88.7168 14.1294C88.5821 14.309 88.4944 14.5196 88.4619 14.742C88.4294 14.9644 88.453 15.1914 88.5307 15.4022C88.6083 15.6131 88.7375 15.801 88.9063 15.9487C88.6822 16.1413 88.4789 16.357 88.2998 16.5922C88.1346 16.4543 87.9387 16.3583 87.7286 16.3124C87.5186 16.2665 87.3006 16.272 87.0931 16.3284C86.8857 16.3849 86.6948 16.4906 86.5367 16.6367C86.3786 16.7828 86.2579 16.9649 86.1848 17.1677C86.1117 17.3705 86.0883 17.5879 86.1167 17.8017C86.1451 18.0154 86.2244 18.2191 86.3479 18.3956C86.4714 18.5721 86.6354 18.7162 86.8262 18.8156C87.0169 18.9151 87.2287 18.967 87.4437 18.967L87.4479 18.9668C87.4457 19.0226 87.4437 19.0785 87.4437 19.1348C87.4437 19.4727 87.4844 19.8093 87.5648 20.1374C87.1669 20.2876 86.8136 20.5367 86.538 20.8613C86.2624 21.186 86.0736 21.5755 85.9893 21.9935C85.9049 22.4114 85.9278 22.8439 86.0558 23.2505C86.1837 23.6572 86.4126 24.0245 86.7209 24.3181C87.0292 24.6116 87.4068 24.8218 87.8183 24.9289C88.2297 25.036 88.6616 25.0365 89.0733 24.9303C89.485 24.8241 89.863 24.6147 90.1719 24.3218C90.4809 24.0289 90.7105 23.6621 90.8394 23.2558C91.7706 23.4353 92.735 23.2918 93.5741 22.8488C93.6598 23.0512 93.7937 23.2293 93.964 23.3677C94.1344 23.506 94.336 23.6002 94.5511 23.6422C94.7662 23.6841 94.9883 23.6724 95.1979 23.6081C95.4075 23.5438 95.5982 23.4289 95.7531 23.2735C95.9081 23.118 96.0227 22.9268 96.0867 22.7166C96.1508 22.5063 96.1625 22.2835 96.1207 22.0677C96.0789 21.8519 95.9849 21.6497 95.847 21.4789C95.7091 21.308 95.5315 21.1737 95.3298 21.0878C95.6197 20.5359 95.7826 19.9258 95.8064 19.3025L95.8106 19.3027C96.1656 19.3027 96.5061 19.1612 96.7572 18.9094C97.0083 18.6576 97.1493 18.316 97.1493 17.9599C97.1493 17.6038 97.0083 17.2622 96.7572 17.0104C96.5061 16.7586 96.1656 16.6171 95.8106 16.6171V16.6171Z" fill="#3498DB"/>
<path d="M95.4759 6.21045H88.7824V7.21755H95.4759V6.21045Z" fill="#E6E6E6"/>
<path d="M133.629 6.71399H110.536V29.8773H133.629V6.71399Z" fill="#3F3D56"/>
<path d="M126.467 22.4248C126.633 22.4248 126.768 22.2895 126.768 22.1227C126.768 21.9558 126.633 21.8206 126.467 21.8206C126.301 21.8206 126.166 21.9558 126.166 22.1227C126.166 22.2895 126.301 22.4248 126.467 22.4248Z" fill="#3498DB"/>
<path d="M125.337 21.3673C125.504 21.3673 125.639 21.2321 125.639 21.0652C125.639 20.8983 125.504 20.7631 125.337 20.7631C125.171 20.7631 125.036 20.8983 125.036 21.0652C125.036 21.2321 125.171 21.3673 125.337 21.3673Z" fill="#3498DB"/>
<path d="M125.187 22.1227C125.076 22.1227 124.967 22.1536 124.873 22.2119C124.79 22.0865 124.692 21.9715 124.582 21.8693C124.583 21.8532 124.584 21.837 124.584 21.8205C124.585 21.702 124.55 21.586 124.485 21.4871C124.419 21.3882 124.327 21.3107 124.218 21.2644C124.109 21.218 123.989 21.2048 123.873 21.2264C123.757 21.2479 123.649 21.3034 123.564 21.3857C123.403 21.3627 123.239 21.3613 123.078 21.3814C123.078 21.3767 123.078 21.3721 123.078 21.3673C123.079 21.2662 123.053 21.1666 123.005 21.0778C122.957 20.989 122.887 20.9137 122.803 20.8588C122.718 20.804 122.621 20.7714 122.52 20.764C122.42 20.7565 122.319 20.7745 122.227 20.8164C122.135 20.8582 122.055 20.9224 121.995 21.0032C121.934 21.084 121.895 21.1788 121.88 21.2789C121.865 21.379 121.876 21.4811 121.911 21.576C121.946 21.6709 122.004 21.7554 122.08 21.8219C121.979 21.9086 121.888 22.0056 121.807 22.1115C121.733 22.0494 121.644 22.0062 121.55 21.9856C121.455 21.9649 121.357 21.9674 121.264 21.9928C121.171 22.0182 121.085 22.0658 121.014 22.1315C120.942 22.1972 120.888 22.2792 120.855 22.3704C120.822 22.4617 120.812 22.5595 120.825 22.6557C120.837 22.7519 120.873 22.8436 120.929 22.923C120.984 23.0024 121.058 23.0673 121.144 23.112C121.23 23.1568 121.325 23.1801 121.422 23.1801L121.424 23.18C121.423 23.2051 121.422 23.2303 121.422 23.2557C121.422 23.4077 121.44 23.5592 121.476 23.7068C121.297 23.7744 121.138 23.8865 121.014 24.0326C120.89 24.1787 120.805 24.354 120.767 24.542C120.729 24.7301 120.74 24.9247 120.797 25.1077C120.855 25.2907 120.958 25.456 121.096 25.5881C121.235 25.7202 121.405 25.8148 121.59 25.863C121.775 25.9112 121.97 25.9114 122.155 25.8636C122.34 25.8158 122.51 25.7216 122.649 25.5898C122.788 25.458 122.892 25.2929 122.95 25.1101C123.369 25.1909 123.803 25.1263 124.18 24.927C124.219 25.018 124.279 25.0982 124.356 25.1604C124.433 25.2227 124.523 25.2651 124.62 25.2839C124.717 25.3028 124.817 25.2975 124.911 25.2686C125.005 25.2397 125.091 25.188 125.161 25.118C125.231 25.0481 125.282 24.962 125.311 24.8674C125.34 24.7728 125.345 24.6726 125.326 24.5755C125.308 24.4783 125.265 24.3874 125.203 24.3105C125.141 24.2336 125.061 24.1731 124.97 24.1345C125.101 23.8861 125.174 23.6116 125.185 23.3311L125.187 23.3312C125.347 23.3312 125.5 23.2675 125.613 23.1542C125.726 23.0409 125.789 22.8872 125.789 22.7269C125.789 22.5667 125.726 22.413 125.613 22.2997C125.5 22.1863 125.347 22.1227 125.187 22.1227V22.1227Z" fill="#3498DB"/>
<path d="M128.83 16.6913C128.996 16.6913 129.131 16.556 129.131 16.3892C129.131 16.2223 128.996 16.087 128.83 16.087C128.664 16.087 128.529 16.2223 128.529 16.3892C128.529 16.556 128.664 16.6913 128.83 16.6913Z" fill="#3498DB"/>
<path d="M129.539 15.3141C129.705 15.3141 129.84 15.1788 129.84 15.012C129.84 14.8451 129.705 14.7098 129.539 14.7098C129.372 14.7098 129.237 14.8451 129.237 15.012C129.237 15.1788 129.372 15.3141 129.539 15.3141Z" fill="#3498DB"/>
<path d="M128.483 15.1531C128.453 15.0461 128.394 14.9496 128.312 14.8743C128.41 14.76 128.494 14.6345 128.562 14.5004C128.578 14.4973 128.594 14.494 128.61 14.4896C128.724 14.4575 128.825 14.3926 128.903 14.3028C128.98 14.2131 129.029 14.1025 129.044 13.9849C129.059 13.8673 129.039 13.7479 128.987 13.6415C128.935 13.5352 128.853 13.4466 128.75 13.3868C128.729 13.2248 128.686 13.0664 128.623 12.9158C128.627 12.9146 128.632 12.9139 128.636 12.9126C128.733 12.8853 128.822 12.834 128.894 12.7634C128.967 12.6928 129.02 12.6052 129.05 12.5085C129.079 12.4118 129.084 12.3092 129.064 12.2101C129.044 12.111 128.999 12.0186 128.934 11.9413C128.869 11.8639 128.786 11.8042 128.692 11.7676C128.598 11.7309 128.496 11.7186 128.396 11.7316C128.296 11.7445 128.201 11.7825 128.12 11.842C128.038 11.9014 127.973 11.9805 127.93 12.0718C127.819 11.998 127.701 11.936 127.578 11.8868C127.617 11.7982 127.635 11.7014 127.629 11.6045C127.623 11.5077 127.594 11.4136 127.544 11.3304C127.495 11.2471 127.426 11.1771 127.343 11.1262C127.261 11.0753 127.168 11.0451 127.071 11.0381C126.975 11.0311 126.878 11.0474 126.789 11.0859C126.7 11.1243 126.622 11.1836 126.561 11.2588C126.5 11.3339 126.457 11.4228 126.438 11.5178C126.418 11.6128 126.421 11.7111 126.448 11.8045L126.448 11.8064C126.424 11.8122 126.4 11.8181 126.375 11.825C126.229 11.8663 126.089 11.925 125.957 11.9999C125.844 11.8454 125.693 11.7223 125.519 11.6421C125.345 11.562 125.154 11.5275 124.963 11.5418C124.773 11.5561 124.589 11.6188 124.429 11.724C124.269 11.8292 124.138 11.9735 124.049 12.1432C123.96 12.313 123.915 12.5027 123.919 12.6945C123.923 12.8864 123.975 13.0741 124.071 13.24C124.167 13.4059 124.304 13.5446 124.468 13.6431C124.632 13.7416 124.819 13.7966 125.01 13.803C125.046 14.2295 125.226 14.631 125.519 14.9416C125.442 15.0035 125.382 15.0834 125.343 15.1743C125.304 15.2652 125.288 15.3642 125.296 15.4628C125.304 15.5614 125.336 15.6565 125.389 15.7397C125.443 15.8229 125.516 15.8917 125.602 15.9401C125.688 15.9885 125.784 16.0149 125.883 16.0171C125.981 16.0193 126.079 15.9972 126.167 15.9527C126.255 15.9082 126.331 15.8427 126.388 15.762C126.445 15.6812 126.481 15.5877 126.494 15.4896C126.768 15.5482 127.051 15.5445 127.323 15.4788L127.323 15.4807C127.345 15.5571 127.381 15.6286 127.43 15.691C127.479 15.7534 127.54 15.8055 127.609 15.8443C127.678 15.8832 127.754 15.908 127.832 15.9174C127.911 15.9267 127.99 15.9205 128.067 15.899C128.143 15.8775 128.214 15.8411 128.276 15.7919C128.338 15.7428 128.39 15.6819 128.429 15.6126C128.468 15.5433 128.492 15.4671 128.502 15.3883C128.511 15.3094 128.505 15.2295 128.483 15.1531V15.1531Z" fill="#3498DB"/>
<path d="M117.164 12.5856C117.33 12.5856 117.465 12.4503 117.465 12.2835C117.465 12.1166 117.33 11.9813 117.164 11.9813C116.997 11.9813 116.863 12.1166 116.863 12.2835C116.863 12.4503 116.997 12.5856 117.164 12.5856Z" fill="#3498DB"/>
<path d="M115.624 12.7094C115.79 12.7094 115.925 12.5741 115.925 12.4072C115.925 12.2404 115.79 12.1051 115.624 12.1051C115.457 12.1051 115.322 12.2404 115.322 12.4072C115.322 12.5741 115.457 12.7094 115.624 12.7094Z" fill="#3498DB"/>
<path d="M116.301 13.2318C116.226 13.3139 116.176 13.4152 116.155 13.5244C116.006 13.5015 115.856 13.4963 115.706 13.509C115.695 13.4972 115.684 13.4854 115.672 13.4743C115.585 13.3943 115.476 13.3419 115.359 13.3235C115.243 13.3051 115.123 13.3216 115.015 13.3709C114.908 13.4202 114.817 13.5002 114.755 13.6008C114.692 13.7015 114.661 13.8183 114.664 13.9368C114.538 14.0409 114.427 14.1611 114.333 14.2945C114.33 14.2912 114.327 14.2876 114.323 14.2844C114.249 14.2161 114.158 14.1677 114.06 14.1435C113.963 14.1193 113.86 14.1201 113.763 14.1459C113.665 14.1717 113.576 14.2216 113.502 14.2911C113.429 14.3606 113.374 14.4474 113.343 14.5436C113.312 14.6398 113.306 14.7423 113.324 14.8417C113.343 14.9411 113.386 15.0343 113.45 15.1126C113.514 15.1909 113.596 15.2519 113.689 15.29C113.783 15.328 113.884 15.342 113.985 15.3305C113.98 15.4637 113.99 15.5969 114.014 15.728C113.918 15.7412 113.827 15.7774 113.748 15.8335C113.669 15.8896 113.604 15.9639 113.56 16.0502C113.516 16.1365 113.493 16.2322 113.493 16.3292C113.494 16.4262 113.518 16.5217 113.563 16.6076C113.608 16.6935 113.673 16.7673 113.752 16.8226C113.831 16.878 113.923 16.9134 114.019 16.9258C114.115 16.9382 114.212 16.9272 114.303 16.8938C114.394 16.8604 114.476 16.8055 114.541 16.7339L114.542 16.7324C114.56 16.7501 114.578 16.7677 114.596 16.7848C114.708 16.8873 114.832 16.9759 114.965 17.0486C114.894 17.2268 114.87 17.4201 114.894 17.6105C114.918 17.8009 114.989 17.982 115.102 18.1369C115.215 18.2919 115.365 18.4155 115.539 18.4962C115.712 18.5769 115.904 18.612 116.094 18.5983C116.285 18.5846 116.469 18.5225 116.63 18.4179C116.79 18.3132 116.921 18.1694 117.011 17.9999C117.101 17.8305 117.146 17.6409 117.143 17.4491C117.139 17.2572 117.088 17.0694 116.992 16.9031C117.334 16.6472 117.579 16.2822 117.687 15.8681C117.78 15.9009 117.88 15.9103 117.977 15.8955C118.075 15.8807 118.167 15.8421 118.246 15.7831C118.325 15.7241 118.389 15.6465 118.431 15.5571C118.473 15.4677 118.493 15.3693 118.489 15.2705C118.484 15.1717 118.456 15.0755 118.405 14.9903C118.355 14.9052 118.285 14.8337 118.201 14.7822C118.117 14.7306 118.021 14.7006 117.923 14.6947C117.824 14.6888 117.726 14.7073 117.636 14.7485C117.541 14.4844 117.388 14.245 117.189 14.0479L117.191 14.0466C117.244 13.988 117.285 13.9194 117.312 13.8448C117.339 13.7701 117.352 13.6909 117.348 13.6115C117.344 13.5322 117.325 13.4543 117.292 13.3824C117.258 13.3104 117.211 13.2459 117.152 13.1923C117.094 13.1388 117.025 13.0973 116.951 13.0703C116.877 13.0433 116.797 13.0313 116.718 13.0349C116.639 13.0386 116.562 13.0579 116.49 13.0917C116.418 13.1254 116.354 13.1731 116.301 13.2318Z" fill="#3498DB"/>
<path d="M124.927 6.21045H118.234V7.21755H124.927V6.21045Z" fill="#E6E6E6"/>
<path d="M4.21298 85.6442C6.62594 88.8856 11.6348 89.2267 11.6348 89.2267C11.6348 89.2267 12.7314 84.3126 10.3185 81.0713C7.90551 77.8299 2.89668 77.4888 2.89668 77.4888C2.89668 77.4888 1.80003 82.4029 4.21298 85.6442Z" fill="#E6E6E6"/>
<path d="M16.5051 86.8628C14.9129 89.0016 11.6077 89.2267 11.6077 89.2267C11.6077 89.2267 10.884 85.9841 12.4763 83.8452C14.0685 81.7063 17.3737 81.4812 17.3737 81.4812C17.3737 81.4812 18.0973 84.7239 16.5051 86.8628Z" fill="#E6E6E6"/>
<path d="M86.9417 96.6239H0V97H86.9417V96.6239Z" fill="#3F3D56"/>
</g>
</svg>
