<svg width="138" height="104" viewBox="0 0 138 104" fill="none" xmlns="http://www.w3.org/2000/svg">
<g opacity="0.2" clip-path="url(#clip0_73_883)">
<path opacity="0.24" d="M46.5605 1.69546C37.7449 5.18931 32.6292 14.1667 25.9565 20.9104C22.1299 24.7869 17.6934 27.9866 13.7592 31.7507C9.82496 35.5148 6.34513 40.025 5.14931 45.3339C2.87486 55.397 9.21509 65.2256 10.8749 75.4083C11.4034 78.6606 11.4584 82.0157 12.5132 85.1341C13.3478 87.6021 14.7828 89.8332 16.4426 91.8301C23.1655 99.9752 33.9255 104.617 44.4654 103.919C51.4179 103.457 58.0977 100.839 65.0694 100.549C75.5758 100.112 86.1803 104.99 96.3711 102.405C101.071 101.209 105.232 98.5188 109.231 95.7783C117.166 90.3378 125.427 83.6658 127.271 74.2221C128.625 67.287 126.214 59.9765 127.895 53.1155C128.871 49.1339 131.165 45.597 132.375 41.6798C134.946 33.3745 132.2 23.926 126.343 17.5003C120.486 11.0746 111.89 7.52572 103.228 6.77242C97.5478 6.2774 91.8318 6.90156 86.1301 6.79156C72.2156 6.53807 60.9988 -4.02718 46.5605 1.69546Z" fill="#68E1FD"/>
<path opacity="0.24" d="M34.6669 84.4765C34.0737 84.5961 33.4424 84.7515 33.043 85.1939C32.4809 85.8348 32.6077 86.8679 33.1219 87.5494C33.6361 88.231 34.4373 88.6184 35.2313 88.9221C38.9718 90.357 43.0806 90.3689 47.0842 90.3737C55.1656 90.3737 63.5531 90.3259 70.8715 86.8942C64.9569 84.6104 59.449 84.7228 53.2929 84.2876C46.8881 83.8547 41.0741 83.166 34.6669 84.4765Z" fill="#68E1FD"/>
<path d="M83.2553 47.1322L79.4526 49.2151L74.0619 62.5281L85.4748 56.2793L83.2553 47.1322Z" fill="#68E1FD"/>
<path d="M99.65 47.1322L103.453 49.2151L108.843 62.5281L97.4306 56.2793L99.65 47.1322Z" fill="#68E1FD"/>
<path d="M83.2553 47.1322L79.4526 49.2151L74.0619 62.5281L85.4748 56.2793L83.2553 47.1322Z" fill="url(#paint0_linear_73_883)"/>
<path d="M99.65 47.1322L103.453 49.2151L108.843 62.5281L97.4306 56.2793L99.65 47.1322Z" fill="url(#paint1_linear_73_883)"/>
<path d="M54.5414 83.6156C54.4676 83.8742 54.4833 84.1501 54.5857 84.3987C54.6881 84.6474 54.8713 84.8542 55.1058 84.9859C55.3389 85.0901 55.5839 85.1656 55.8352 85.2107C56.6066 85.3998 57.3206 85.7732 57.916 86.2988C58.0129 86.3627 58.0918 86.4502 58.1454 86.5532C58.199 86.6561 58.2254 86.7711 58.2221 86.8871C58.1671 87.1525 57.8562 87.2649 57.5931 87.3271C57.04 87.4773 56.4751 87.5805 55.9046 87.6356C54.7447 87.7145 53.5967 87.3964 52.4774 87.0736C52.0517 86.9516 51.4107 86.7675 51.3127 86.2725C51.2929 85.9314 51.3089 85.5891 51.3605 85.2513L51.4346 83.5295" fill="#606161"/>
<path d="M47.9333 85.6698C47.8824 85.8013 47.8707 85.9446 47.8996 86.0825C47.9284 86.2204 47.9966 86.3471 48.0959 86.447C48.2971 86.6438 48.5269 86.8091 48.7775 86.9373C49.439 87.3386 50.0224 87.8563 50.4995 88.4654C50.7195 88.7452 50.9252 89.1111 50.7865 89.4387C50.7127 89.5906 50.5953 89.7171 50.4493 89.8022C49.9719 90.0799 49.4216 90.2066 48.8708 90.1657C47.4813 90.1298 45.4268 89.2617 45.0251 87.7575C44.8983 87.2912 45.037 86.6527 45.0561 86.172L45.1064 85.0122" fill="#606161"/>
<path d="M55.8089 57.0159L54.7279 84.0388C54.3107 84.3453 53.8103 84.5179 53.2929 84.5339C52.2956 84.5913 52.1162 84.663 51.3988 84.0101L48.2657 55.6696L55.8089 55.5117V57.0159Z" fill="#606161"/>
<path d="M55.8089 57.0159L54.7279 84.0388C54.3107 84.3453 53.8103 84.5179 53.2929 84.5339C52.2956 84.5913 52.1162 84.663 51.3988 84.0101L48.2657 55.6696L55.8089 55.5117V57.0159Z" fill="url(#paint2_linear_73_883)"/>
<path d="M51.547 59.4433L48.4379 85.7248C48.4379 85.7248 47.9883 86.1864 46.7638 86.2031C45.3742 86.2199 45.2475 86.0309 44.9366 85.3279L44.3219 55.1818L51.4609 56.399L51.547 59.4433Z" fill="#606161"/>
<path d="M51.547 59.4433L48.4379 85.7248C48.4379 85.7248 47.9883 86.1864 46.7638 86.2031C45.3742 86.2199 45.2475 86.0309 44.9366 85.3279L44.3219 55.1818L51.4609 56.399L51.547 59.4433Z" fill="url(#paint3_linear_73_883)"/>
<path d="M52.5156 56.8127C51.5414 57.1421 50.538 57.3775 49.5189 57.5157C48.1676 57.6544 46.7518 57.0016 45.6923 56.9466C44.2788 56.8748 44.2406 56.8294 44.2406 55.9087C44.2406 55.4448 55.9931 54.3328 55.9931 54.3328C55.9931 54.3328 55.9381 55.1817 55.9405 55.9661C55.9405 56.5544 55.6893 56.5209 54.6203 56.5831C53.5512 56.6453 53.3455 56.32 52.5156 56.8127Z" fill="#F2FBFF"/>
<path d="M47.8783 36.0649C47.8783 36.0649 45.9076 36.5766 44.5013 37.6001C43.6331 38.2315 44.2334 55.9088 44.2334 55.9088C44.3195 55.8944 48.0959 57.4249 51.7479 56.796C54.8571 56.2603 55.9788 54.8015 55.9788 54.8015C55.9788 54.8015 56.2586 37.8393 55.6535 37.1434C55.3856 36.8325 52.4272 35.7396 52.4272 35.7396C52.4272 35.7396 51.1357 37.6814 47.8783 36.0649Z" fill="#68E1FD"/>
<path d="M47.8783 36.0649C47.8783 36.0649 45.9076 36.5766 44.5013 37.6001C43.6331 38.2315 44.2334 55.9088 44.2334 55.9088C44.3195 55.8944 48.0959 57.4249 51.7479 56.796C54.8571 56.2603 55.9788 54.8015 55.9788 54.8015C55.9788 54.8015 56.2586 37.8393 55.6535 37.1434C55.3856 36.8325 52.4272 35.7396 52.4272 35.7396C52.4272 35.7396 51.1357 37.6814 47.8783 36.0649Z" fill="url(#paint4_linear_73_883)"/>
<path d="M48.524 32.1382L47.8783 36.0649C47.8783 36.0649 49.3132 38.1789 51.1476 37.8632C52.982 37.5476 52.5204 36.6962 52.5204 36.6962L52.2813 33.3793C52.2813 33.3793 50.6334 33.6687 48.524 32.1382Z" fill="#C8A59C"/>
<path d="M48.2968 33.5156L48.536 32.1382C50.6454 33.6687 51.7408 33.0182 51.7408 33.0182L52.2502 34.7998C51.9636 35.0997 51.5776 35.285 51.1644 35.3212C50.1408 35.3929 49.1171 34.5918 48.2968 33.5156Z" fill="#B58B81"/>
<path d="M47.9596 35.5913L46.0463 36.4905C46.0463 36.4905 49.0597 39.6758 49.9781 39.6137C49.9781 39.6137 50.8463 38.0019 51.6523 37.7484L47.9596 35.5913Z" fill="#F2FBFF"/>
<path d="M52.3913 36.139C52.2333 36.7098 51.9863 37.2521 51.6595 37.746C51.8388 37.8154 53.0083 38.6309 53.0275 39.1809C53.0275 39.1809 54.1898 36.5503 53.7091 36.1366C53.3071 35.932 52.8943 35.7491 52.4726 35.589L52.3913 36.139Z" fill="#F2FBFF"/>
<path d="M45.2786 37.1338C45.2786 37.1338 42.3201 38.0904 41.9853 42.8134C41.6791 47.1179 40.909 50.2435 41.5356 51.5181C42.3512 53.1801 48.0552 53.4552 48.0552 53.4552C48.1932 52.6279 48.1582 51.7811 47.9524 50.9681L44.8265 49.7198C44.8265 49.7198 45.3288 37.8703 45.2786 37.1338Z" fill="#68E1FD"/>
<path d="M46.8714 29.2781C47.0268 31.4567 49.263 35.3068 51.4394 35.1514C53.6158 34.996 54.2496 30.4882 54.0941 28.3096C53.9387 26.131 52.7165 24.8946 50.5354 25.0501C50.0171 25.0871 49.5112 25.2258 49.0466 25.4583C48.582 25.6908 48.1677 26.0126 47.8275 26.4052C47.4872 26.7978 47.2277 27.2536 47.0636 27.7465C46.8996 28.2395 46.8343 28.7599 46.8714 29.2781V29.2781Z" fill="#C8A59C"/>
<path d="M52.0014 53.1131C51.9488 52.697 52.1449 52.2976 52.2023 51.5898C52.2597 50.8819 51.8005 50.6978 51.1285 50.6332C50.9443 50.6117 50.8008 50.5902 50.6789 50.571C50.0523 50.7217 50.5521 51.4822 50.5856 52.0059C50.6191 52.5296 50.5019 53.2805 50.6837 53.4407C50.7602 53.5101 51.3366 53.479 52.0038 53.3929C52.0146 53.2999 52.0138 53.2059 52.0014 53.1131V53.1131Z" fill="#B58B81"/>
<path d="M52.4152 32.901C52.4152 32.901 52.3554 32.846 51.8986 32.8795C51.3562 32.9071 50.8125 32.8686 50.2795 32.7647C49.9279 32.6762 49.7605 32.7312 49.8011 33.2023C49.8418 33.6734 50.2101 34.0919 51.1333 34.1421C52.1689 34.1971 52.6041 33.8073 52.6855 33.341C52.7429 33.0038 52.53 32.8914 52.4152 32.901Z" fill="#C8A59C"/>
<path d="M48.4379 51.0422C48.8262 50.9596 49.2088 50.8526 49.5835 50.7218C50.0762 50.5353 50.2316 50.6453 50.9539 50.7218C51.6762 50.7983 52.1713 50.9824 52.1091 51.707C52.0469 52.4316 51.8388 52.8382 51.8938 53.2615C51.9488 53.6847 51.8173 54.0482 51.1763 54.0626C50.5354 54.0769 48.4379 53.4312 48.4379 53.4312" fill="#C8A59C"/>
<path d="M47.7396 50.8533H48.8373C48.8373 50.8533 49.3157 52.4364 48.6938 53.534L47.4813 53.4838C47.4813 53.4838 47.8926 51.9438 47.7396 50.8533Z" fill="#F2FBFF"/>
<path d="M48.2944 51.6209C48.4278 51.6209 48.536 51.5063 48.536 51.365C48.536 51.2237 48.4278 51.1091 48.2944 51.1091C48.161 51.1091 48.0529 51.2237 48.0529 51.365C48.0529 51.5063 48.161 51.6209 48.2944 51.6209Z" fill="#D2E8EC"/>
<path d="M52.573 30.3064C52.5371 30.1679 52.529 30.0237 52.5491 29.8821C52.5692 29.7405 52.6172 29.6043 52.6902 29.4813C52.7619 29.3577 52.8577 29.2498 52.9719 29.1639C53.0862 29.0781 53.2165 29.0161 53.3551 28.9815C53.4957 28.9382 53.6435 28.9238 53.7898 28.9392C53.9361 28.9546 54.0777 28.9995 54.2061 29.0712C54.3345 29.1429 54.4471 29.2399 54.537 29.3563C54.6269 29.4726 54.6922 29.6061 54.7291 29.7484C54.766 29.8908 54.7737 30.0391 54.7516 30.1845C54.7295 30.3299 54.6782 30.4693 54.6008 30.5944C54.5233 30.7194 54.4213 30.8274 54.3009 30.9119C54.1806 30.9964 54.0443 31.0556 53.9004 31.086H53.8621C53.5882 31.1474 53.3011 31.1006 53.0609 30.9553C52.8206 30.81 52.6458 30.5775 52.573 30.3064V30.3064ZM53.4197 29.235C53.2077 29.2902 53.0262 29.4271 52.915 29.6158C52.8038 29.8045 52.772 30.0297 52.8266 30.2418C52.8671 30.3991 52.953 30.5411 53.0737 30.6499C53.1943 30.7588 53.3443 30.8297 53.505 30.8538C53.6657 30.8779 53.83 30.8542 53.9773 30.7856C54.1246 30.717 54.2484 30.6066 54.3334 30.4681C54.4183 30.3296 54.4606 30.1691 54.455 30.0067C54.4493 29.8444 54.3959 29.6872 54.3016 29.555C54.2072 29.4227 54.0759 29.3211 53.9242 29.263C53.7725 29.2048 53.607 29.1926 53.4484 29.2278L53.4197 29.235Z" fill="#292F67"/>
<path d="M50.3512 31.1026C50.2111 31.0205 50.0887 30.9114 49.991 30.7817C49.8933 30.652 49.8223 30.5043 49.782 30.3469V30.3469C49.7214 30.1107 49.7321 29.8619 49.8128 29.6318C49.8935 29.4016 50.0406 29.2006 50.2355 29.054C50.4304 28.9074 50.6643 28.8218 50.9078 28.8081C51.1513 28.7944 51.3934 28.8531 51.6036 28.9768C51.8137 29.1006 51.9825 29.2838 52.0886 29.5034C52.1946 29.7229 52.2333 29.969 52.1996 30.2106C52.1659 30.4521 52.0614 30.6782 51.8993 30.8604C51.7372 31.0426 51.5247 31.1726 51.2887 31.2342H51.2433C50.9401 31.3061 50.6208 31.259 50.3512 31.1026V31.1026ZM50.7339 29.0962C50.6089 29.1279 50.4916 29.1842 50.3886 29.2617C50.2856 29.3392 50.1991 29.4364 50.1341 29.5477C50.0691 29.659 50.0269 29.7822 50.01 29.9099C49.993 30.0377 50.0017 30.1676 50.0355 30.2919C50.0835 30.4767 50.1848 30.6432 50.3268 30.7709C50.4688 30.8985 50.6451 30.9815 50.8339 31.0097C51.0227 31.0379 51.2156 31.01 51.3887 30.9293C51.5617 30.8487 51.7072 30.719 51.8071 30.5564C51.907 30.3937 51.9569 30.2053 51.9505 30.0145C51.9441 29.8237 51.8817 29.639 51.7712 29.4834C51.6606 29.3278 51.5067 29.2081 51.3287 29.1393C51.1506 29.0704 50.9563 29.0555 50.7698 29.0962H50.7339Z" fill="#292F67"/>
<path d="M52.5443 30.048L52.7954 29.9739C52.7794 29.9233 52.7522 29.8771 52.7157 29.8385C52.6793 29.8 52.6346 29.7703 52.585 29.7515C52.4742 29.7211 52.3581 29.7154 52.2448 29.7348C52.1316 29.7542 52.024 29.7983 51.9297 29.8639L52.054 30.103C52.31 29.9643 52.4343 29.9786 52.4845 30.0002C52.5099 30.0078 52.5313 30.025 52.5443 30.048Z" fill="#292F67"/>
<path d="M49.8849 29.9787L49.8753 29.718L48.3829 29.7611L48.3949 30.0217L49.8849 29.9787Z" fill="#292F67"/>
<path d="M55.6535 37.1433C55.6535 37.1433 57.3061 41.7492 58.3345 45.4822C59.3629 49.2151 62.4003 45.5467 62.4003 45.5467C62.4003 45.5467 64.0744 45.4822 64.1366 46.5033C64.1988 47.5244 63.18 50.8078 60.2765 50.8796C57.3731 50.9513 54.2974 47.1466 54.2974 47.1466L55.6535 37.1433Z" fill="#68E1FD"/>
<path d="M60.0995 53.1466L54.1946 53.0605C54.0416 53.0692 53.8888 53.0418 53.7483 52.9806C53.6079 52.9193 53.4838 52.826 53.3861 52.708C53.2884 52.59 53.2197 52.4507 53.1857 52.3014C53.1516 52.152 53.1531 51.9968 53.1901 51.8481L55.4454 41.4096C55.5334 41.0735 55.7301 40.776 56.0047 40.5632C56.2794 40.3504 56.6166 40.2343 56.9641 40.233L62.869 40.3191C63.0221 40.31 63.1752 40.337 63.3159 40.3981C63.4566 40.4592 63.5809 40.5525 63.6788 40.6706C63.7766 40.7887 63.8452 40.9282 63.8791 41.0778C63.9129 41.2274 63.911 41.3829 63.8735 41.5316L61.6206 51.9701C61.5321 52.3063 61.335 52.604 61.0599 52.8167C60.7849 53.0295 60.4473 53.1454 60.0995 53.1466V53.1466Z" fill="#68E1FD"/>
<path d="M60.0995 53.1466L54.1946 53.0605C54.0416 53.0692 53.8888 53.0418 53.7483 52.9806C53.6079 52.9193 53.4838 52.826 53.3861 52.708C53.2884 52.59 53.2197 52.4507 53.1857 52.3014C53.1516 52.152 53.1531 51.9968 53.1901 51.8481L55.4454 41.4096C55.5334 41.0735 55.7301 40.776 56.0047 40.5632C56.2794 40.3504 56.6166 40.2343 56.9641 40.233L62.869 40.3191C63.0221 40.31 63.1752 40.337 63.3159 40.3981C63.4566 40.4592 63.5809 40.5525 63.6788 40.6706C63.7766 40.7887 63.8452 40.9282 63.8791 41.0778C63.9129 41.2274 63.911 41.3829 63.8735 41.5316L61.6206 51.9701C61.5321 52.3063 61.335 52.604 61.0599 52.8167C60.7849 53.0295 60.4473 53.1454 60.0995 53.1466V53.1466Z" fill="url(#paint5_linear_73_883)"/>
<path d="M60.1402 53.2089L54.4911 53.1252C54.345 53.1325 54.1992 53.1055 54.0654 53.0463C53.9316 52.9872 53.8135 52.8976 53.7205 52.7846C53.6275 52.6717 53.5623 52.5385 53.53 52.3958C53.4977 52.2532 53.4992 52.1049 53.5345 51.9629L55.687 41.974C55.7721 41.6523 55.961 41.3676 56.2243 41.164C56.4876 40.9604 56.8106 40.8492 57.1435 40.8477L62.7949 40.9314C62.9412 40.9235 63.0872 40.9502 63.2213 41.0092C63.3554 41.0681 63.4737 41.1578 63.5668 41.2709C63.6599 41.3839 63.7251 41.5173 63.7572 41.6602C63.7893 41.8031 63.7874 41.9516 63.7516 42.0936L61.5991 52.0825C61.5138 52.4046 61.3246 52.6896 61.0608 52.8933C60.797 53.0969 60.4734 53.2078 60.1402 53.2089V53.2089Z" fill="#68E1FD"/>
<path d="M63.9453 46.0274C63.9409 45.796 63.8913 45.5678 63.7994 45.3554C63.7363 45.1396 63.6096 44.948 63.4359 44.8054C63.2435 44.6971 63.025 44.6441 62.8045 44.6523C62.582 44.6523 62.3572 44.6523 62.1348 44.6523C61.8895 44.6483 61.6458 44.6921 61.4173 44.7815C61.0906 44.9593 60.8366 45.2462 60.6998 45.5921C60.3937 46.245 60.3291 47.0748 60.7668 47.6464C60.96 47.8733 61.1876 48.0686 61.4412 48.2251C61.7163 48.414 62.0391 48.6125 62.362 48.524C62.5157 48.47 62.656 48.3835 62.7734 48.2705L63.2517 47.8735C63.4149 47.7522 63.553 47.6003 63.6583 47.4264C63.746 47.2017 63.7883 46.962 63.7826 46.7209C63.8484 46.4926 63.9027 46.2611 63.9453 46.0274V46.0274Z" fill="#C8A59C"/>
<path d="M53.8024 25.4852C53.4955 24.7575 53.0467 24.0982 52.4822 23.5458L52.4367 23.9834C51.5404 23.5741 50.5729 23.3434 49.5883 23.3043L49.6744 23.6104C49.3163 23.5209 48.9726 23.3816 48.6532 23.1967L48.3447 23.7467C48.1351 23.5804 47.9052 23.4414 47.6606 23.333L47.2612 24.7678C47.1484 24.7074 47.0439 24.6327 46.9503 24.5454C46.8451 24.4737 46.6753 24.4521 46.6083 24.5598C46.5825 24.6115 46.5717 24.6695 46.5772 24.7272V25.3441L45.9889 25.1337C45.9638 25.122 45.9365 25.1159 45.9088 25.1159C45.8811 25.1159 45.8537 25.122 45.8287 25.1337C45.8091 25.1499 45.7931 25.1699 45.7816 25.1926C45.7701 25.2152 45.7633 25.2399 45.7617 25.2652C45.3336 27.4031 46.24 30.1844 47.6487 31.8464C47.7029 31.5903 47.6761 31.3237 47.5722 31.0835C47.455 30.7774 47.0938 30.6052 47.156 30.2824C47.1725 30.1192 47.2488 29.9678 47.3703 29.8574C47.4917 29.7471 47.6496 29.6855 47.8137 29.6845C48.2705 29.7372 48.1007 29.9046 48.426 30.2298C48.5408 29.5961 48.2657 28.5558 48.4642 27.946C48.53 27.7855 48.6324 27.6427 48.7632 27.5288C48.894 27.415 49.0496 27.3333 49.2176 27.2903C49.3856 27.2473 49.5614 27.2442 49.7308 27.2813C49.9002 27.3183 50.0586 27.3944 50.1934 27.5036C50.179 27.097 50.6574 26.8364 51.0639 26.8507C51.4705 26.8651 51.9321 27.0205 52.3626 27.0731C52.7285 27.1162 53.104 27.3721 53.4556 27.3673C54.3596 27.3529 53.9961 25.9946 53.8024 25.4852Z" fill="#606161"/>
<path opacity="0.24" d="M91.253 82.2238C94.8893 82.2238 97.8372 81.8651 97.8372 81.4227C97.8372 80.9803 94.8893 80.6216 91.253 80.6216C87.6167 80.6216 84.6688 80.9803 84.6688 81.4227C84.6688 81.8651 87.6167 82.2238 91.253 82.2238Z" fill="#68E1FD"/>
<path opacity="0.24" d="M90.8536 87.4491C96.7512 87.4491 101.532 86.8678 101.532 86.1506C101.532 85.4334 96.7512 84.8521 90.8536 84.8521C84.9559 84.8521 80.1749 85.4334 80.1749 86.1506C80.1749 86.8678 84.9559 87.4491 90.8536 87.4491Z" fill="#68E1FD"/>
<path d="M91.0521 78.2542C100.29 78.2542 107.779 77.343 107.779 76.2191C107.779 75.0951 100.29 74.184 91.0521 74.184C81.814 74.184 74.325 75.0951 74.325 76.2191C74.325 77.343 81.814 78.2542 91.0521 78.2542Z" stroke="white" stroke-width="4.36952" stroke-miterlimit="10"/>
<path d="M91.4252 13.3322C91.4252 13.3322 73.4521 23.8854 84.0111 56.7984H98.6623C98.6623 56.7984 109.539 30.6077 91.4252 13.3322Z" fill="#68E1FD"/>
<path d="M91.4252 13.3322C91.4252 13.3322 73.4521 23.8854 84.0111 56.7984H98.6623C98.6623 56.7984 109.539 30.6077 91.4252 13.3322Z" fill="url(#paint6_linear_73_883)"/>
<path d="M91.1191 39.6639C93.8361 39.6639 96.0386 37.4616 96.0386 34.7448C96.0386 32.028 93.8361 29.8257 91.1191 29.8257C88.402 29.8257 86.1995 32.028 86.1995 34.7448C86.1995 37.4616 88.402 39.6639 91.1191 39.6639Z" fill="#68E1FD"/>
<path d="M85.2404 68.3609L87.0485 65.0679C87.3683 69.1101 88.3609 73.0705 89.9854 76.7858C92.9056 73.8802 93.6374 69.4944 94.2019 65.4146C95.031 67.4171 95.7716 69.4521 96.4237 71.5199C97.749 68.8915 98.1814 65.9027 97.6554 63.0065L98.7795 64.9196C99.5477 62.1444 99.2162 59.1799 97.8539 56.6429C95.5324 56.8151 93.2061 56.9291 90.8751 56.9849C89.759 57.0136 88.6381 57.028 87.5125 57.028C86.7734 57.028 85.4126 56.7386 84.7382 57.1141C83.4419 57.8315 83.9154 60.9236 83.9968 62.1934C84.0639 63.2434 84.2022 64.2877 84.4105 65.319C84.5086 65.8044 85.4246 68.0261 85.2404 68.3609Z" fill="#68E1FD"/>
<path d="M85.2404 68.3609L87.0485 65.0679C87.3683 69.1101 88.3609 73.0705 89.9854 76.7858C92.9056 73.8802 93.6374 69.4944 94.2019 65.4146C95.031 67.4171 95.7716 69.4521 96.4237 71.5199C97.749 68.8915 98.1814 65.9027 97.6554 63.0065L98.7795 64.9196C99.5477 62.1444 99.2162 59.1799 97.8539 56.6429C95.5324 56.8151 93.2061 56.9291 90.8751 56.9849C89.759 57.0136 88.6381 57.028 87.5125 57.028C86.7734 57.028 85.4126 56.7386 84.7382 57.1141C83.4419 57.8315 83.9154 60.9236 83.9968 62.1934C84.0639 63.2434 84.2022 64.2877 84.4105 65.319C84.5086 65.8044 85.4246 68.0261 85.2404 68.3609Z" fill="url(#paint7_linear_73_883)"/>
<path d="M87.7277 64.226L88.8279 62.2172C89.0243 64.6822 89.6306 67.0972 90.6216 69.3628C92.401 67.5907 92.8482 64.9147 93.1926 62.4277C93.6996 63.6505 94.1516 64.8924 94.5487 66.1535C95.3567 64.5497 95.6203 62.7263 95.2996 60.9594L95.9836 62.1311C96.4561 60.4348 96.2538 58.6215 95.4192 57.0709C94.0034 57.1761 92.5851 57.2463 91.1645 57.2814C90.4805 57.2973 89.7965 57.3053 89.1125 57.3053C88.6628 57.3053 87.8329 57.1283 87.4216 57.3579C86.6299 57.8003 86.9169 59.6823 86.9672 60.4667C87.0093 61.1093 87.094 61.7484 87.2207 62.3799C87.2805 62.6668 87.8377 64.0228 87.7277 64.226Z" fill="url(#paint8_linear_73_883)"/>
<path d="M87.7516 16.6921C87.7516 16.6921 91.4778 17.9476 94.508 16.6921L91.4993 13.4206C91.4276 13.3426 91.3399 13.281 91.2422 13.2398C91.1445 13.1987 91.0392 13.179 90.9332 13.1822C90.8273 13.1854 90.7233 13.2113 90.6282 13.2582C90.5332 13.3051 90.4494 13.3719 90.3824 13.4541L87.7516 16.6921Z" fill="#68E1FD"/>
<path d="M87.7516 16.692C87.7516 16.692 91.4778 17.9475 94.508 16.692L91.4634 13.3823C91.3961 13.3092 91.3139 13.2514 91.2223 13.2128C91.1307 13.1742 91.0319 13.1558 90.9326 13.1588C90.8332 13.1617 90.7357 13.186 90.6466 13.2299C90.5574 13.2738 90.4788 13.3364 90.4159 13.4134L87.7516 16.692Z" fill="url(#paint9_linear_73_883)"/>
<path d="M97.4927 68.7889C99.9992 69.028 101.597 69.4178 101.597 69.8435C101.597 70.5992 96.5744 71.2114 90.3561 71.2114C84.1379 71.2114 79.1154 70.5992 79.1154 69.8435C79.1154 69.2193 82.5689 68.6908 87.2829 68.5282" stroke="white" stroke-width="2.93412" stroke-miterlimit="10"/>
</g>
<defs>
<linearGradient id="paint0_linear_73_883" x1="81.3755" y1="43.6025" x2="76.1508" y2="95.0107" gradientUnits="userSpaceOnUse">
<stop stop-color="#010101" stop-opacity="0"/>
<stop offset="0.95" stop-color="#010101"/>
</linearGradient>
<linearGradient id="paint1_linear_73_883" x1="4861.98" y1="3005.45" x2="4412.15" y2="6287.62" gradientUnits="userSpaceOnUse">
<stop stop-color="#010101" stop-opacity="0"/>
<stop offset="0.95" stop-color="#010101"/>
</linearGradient>
<linearGradient id="paint2_linear_73_883" x1="1895" y1="9918.58" x2="55.5304" y2="9420.57" gradientUnits="userSpaceOnUse">
<stop stop-color="#010101" stop-opacity="0"/>
<stop offset="0.95" stop-color="#010101"/>
</linearGradient>
<linearGradient id="paint3_linear_73_883" x1="1685.87" y1="10225.2" x2="663.283" y2="10143.8" gradientUnits="userSpaceOnUse">
<stop stop-color="#010101" stop-opacity="0"/>
<stop offset="0.95" stop-color="#010101"/>
</linearGradient>
<linearGradient id="paint4_linear_73_883" x1="2495.58" y1="4277.57" x2="1938.76" y2="8333.98" gradientUnits="userSpaceOnUse">
<stop stop-color="#010101" stop-opacity="0"/>
<stop offset="0.95" stop-color="#010101"/>
</linearGradient>
<linearGradient id="paint5_linear_73_883" x1="2594.38" y1="2221.21" x2="2683.44" y2="4290.73" gradientUnits="userSpaceOnUse">
<stop stop-color="#010101" stop-opacity="0"/>
<stop offset="0.95" stop-color="#010101"/>
</linearGradient>
<linearGradient id="paint6_linear_73_883" x1="78.2401" y1="35.9358" x2="98.4088" y2="34.8905" gradientUnits="userSpaceOnUse">
<stop stop-color="white" stop-opacity="0"/>
<stop offset="0.95" stop-color="white"/>
</linearGradient>
<linearGradient id="paint7_linear_73_883" x1="5828.71" y1="6650.81" x2="5967.48" y2="3115.2" gradientUnits="userSpaceOnUse">
<stop stop-color="#010101" stop-opacity="0"/>
<stop offset="0.95" stop-color="#010101"/>
</linearGradient>
<linearGradient id="paint8_linear_73_883" x1="3599.11" y1="3762.32" x2="3650.58" y2="2446.34" gradientUnits="userSpaceOnUse">
<stop stop-color="#010101" stop-opacity="0"/>
<stop offset="0.95" stop-color="#010101"/>
</linearGradient>
<linearGradient id="paint9_linear_73_883" x1="2668.01" y1="359.015" x2="2409.58" y2="284.792" gradientUnits="userSpaceOnUse">
<stop stop-color="#010101" stop-opacity="0"/>
<stop offset="0.95" stop-color="#010101"/>
</linearGradient>
<clipPath id="clip0_73_883">
<rect width="138" height="104" fill="white"/>
</clipPath>
</defs>
</svg>
