<svg width="156" height="130" viewBox="0 0 156 130" fill="none" xmlns="http://www.w3.org/2000/svg">
<g opacity="0.2" clip-path="url(#clip0_76_874)">
<path d="M9.74414 123.011C9.74414 123.011 2.76777 122.59 3.58968 127.482C3.58968 127.482 3.42464 128.346 4.20859 128.739C4.20859 128.739 4.2218 128.375 4.92488 128.499C5.17506 128.541 5.42937 128.554 5.68243 128.536C6.02501 128.512 6.35063 128.378 6.60997 128.152C6.60997 128.152 8.57069 127.342 9.33484 124.136C9.33484 124.136 9.89928 123.436 9.87618 123.256L8.69942 123.751C8.69942 123.751 9.10047 124.601 8.78524 125.306C8.78524 125.306 8.74563 123.782 8.51952 123.82C8.47331 123.829 7.90886 124.116 7.90886 124.116C7.90886 124.116 8.60039 125.602 8.07391 126.672C8.07391 126.672 8.27196 124.847 7.68771 124.221L6.86249 124.707C6.86249 124.707 7.67285 126.236 7.12326 127.482C7.12326 127.482 7.26354 125.569 6.68919 124.824L5.93825 125.41C5.93825 125.41 6.69745 126.918 6.23368 127.951C6.23368 127.951 6.17426 125.724 5.77485 125.555C5.77485 125.555 5.11468 126.135 5.01731 126.381C5.01731 126.381 5.53884 127.474 5.21536 128.052C5.21536 128.052 5.01731 126.566 4.85556 126.566C4.85556 126.566 4.19539 127.548 4.13267 128.217C4.13267 128.217 4.16073 127.213 4.69547 126.465C4.31801 126.536 3.96969 126.716 3.69366 126.984C3.69366 126.984 3.79599 126.289 4.85721 126.227C4.85721 126.227 5.39856 125.483 5.54379 125.437C5.54379 125.437 4.48752 125.349 3.84715 125.633C3.84715 125.633 4.40995 124.973 5.73689 125.275L6.47959 124.669C6.47959 124.669 5.08827 124.479 4.49907 124.689C4.49907 124.689 5.1774 124.109 6.67929 124.532L7.48635 124.05C7.48635 124.05 6.29969 123.794 5.59331 123.885C5.59331 123.885 6.3393 123.482 7.72236 123.918L8.30001 123.658C8.30001 123.658 7.43024 123.493 7.17607 123.46C6.9219 123.427 6.9087 123.363 6.9087 123.363C7.45911 123.271 8.02419 123.334 8.54098 123.545C8.54098 123.545 9.7656 123.089 9.74414 123.011Z" fill="#3498DB"/>
<path opacity="0.1" d="M4.93809 130C7.66533 130 9.87619 129.626 9.87619 129.165C9.87619 128.703 7.66533 128.329 4.93809 128.329C2.21086 128.329 0 128.703 0 129.165C0 129.626 2.21086 130 4.93809 130Z" fill="#3498DB"/>
<path d="M154.835 119.409C154.835 119.409 150.085 119.123 150.653 122.455C150.624 122.624 150.65 122.798 150.725 122.952C150.801 123.106 150.924 123.232 151.076 123.312C151.076 123.312 151.076 123.064 151.571 123.147C151.741 123.176 151.915 123.184 152.087 123.171C152.32 123.155 152.542 123.064 152.718 122.911C152.718 122.911 154.053 122.359 154.571 120.177C154.571 120.177 154.956 119.699 154.941 119.577L154.139 119.921C154.139 119.921 154.413 120.498 154.198 120.979C154.198 120.979 154.172 119.94 154.018 119.965C153.987 119.965 153.601 120.165 153.601 120.165C153.601 120.165 154.073 121.174 153.716 121.905C153.716 121.905 153.852 120.664 153.454 120.239L152.889 120.569C152.889 120.569 153.441 121.611 153.068 122.46C153.068 122.46 153.163 121.157 152.771 120.644L152.261 121.042C152.261 121.042 152.777 122.069 152.462 122.772C152.462 122.772 152.421 121.256 152.148 121.142C152.148 121.142 151.701 121.535 151.633 121.699C151.633 121.699 151.988 122.443 151.769 122.836C151.769 122.836 151.633 121.826 151.523 121.821C151.523 121.821 151.077 122.49 151.028 122.949C151.05 122.525 151.183 122.114 151.412 121.757C151.155 121.805 150.918 121.928 150.729 122.11C150.729 122.11 150.798 121.638 151.521 121.596C151.521 121.596 151.889 121.088 151.988 121.057C151.988 121.057 151.269 120.997 150.833 121.19C150.833 121.19 151.218 120.744 152.12 120.948L152.625 120.535C152.625 120.535 151.678 120.404 151.277 120.548C151.277 120.548 151.739 120.153 152.762 120.441L153.312 120.111C153.312 120.111 152.505 119.937 152.025 120C152.025 120 152.531 119.726 153.474 120.023L153.867 119.846C153.867 119.846 153.274 119.729 153.102 119.711C152.931 119.693 152.919 119.645 152.919 119.645C153.294 119.583 153.678 119.625 154.03 119.769C154.03 119.769 154.849 119.462 154.835 119.409Z" fill="#3498DB"/>
<path opacity="0.1" d="M151.563 124.165C153.419 124.165 154.924 123.911 154.924 123.597C154.924 123.284 153.419 123.029 151.563 123.029C149.706 123.029 148.201 123.284 148.201 123.597C148.201 123.911 149.706 124.165 151.563 124.165Z" fill="#3498DB"/>
<path opacity="0.1" d="M132.941 122.311C141.357 122.311 148.179 121.246 148.179 119.932C148.179 118.618 141.357 117.553 132.941 117.553C124.525 117.553 117.702 118.618 117.702 119.932C117.702 121.246 124.525 122.311 132.941 122.311Z" fill="#3498DB"/>
<path opacity="0.1" d="M84.72 128.503C94.1769 128.503 101.843 127.733 101.843 126.784C101.843 125.835 94.1769 125.065 84.72 125.065C75.2631 125.065 67.5968 125.835 67.5968 126.784C67.5968 127.733 75.2631 128.503 84.72 128.503Z" fill="#3498DB"/>
<path opacity="0.1" d="M32.8419 126.795C40.0201 126.795 45.8391 126.436 45.8391 125.993C45.8391 125.55 40.0201 125.191 32.8419 125.191C25.6638 125.191 19.8448 125.55 19.8448 125.993C19.8448 126.436 25.6638 126.795 32.8419 126.795Z" fill="#3498DB"/>
<path opacity="0.1" d="M55.9183 5.65465C60.7392 1.36204 68.3081 0.482058 75.1953 0.823815C96.8309 1.89862 116.36 12.3478 133.254 24.1673C139.371 28.4451 145.392 33.0563 149.361 38.9488C157.448 50.9417 155.045 67.5574 143.809 77.4386C139.985 80.8001 135.35 83.3822 130.592 85.6623C122.132 89.7254 113.003 92.9861 103.403 93.9173C96.5553 94.5777 89.6234 94.0411 82.817 93.1165C63.7975 90.5344 45.1294 84.8285 29.4833 75.0711C22.6208 70.7785 16.1511 65.4622 13.3223 58.5363C10.4935 51.6103 12.304 42.8336 19.3117 38.7341C22.2099 37.0386 25.6758 36.2725 29.0674 35.5543C34.0616 34.496 39.1351 33.4526 43.6424 31.2997C48.2966 29.0774 53.8074 24.7799 52.8848 19.8615C51.8978 14.5833 51.104 9.94726 55.9183 5.65465Z" fill="#3498DB"/>
<path opacity="0.9" d="M95.867 64.683V33.1588H100.158V23.748H69.4106V33.1588H73.7017V64.683C67.7757 66.9345 62.6741 70.9352 59.0738 76.1544C55.4735 81.3736 53.5447 87.5646 53.5433 93.9058C53.5433 111.167 67.5324 125.159 84.7877 125.159C102.043 125.159 116.03 111.167 116.03 93.9058C116.029 87.5639 114.099 81.3725 110.498 76.1532C106.897 70.9339 101.794 66.9335 95.867 64.683Z" fill="#96B7FE"/>
<path opacity="0.1" d="M95.867 33.0613H73.6951V33.4856H95.867V33.0613Z" fill="black"/>
<path d="M67.3063 93.067C67.3063 93.067 86.1212 92.7368 95.5287 88.0265C104.936 83.3162 110.312 87.5213 109.807 90.3792C109.302 93.2371 106.616 98.7795 95.8653 99.4597C85.1144 100.14 67.3063 93.067 67.3063 93.067Z" fill="#3498DB"/>
<path opacity="0.1" d="M67.3063 93.067C67.3063 93.067 86.1212 92.7368 95.5287 88.0265C104.936 83.3162 110.312 87.5213 109.807 90.3792C109.302 93.2371 106.616 98.7795 95.8653 99.4597C85.1144 100.14 67.3063 93.067 67.3063 93.067Z" fill="black"/>
<path d="M59.2489 90.0457C59.2489 90.0457 57.2387 117.939 83.6043 118.443C109.97 118.946 109.808 90.3759 109.808 90.3759C109.808 90.3759 100.071 100.96 77.0537 92.2234C77.0537 92.23 65.1277 89.0369 59.2489 90.0457Z" fill="#3498DB"/>
<path opacity="0.1" d="M109.722 90.4766C109.196 96.9023 105.781 117.017 83.6142 116.592C61.8846 116.181 59.4238 97.178 59.2307 90.4931C59.1102 94.0808 59.2175 117.974 83.6093 118.441C109.981 118.937 109.813 90.3743 109.813 90.3743C109.813 90.3743 109.78 90.4155 109.722 90.4766Z" fill="black"/>
<path opacity="0.3" d="M83.7644 81.4325C85.654 81.4325 87.1857 79.9001 87.1857 78.0099C87.1857 76.1197 85.654 74.5874 83.7644 74.5874C81.8748 74.5874 80.343 76.1197 80.343 78.0099C80.343 79.9001 81.8748 81.4325 83.7644 81.4325Z" fill="#3498DB"/>
<path opacity="0.3" d="M85.7185 66.4363C86.888 66.4363 87.836 65.4879 87.836 64.3181C87.836 63.1482 86.888 62.1998 85.7185 62.1998C84.5491 62.1998 83.601 63.1482 83.601 64.3181C83.601 65.4879 84.5491 66.4363 85.7185 66.4363Z" fill="#3498DB"/>
<path opacity="0.3" d="M80.9933 54.2107C82.1628 54.2107 83.1108 53.2623 83.1108 52.0925C83.1108 50.9226 82.1628 49.9742 80.9933 49.9742C79.8239 49.9742 78.8758 50.9226 78.8758 52.0925C78.8758 53.2623 79.8239 54.2107 80.9933 54.2107Z" fill="#3498DB"/>
<path opacity="0.2" d="M62.8501 80.6498C62.6686 82.0928 62.7049 83.899 63.9939 84.5726C62.9128 84.008 67.3442 77.6054 66.7154 76.2978C65.3703 73.5076 63.0152 79.3092 62.8501 80.6498Z" fill="white"/>
<path opacity="0.3" d="M79.2818 17.4577C81.1714 17.4577 82.7031 15.9254 82.7031 14.0352C82.7031 12.145 81.1714 10.6127 79.2818 10.6127C77.3923 10.6127 75.8605 12.145 75.8605 14.0352C75.8605 15.9254 77.3923 17.4577 79.2818 17.4577Z" fill="#3498DB"/>
<path opacity="0.3" d="M89.5459 10.7117C90.9505 10.7117 92.0892 9.57261 92.0892 8.16749C92.0892 6.76237 90.9505 5.62329 89.5459 5.62329C88.1412 5.62329 87.0026 6.76237 87.0026 8.16749C87.0026 9.57261 88.1412 10.7117 89.5459 10.7117Z" fill="#3498DB"/>
<path opacity="0.3" d="M82.2146 2.64491C82.9447 2.64491 83.5366 2.05282 83.5366 1.32245C83.5366 0.592083 82.9447 0 82.2146 0C81.4845 0 80.8926 0.592083 80.8926 1.32245C80.8926 2.05282 81.4845 2.64491 82.2146 2.64491Z" fill="#3498DB"/>
<path opacity="0.9" d="M46.8409 43.451H19.1912V51.6549H23.4048V115.658C23.3881 116.931 23.6244 118.195 24.1 119.376C24.5756 120.558 25.2811 121.633 26.1754 122.539C27.0697 123.446 28.135 124.165 29.3096 124.657C30.4842 125.148 31.7446 125.401 33.0177 125.401C34.2908 125.401 35.5512 125.148 36.7258 124.657C37.9004 124.165 38.9658 123.446 39.8601 122.539C40.7544 121.633 41.4598 120.558 41.9354 119.376C42.411 118.195 42.6473 116.931 42.6307 115.658V51.6549H46.8409V43.451Z" fill="#96B7FE"/>
<path d="M29.8101 66.1557C29.8101 66.1557 36.6528 63.7106 38.5574 65.4491C38.5574 65.4491 35.7863 69.5238 33.2348 69.3603C30.6832 69.1969 29.8101 66.1557 29.8101 66.1557Z" fill="#3498DB"/>
<path opacity="0.1" d="M29.8101 66.1557C29.8101 66.1557 36.6528 63.7106 38.5574 65.4491C38.5574 65.4491 35.7863 69.5238 33.2348 69.3603C30.6832 69.1969 29.8101 66.1557 29.8101 66.1557Z" fill="black"/>
<path d="M38.5541 65.4557V111.908C38.5541 112.679 38.4024 113.442 38.1076 114.154C37.8128 114.866 37.3808 115.512 36.8361 116.057C36.2914 116.602 35.6448 117.034 34.9331 117.329C34.2215 117.624 33.4587 117.776 32.6885 117.776C31.1328 117.776 29.6408 117.158 28.5408 116.057C27.4408 114.957 26.8228 113.464 26.8228 111.908V65.4557C26.8228 65.4557 29.6467 64.6946 32.3072 66.3258C34.9677 67.9569 38.5541 65.4557 38.5541 65.4557Z" fill="#3498DB"/>
<path opacity="0.1" d="M42.6274 51.6038H23.4015V51.9818H42.6274V51.6038Z" fill="black"/>
<path opacity="0.1" d="M32.6885 114.951C31.918 114.951 31.1552 114.799 30.4434 114.504C29.7316 114.209 29.0849 113.777 28.5402 113.232C27.9955 112.687 27.5635 112.04 27.2688 111.328C26.9742 110.616 26.8226 109.852 26.8228 109.082V112.016C26.8228 113.572 27.4408 115.064 28.5408 116.165C29.6408 117.265 31.1328 117.883 32.6885 117.883C34.2441 117.883 35.7361 117.265 36.8361 116.165C37.9361 115.064 38.5541 113.572 38.5541 112.016V109.082C38.5543 109.852 38.4027 110.616 38.1081 111.328C37.8134 112.04 37.3814 112.687 36.8367 113.232C36.292 113.777 35.6453 114.209 34.9335 114.504C34.2218 114.799 33.4589 114.951 32.6885 114.951Z" fill="black"/>
<path opacity="0.3" d="M32.6901 60.8939C33.35 60.8939 33.885 60.3588 33.885 59.6986C33.885 59.0385 33.35 58.5033 32.6901 58.5033C32.0302 58.5033 31.4952 59.0385 31.4952 59.6986C31.4952 60.3588 32.0302 60.8939 32.6901 60.8939Z" fill="#3498DB"/>
<path opacity="0.3" d="M36.6 56.2216C37.0202 56.2216 37.3608 55.8808 37.3608 55.4605C37.3608 55.0401 37.0202 54.6993 36.6 54.6993C36.1798 54.6993 35.8391 55.0401 35.8391 55.4605C35.8391 55.8808 36.1798 56.2216 36.6 56.2216Z" fill="#3498DB"/>
<path opacity="0.3" d="M31.2773 54.7011C31.6975 54.7011 32.0382 54.3603 32.0382 53.9399C32.0382 53.5196 31.6975 53.1788 31.2773 53.1788C30.8571 53.1788 30.5165 53.5196 30.5165 53.9399C30.5165 54.3603 30.8571 54.7011 31.2773 54.7011Z" fill="#3498DB"/>
<path opacity="0.2" d="M24.8902 74.9456C24.7086 76.3886 24.7449 78.1948 26.0339 78.8684C24.9513 78.3037 29.3843 71.9028 28.7555 70.5935C27.4071 67.8066 25.0552 73.6066 24.8902 74.9456Z" fill="white"/>
<path opacity="0.3" d="M35.1691 38.3181C36.7724 38.3181 38.0722 37.0179 38.0722 35.414C38.0722 33.8101 36.7724 32.5099 35.1691 32.5099C33.5657 32.5099 32.266 33.8101 32.266 35.414C32.266 37.0179 33.5657 38.3181 35.1691 38.3181Z" fill="#3498DB"/>
<path opacity="0.3" d="M26.4597 32.5942C27.652 32.5942 28.6185 31.6273 28.6185 30.4347C28.6185 29.242 27.652 28.2751 26.4597 28.2751C25.2675 28.2751 24.301 29.242 24.301 30.4347C24.301 31.6273 25.2675 32.5942 26.4597 32.5942Z" fill="#3498DB"/>
<path opacity="0.3" d="M32.6802 25.749C33.3 25.749 33.8025 25.2464 33.8025 24.6263C33.8025 24.0063 33.3 23.5037 32.6802 23.5037C32.0604 23.5037 31.5579 24.0063 31.5579 24.6263C31.5579 25.2464 32.0604 25.749 32.6802 25.749Z" fill="#3498DB"/>
<path d="M147.856 74.5131C147.856 74.5131 145.322 61.9093 146.291 60.3409C146.291 60.3409 146.326 58.883 146.268 57.0257C146.268 56.9547 146.268 56.8837 146.268 56.811C146.438 56.9268 146.615 57.0306 146.799 57.1214C147.692 57.5821 148.719 57.7147 149.699 57.4962L148.928 56.641C148.745 56.4363 148.552 56.2167 148.513 55.9459C148.502 55.6855 148.559 55.4267 148.678 55.1947C149.405 53.3538 149.45 51.0375 148.04 49.6325C146.855 48.4504 146.565 46.9248 145.284 45.8467C144.344 45.0559 143.827 43.8969 143.338 42.7792C142.926 41.8315 142.513 40.8772 142.274 39.8734C142.089 39.0892 142.016 38.2785 141.762 37.5125C141.508 36.7464 141.036 36.0018 140.295 35.66C140.02 35.564 139.754 35.4458 139.498 35.3067C139.181 35.0937 138.991 34.747 138.763 34.4449C137.608 32.9078 133.713 33.8126 131.871 34.4366C131.371 34.5936 130.908 34.8502 130.51 35.1911L130.526 35.1631L130.572 35.0954C130.371 35.2584 130.197 35.4523 130.057 35.6699C129.788 36.0959 129.676 36.5961 129.453 37.0452C129.183 37.5901 127.681 39.1106 128.326 39.7231C128.37 39.7641 128.421 39.7976 128.476 39.8222C128.717 39.9206 128.981 39.947 129.237 39.8982C129.227 39.9196 129.217 39.9411 129.209 39.9625C128.99 40.5032 128.878 41.0813 128.879 41.6647C128.89 42.8861 129.385 44.0532 130.256 44.9093C131.127 45.7653 132.302 46.2403 133.523 46.2298C134.006 46.2305 134.486 46.157 134.946 46.0118C134.958 46.0696 134.967 46.1274 134.977 46.1852C134.977 46.2099 134.977 46.2331 134.989 46.2562L134.908 46.3701L134.895 46.3486L132.487 49.7167C132.119 49.9742 129.998 51.5097 129.884 52.6604C129.759 53.9201 129.633 55.3961 129.633 55.3961L129.617 55.7115C129.512 55.7993 129.389 55.8633 129.257 55.8992C129.124 55.9351 128.986 55.942 128.851 55.9195C128.1 55.7957 128.1 58.6866 128.1 58.6866C128.1 58.6866 127.605 59.1472 127.257 58.7477C126.908 58.3481 126.006 59.7003 126.006 59.7003L120.313 59.9463H120.183L119.876 58.9953C119.842 58.8971 119.772 58.8157 119.68 58.7683C119.587 58.7209 119.48 58.7111 119.381 58.7411C119.357 58.7477 119.333 58.7571 119.311 58.7691L119.292 58.7823C119.277 58.7903 119.264 58.7997 119.252 58.8104C119.244 58.8155 119.237 58.8216 119.231 58.8286C119.219 58.8382 119.209 58.8487 119.199 58.8599C119.193 58.8668 119.188 58.8739 119.183 58.8814L119.173 58.8913C119.137 58.9402 119.114 58.9967 119.104 59.0564C119.094 59.116 119.099 59.177 119.117 59.2347L119.381 60.0503C118.283 60.2715 117.159 60.894 118.075 62.611L113.434 61.7541L114.936 63.0139L122.693 64.6153C122.591 64.8002 122.658 65.0661 122.979 65.4408C124.357 67.0621 126.875 67.5013 127.887 67.6169C128.153 68.2131 128.485 68.7775 128.877 69.2992L128.788 70.9139C128.788 70.9139 126.227 83.2287 125.756 83.8545C125.989 83.5842 126.201 83.2973 126.392 82.996C125.647 85.5269 124.608 88.9907 124.335 89.5092C123.896 90.3347 123.49 93.6895 123.99 93.9058C124.147 93.9718 124.581 93.9405 125.207 93.8926V94.1699L125.179 104.695C125.179 104.695 125.304 111.152 124.959 111.766C124.614 112.381 124.522 113.672 124.522 113.672C124.522 113.672 123.139 116.219 122.046 117.243L122.021 117.264L121.987 117.023C121.987 117.023 120.666 118.684 117.765 118.592C117.765 118.592 116.014 119.729 118.61 119.79C121.206 119.851 124.52 119.698 124.52 119.698C124.52 119.698 126.831 116.163 128.773 116.624V119.298H129.367V116.6C129.643 116.419 129.879 116.183 130.06 115.907C130.242 115.632 130.365 115.322 130.424 114.997C130.475 114.663 130.438 114.322 130.317 114.006C130.196 113.691 129.994 113.413 129.732 113.199C129.614 113.093 129.52 112.963 129.455 112.818C129.389 112.673 129.355 112.516 129.353 112.357L129.331 112.376C129.331 112.323 129.318 112.268 129.31 112.21C129.145 110.827 128.928 107.981 129.681 105.871C130.713 102.98 131.026 98.9546 130.275 96.5556C130.033 95.7898 129.835 95.011 129.681 94.2228C129.663 94.1221 129.645 94.028 129.63 93.9388C130.144 94.009 130.653 94.1132 131.153 94.2508C132.896 94.7296 136.704 94.8188 139.955 94.794C139.963 94.8832 139.973 94.9756 139.983 95.0697C140.043 95.7185 140.165 96.36 140.349 96.9849C140.755 98.2166 140.944 103.625 140.944 103.625C140.944 103.625 141.47 108.075 141.183 109.888C141.018 110.895 140.879 111.905 140.788 112.92V112.94C140.788 112.94 139.927 115.399 139.303 116.738C139.287 116.772 139.272 116.805 139.255 116.838C139.086 116.854 138.92 116.89 138.76 116.946C138.76 116.946 137.917 118.636 137.072 118.914C136.227 119.191 136.509 120.112 138.417 119.774C140.325 119.435 143.203 119.16 143.203 119.16L143.328 117.438L143.914 116.704L143.766 118.422L144.391 118.299L144.309 116.209L145.268 115.009C145.268 115.009 146.423 113.979 144.705 111.951V111.994C144.687 111.964 144.669 111.935 144.649 111.907V111.897C144.365 111.454 144.137 110.63 144.553 109.168C145.304 106.526 145.741 104.127 145.741 104.127C145.741 104.127 147.42 97.7031 145.401 94.6619H145.492C145.285 94.2341 145.139 93.7796 145.057 93.3114C145.047 93.2553 145.038 93.1975 145.028 93.1463C146.514 93.0605 147.988 92.7897 149.181 92.2086C149.168 92.1904 148.45 76.9417 147.856 74.5131ZM128.904 63.8806V63.9104L128.595 63.9252L128.904 63.8806ZM127.852 64.0259C127.802 64.0367 127.754 64.0594 127.714 64.092C127.582 64.2788 127.499 64.4956 127.473 64.7226L126.994 64.6137C126.994 64.6137 126.664 64.5427 126.169 64.4634L125.94 64.2339C126.577 64.1745 127.23 64.1035 127.852 64.0259Z" fill="url(#paint0_linear_76_874)"/>
<path d="M143.688 116.224L143.505 118.4L144.117 118.276L144.025 115.919L143.688 116.224Z" fill="#1D2366"/>
<path d="M129.724 105.9C128.986 108.002 129.198 110.84 129.363 112.219C129.424 112.729 129.48 113.044 129.48 113.044C129.48 113.044 128.377 115.557 128.285 115.649C128.192 115.742 125.037 117.667 125.037 117.667L122.832 118.953C122.832 118.953 120.595 117.972 121.676 117.632C121.895 117.544 122.092 117.41 122.254 117.238C123.324 116.217 124.679 113.68 124.679 113.68C124.679 113.68 124.769 112.394 125.106 111.781C125.443 111.169 125.321 104.735 125.321 104.735L125.349 94.2442V92.8772L129.544 92.9086C129.571 93.373 129.632 93.8348 129.726 94.2905C129.877 95.0756 130.072 95.8517 130.31 96.6151C131.039 99.0107 130.734 103.019 129.724 105.9Z" fill="#FFB0B1"/>
<path opacity="0.1" d="M129.478 113.044C129.478 113.044 128.376 115.557 128.283 115.65C128.191 115.742 125.037 117.667 125.037 117.667L122.832 118.953C122.832 118.953 120.595 117.972 121.676 117.632C121.895 117.544 122.092 117.41 122.254 117.238L122.35 117.908L123.086 117.877L129.363 112.219C129.422 112.727 129.478 113.044 129.478 113.044Z" fill="black"/>
<path d="M129.402 112.364L123.078 118.063L122.342 118.093L122.19 117.022C122.19 117.022 120.902 118.673 118.054 118.583C118.054 118.583 116.339 119.718 118.879 119.779C121.419 119.84 124.669 119.686 124.669 119.686C124.669 119.686 126.935 116.163 128.833 116.624V119.288H129.415V116.592C129.686 116.41 129.918 116.174 130.095 115.9C130.273 115.625 130.393 115.318 130.449 114.996C130.499 114.664 130.464 114.325 130.345 114.01C130.227 113.696 130.029 113.418 129.772 113.203C129.656 113.096 129.564 112.966 129.5 112.822C129.437 112.677 129.403 112.522 129.402 112.364Z" fill="#1D2366"/>
<path d="M144.271 109.178C143.863 110.635 144.086 111.456 144.363 111.897V111.907C144.724 112.452 144.975 113.063 145.101 113.705L145.127 113.843L142.249 118.04L140.688 118.653C140.688 118.653 138.176 117.796 138.635 117.55C138.75 117.489 138.93 117.172 139.13 116.724C139.745 115.404 140.59 112.95 140.59 112.95V112.929C140.678 111.917 140.82 110.909 140.977 109.906C141.257 108.101 140.742 103.667 140.742 103.667C140.742 103.667 140.559 98.276 140.16 97.0493C139.98 96.4259 139.86 95.7868 139.802 95.1407C139.719 94.3697 139.701 93.7407 139.701 93.7407C139.701 93.7407 141.351 91.4425 144.386 93.924C144.628 94.1232 144.841 94.3548 145.019 94.6124C147.113 97.5842 145.428 104.157 145.428 104.157C145.428 104.157 145.005 106.544 144.271 109.178Z" fill="#FFB0B1"/>
<path opacity="0.1" d="M145.127 113.835L142.249 118.032L140.688 118.644C140.688 118.644 138.176 117.787 138.635 117.541C138.75 117.48 138.93 117.163 139.13 116.716C140.193 116.716 140.744 117.72 140.744 117.72L142.091 117.507C142.091 117.507 143.868 114.013 144.266 113.8C144.664 113.587 144.327 112.205 144.327 112.205V111.854L144.358 111.892V111.902C144.721 112.448 144.974 113.061 145.101 113.705L145.127 113.835Z" fill="black"/>
<path d="M140.84 117.817C140.84 117.817 140.074 116.409 138.605 116.929C138.605 116.929 137.78 118.615 136.955 118.89C136.129 119.166 136.403 120.084 138.275 119.747C140.146 119.41 142.96 119.135 142.96 119.135L143.083 117.419L144.981 114.999C144.981 114.999 146.114 113.972 144.429 111.951V112.303C144.429 112.303 144.759 113.681 144.368 113.896C143.977 114.111 142.195 117.603 142.195 117.603L140.84 117.817Z" fill="#1D2366"/>
<path opacity="0.1" d="M129.539 92.9102C129.566 93.3746 129.627 93.8364 129.721 94.292C127.993 94.0378 126.39 94.1649 125.34 94.2458V92.8788L129.539 92.9102Z" fill="black"/>
<path opacity="0.1" d="M145.189 94.9938C145.189 94.9938 142.733 95.1127 139.808 95.1375C139.726 94.3664 139.707 93.7374 139.707 93.7374C139.707 93.7374 141.358 91.4392 144.393 93.9207C144.634 94.1199 144.847 94.3516 145.025 94.6091C145.073 94.7401 145.127 94.8685 145.189 94.9938Z" fill="black"/>
<path d="M145.189 94.7181C145.189 94.7181 134.439 95.2381 131.16 94.3202C127.88 93.4022 124.637 94.1963 124.147 93.9817C123.657 93.7671 124.056 90.4288 124.477 89.6016C124.898 88.7745 127.265 80.4105 127.265 80.4105L129.531 68.5843L131.921 67.9239L132.086 67.8777L136.246 66.722L139.298 65.88C139.298 65.88 145.362 89.562 144.84 91.3054C144.651 91.9744 144.621 92.6783 144.753 93.3609C144.834 93.8313 144.981 94.2881 145.189 94.7181Z" fill="#1D2366"/>
<path d="M121.639 60.496C121.639 60.496 119.493 62.7942 121.117 64.0803C122.741 65.3664 123.812 64.2041 123.812 64.2041L121.639 60.496Z" fill="#C7DAF5"/>
<path opacity="0.1" d="M121.639 60.496C121.639 60.496 119.493 62.7942 121.117 64.0803C122.741 65.3664 123.812 64.2041 123.812 64.2041L121.639 60.496Z" fill="black"/>
<path d="M138.988 45.3629C138.988 45.3629 138.737 45.6007 138.357 45.9557C137.818 46.4592 137.019 47.1972 136.309 47.8163C135.319 48.6716 134.518 49.3022 134.807 48.7624C135.096 48.2225 135.042 47.2946 134.898 46.4212L134.868 46.2479C134.749 45.6065 134.59 44.973 134.393 44.3509C134.393 44.3509 135.979 42.3003 136.857 41.4913C137.187 41.1892 137.413 41.0604 137.425 41.2718C137.441 41.559 137.658 42.1864 137.92 42.8666C137.93 42.8864 137.938 42.9079 137.946 42.9277C138.125 43.385 138.324 43.8622 138.501 44.27C138.77 44.8957 138.988 45.3629 138.988 45.3629Z" fill="#FFB0B1"/>
<path opacity="0.1" d="M137.945 42.9277C137.796 43.7299 137.434 44.4772 136.897 45.0918C136.361 45.7063 135.669 46.1654 134.895 46.4213C134.773 45.7205 134.605 45.0288 134.39 44.3509C134.39 44.3509 137.375 40.4909 137.422 41.2718C137.45 41.569 137.671 42.2261 137.945 42.9277Z" fill="black"/>
<path opacity="0.1" d="M134.601 47.4531L134.987 46.9099C134.987 46.9099 135.243 48.4718 136.185 47.7833C137.128 47.0948 137.176 52.9674 137.176 52.9674L136.162 68.0873L128.857 67.6498L129.064 60.3441L129.889 56.6673L131.934 51.3131L133.159 49.5449L134.601 47.4531Z" fill="black"/>
<path d="M137.172 53.0599L136.258 66.7302L136.162 68.1781L132.089 67.9354L131.924 67.9255L128.853 67.7423L129.059 60.4349L129.884 56.7598L131.929 51.4056L133.159 49.6357L134.606 47.5456L134.992 47.0007C134.992 47.0007 135.248 48.5642 136.19 47.8741L136.209 47.8609C137.128 47.2698 137.172 53.0599 137.172 53.0599Z" fill="#1D2366"/>
<path d="M129.998 55.472C129.998 55.472 129.632 56.2381 128.895 56.1159C128.159 55.9938 128.161 58.8731 128.161 58.8731C128.161 58.8731 127.666 59.3321 127.336 58.9342C127.006 58.5363 126.111 59.8835 126.111 59.8835L120.538 60.1295C120.538 60.1295 123.013 61.2621 122.528 64.6945C122.528 64.6945 130.945 64.1728 131.226 63.3737C131.506 62.5747 129.998 55.472 129.998 55.472Z" fill="white"/>
<path opacity="0.03" d="M129.998 55.472C129.998 55.472 129.632 56.2381 128.895 56.1159C128.159 55.9938 128.161 58.8731 128.161 58.8731C128.161 58.8731 127.666 59.3321 127.336 58.9342C127.006 58.5363 126.111 59.8835 126.111 59.8835L120.538 60.1295C120.538 60.1295 123.013 61.2621 122.528 64.6945C122.528 64.6945 130.945 64.1728 131.226 63.3737C131.506 62.5747 129.998 55.472 129.998 55.472Z" fill="black"/>
<path d="M113.797 61.9357L115.268 63.1921L127.366 65.7346L125.864 64.2041L113.797 61.9357Z" fill="white"/>
<path d="M134.622 47.9352C134.423 48.2357 133.848 49.8141 133.366 51.1861C132.967 52.3286 132.632 53.3324 132.632 53.3324C132.632 53.3324 131.851 58.4191 131.454 59.3371C131.056 60.255 131.27 63.8443 131.27 63.8443L129.785 72.6986C129.785 72.6986 129.112 77.2636 128.072 79.9895C127.052 82.6657 125.897 83.9254 125.865 83.9634C126.326 83.341 128.836 71.0674 128.836 71.0674L129.661 55.5942C129.661 55.5942 129.783 54.1248 129.907 52.8684C130.031 51.612 132.51 49.8966 132.51 49.8966L134.906 46.4873C135.152 46.8225 134.991 47.3838 134.622 47.9352Z" fill="white"/>
<path d="M128.372 67.8182C128.372 67.8182 124.85 67.6663 123.135 65.6125C121.421 63.5586 127.087 64.787 127.087 64.787L128.555 65.1172L128.372 67.8182Z" fill="#FFB0B1"/>
<path opacity="0.1" d="M144.852 91.3169C144.663 91.9859 144.633 92.6898 144.764 93.3724C140.916 93.6465 136.798 92.603 136.798 92.603C136.032 93.308 134.01 94.3498 134.01 94.3498L132.908 80.6844C132.205 78.8452 131.929 69.1951 131.929 69.1951C131.929 69.1951 131.992 68.6899 132.094 67.9337C132.094 67.9156 132.094 67.8958 132.102 67.8776C132.378 65.7643 132.927 61.797 133.188 61.2604C133.556 60.5257 132.056 58.5659 132.056 58.5659L132.738 52.7412L132.82 52.0395C134.261 51.3956 135.364 49.3434 135.364 49.3434L136.209 47.8575C137.131 47.2665 137.176 53.0566 137.176 53.0566L136.261 66.7269L139.313 65.8848C139.313 65.8848 145.372 89.5701 144.852 91.3169Z" fill="black"/>
<path d="M148.803 92.2663C144.608 94.3498 136.981 92.4198 136.981 92.4198C136.215 93.1248 134.193 94.1666 134.193 94.1666L133.091 80.5012C132.388 78.6637 132.112 69.0135 132.112 69.0135C132.112 69.0135 133 61.8135 133.366 61.0788C133.474 60.8642 133.423 60.5456 133.296 60.2021C132.669 58.5654 132.439 56.8037 132.624 55.0609L132.918 52.5596L133 51.858C134.439 51.2141 135.542 49.1602 135.542 49.1602L136.309 47.8163L137.722 45.3398L138.39 44.1676L138.503 44.27L139.371 45.0558C139.371 45.0558 139.739 45.3596 140.29 45.8269C141.492 46.8389 143.568 48.622 144.637 49.7117C145.58 50.6742 145.877 54.4104 145.958 57.2237C146.015 59.0745 145.981 60.5257 145.981 60.5257C145.03 62.0876 147.511 74.6501 147.511 74.6501C148.098 77.0704 148.803 92.2663 148.803 92.2663Z" fill="white"/>
<path opacity="0.03" d="M140.751 49.1305C140.751 49.1305 137.871 54.6152 138.209 56.6971C138.547 58.779 139.495 61.1399 139.034 61.6914C138.877 61.9002 138.673 62.0696 138.439 62.1865C138.205 62.3034 137.947 62.3645 137.686 62.365C137.227 62.3963 136.001 63.2532 136.001 63.3457C136.001 63.4381 134.868 63.4381 133.855 63.8674C132.842 64.2966 131.343 64.541 131.343 64.541C131.343 64.541 128.433 64.4485 128.158 64.7243C127.882 65 127.606 66.6543 128.189 67.9718C128.772 69.2893 129.414 70.27 129.904 70.4483C130.394 70.6266 133.487 69.5914 135.997 69.3454C138.508 69.0994 141.246 67.1149 141.246 67.1149C141.246 67.1149 144.246 66.0418 144.768 64.2339C145.289 62.4261 144.124 52.5002 144.124 52.5002C144.124 52.5002 143.226 47.8741 140.751 49.1305Z" fill="black"/>
<path opacity="0.03" d="M140.381 48.6717C140.381 48.6717 137.502 54.1547 137.839 56.2382C138.176 58.3218 139.125 60.6811 138.664 61.2325C138.507 61.4413 138.303 61.6108 138.069 61.7276C137.835 61.8445 137.577 61.9056 137.316 61.9061C136.857 61.9375 135.633 62.7943 135.633 62.8868C135.633 62.9793 134.499 62.9776 133.487 63.4069C132.475 63.8361 130.975 64.0805 130.975 64.0805C130.975 64.0805 128.065 63.9897 127.79 64.2654C127.514 64.5411 127.238 66.1954 127.821 67.5129C128.404 68.8304 129.046 69.8111 129.536 69.9894C130.026 70.1677 133.119 69.1309 135.631 68.8865C138.143 68.6422 140.871 66.6511 140.871 66.6511C140.871 66.6511 143.871 65.5796 144.393 63.7717C144.915 61.9639 143.749 52.0381 143.749 52.0381C143.749 52.0381 142.861 47.4153 140.381 48.6717Z" fill="black"/>
<path d="M140.656 48.8549C140.656 48.8549 137.78 54.3395 138.11 56.4148C138.44 58.4901 139.396 60.8577 138.935 61.4091C138.778 61.6182 138.574 61.7879 138.34 61.9048C138.106 62.0217 137.848 62.0826 137.587 62.0827C137.128 62.1141 135.903 62.9709 135.903 63.0634C135.903 63.1559 134.769 63.1559 133.758 63.5851C132.746 64.0144 131.246 64.2587 131.246 64.2587C131.246 64.2587 128.336 64.1663 128.06 64.442C127.785 64.7177 127.509 66.372 128.092 67.6895C128.674 69.007 129.316 69.9877 129.807 70.166C130.297 70.3443 133.39 69.3091 135.902 69.0632C138.414 68.8172 141.138 66.8277 141.138 66.8277C141.138 66.8277 144.139 65.7545 144.66 63.9467C145.182 62.1388 144.017 52.213 144.017 52.213C144.017 52.213 143.137 47.5985 140.656 48.8549Z" fill="white"/>
<path opacity="0.1" d="M140.595 63.5603C140.595 63.5603 138.298 63.1013 139.095 63.8674C139.892 64.6335 139.891 65.3071 140.871 65.2757C141.851 65.2444 140.595 63.5603 140.595 63.5603Z" fill="black"/>
<path opacity="0.1" d="M144.485 80.0737C144.485 80.0737 143.444 80.7787 145.434 82.4017C147.425 84.0246 144.485 80.0737 144.485 80.0737Z" fill="black"/>
<path opacity="0.1" d="M142.493 85.8636C142.493 85.9561 142.127 89.2333 143.505 90.0605C144.883 90.8877 142.493 85.8636 142.493 85.8636Z" fill="black"/>
<path d="M120.627 60.1262C119.518 60.1642 117.116 60.5043 118.361 62.8256C119.462 64.8794 121.31 63.5075 122.345 62.464C122.092 61.4935 121.477 60.6568 120.627 60.1262Z" fill="#FFB0B1"/>
<path d="M122.363 62.4459C122.38 62.431 122.394 62.4145 122.409 62.3997C122.394 62.4145 122.38 62.431 122.363 62.4459Z" fill="#FFB0B1"/>
<path opacity="0.1" d="M140.29 45.9178C139.112 46.7235 138.123 47.4037 137.932 47.5457C137.402 47.9353 136.392 50.2335 135.748 51.4057C135.23 52.3501 133.551 52.5928 132.918 52.6522L132.993 51.9571C134.433 51.3149 135.535 49.2611 135.535 49.2611L138.384 44.2684L139.364 45.1567C139.364 45.1567 139.739 45.4522 140.29 45.9178Z" fill="black"/>
<path d="M140.29 45.8269C139.112 46.6309 138.123 47.3128 137.932 47.4531C137.402 47.8444 136.392 50.1409 135.748 51.3131C135.23 52.2575 133.551 52.5002 132.918 52.5596L133 51.858C134.439 51.2141 135.542 49.1602 135.542 49.1602L138.39 44.1676L139.371 45.0558C139.371 45.0558 139.739 45.353 140.29 45.8269Z" fill="#DCE7FF"/>
<path d="M138.022 41.9157C138.023 42.2354 137.99 42.5543 137.922 42.8667C137.799 43.4505 137.561 44.0039 137.222 44.4946C136.605 45.3915 135.688 46.0376 134.636 46.3158C133.584 46.5939 132.467 46.4856 131.488 46.0105C130.509 45.5354 129.733 44.725 129.3 43.7263C128.868 42.7276 128.807 41.6069 129.13 40.5674C129.452 39.5279 130.137 38.6385 131.059 38.0606C131.981 37.4828 133.08 37.2547 134.155 37.4179C135.231 37.581 136.213 38.1245 136.922 38.9497C137.632 39.7749 138.022 40.8273 138.022 41.9157Z" fill="#FFB0B1"/>
<path opacity="0.1" d="M145.963 57.2238C145.34 56.8403 144.833 56.2947 144.495 55.6455C144.24 55.1386 144.07 54.5558 143.631 54.1942C143.238 53.8739 142.706 53.7947 142.219 53.6511C140.607 53.1739 139.249 51.6996 139.202 50.0189C139.179 49.228 139.425 48.4372 139.313 47.6546C139.25 47.2105 139.073 46.7903 138.8 46.4345C138.666 46.263 138.518 46.1034 138.357 45.9574C138.143 45.7543 137.917 45.5578 137.722 45.3416C137.596 45.2088 137.485 45.062 137.392 44.904C137.319 44.7745 137.26 44.6379 137.215 44.4962C136.915 43.5585 137.187 42.4424 136.851 41.4931C136.851 41.4766 136.839 41.4584 136.832 41.4419C136.704 41.1034 136.445 40.7666 136.086 40.7402C135.728 40.7138 135.416 41.0126 135.073 41.148C134.353 41.427 133.576 40.9515 132.977 40.4661C132.378 39.9808 131.701 39.426 130.937 39.535C130.434 39.606 130.034 39.951 129.57 40.1293C129.463 40.1686 129.353 40.1996 129.24 40.2218C129.634 39.2415 130.357 38.429 131.285 37.9236C132.212 37.4182 133.287 37.2514 134.324 37.452C135.361 37.6525 136.296 38.2078 136.968 39.0226C137.641 39.8373 138.009 40.8608 138.009 41.9174C138.01 42.2371 137.976 42.556 137.908 42.8684C137.918 42.8882 137.927 42.9096 137.935 42.9294C138.113 43.3868 138.313 43.8639 138.489 44.2717L139.358 45.0576C139.358 45.0576 139.726 45.3614 140.277 45.8286C141.478 46.8407 143.555 48.6238 144.624 49.7134C145.58 50.6743 145.877 54.4105 145.963 57.2238Z" fill="black"/>
<path d="M129.528 37.3276C129.747 36.8801 129.858 36.3799 130.118 35.9572C130.503 35.3381 131.176 34.9501 131.865 34.7124C133.667 34.0916 137.476 33.1885 138.613 34.7124C138.838 35.0145 139.023 35.3612 139.333 35.5742C139.584 35.7108 139.845 35.8278 140.113 35.9242C140.84 36.266 141.303 37.0073 141.551 37.77C141.799 38.5328 141.871 39.3418 142.046 40.1243C142.277 41.1249 142.685 42.0742 143.089 43.0186C143.566 44.133 144.079 45.287 144.994 46.0762C146.25 47.151 146.532 48.6716 147.692 49.8488C149.074 51.2488 149.029 53.5586 148.318 55.3912C148.2 55.6229 148.143 55.8809 148.153 56.1407C148.22 56.4061 148.361 56.6467 148.56 56.8342L149.315 57.6861C148.414 57.8805 147.474 57.7762 146.638 57.389C145.801 57.0018 145.113 56.3527 144.679 55.5398C144.421 55.0329 144.251 54.4501 143.812 54.0902C143.419 53.7682 142.889 53.6906 142.401 53.5454C140.788 53.0682 139.43 51.5939 139.384 49.9131C139.361 49.124 139.607 48.3315 139.496 47.5489C139.43 47.1104 139.254 46.6959 138.985 46.3437C138.56 45.7922 137.925 45.4175 137.582 44.8132C137.001 43.7879 137.441 42.4539 137.022 41.3461C136.893 41.0159 136.636 40.6708 136.276 40.6444C135.916 40.618 135.606 40.9185 135.263 41.0522C134.543 41.3312 133.768 40.8557 133.168 40.3704C132.569 39.885 131.891 39.3319 131.129 39.4408C130.623 39.5118 130.226 39.8552 129.76 40.0335C129.417 40.1656 128.721 40.2845 128.418 39.9939C127.786 39.3864 129.257 37.8707 129.528 37.3276Z" fill="#591D4B"/>
<path opacity="0.1" d="M145.108 55.033C144.852 54.5261 144.682 53.9433 144.243 53.5817C143.85 53.2598 143.319 53.1822 142.832 53.0386C141.219 52.5614 139.861 51.0871 139.815 49.4063C139.79 48.6155 140.038 47.8247 139.925 47.0421C139.862 46.598 139.685 46.1778 139.412 45.822C138.99 45.2706 138.352 44.8942 138.011 44.2899C137.428 43.2646 137.871 41.9306 137.451 40.8228C137.323 40.4926 137.065 40.1475 136.705 40.1211C136.346 40.0947 136.035 40.3935 135.692 40.5273C134.972 40.8079 134.195 40.3324 133.598 39.847C133 39.3616 132.32 38.8086 131.556 38.9159C131.061 38.9869 130.655 39.3303 130.189 39.5102C129.846 39.6423 129.15 39.7612 128.848 39.4706C128.215 38.8597 129.686 37.3441 129.952 36.8026C130.171 36.3552 130.282 35.8549 130.543 35.4323L130.587 35.3629C130.393 35.5273 130.226 35.7212 130.092 35.9375C129.828 36.3601 129.719 36.8604 129.501 37.3078C129.235 37.851 127.765 39.3666 128.397 39.9758C128.697 40.2664 129.387 40.1409 129.739 40.0154C130.203 39.8371 130.6 39.4937 131.105 39.4211C131.868 39.3138 132.546 39.8669 133.145 40.3522C133.744 40.8376 134.522 41.3131 135.24 41.0341C135.585 40.9004 135.885 40.5982 136.253 40.6263C136.621 40.6544 136.872 40.9895 137.001 41.328C137.42 42.4292 136.978 43.7632 137.559 44.7951C137.902 45.3977 138.539 45.7741 138.961 46.3256C139.235 46.6813 139.411 47.1016 139.475 47.5457C139.587 48.3282 139.339 49.1191 139.364 49.9099C139.415 51.5923 140.769 53.0666 142.381 53.5421C142.868 53.6857 143.399 53.7633 143.792 54.0869C144.231 54.4469 144.4 55.0297 144.657 55.5365C145.092 56.3494 145.78 56.9985 146.616 57.3858C147.453 57.773 148.392 57.8773 149.293 57.6828L148.938 57.28C147.38 57.3064 145.814 56.4248 145.108 55.033Z" fill="black"/>
<path opacity="0.1" d="M134.532 48.0277C134.33 48.3282 133.756 49.9065 133.276 51.2769C132.827 51.1035 132.417 49.9874 132.417 49.9874L134.809 46.5781C135.06 46.9149 134.898 47.4763 134.532 48.0277Z" fill="black"/>
<path d="M134.622 47.9352C134.423 48.2357 133.848 49.8141 133.366 51.1861C132.918 51.0127 132.51 49.8966 132.51 49.8966L134.906 46.4873C135.152 46.8225 134.991 47.3838 134.622 47.9352Z" fill="#DCE7FF"/>
<path d="M120.691 63.6132L119.363 59.4279C119.347 59.3787 119.341 59.3268 119.345 59.2752C119.349 59.2237 119.363 59.1734 119.387 59.1274C119.41 59.0814 119.443 59.0405 119.482 59.0071C119.522 58.9736 119.567 58.9483 119.617 58.9326C119.666 58.9162 119.718 58.9098 119.77 58.9137C119.821 58.9177 119.872 58.9319 119.918 58.9556C119.964 58.9793 120.005 59.0119 120.038 59.0516C120.071 59.0913 120.097 59.1373 120.112 59.1868L121.44 63.3754L121.308 64.2521L120.691 63.6132Z" fill="#BE8B87"/>
<path opacity="0.1" d="M119.488 59.0564C119.537 59.0405 119.589 59.0345 119.641 59.0388C119.693 59.043 119.743 59.0575 119.789 59.0813C119.835 59.1051 119.876 59.1377 119.909 59.1774C119.942 59.217 119.968 59.2629 119.983 59.3123L121.312 63.4976L121.211 64.158L121.308 64.2587L121.44 63.382L120.112 59.1967C120.097 59.1472 120.071 59.1012 120.038 59.0615C120.005 59.0218 119.964 58.9892 119.918 58.9655C119.872 58.9418 119.821 58.9276 119.77 58.9236C119.718 58.9197 119.666 58.9261 119.617 58.9425C119.534 58.9681 119.462 59.0211 119.414 59.0927C119.437 59.0779 119.462 59.0657 119.488 59.0564Z" fill="white"/>
<path d="M120.691 63.6131L121.437 63.3754L121.328 64.0952L121.305 64.2521L121.087 64.0242L120.691 63.6131Z" fill="#EFC8C4"/>
<path d="M121.087 64.0243C121.101 64.0085 121.117 63.9951 121.135 63.9847C121.146 63.9781 121.158 63.9746 121.171 63.9746C121.183 63.9746 121.195 63.9781 121.206 63.9847C121.217 63.997 121.226 64.0109 121.233 64.0259C121.242 64.0433 121.256 64.0581 121.273 64.0693C121.289 64.0805 121.308 64.0877 121.328 64.0903L121.305 64.2554L121.087 64.0243Z" fill="#727A9C"/>
<path d="M119.356 60.9105C119.356 60.9105 122.021 60.8957 121.393 62.0283C120.764 63.1609 119.785 63.2995 119.785 63.2995L119.356 60.9105Z" fill="#FFB0B1"/>
</g>
<defs>
<linearGradient id="paint0_linear_76_874" x1="131.558" y1="119.84" x2="131.558" y2="33.5979" gradientUnits="userSpaceOnUse">
<stop stop-color="#808080" stop-opacity="0.25"/>
<stop offset="0.54" stop-color="#808080" stop-opacity="0.12"/>
<stop offset="1" stop-color="#808080" stop-opacity="0.1"/>
</linearGradient>
<clipPath id="clip0_76_874">
<rect width="163" height="130" fill="white"/>
</clipPath>
</defs>
</svg>
