<svg width="375" height="667" viewBox="0 0 375 667" fill="none" xmlns="http://www.w3.org/2000/svg">
<g clip-path="url(#clip0_160_2806)">
<rect width="375" height="667" fill="white"/>
<path fill-rule="evenodd" clip-rule="evenodd" d="M-8.42783 -191.314L19.3046 -154.123C47.0053 -119.28 105.495 -44.9389 100.43 27.9146C95.366 100.768 29.804 174.441 42.9205 249.396C52.9804 322.044 147.737 393.546 200.145 465.622C249.56 540.085 262.645 612.693 269.171 647.823L275.73 685.301L-66.0814 689.929L-66.59 652.369C-67.0667 617.157 -68.052 544.386 -69.069 469.267C-70.0543 396.495 -71.0396 323.724 -72.0248 250.952C-73.0419 175.833 -74.0271 103.061 -75.0124 30.2899C-75.9977 -42.4816 -77.0147 -117.601 -77.4915 -152.813L-78 -190.372L-8.42783 -191.314Z" fill="#0099FF" fill-opacity="0.5"/>
</g>
<defs>
<clipPath id="clip0_160_2806">
<rect width="375" height="667" fill="white"/>
</clipPath>
</defs>
</svg>
