<svg width="159" height="126" viewBox="0 0 159 126" fill="none" xmlns="http://www.w3.org/2000/svg">
<g clip-path="url(#clip0)">
<path d="M110.882 94.4583V124.832H34.71C26.0313 124.832 18.9702 118.019 18.9702 109.645C18.9702 101.271 26.0313 94.4583 34.71 94.4583H110.882Z" fill="#F2F2F2"/>
<path d="M112.752 124.598C112.752 124.908 112.629 125.205 112.41 125.424C112.191 125.643 111.893 125.766 111.583 125.766H33.3533C29.1045 125.766 25.0297 124.08 22.0253 121.079C19.021 118.077 17.3331 114.007 17.3331 109.762C17.3331 105.517 19.021 101.446 22.0253 98.445C25.0297 95.4436 29.1045 93.7574 33.3533 93.7574H111.583C111.893 93.7574 112.191 93.8805 112.41 94.0995C112.629 94.3186 112.752 94.6158 112.752 94.9256C112.752 95.2354 112.629 95.5326 112.41 95.7516C112.191 95.9707 111.893 96.0938 111.583 96.0938H33.3533C29.7247 96.0938 26.2448 97.5338 23.679 100.097C21.1133 102.66 19.6718 106.137 19.6718 109.762C19.6718 113.387 21.1133 116.863 23.679 119.427C26.2448 121.99 29.7247 123.43 33.3533 123.43H111.583C111.893 123.43 112.191 123.553 112.41 123.772C112.629 123.991 112.752 124.288 112.752 124.598Z" fill="#6C63FF"/>
<path d="M110.881 101.468H29.0266C28.9646 101.468 28.9051 101.443 28.8612 101.399C28.8174 101.355 28.7927 101.296 28.7927 101.234C28.7927 101.172 28.8174 101.113 28.8612 101.069C28.9051 101.025 28.9646 101 29.0266 101H110.881C110.943 101 111.003 101.025 111.047 101.069C111.091 101.113 111.115 101.172 111.115 101.234C111.115 101.296 111.091 101.355 111.047 101.399C111.003 101.443 110.943 101.468 110.881 101.468Z" fill="#CCCCCC"/>
<path d="M110.881 107.075H29.0266C28.9646 107.075 28.9051 107.05 28.8612 107.007C28.8174 106.963 28.7927 106.903 28.7927 106.841C28.7927 106.779 28.8174 106.72 28.8612 106.676C28.9051 106.632 28.9646 106.608 29.0266 106.608H110.881C110.943 106.608 111.003 106.632 111.047 106.676C111.091 106.72 111.115 106.779 111.115 106.841C111.115 106.903 111.091 106.963 111.047 107.007C111.003 107.05 110.943 107.075 110.881 107.075Z" fill="#CCCCCC"/>
<path d="M110.881 112.682H29.0266C28.9646 112.682 28.9051 112.658 28.8612 112.614C28.8174 112.57 28.7927 112.511 28.7927 112.449C28.7927 112.387 28.8174 112.327 28.8612 112.284C28.9051 112.24 28.9646 112.215 29.0266 112.215H110.881C110.943 112.215 111.003 112.24 111.047 112.284C111.091 112.327 111.115 112.387 111.115 112.449C111.115 112.511 111.091 112.57 111.047 112.614C111.003 112.658 110.943 112.682 110.881 112.682Z" fill="#CCCCCC"/>
<path d="M110.881 118.29H29.0266C28.9646 118.29 28.9051 118.265 28.8612 118.221C28.8174 118.178 28.7927 118.118 28.7927 118.056C28.7927 117.994 28.8174 117.935 28.8612 117.891C28.9051 117.847 28.9646 117.823 29.0266 117.823H110.881C110.943 117.823 111.003 117.847 111.047 117.891C111.091 117.935 111.115 117.994 111.115 118.056C111.115 118.118 111.091 118.178 111.047 118.221C111.003 118.265 110.943 118.29 110.881 118.29Z" fill="#CCCCCC"/>
<path d="M169.751 100.176L150.675 123.827L91.362 76.0821C84.6041 70.6422 83.3846 60.9112 88.6436 54.3907C93.9026 47.8702 103.68 46.991 110.438 52.4309L169.751 100.176Z" fill="#F2F2F2"/>
<path d="M152.279 124.818C152.084 125.059 151.802 125.213 151.493 125.246C151.185 125.279 150.876 125.189 150.635 124.994L89.7186 75.9594C86.4101 73.2962 84.2961 69.4291 83.8417 65.2088C83.3873 60.9885 84.6296 56.7607 87.2954 53.4555C89.9612 50.1503 93.8321 48.0383 98.0565 47.5844C102.281 47.1304 106.513 48.3715 109.821 51.0347L170.737 100.07C170.857 100.166 170.957 100.285 171.03 100.419C171.104 100.554 171.15 100.702 171.167 100.855C171.183 101.007 171.17 101.161 171.126 101.309C171.083 101.456 171.011 101.593 170.915 101.713C170.818 101.832 170.699 101.932 170.565 102.005C170.43 102.079 170.282 102.125 170.129 102.141C169.976 102.158 169.822 102.144 169.674 102.101C169.527 102.057 169.39 101.985 169.27 101.889L108.354 52.854C106.955 51.727 105.348 50.8864 103.623 50.3802C101.899 49.8739 100.092 49.712 98.3051 49.9037C96.5183 50.0954 94.7867 50.6369 93.2094 51.4972C91.6321 52.3576 90.2399 53.52 89.1123 54.918C87.9848 56.3161 87.1439 57.9223 86.6379 59.645C86.1319 61.3678 85.9705 63.1732 86.1631 64.9582C86.3557 66.7433 86.8984 68.4729 87.7602 70.0484C88.622 71.6238 89.7861 73.0142 91.1859 74.1401L152.102 123.175C152.343 123.37 152.498 123.652 152.531 123.96C152.564 124.268 152.473 124.576 152.279 124.818Z" fill="#CCCCCC"/>
<path d="M165.349 105.634L101.61 54.3265C101.586 54.3073 101.566 54.2835 101.552 54.2566C101.537 54.2296 101.528 54.2001 101.524 54.1696C101.521 54.1391 101.524 54.1082 101.532 54.0788C101.541 54.0493 101.555 54.0219 101.575 53.998C101.594 53.9741 101.618 53.9542 101.645 53.9395C101.672 53.9248 101.701 53.9156 101.732 53.9123C101.762 53.909 101.793 53.9118 101.823 53.9204C101.852 53.929 101.88 53.9434 101.904 53.9627L165.642 105.27C165.666 105.289 165.686 105.313 165.701 105.34C165.716 105.367 165.725 105.396 165.728 105.427C165.732 105.457 165.729 105.488 165.72 105.518C165.712 105.547 165.697 105.575 165.678 105.599C165.659 105.623 165.635 105.642 165.608 105.657C165.581 105.672 165.551 105.681 165.521 105.684C165.49 105.688 165.459 105.685 165.43 105.676C165.4 105.667 165.373 105.653 165.349 105.634V105.634Z" fill="#CCCCCC"/>
<path d="M161.827 110L98.0885 58.6929C98.0403 58.6539 98.0095 58.5975 98.0029 58.5359C97.9963 58.4744 98.0145 58.4127 98.0534 58.3645C98.0922 58.3163 98.1487 58.2855 98.2103 58.2788C98.2719 58.2722 98.3337 58.2902 98.382 58.329L162.121 109.636C162.145 109.655 162.165 109.679 162.179 109.706C162.194 109.733 162.203 109.763 162.207 109.793C162.21 109.824 162.207 109.855 162.199 109.884C162.19 109.914 162.176 109.941 162.156 109.965C162.137 109.989 162.113 110.009 162.086 110.023C162.059 110.038 162.03 110.047 161.999 110.051C161.969 110.054 161.938 110.051 161.908 110.042C161.879 110.034 161.851 110.019 161.827 110Z" fill="#CCCCCC"/>
<path d="M158.306 114.366L94.5669 63.0593C94.5186 63.0204 94.4877 62.9639 94.4811 62.9023C94.4744 62.8407 94.4926 62.779 94.5315 62.7307C94.5704 62.6825 94.6269 62.6516 94.6886 62.645C94.7503 62.6384 94.812 62.6565 94.8603 62.6954L158.599 114.003C158.623 114.022 158.643 114.046 158.658 114.073C158.672 114.099 158.682 114.129 158.685 114.16C158.688 114.19 158.685 114.221 158.677 114.25C158.668 114.28 158.654 114.307 158.634 114.331C158.615 114.355 158.591 114.375 158.564 114.39C158.537 114.404 158.508 114.414 158.477 114.417C158.447 114.42 158.416 114.417 158.386 114.409C158.357 114.4 158.33 114.386 158.306 114.366V114.366Z" fill="#CCCCCC"/>
<path d="M154.784 118.733L91.0452 67.4257C91.0212 67.4065 91.0013 67.3827 90.9866 67.3558C90.9719 67.3288 90.9626 67.2993 90.9593 67.2688C90.9561 67.2383 90.9588 67.2074 90.9675 67.178C90.9761 67.1485 90.9905 67.1211 91.0098 67.0972C91.029 67.0733 91.0528 67.0534 91.0798 67.0387C91.1067 67.024 91.1363 67.0148 91.1669 67.0115C91.1974 67.0082 91.2283 67.0109 91.2578 67.0196C91.2872 67.0282 91.3147 67.0426 91.3386 67.0618L155.077 118.369C155.101 118.388 155.121 118.412 155.136 118.439C155.151 118.466 155.16 118.496 155.163 118.526C155.167 118.557 155.164 118.587 155.155 118.617C155.147 118.646 155.132 118.674 155.113 118.698C155.094 118.722 155.07 118.742 155.043 118.756C155.016 118.771 154.986 118.78 154.956 118.783C154.925 118.787 154.894 118.784 154.865 118.775C154.835 118.767 154.808 118.752 154.784 118.733Z" fill="#CCCCCC"/>
<path d="M173.766 126H0.233871C0.171845 126 0.112358 125.975 0.068499 125.932C0.0246397 125.888 0 125.828 0 125.766C0 125.704 0.0246397 125.645 0.068499 125.601C0.112358 125.557 0.171845 125.533 0.233871 125.533H173.766C173.828 125.533 173.888 125.557 173.932 125.601C173.975 125.645 174 125.704 174 125.766C174 125.828 173.975 125.888 173.932 125.932C173.888 125.975 173.828 126 173.766 126Z" fill="#CCCCCC"/>
<path d="M79.0674 91.2658L76.3937 91.2656L75.1222 80.9629L79.0683 80.9634L79.0674 91.2658Z" fill="#FFB8B8"/>
<path d="M74.4838 90.5024H79.6401V93.7458H71.2372C71.2372 93.3199 71.3212 92.8981 71.4843 92.5046C71.6475 92.1111 71.8866 91.7535 72.1881 91.4523C72.4895 91.1512 72.8475 90.9123 73.2413 90.7493C73.6352 90.5863 74.0574 90.5024 74.4838 90.5024Z" fill="#2F2E41"/>
<path d="M51.7524 91.2658L49.0788 91.2656L47.8073 80.9629L51.7533 80.9634L51.7524 91.2658Z" fill="#FFB8B8"/>
<path d="M47.1689 90.5024H52.3253V93.7458H43.9224C43.9224 93.3199 44.0063 92.8981 44.1695 92.5046C44.3327 92.1111 44.5718 91.7535 44.8733 91.4523C45.1747 91.1512 45.5326 90.9123 45.9265 90.7493C46.3204 90.5863 46.7426 90.5024 47.1689 90.5024Z" fill="#2F2E41"/>
<path d="M60.6827 14.844V13.6758C60.6827 11.6774 61.4774 9.76083 62.8918 8.34775C64.3063 6.93467 66.2247 6.14081 68.2251 6.14081H68.2251C70.2254 6.14081 72.1439 6.93467 73.5583 8.34775C74.9728 9.76083 75.7674 11.6774 75.7674 13.6758V14.844C75.7674 16.2847 75.1946 17.6664 74.1748 18.6851C73.1551 19.7039 71.772 20.2762 70.3299 20.2762H66.1203C65.4062 20.2762 64.6991 20.1357 64.0394 19.8627C63.3797 19.5897 62.7803 19.1896 62.2754 18.6851C61.7704 18.1807 61.3699 17.5819 61.0966 16.9228C60.8234 16.2637 60.6827 15.5574 60.6827 14.844Z" fill="#2F2E41"/>
<path d="M68.2251 20.6782C71.3975 20.6782 73.9692 18.1089 73.9692 14.9397C73.9692 11.7704 71.3975 9.20117 68.2251 9.20117C65.0527 9.20117 62.481 11.7704 62.481 14.9397C62.481 18.1089 65.0527 20.6782 68.2251 20.6782Z" fill="#FFB8B8"/>
<path d="M36.9807 34.6621C37.2138 34.4422 37.4923 34.2761 37.7967 34.1754C38.101 34.0746 38.4237 34.0418 38.7421 34.0792C39.0606 34.1165 39.3669 34.2232 39.6396 34.3916C39.9123 34.5601 40.1447 34.7862 40.3204 35.0541L45.2445 34.1235L46.5404 36.975L39.5681 38.1915C39.0981 38.4567 38.5471 38.5404 38.0194 38.4267C37.4918 38.3131 37.0242 38.01 36.7052 37.575C36.3863 37.1399 36.2382 36.6031 36.289 36.0663C36.3397 35.5294 36.5858 35.0298 36.9807 34.6621V34.6621Z" fill="#FFB8B8"/>
<path d="M63.7468 24.2921L63.8112 24.3895L55.7366 29.7036L42.1116 34.0501C41.931 34.1081 41.7761 34.2268 41.6733 34.386C41.5704 34.5453 41.526 34.7352 41.5476 34.9235L41.8448 37.4811C41.858 37.5943 41.8947 37.7035 41.9526 37.8017C42.0105 37.8999 42.0883 37.9849 42.181 38.0513C42.2737 38.1177 42.3792 38.164 42.4909 38.1873C42.6026 38.2105 42.7179 38.2102 42.8294 38.1864L55.6525 35.4404C56.2731 35.3083 56.8599 35.0502 57.3765 34.6821L66.4478 28.2343C66.7767 27.9993 67.0391 27.6833 67.2095 27.3169C67.3799 26.9506 67.4526 26.5465 67.4204 26.1438C67.3871 25.7406 67.2493 25.353 67.0206 25.0191C66.7919 24.6852 66.4802 24.4165 66.116 24.2395C65.7518 24.0625 65.3478 23.9833 64.9437 24.0096C64.5396 24.0359 64.1492 24.1668 63.8111 24.3895L63.7468 24.2921Z" fill="#CCCCCC"/>
<path d="M76.4414 88.3422C76.2362 88.3422 76.0354 88.2825 75.8636 88.1705C75.6917 88.0584 75.5563 87.8988 75.4738 87.711L63.2166 57.4541C63.188 57.3885 63.1399 57.3332 63.0789 57.2957C63.0179 57.2582 62.9468 57.2402 62.8753 57.2442C62.8038 57.2483 62.7352 57.2741 62.6787 57.3182C62.6223 57.3623 62.5808 57.4227 62.5597 57.4911L52.5598 86.9473C52.5176 87.0843 52.4478 87.2113 52.3546 87.3205C52.2614 87.4296 52.1469 87.5185 52.0181 87.5818C51.8892 87.6451 51.7488 87.6813 51.6054 87.6884C51.462 87.6954 51.3187 87.6731 51.1843 87.6227L47.831 86.3665C47.6489 86.2989 47.4893 86.1822 47.3696 86.0294C47.25 85.8766 47.1752 85.6937 47.1534 85.5009C45.6449 72.372 58.8002 39.2328 58.9333 38.8997L58.9701 38.8074L70.9624 41.4575L70.9873 41.4847C75.7718 46.6991 79.7045 79.5875 80.4443 86.1276C80.4719 86.3638 80.4181 86.6024 80.2917 86.804C80.1654 87.0055 79.9742 87.1581 79.7494 87.2366L76.7895 88.2824C76.6777 88.3219 76.56 88.3422 76.4414 88.3422Z" fill="#2F2E41"/>
<path d="M66.1088 42.5242C63.2033 42.5242 59.964 41.9455 58.9669 39.5568L58.944 39.5019L58.975 39.451C59.762 38.161 60.8022 35.9603 60.2431 35.5472C59.1417 34.7337 58.6073 33.3954 58.6548 31.5694C58.7578 27.6054 61.4613 24.0861 65.3823 22.8119H65.3823C66.4767 22.462 67.5905 22.1755 68.718 21.9539C69.54 21.7882 70.3885 21.8064 71.2026 22.0072C72.0167 22.2081 72.7761 22.5866 73.4264 23.1155C74.0849 23.6479 74.6171 24.3193 74.9849 25.0816C75.3527 25.844 75.547 26.6782 75.5537 27.5244C75.5948 31.7606 74.942 37.6606 71.5984 41.7113C71.4417 41.8992 71.2237 42.0259 70.9827 42.069C69.3741 42.3597 67.7435 42.512 66.1088 42.5242Z" fill="#CCCCCC"/>
<path d="M65.028 42.3656C65.1862 41.7989 65.5617 41.3175 66.0732 41.026C66.5846 40.7344 67.1905 40.6563 67.7593 40.8085C67.8754 40.841 67.9886 40.8829 68.0979 40.9338L71.8367 37.5346L74.4369 39.2846L69.0902 44.0114C68.8487 44.4463 68.4687 44.788 68.0104 44.9822C67.5522 45.1764 67.0421 45.2119 66.5613 45.0831C66.2812 45.0065 66.0191 44.8752 65.7902 44.6968C65.5612 44.5185 65.3699 44.2965 65.2273 44.0438C65.0847 43.7911 64.9937 43.5127 64.9595 43.2246C64.9253 42.9366 64.9486 42.6446 65.028 42.3656Z" fill="#FFB8B8"/>
<path d="M71.2445 42.4088C71.0019 42.4089 70.7667 42.3251 70.579 42.1716L69.1046 40.9679C68.9817 40.8676 68.8831 40.7407 68.8162 40.5969C68.7493 40.4531 68.7158 40.2961 68.7183 40.1375C68.7207 39.979 68.759 39.823 68.8304 39.6814C68.9017 39.5397 69.0042 39.416 69.1301 39.3195L75.314 34.5813C75.3873 34.5249 75.4354 34.4418 75.4478 34.3502C75.4602 34.2586 75.436 34.1658 75.3803 34.0919L71.5635 29.0508C71.12 28.467 70.8976 27.7454 70.9356 27.0136C70.9736 26.2817 71.2695 25.587 71.771 25.0522C72.2992 24.4823 73.0225 24.1316 73.7975 24.0697C74.5724 24.0078 75.3423 24.2391 75.9544 24.7179L75.9786 24.7433L79.9642 30.4448C80.3952 30.7824 80.7422 31.2149 80.9782 31.7086C81.2142 32.2024 81.3328 32.7439 81.3246 33.291C81.3164 33.8381 81.1818 34.3759 80.9312 34.8624C80.6806 35.3489 80.3209 35.7709 79.88 36.0955L71.871 42.2026C71.6896 42.3365 71.47 42.4088 71.2445 42.4088Z" fill="#CCCCCC"/>
<path d="M63.1371 13.3253V10.4781L68.2251 8.25848L73.0766 10.4781V13.3253C73.0766 13.4492 73.0273 13.5681 72.9396 13.6557C72.8519 13.7433 72.7329 13.7926 72.6088 13.7926H63.6048C63.4808 13.7926 63.3618 13.7433 63.2741 13.6557C63.1864 13.5681 63.1371 13.4492 63.1371 13.3253Z" fill="#2F2E41"/>
<path d="M67.9915 6.51853C67.2434 4.12638 68.8146 1.38486 71.1373 0.437988C73.46 -0.508887 76.2388 0.153008 78.1987 1.71739C80.1586 3.28177 81.3746 5.62492 82.0189 8.04703C82.6632 10.4691 82.7855 12.9948 82.9044 15.4982C85.7582 16.0219 87.6994 19.4034 86.7109 22.1286C85.7223 24.8538 82.0632 26.2077 79.5362 24.7833C77.0092 23.3589 76.2773 19.5299 78.1011 17.2755C78.9641 16.2088 79.4461 14.8849 79.4709 13.5135C79.4957 12.1422 79.0618 10.8018 78.238 9.70457C77.4141 8.60738 76.2474 7.81615 74.9227 7.45618C73.5979 7.09621 72.1907 7.18809 70.9241 7.71726C69.5177 8.30485 67.7529 6.77817 67.9915 6.51853Z" fill="#2F2E41"/>
<path d="M35.9258 23.6173C32.5091 23.5949 29.1351 22.8566 26.0218 21.4502C25.8365 21.3677 25.6792 21.2332 25.5691 21.0629C25.4589 20.8926 25.4008 20.6941 25.4016 20.4914V11.9826C25.4019 11.7039 25.5129 11.4366 25.7102 11.2395C25.9075 11.0424 26.175 10.9315 26.454 10.9312H45.3976C45.6766 10.9315 45.9441 11.0424 46.1414 11.2395C46.3387 11.4366 46.4497 11.7039 46.45 11.9826V20.4914C46.4508 20.6941 46.3927 20.8927 46.2826 21.0629C46.1724 21.2332 46.0151 21.3677 45.8298 21.4503C42.7165 22.8566 39.3425 23.5949 35.9258 23.6173Z" fill="#6C63FF"/>
<path d="M35.9233 16.7241C35.7828 16.7242 35.6438 16.6963 35.5143 16.6419L20.4923 10.3103C20.2986 10.2287 20.1338 10.0909 20.0192 9.91484C19.9045 9.73876 19.8453 9.53241 19.8492 9.3224C19.853 9.11239 19.9198 8.90834 20.0408 8.73658C20.1618 8.56481 20.3315 8.43319 20.5281 8.35869L35.5503 2.66536C35.7923 2.57324 36.0598 2.57381 36.3013 2.66696L51.1222 8.36028C51.3177 8.43537 51.4863 8.56702 51.6064 8.73838C51.7266 8.90974 51.7928 9.11302 51.7967 9.3222C51.8006 9.53138 51.7419 9.73696 51.6282 9.91264C51.5144 10.0883 51.3508 10.2261 51.1582 10.3084L36.3372 16.6399C36.2063 16.6955 36.0655 16.7242 35.9233 16.7241Z" fill="#6C63FF"/>
<path d="M27.1557 22.0292C27.9306 22.0292 28.5589 21.4015 28.5589 20.6273C28.5589 19.8531 27.9306 19.2255 27.1557 19.2255C26.3807 19.2255 25.7524 19.8531 25.7524 20.6273C25.7524 21.4015 26.3807 22.0292 27.1557 22.0292Z" fill="#3F3D56"/>
<path opacity="0.2" d="M51.2096 9.40961L36.3885 15.7411C36.2729 15.7905 36.1486 15.8161 36.0229 15.8164C35.8973 15.8167 35.7728 15.7917 35.657 15.7429L20.6351 9.41146C20.4464 9.33385 20.289 9.19564 20.1877 9.01869C20.1215 9.13344 20.0805 9.26095 20.0673 9.39276C20.0542 9.52457 20.0693 9.65766 20.1116 9.7832C20.1539 9.90873 20.2225 10.0238 20.3127 10.1209C20.403 10.2179 20.5128 10.2947 20.6351 10.346L35.657 16.6775C35.7728 16.7263 35.8973 16.7513 36.0229 16.751C36.1486 16.7506 36.2729 16.7251 36.3885 16.6757L51.2096 10.3442C51.3312 10.2924 51.4404 10.2154 51.53 10.1183C51.6196 10.0212 51.6876 9.90624 51.7295 9.78097C51.7714 9.65571 51.7862 9.52299 51.7729 9.39159C51.7597 9.26019 51.7187 9.13309 51.6526 9.01868C51.5521 9.19421 51.3963 9.33165 51.2096 9.40961Z" fill="black"/>
<path d="M27.2735 20.6219C27.3356 20.6219 27.3951 20.5973 27.4389 20.5535C27.4828 20.5096 27.5074 20.4502 27.5074 20.3882V12.5702L35.2208 9.763C35.2828 9.76392 35.3426 9.74019 35.3871 9.69703C35.4317 9.65386 35.4572 9.5948 35.4581 9.53284C35.459 9.47087 35.4353 9.41108 35.3921 9.36661C35.3489 9.32214 35.2897 9.29664 35.2277 9.29572L27.5144 12.103C27.4523 12.1015 27.3906 12.1127 27.333 12.1358C27.2754 12.1589 27.223 12.1935 27.1792 12.2373C27.1348 12.2807 27.0996 12.3325 27.0757 12.3897C27.0517 12.4469 27.0395 12.5083 27.0397 12.5702V20.3882C27.0397 20.4502 27.0643 20.5096 27.1082 20.5534C27.152 20.5973 27.2115 20.6219 27.2735 20.6219Z" fill="#3F3D56"/>
</g>
<defs>
<clipPath id="clip0">
<rect width="174" height="126" fill="white"/>
</clipPath>
</defs>
</svg>
