<svg width="58" height="16" viewBox="0 0 58 16" fill="none" xmlns="http://www.w3.org/2000/svg">
<path d="M5.69531 8.23242H2.11523V12H0.990234V3.46875H6.27539V4.39453H2.11523V7.3125H5.69531V8.23242ZM7.03711 8.77148C7.03711 8.15039 7.1582 7.5918 7.40039 7.0957C7.64648 6.59961 7.98633 6.2168 8.41992 5.94727C8.85742 5.67773 9.35547 5.54297 9.91406 5.54297C10.7773 5.54297 11.4746 5.8418 12.0059 6.43945C12.541 7.03711 12.8086 7.83203 12.8086 8.82422V8.90039C12.8086 9.51758 12.6895 10.0723 12.4512 10.5645C12.2168 11.0527 11.8789 11.4336 11.4375 11.707C11 11.9805 10.4961 12.1172 9.92578 12.1172C9.06641 12.1172 8.36914 11.8184 7.83398 11.2207C7.30273 10.623 7.03711 9.83203 7.03711 8.84766V8.77148ZM8.12695 8.90039C8.12695 9.60352 8.28906 10.168 8.61328 10.5938C8.94141 11.0195 9.37891 11.2324 9.92578 11.2324C10.4766 11.2324 10.9141 11.0176 11.2383 10.5879C11.5625 10.1543 11.7246 9.54883 11.7246 8.77148C11.7246 8.07617 11.5586 7.51367 11.2266 7.08398C10.8984 6.65039 10.4609 6.43359 9.91406 6.43359C9.37891 6.43359 8.94727 6.64648 8.61914 7.07227C8.29102 7.49805 8.12695 8.10742 8.12695 8.90039ZM15.3457 12H14.2617V3H15.3457V12ZM18.2637 12H17.1797V3H18.2637V12ZM19.7168 8.77148C19.7168 8.15039 19.8379 7.5918 20.0801 7.0957C20.3262 6.59961 20.666 6.2168 21.0996 5.94727C21.5371 5.67773 22.0352 5.54297 22.5938 5.54297C23.457 5.54297 24.1543 5.8418 24.6855 6.43945C25.2207 7.03711 25.4883 7.83203 25.4883 8.82422V8.90039C25.4883 9.51758 25.3691 10.0723 25.1309 10.5645C24.8965 11.0527 24.5586 11.4336 24.1172 11.707C23.6797 11.9805 23.1758 12.1172 22.6055 12.1172C21.7461 12.1172 21.0488 11.8184 20.5137 11.2207C19.9824 10.623 19.7168 9.83203 19.7168 8.84766V8.77148ZM20.8066 8.90039C20.8066 9.60352 20.9688 10.168 21.293 10.5938C21.6211 11.0195 22.0586 11.2324 22.6055 11.2324C23.1562 11.2324 23.5938 11.0176 23.918 10.5879C24.2422 10.1543 24.4043 9.54883 24.4043 8.77148C24.4043 8.07617 24.2383 7.51367 23.9062 7.08398C23.5781 6.65039 23.1406 6.43359 22.5938 6.43359C22.0586 6.43359 21.627 6.64648 21.2988 7.07227C20.9707 7.49805 20.8066 8.10742 20.8066 8.90039ZM32.4609 10.5059L33.6797 5.66016H34.7637L32.918 12H32.0391L30.498 7.19531L28.998 12H28.1191L26.2793 5.66016H27.3574L28.6055 10.4062L30.082 5.66016H30.9551L32.4609 10.5059Z" fill="#958F8F"/>
<g opacity="0.5">
<path d="M58 7H56V5H55V7H53V8H55V10H56V8H58V7Z" fill="black"/>
<path d="M48 2C48.4945 2 48.9778 2.14662 49.3889 2.42133C49.8 2.69603 50.1205 3.08648 50.3097 3.54329C50.4989 4.00011 50.5484 4.50277 50.452 4.98773C50.3555 5.47268 50.1174 5.91814 49.7678 6.26777C49.4181 6.6174 48.9727 6.8555 48.4877 6.95196C48.0028 7.04843 47.5001 6.99892 47.0433 6.8097C46.5865 6.62048 46.196 6.30005 45.9213 5.88893C45.6466 5.4778 45.5 4.99445 45.5 4.5C45.5 3.83696 45.7634 3.20107 46.2322 2.73223C46.7011 2.26339 47.337 2 48 2ZM48 1C47.3078 1 46.6311 1.20527 46.0555 1.58986C45.4799 1.97444 45.0313 2.52107 44.7664 3.16061C44.5015 3.80015 44.4322 4.50388 44.5673 5.18282C44.7023 5.86175 45.0356 6.48539 45.5251 6.97487C46.0146 7.46436 46.6383 7.7977 47.3172 7.93275C47.9961 8.0678 48.6999 7.99849 49.3394 7.73358C49.9789 7.46867 50.5256 7.02007 50.9101 6.4445C51.2947 5.86892 51.5 5.19223 51.5 4.5C51.5 3.57174 51.1313 2.6815 50.4749 2.02513C49.8185 1.36875 48.9283 1 48 1Z" fill="black"/>
<path d="M53 15H52V12.5C52 11.837 51.7366 11.2011 51.2678 10.7322C50.7989 10.2634 50.163 10 49.5 10H46.5C45.837 10 45.2011 10.2634 44.7322 10.7322C44.2634 11.2011 44 11.837 44 12.5V15H43V12.5C43 11.5717 43.3687 10.6815 44.0251 10.0251C44.6815 9.36875 45.5717 9 46.5 9H49.5C50.4283 9 51.3185 9.36875 51.9749 10.0251C52.6313 10.6815 53 11.5717 53 12.5V15Z" fill="black"/>
</g>
</svg>
