<svg width="229" height="54" viewBox="0 0 229 54" fill="none" xmlns="http://www.w3.org/2000/svg">
<g filter="url(#filter0_dddddd_20:118)">
<rect x="1.5" y="1.5" width="226" height="51" rx="25.5" fill="white" stroke="#3498DB" stroke-width="3"/>
<path d="M88.6992 32.6328H96.4453V35H85.7344V17.9375H88.6992V32.6328ZM97.9102 28.543C97.9102 27.3008 98.1562 26.1836 98.6484 25.1914C99.1406 24.1914 99.832 23.4258 100.723 22.8945C101.613 22.3555 102.637 22.0859 103.793 22.0859C105.504 22.0859 106.891 22.6367 107.953 23.7383C109.023 24.8398 109.602 26.3008 109.688 28.1211L109.699 28.7891C109.699 30.0391 109.457 31.1562 108.973 32.1406C108.496 33.125 107.809 33.8867 106.91 34.4258C106.02 34.9648 104.988 35.2344 103.816 35.2344C102.027 35.2344 100.594 34.6406 99.5156 33.4531C98.4453 32.2578 97.9102 30.668 97.9102 28.6836V28.543ZM100.758 28.7891C100.758 30.0938 101.027 31.1172 101.566 31.8594C102.105 32.5938 102.855 32.9609 103.816 32.9609C104.777 32.9609 105.523 32.5859 106.055 31.8359C106.594 31.0859 106.863 29.9883 106.863 28.543C106.863 27.2617 106.586 26.2461 106.031 25.4961C105.484 24.7461 104.738 24.3711 103.793 24.3711C102.863 24.3711 102.125 24.7422 101.578 25.4844C101.031 26.2188 100.758 27.3203 100.758 28.7891ZM111.609 28.5664C111.609 26.5977 112.07 25.0273 112.992 23.8555C113.922 22.6758 115.152 22.0859 116.684 22.0859C118.129 22.0859 119.266 22.5898 120.094 23.5977L120.223 22.3203H122.789V34.6133C122.789 36.2773 122.27 37.5898 121.23 38.5508C120.199 39.5117 118.805 39.9922 117.047 39.9922C116.117 39.9922 115.207 39.7969 114.316 39.4062C113.434 39.0234 112.762 38.5195 112.301 37.8945L113.648 36.1836C114.523 37.2227 115.602 37.7422 116.883 37.7422C117.828 37.7422 118.574 37.4844 119.121 36.9688C119.668 36.4609 119.941 35.7109 119.941 34.7188V33.8633C119.121 34.7773 118.027 35.2344 116.66 35.2344C115.176 35.2344 113.961 34.6445 113.016 33.4648C112.078 32.2852 111.609 30.6523 111.609 28.5664ZM114.445 28.8125C114.445 30.0859 114.703 31.0898 115.219 31.8242C115.742 32.5508 116.465 32.9141 117.387 32.9141C118.535 32.9141 119.387 32.4219 119.941 31.4375V25.8594C119.402 24.8984 118.559 24.418 117.41 24.418C116.473 24.418 115.742 24.7891 115.219 25.5312C114.703 26.2734 114.445 27.3672 114.445 28.8125ZM128.754 35H125.906V22.3203H128.754V35ZM125.73 19.0273C125.73 18.5898 125.867 18.2266 126.141 17.9375C126.422 17.6484 126.82 17.5039 127.336 17.5039C127.852 17.5039 128.25 17.6484 128.531 17.9375C128.812 18.2266 128.953 18.5898 128.953 19.0273C128.953 19.457 128.812 19.8164 128.531 20.1055C128.25 20.3867 127.852 20.5273 127.336 20.5273C126.82 20.5273 126.422 20.3867 126.141 20.1055C125.867 19.8164 125.73 19.457 125.73 19.0273ZM134.508 22.3203L134.59 23.7852C135.527 22.6523 136.758 22.0859 138.281 22.0859C140.922 22.0859 142.266 23.5977 142.312 26.6211V35H139.465V26.7852C139.465 25.9805 139.289 25.3867 138.938 25.0039C138.594 24.6133 138.027 24.418 137.238 24.418C136.09 24.418 135.234 24.9375 134.672 25.9766V35H131.824V22.3203H134.508Z" fill="#3498DB"/>
</g>
<defs>
<filter id="filter0_dddddd_20:118" x="-80" y="0" width="389" height="234" filterUnits="userSpaceOnUse" color-interpolation-filters="sRGB">
<feFlood flood-opacity="0" result="BackgroundImageFix"/>
<feColorMatrix in="SourceAlpha" type="matrix" values="0 0 0 0 0 0 0 0 0 0 0 0 0 0 0 0 0 0 127 0" result="hardAlpha"/>
<feOffset dy="2.76726"/>
<feGaussianBlur stdDeviation="1.1069"/>
<feColorMatrix type="matrix" values="0 0 0 0 0 0 0 0 0 0 0 0 0 0 0 0 0 0 0.0196802 0"/>
<feBlend mode="normal" in2="BackgroundImageFix" result="effect1_dropShadow_20:118"/>
<feColorMatrix in="SourceAlpha" type="matrix" values="0 0 0 0 0 0 0 0 0 0 0 0 0 0 0 0 0 0 127 0" result="hardAlpha"/>
<feOffset dy="6.6501"/>
<feGaussianBlur stdDeviation="2.66004"/>
<feColorMatrix type="matrix" values="0 0 0 0 0 0 0 0 0 0 0 0 0 0 0 0 0 0 0.0282725 0"/>
<feBlend mode="normal" in2="effect1_dropShadow_20:118" result="effect2_dropShadow_20:118"/>
<feColorMatrix in="SourceAlpha" type="matrix" values="0 0 0 0 0 0 0 0 0 0 0 0 0 0 0 0 0 0 127 0" result="hardAlpha"/>
<feOffset dy="12.5216"/>
<feGaussianBlur stdDeviation="5.00862"/>
<feColorMatrix type="matrix" values="0 0 0 0 0 0 0 0 0 0 0 0 0 0 0 0 0 0 0.035 0"/>
<feBlend mode="normal" in2="effect2_dropShadow_20:118" result="effect3_dropShadow_20:118"/>
<feColorMatrix in="SourceAlpha" type="matrix" values="0 0 0 0 0 0 0 0 0 0 0 0 0 0 0 0 0 0 127 0" result="hardAlpha"/>
<feOffset dy="22.3363"/>
<feGaussianBlur stdDeviation="8.93452"/>
<feColorMatrix type="matrix" values="0 0 0 0 0 0 0 0 0 0 0 0 0 0 0 0 0 0 0.0417275 0"/>
<feBlend mode="normal" in2="effect3_dropShadow_20:118" result="effect4_dropShadow_20:118"/>
<feColorMatrix in="SourceAlpha" type="matrix" values="0 0 0 0 0 0 0 0 0 0 0 0 0 0 0 0 0 0 127 0" result="hardAlpha"/>
<feOffset dy="41.7776"/>
<feGaussianBlur stdDeviation="16.711"/>
<feColorMatrix type="matrix" values="0 0 0 0 0 0 0 0 0 0 0 0 0 0 0 0 0 0 0.0503198 0"/>
<feBlend mode="normal" in2="effect4_dropShadow_20:118" result="effect5_dropShadow_20:118"/>
<feColorMatrix in="SourceAlpha" type="matrix" values="0 0 0 0 0 0 0 0 0 0 0 0 0 0 0 0 0 0 127 0" result="hardAlpha"/>
<feOffset dy="100"/>
<feGaussianBlur stdDeviation="40"/>
<feColorMatrix type="matrix" values="0 0 0 0 0 0 0 0 0 0 0 0 0 0 0 0 0 0 0.07 0"/>
<feBlend mode="normal" in2="effect5_dropShadow_20:118" result="effect6_dropShadow_20:118"/>
<feBlend mode="normal" in="SourceGraphic" in2="effect6_dropShadow_20:118" result="shape"/>
</filter>
</defs>
</svg>
