<svg width="183" height="45" viewBox="0 0 183 45" fill="none" xmlns="http://www.w3.org/2000/svg">
<g filter="url(#filter0_d_51_402)">
<rect width="183" height="45" rx="22.5" fill="#1F1F20"/>
<path d="M44.5244 26.2246H50.334V28H42.3008V15.2031H44.5244V26.2246ZM54.1045 28H51.9688V18.4902H54.1045V28ZM51.8369 16.0205C51.8369 15.6924 51.9395 15.4199 52.1445 15.2031C52.3555 14.9863 52.6543 14.8779 53.041 14.8779C53.4277 14.8779 53.7266 14.9863 53.9375 15.2031C54.1484 15.4199 54.2539 15.6924 54.2539 16.0205C54.2539 16.3428 54.1484 16.6123 53.9375 16.8291C53.7266 17.04 53.4277 17.1455 53.041 17.1455C52.6543 17.1455 52.3555 17.04 52.1445 16.8291C51.9395 16.6123 51.8369 16.3428 51.8369 16.0205ZM58.543 19.5273C59.2402 18.7188 60.1221 18.3145 61.1885 18.3145C63.2158 18.3145 64.2441 19.4717 64.2734 21.7861V28H62.1377V21.8652C62.1377 21.209 61.9941 20.7461 61.707 20.4766C61.4258 20.2012 61.0098 20.0635 60.459 20.0635C59.6035 20.0635 58.9648 20.4443 58.543 21.2061V28H56.4072V14.5H58.543V19.5273ZM72.1221 28C72.0283 27.8184 71.9463 27.5225 71.876 27.1123C71.1963 27.8213 70.3643 28.1758 69.3799 28.1758C68.4248 28.1758 67.6455 27.9033 67.042 27.3584C66.4385 26.8135 66.1367 26.1396 66.1367 25.3369C66.1367 24.3232 66.5117 23.5469 67.2617 23.0078C68.0176 22.4629 69.0957 22.1904 70.4961 22.1904H71.8057V21.5664C71.8057 21.0742 71.668 20.6816 71.3926 20.3887C71.1172 20.0898 70.6982 19.9404 70.1357 19.9404C69.6494 19.9404 69.251 20.0635 68.9404 20.3096C68.6299 20.5498 68.4746 20.8574 68.4746 21.2324H66.3389C66.3389 20.7109 66.5117 20.2246 66.8574 19.7734C67.2031 19.3164 67.6719 18.959 68.2637 18.7012C68.8613 18.4434 69.5264 18.3145 70.2588 18.3145C71.3721 18.3145 72.2598 18.5957 72.9219 19.1582C73.584 19.7148 73.9238 20.5 73.9414 21.5137V25.8027C73.9414 26.6582 74.0615 27.3408 74.3018 27.8506V28H72.1221ZM69.7754 26.4619C70.1973 26.4619 70.5928 26.3594 70.9619 26.1543C71.3369 25.9492 71.6182 25.6738 71.8057 25.3281V23.5352H70.6543C69.8633 23.5352 69.2686 23.6729 68.8701 23.9482C68.4717 24.2236 68.2725 24.6133 68.2725 25.1172C68.2725 25.5273 68.4072 25.8555 68.6768 26.1016C68.9521 26.3418 69.3184 26.4619 69.7754 26.4619ZM78.8545 16.1787V18.4902H80.5332V20.0723H78.8545V25.3809C78.8545 25.7441 78.9248 26.0078 79.0654 26.1719C79.2119 26.3301 79.4697 26.4092 79.8389 26.4092C80.085 26.4092 80.334 26.3799 80.5859 26.3213V27.9736C80.0996 28.1084 79.6309 28.1758 79.1797 28.1758C77.5391 28.1758 76.7188 27.2705 76.7188 25.46V20.0723H75.1543V18.4902H76.7188V16.1787H78.8545ZM92.0996 15.2031H94.3145V24.1768C94.3145 25.4014 93.9307 26.374 93.1631 27.0947C92.4014 27.8154 91.3936 28.1758 90.1396 28.1758C88.8037 28.1758 87.7725 27.8389 87.0459 27.165C86.3193 26.4912 85.9561 25.5537 85.9561 24.3525H88.1709C88.1709 25.0322 88.3379 25.5449 88.6719 25.8906C89.0117 26.2305 89.501 26.4004 90.1396 26.4004C90.7373 26.4004 91.2119 26.2041 91.5635 25.8115C91.9209 25.4131 92.0996 24.8652 92.0996 24.168V15.2031ZM102.339 28C102.245 27.8184 102.163 27.5225 102.093 27.1123C101.413 27.8213 100.581 28.1758 99.5967 28.1758C98.6416 28.1758 97.8623 27.9033 97.2588 27.3584C96.6553 26.8135 96.3535 26.1396 96.3535 25.3369C96.3535 24.3232 96.7285 23.5469 97.4785 23.0078C98.2344 22.4629 99.3125 22.1904 100.713 22.1904H102.022V21.5664C102.022 21.0742 101.885 20.6816 101.609 20.3887C101.334 20.0898 100.915 19.9404 100.353 19.9404C99.8662 19.9404 99.4678 20.0635 99.1572 20.3096C98.8467 20.5498 98.6914 20.8574 98.6914 21.2324H96.5557C96.5557 20.7109 96.7285 20.2246 97.0742 19.7734C97.4199 19.3164 97.8887 18.959 98.4805 18.7012C99.0781 18.4434 99.7432 18.3145 100.476 18.3145C101.589 18.3145 102.477 18.5957 103.139 19.1582C103.801 19.7148 104.141 20.5 104.158 21.5137V25.8027C104.158 26.6582 104.278 27.3408 104.519 27.8506V28H102.339ZM99.9922 26.4619C100.414 26.4619 100.81 26.3594 101.179 26.1543C101.554 25.9492 101.835 25.6738 102.022 25.3281V23.5352H100.871C100.08 23.5352 99.4854 23.6729 99.0869 23.9482C98.6885 24.2236 98.4893 24.6133 98.4893 25.1172C98.4893 25.5273 98.624 25.8555 98.8936 26.1016C99.1689 26.3418 99.5352 26.4619 99.9922 26.4619ZM105.995 23.1748C105.995 21.71 106.335 20.5352 107.015 19.6504C107.694 18.7598 108.605 18.3145 109.748 18.3145C110.756 18.3145 111.57 18.666 112.191 19.3691V14.5H114.327V28H112.394L112.288 27.0156C111.649 27.7891 110.797 28.1758 109.73 28.1758C108.617 28.1758 107.715 27.7275 107.023 26.8311C106.338 25.9346 105.995 24.7158 105.995 23.1748ZM108.131 23.3594C108.131 24.3262 108.315 25.082 108.685 25.627C109.06 26.166 109.59 26.4355 110.275 26.4355C111.148 26.4355 111.787 26.0459 112.191 25.2666V21.2061C111.799 20.4443 111.166 20.0635 110.293 20.0635C109.602 20.0635 109.068 20.3389 108.693 20.8896C108.318 21.4346 108.131 22.2578 108.131 23.3594ZM124.909 25.0557L126.421 18.4902H128.504L125.911 28H124.153L122.114 21.4697L120.11 28H118.353L115.751 18.4902H117.834L119.372 24.9854L121.323 18.4902H122.932L124.909 25.0557ZM135.614 28C135.521 27.8184 135.438 27.5225 135.368 27.1123C134.688 27.8213 133.856 28.1758 132.872 28.1758C131.917 28.1758 131.138 27.9033 130.534 27.3584C129.931 26.8135 129.629 26.1396 129.629 25.3369C129.629 24.3232 130.004 23.5469 130.754 23.0078C131.51 22.4629 132.588 22.1904 133.988 22.1904H135.298V21.5664C135.298 21.0742 135.16 20.6816 134.885 20.3887C134.609 20.0898 134.19 19.9404 133.628 19.9404C133.142 19.9404 132.743 20.0635 132.433 20.3096C132.122 20.5498 131.967 20.8574 131.967 21.2324H129.831C129.831 20.7109 130.004 20.2246 130.35 19.7734C130.695 19.3164 131.164 18.959 131.756 18.7012C132.354 18.4434 133.019 18.3145 133.751 18.3145C134.864 18.3145 135.752 18.5957 136.414 19.1582C137.076 19.7148 137.416 20.5 137.434 21.5137V25.8027C137.434 26.6582 137.554 27.3408 137.794 27.8506V28H135.614ZM133.268 26.4619C133.689 26.4619 134.085 26.3594 134.454 26.1543C134.829 25.9492 135.11 25.6738 135.298 25.3281V23.5352H134.146C133.355 23.5352 132.761 23.6729 132.362 23.9482C131.964 24.2236 131.765 24.6133 131.765 25.1172C131.765 25.5273 131.899 25.8555 132.169 26.1016C132.444 26.3418 132.811 26.4619 133.268 26.4619ZM141.942 28H139.807V14.5H141.942V28Z" fill="white"/>
</g>
<defs>
<filter id="filter0_d_51_402" x="-4" y="0" width="191" height="53" filterUnits="userSpaceOnUse" color-interpolation-filters="sRGB">
<feFlood flood-opacity="0" result="BackgroundImageFix"/>
<feColorMatrix in="SourceAlpha" type="matrix" values="0 0 0 0 0 0 0 0 0 0 0 0 0 0 0 0 0 0 127 0" result="hardAlpha"/>
<feOffset dy="4"/>
<feGaussianBlur stdDeviation="2"/>
<feColorMatrix type="matrix" values="0 0 0 0 0 0 0 0 0 0 0 0 0 0 0 0 0 0 0.25 0"/>
<feBlend mode="normal" in2="BackgroundImageFix" result="effect1_dropShadow_51_402"/>
<feBlend mode="normal" in="SourceGraphic" in2="effect1_dropShadow_51_402" result="shape"/>
</filter>
</defs>
</svg>
