<svg width="229" height="54" viewBox="0 0 229 54" fill="none" xmlns="http://www.w3.org/2000/svg">
<g filter="url(#filter0_dddddd_20:111)">
<rect width="229" height="54" rx="27" fill="#3498DB"/>
<path d="M89.6523 30.6055C89.6523 29.8555 89.3867 29.2773 88.8555 28.8711C88.332 28.4648 87.3828 28.0547 86.0078 27.6406C84.6328 27.2266 83.5391 26.7656 82.7266 26.2578C81.1719 25.2812 80.3945 24.0078 80.3945 22.4375C80.3945 21.0625 80.9531 19.9297 82.0703 19.0391C83.1953 18.1484 84.6523 17.7031 86.4414 17.7031C87.6289 17.7031 88.6875 17.9219 89.6172 18.3594C90.5469 18.7969 91.2773 19.4219 91.8086 20.2344C92.3398 21.0391 92.6055 21.9336 92.6055 22.918H89.6523C89.6523 22.0273 89.3711 21.332 88.8086 20.832C88.2539 20.3242 87.457 20.0703 86.418 20.0703C85.4492 20.0703 84.6953 20.2773 84.1562 20.6914C83.625 21.1055 83.3594 21.6836 83.3594 22.4258C83.3594 23.0508 83.6484 23.5742 84.2266 23.9961C84.8047 24.4102 85.7578 24.8164 87.0859 25.2148C88.4141 25.6055 89.4805 26.0547 90.2852 26.5625C91.0898 27.0625 91.6797 27.6406 92.0547 28.2969C92.4297 28.9453 92.6172 29.707 92.6172 30.582C92.6172 32.0039 92.0703 33.1367 90.9766 33.9805C89.8906 34.8164 88.4141 35.2344 86.5469 35.2344C85.3125 35.2344 84.1758 35.0078 83.1367 34.5547C82.1055 34.0938 81.3008 33.4609 80.7227 32.6562C80.1523 31.8516 79.8672 30.9141 79.8672 29.8438H82.832C82.832 30.8125 83.1523 31.5625 83.793 32.0938C84.4336 32.625 85.3516 32.8906 86.5469 32.8906C87.5781 32.8906 88.3516 32.6836 88.8672 32.2695C89.3906 31.8477 89.6523 31.293 89.6523 30.6055ZM97.9727 35H95.125V22.3203H97.9727V35ZM94.9492 19.0273C94.9492 18.5898 95.0859 18.2266 95.3594 17.9375C95.6406 17.6484 96.0391 17.5039 96.5547 17.5039C97.0703 17.5039 97.4688 17.6484 97.75 17.9375C98.0312 18.2266 98.1719 18.5898 98.1719 19.0273C98.1719 19.457 98.0312 19.8164 97.75 20.1055C97.4688 20.3867 97.0703 20.5273 96.5547 20.5273C96.0391 20.5273 95.6406 20.3867 95.3594 20.1055C95.0859 19.8164 94.9492 19.457 94.9492 19.0273ZM100.586 28.5664C100.586 26.5977 101.047 25.0273 101.969 23.8555C102.898 22.6758 104.129 22.0859 105.66 22.0859C107.105 22.0859 108.242 22.5898 109.07 23.5977L109.199 22.3203H111.766V34.6133C111.766 36.2773 111.246 37.5898 110.207 38.5508C109.176 39.5117 107.781 39.9922 106.023 39.9922C105.094 39.9922 104.184 39.7969 103.293 39.4062C102.41 39.0234 101.738 38.5195 101.277 37.8945L102.625 36.1836C103.5 37.2227 104.578 37.7422 105.859 37.7422C106.805 37.7422 107.551 37.4844 108.098 36.9688C108.645 36.4609 108.918 35.7109 108.918 34.7188V33.8633C108.098 34.7773 107.004 35.2344 105.637 35.2344C104.152 35.2344 102.938 34.6445 101.992 33.4648C101.055 32.2852 100.586 30.6523 100.586 28.5664ZM103.422 28.8125C103.422 30.0859 103.68 31.0898 104.195 31.8242C104.719 32.5508 105.441 32.9141 106.363 32.9141C107.512 32.9141 108.363 32.4219 108.918 31.4375V25.8594C108.379 24.8984 107.535 24.418 106.387 24.418C105.449 24.418 104.719 24.7891 104.195 25.5312C103.68 26.2734 103.422 27.3672 103.422 28.8125ZM117.344 22.3203L117.426 23.7852C118.363 22.6523 119.594 22.0859 121.117 22.0859C123.758 22.0859 125.102 23.5977 125.148 26.6211V35H122.301V26.7852C122.301 25.9805 122.125 25.3867 121.773 25.0039C121.43 24.6133 120.863 24.418 120.074 24.418C118.926 24.418 118.07 24.9375 117.508 25.9766V35H114.66V22.3203H117.344ZM146.793 17.9375V29.3398C146.793 31.1523 146.211 32.5898 145.047 33.6523C143.891 34.707 142.348 35.2344 140.418 35.2344C138.465 35.2344 136.914 34.7148 135.766 33.6758C134.617 32.6289 134.043 31.1797 134.043 29.3281V17.9375H136.996V29.3516C136.996 30.4922 137.285 31.3633 137.863 31.9648C138.441 32.5664 139.293 32.8672 140.418 32.8672C142.699 32.8672 143.84 31.6641 143.84 29.2578V17.9375H146.793ZM160.797 28.7891C160.797 30.75 160.352 32.3164 159.461 33.4883C158.57 34.6523 157.375 35.2344 155.875 35.2344C154.484 35.2344 153.371 34.7773 152.535 33.8633V39.875H149.688V22.3203H152.312L152.43 23.6094C153.266 22.5938 154.402 22.0859 155.84 22.0859C157.387 22.0859 158.598 22.6641 159.473 23.8203C160.355 24.9688 160.797 26.5664 160.797 28.6133V28.7891ZM157.961 28.543C157.961 27.2773 157.707 26.2734 157.199 25.5312C156.699 24.7891 155.98 24.418 155.043 24.418C153.879 24.418 153.043 24.8984 152.535 25.8594V31.4844C153.051 32.4688 153.895 32.9609 155.066 32.9609C155.973 32.9609 156.68 32.5977 157.188 31.8711C157.703 31.1367 157.961 30.0273 157.961 28.543Z" fill="white"/>
</g>
<defs>
<filter id="filter0_dddddd_20:111" x="-80" y="0" width="389" height="234" filterUnits="userSpaceOnUse" color-interpolation-filters="sRGB">
<feFlood flood-opacity="0" result="BackgroundImageFix"/>
<feColorMatrix in="SourceAlpha" type="matrix" values="0 0 0 0 0 0 0 0 0 0 0 0 0 0 0 0 0 0 127 0" result="hardAlpha"/>
<feOffset dy="2.76726"/>
<feGaussianBlur stdDeviation="1.1069"/>
<feColorMatrix type="matrix" values="0 0 0 0 0 0 0 0 0 0 0 0 0 0 0 0 0 0 0.0196802 0"/>
<feBlend mode="normal" in2="BackgroundImageFix" result="effect1_dropShadow_20:111"/>
<feColorMatrix in="SourceAlpha" type="matrix" values="0 0 0 0 0 0 0 0 0 0 0 0 0 0 0 0 0 0 127 0" result="hardAlpha"/>
<feOffset dy="6.6501"/>
<feGaussianBlur stdDeviation="2.66004"/>
<feColorMatrix type="matrix" values="0 0 0 0 0 0 0 0 0 0 0 0 0 0 0 0 0 0 0.0282725 0"/>
<feBlend mode="normal" in2="effect1_dropShadow_20:111" result="effect2_dropShadow_20:111"/>
<feColorMatrix in="SourceAlpha" type="matrix" values="0 0 0 0 0 0 0 0 0 0 0 0 0 0 0 0 0 0 127 0" result="hardAlpha"/>
<feOffset dy="12.5216"/>
<feGaussianBlur stdDeviation="5.00862"/>
<feColorMatrix type="matrix" values="0 0 0 0 0 0 0 0 0 0 0 0 0 0 0 0 0 0 0.035 0"/>
<feBlend mode="normal" in2="effect2_dropShadow_20:111" result="effect3_dropShadow_20:111"/>
<feColorMatrix in="SourceAlpha" type="matrix" values="0 0 0 0 0 0 0 0 0 0 0 0 0 0 0 0 0 0 127 0" result="hardAlpha"/>
<feOffset dy="22.3363"/>
<feGaussianBlur stdDeviation="8.93452"/>
<feColorMatrix type="matrix" values="0 0 0 0 0 0 0 0 0 0 0 0 0 0 0 0 0 0 0.0417275 0"/>
<feBlend mode="normal" in2="effect3_dropShadow_20:111" result="effect4_dropShadow_20:111"/>
<feColorMatrix in="SourceAlpha" type="matrix" values="0 0 0 0 0 0 0 0 0 0 0 0 0 0 0 0 0 0 127 0" result="hardAlpha"/>
<feOffset dy="41.7776"/>
<feGaussianBlur stdDeviation="16.711"/>
<feColorMatrix type="matrix" values="0 0 0 0 0 0 0 0 0 0 0 0 0 0 0 0 0 0 0.0503198 0"/>
<feBlend mode="normal" in2="effect4_dropShadow_20:111" result="effect5_dropShadow_20:111"/>
<feColorMatrix in="SourceAlpha" type="matrix" values="0 0 0 0 0 0 0 0 0 0 0 0 0 0 0 0 0 0 127 0" result="hardAlpha"/>
<feOffset dy="100"/>
<feGaussianBlur stdDeviation="40"/>
<feColorMatrix type="matrix" values="0 0 0 0 0 0 0 0 0 0 0 0 0 0 0 0 0 0 0.07 0"/>
<feBlend mode="normal" in2="effect5_dropShadow_20:111" result="effect6_dropShadow_20:111"/>
<feBlend mode="normal" in="SourceGraphic" in2="effect6_dropShadow_20:111" result="shape"/>
</filter>
</defs>
</svg>
