<svg width="191" height="53" viewBox="0 0 191 53" fill="none" xmlns="http://www.w3.org/2000/svg">
<g filter="url(#filter0_d_51_405)">
<rect x="4.5" y="0.5" width="182" height="44" rx="22" stroke="black"/>
<path d="M53.4639 25.0205H48.5068L47.4697 28H45.1582L49.9922 15.2031H51.9873L56.8301 28H54.5098L53.4639 25.0205ZM49.1309 23.2275H52.8398L50.9854 17.9189L49.1309 23.2275ZM60.6006 16.1787V18.4902H62.2793V20.0723H60.6006V25.3809C60.6006 25.7441 60.6709 26.0078 60.8115 26.1719C60.958 26.3301 61.2158 26.4092 61.585 26.4092C61.8311 26.4092 62.0801 26.3799 62.332 26.3213V27.9736C61.8457 28.1084 61.377 28.1758 60.9258 28.1758C59.2852 28.1758 58.4648 27.2705 58.4648 25.46V20.0723H56.9004V18.4902H58.4648V16.1787H60.6006ZM69.6797 27.0684C69.0527 27.8066 68.1621 28.1758 67.0078 28.1758C65.9766 28.1758 65.1943 27.874 64.6611 27.2705C64.1338 26.667 63.8701 25.7939 63.8701 24.6514V18.4902H66.0059V24.625C66.0059 25.832 66.5068 26.4355 67.5088 26.4355C68.5459 26.4355 69.2461 26.0635 69.6094 25.3193V18.4902H71.7451V28H69.7324L69.6797 27.0684ZM78.8994 20.4414C78.6182 20.3945 78.3281 20.3711 78.0293 20.3711C77.0508 20.3711 76.3916 20.7461 76.0518 21.4961V28H73.916V18.4902H75.9551L76.0078 19.5537C76.5234 18.7275 77.2383 18.3145 78.1523 18.3145C78.457 18.3145 78.709 18.3555 78.9082 18.4375L78.8994 20.4414ZM90.1758 15.2031H92.3906V24.1768C92.3906 25.4014 92.0068 26.374 91.2393 27.0947C90.4775 27.8154 89.4697 28.1758 88.2158 28.1758C86.8799 28.1758 85.8486 27.8389 85.1221 27.165C84.3955 26.4912 84.0322 25.5537 84.0322 24.3525H86.2471C86.2471 25.0322 86.4141 25.5449 86.748 25.8906C87.0879 26.2305 87.5771 26.4004 88.2158 26.4004C88.8135 26.4004 89.2881 26.2041 89.6396 25.8115C89.9971 25.4131 90.1758 24.8652 90.1758 24.168V15.2031ZM100.415 28C100.321 27.8184 100.239 27.5225 100.169 27.1123C99.4893 27.8213 98.6572 28.1758 97.6729 28.1758C96.7178 28.1758 95.9385 27.9033 95.335 27.3584C94.7314 26.8135 94.4297 26.1396 94.4297 25.3369C94.4297 24.3232 94.8047 23.5469 95.5547 23.0078C96.3105 22.4629 97.3887 22.1904 98.7891 22.1904H100.099V21.5664C100.099 21.0742 99.9609 20.6816 99.6855 20.3887C99.4102 20.0898 98.9912 19.9404 98.4287 19.9404C97.9424 19.9404 97.5439 20.0635 97.2334 20.3096C96.9229 20.5498 96.7676 20.8574 96.7676 21.2324H94.6318C94.6318 20.7109 94.8047 20.2246 95.1504 19.7734C95.4961 19.3164 95.9648 18.959 96.5566 18.7012C97.1543 18.4434 97.8193 18.3145 98.5518 18.3145C99.665 18.3145 100.553 18.5957 101.215 19.1582C101.877 19.7148 102.217 20.5 102.234 21.5137V25.8027C102.234 26.6582 102.354 27.3408 102.595 27.8506V28H100.415ZM98.0684 26.4619C98.4902 26.4619 98.8857 26.3594 99.2549 26.1543C99.6299 25.9492 99.9111 25.6738 100.099 25.3281V23.5352H98.9473C98.1562 23.5352 97.5615 23.6729 97.1631 23.9482C96.7646 24.2236 96.5654 24.6133 96.5654 25.1172C96.5654 25.5273 96.7002 25.8555 96.9697 26.1016C97.2451 26.3418 97.6113 26.4619 98.0684 26.4619ZM104.071 23.1748C104.071 21.71 104.411 20.5352 105.091 19.6504C105.771 18.7598 106.682 18.3145 107.824 18.3145C108.832 18.3145 109.646 18.666 110.268 19.3691V14.5H112.403V28H110.47L110.364 27.0156C109.726 27.7891 108.873 28.1758 107.807 28.1758C106.693 28.1758 105.791 27.7275 105.1 26.8311C104.414 25.9346 104.071 24.7158 104.071 23.1748ZM106.207 23.3594C106.207 24.3262 106.392 25.082 106.761 25.627C107.136 26.166 107.666 26.4355 108.352 26.4355C109.225 26.4355 109.863 26.0459 110.268 25.2666V21.2061C109.875 20.4443 109.242 20.0635 108.369 20.0635C107.678 20.0635 107.145 20.3389 106.77 20.8896C106.395 21.4346 106.207 22.2578 106.207 23.3594ZM122.985 25.0557L124.497 18.4902H126.58L123.987 28H122.229L120.19 21.4697L118.187 28H116.429L113.827 18.4902H115.91L117.448 24.9854L119.399 18.4902H121.008L122.985 25.0557ZM133.69 28C133.597 27.8184 133.515 27.5225 133.444 27.1123C132.765 27.8213 131.933 28.1758 130.948 28.1758C129.993 28.1758 129.214 27.9033 128.61 27.3584C128.007 26.8135 127.705 26.1396 127.705 25.3369C127.705 24.3232 128.08 23.5469 128.83 23.0078C129.586 22.4629 130.664 22.1904 132.064 22.1904H133.374V21.5664C133.374 21.0742 133.236 20.6816 132.961 20.3887C132.686 20.0898 132.267 19.9404 131.704 19.9404C131.218 19.9404 130.819 20.0635 130.509 20.3096C130.198 20.5498 130.043 20.8574 130.043 21.2324H127.907C127.907 20.7109 128.08 20.2246 128.426 19.7734C128.771 19.3164 129.24 18.959 129.832 18.7012C130.43 18.4434 131.095 18.3145 131.827 18.3145C132.94 18.3145 133.828 18.5957 134.49 19.1582C135.152 19.7148 135.492 20.5 135.51 21.5137V25.8027C135.51 26.6582 135.63 27.3408 135.87 27.8506V28H133.69ZM131.344 26.4619C131.766 26.4619 132.161 26.3594 132.53 26.1543C132.905 25.9492 133.187 25.6738 133.374 25.3281V23.5352H132.223C131.432 23.5352 130.837 23.6729 130.438 23.9482C130.04 24.2236 129.841 24.6133 129.841 25.1172C129.841 25.5273 129.976 25.8555 130.245 26.1016C130.521 26.3418 130.887 26.4619 131.344 26.4619ZM140.019 28H137.883V14.5H140.019V28Z" fill="black"/>
</g>
<defs>
<filter id="filter0_d_51_405" x="0" y="0" width="191" height="53" filterUnits="userSpaceOnUse" color-interpolation-filters="sRGB">
<feFlood flood-opacity="0" result="BackgroundImageFix"/>
<feColorMatrix in="SourceAlpha" type="matrix" values="0 0 0 0 0 0 0 0 0 0 0 0 0 0 0 0 0 0 127 0" result="hardAlpha"/>
<feOffset dy="4"/>
<feGaussianBlur stdDeviation="2"/>
<feColorMatrix type="matrix" values="0 0 0 0 0 0 0 0 0 0 0 0 0 0 0 0 0 0 0.25 0"/>
<feBlend mode="normal" in2="BackgroundImageFix" result="effect1_dropShadow_51_405"/>
<feBlend mode="normal" in="SourceGraphic" in2="effect1_dropShadow_51_405" result="shape"/>
</filter>
</defs>
</svg>
