<svg width="28" height="28" viewBox="0 0 28 28" fill="none" xmlns="http://www.w3.org/2000/svg">
<path d="M10.5 23.3333H7.00004C5.76236 23.3333 4.57538 22.8417 3.70021 21.9665C2.82504 21.0913 2.33337 19.9043 2.33337 18.6667V8.16667C2.33337 6.92899 2.82504 5.742 3.70021 4.86683C4.57538 3.99167 5.76236 3.5 7.00004 3.5H19.8334C21.071 3.5 22.258 3.99167 23.1332 4.86683C24.0084 5.742 24.5 6.92899 24.5 8.16667V11.6667" stroke="#3498DB" stroke-width="2" stroke-linecap="round" stroke-linejoin="round"/>
<path d="M9.33337 2.33333V4.66666" stroke="#3498DB" stroke-width="2" stroke-linecap="round" stroke-linejoin="round"/>
<path d="M17.5 2.33333V4.66666" stroke="#3498DB" stroke-width="2" stroke-linecap="round" stroke-linejoin="round"/>
<path d="M2.33337 9.33333H24.5" stroke="#3498DB" stroke-width="2" stroke-linecap="round" stroke-linejoin="round"/>
<path d="M21.5834 18.2502L19.8334 20.0002" stroke="#3498DB" stroke-width="2" stroke-linecap="round" stroke-linejoin="round"/>
<path d="M19.8333 25.6667C23.055 25.6667 25.6667 23.055 25.6667 19.8333C25.6667 16.6117 23.055 14 19.8333 14C16.6117 14 14 16.6117 14 19.8333C14 23.055 16.6117 25.6667 19.8333 25.6667Z" stroke="#3498DB" stroke-width="2" stroke-linecap="round" stroke-linejoin="round"/>
</svg>
