<svg width="134" height="134" viewBox="0 0 134 134" fill="none" xmlns="http://www.w3.org/2000/svg">
<g filter="url(#filter0_dddddd_41:998)">
<rect width="134" height="134" rx="24" fill="#A1D5F9"/>
</g>
<path d="M32.4375 93.9375V105.176C32.4375 107.043 31.8516 108.52 30.6797 109.605C29.5156 110.691 27.9219 111.234 25.8984 111.234C23.9062 111.234 22.3242 110.707 21.1523 109.652C19.9805 108.598 19.3828 107.148 19.3594 105.305V93.9375H22.875V105.199C22.875 106.316 23.1406 107.133 23.6719 107.648C24.2109 108.156 24.9531 108.41 25.8984 108.41C27.875 108.41 28.8789 107.371 28.9102 105.293V93.9375H32.4375ZM39.9141 93.9375L44.2969 106.312L48.6562 93.9375H53.2734V111H49.7461V106.336L50.0977 98.2852L45.4922 111H43.0781L38.4844 98.2969L38.8359 106.336V111H35.3203V93.9375H39.9141ZM69.2578 93.9375V105.176C69.2578 107.043 68.6719 108.52 67.5 109.605C66.3359 110.691 64.7422 111.234 62.7188 111.234C60.7266 111.234 59.1445 110.707 57.9727 109.652C56.8008 108.598 56.2031 107.148 56.1797 105.305V93.9375H59.6953V105.199C59.6953 106.316 59.9609 107.133 60.4922 107.648C61.0312 108.156 61.7734 108.41 62.7188 108.41C64.6953 108.41 65.6992 107.371 65.7305 105.293V93.9375H69.2578ZM76.7344 93.9375L81.1172 106.312L85.4766 93.9375H90.0938V111H86.5664V106.336L86.918 98.2852L82.3125 111H79.8984L75.3047 98.2969L75.6562 106.336V111H72.1406V93.9375H76.7344Z" fill="#FFFDFD"/>
<path d="M25.499 127H18.6768V125.646L21.8965 122.215C22.3385 121.732 22.6644 121.31 22.874 120.95C23.0882 120.59 23.1953 120.248 23.1953 119.925C23.1953 119.483 23.0837 119.136 22.8604 118.886C22.637 118.631 22.318 118.503 21.9033 118.503C21.4567 118.503 21.1035 118.658 20.8438 118.968C20.5885 119.273 20.4609 119.676 20.4609 120.178H18.4785C18.4785 119.572 18.6221 119.018 18.9092 118.517C19.2008 118.015 19.611 117.623 20.1396 117.341C20.6683 117.054 21.2676 116.91 21.9375 116.91C22.9629 116.91 23.7581 117.156 24.3232 117.648C24.8929 118.141 25.1777 118.836 25.1777 119.733C25.1777 120.226 25.0501 120.727 24.7949 121.237C24.5397 121.748 24.1022 122.342 23.4824 123.021L21.2197 125.407H25.499V127ZM33.0938 117.047L35.6504 124.266L38.1934 117.047H40.8867V127H38.8291V124.279L39.0342 119.583L36.3477 127H34.9395L32.2598 119.59L32.4648 124.279V127H30.4141V117.047H33.0938ZM46.834 127C46.7428 126.822 46.6768 126.601 46.6357 126.337C46.1572 126.87 45.5352 127.137 44.7695 127.137C44.0449 127.137 43.4434 126.927 42.9648 126.508C42.4909 126.089 42.2539 125.56 42.2539 124.922C42.2539 124.138 42.5433 123.536 43.1221 123.117C43.7054 122.698 44.5462 122.486 45.6445 122.481H46.5537V122.058C46.5537 121.716 46.4648 121.442 46.2871 121.237C46.1139 121.032 45.8382 120.93 45.46 120.93C45.1273 120.93 44.8652 121.009 44.6738 121.169C44.487 121.328 44.3936 121.547 44.3936 121.825H42.418C42.418 121.397 42.5501 121 42.8145 120.636C43.0788 120.271 43.4525 119.986 43.9355 119.781C44.4186 119.572 44.9609 119.467 45.5625 119.467C46.474 119.467 47.1963 119.697 47.7295 120.157C48.2673 120.613 48.5361 121.256 48.5361 122.085V125.291C48.5407 125.993 48.6387 126.524 48.8301 126.884V127H46.834ZM45.2002 125.626C45.4919 125.626 45.7607 125.562 46.0068 125.435C46.2529 125.302 46.4352 125.127 46.5537 124.908V123.637H45.8154C44.8265 123.637 44.3001 123.979 44.2363 124.662L44.2295 124.778C44.2295 125.024 44.3161 125.227 44.4893 125.387C44.6624 125.546 44.8994 125.626 45.2002 125.626ZM56.7119 123.37C56.7119 124.509 56.4521 125.423 55.9326 126.111C55.4176 126.795 54.7204 127.137 53.8408 127.137C53.0934 127.137 52.4896 126.877 52.0293 126.357V129.844H50.0537V119.604H51.8857L51.9541 120.328C52.4326 119.754 53.057 119.467 53.8271 119.467C54.7386 119.467 55.4473 119.804 55.9531 120.479C56.459 121.153 56.7119 122.083 56.7119 123.268V123.37ZM54.7363 123.227C54.7363 122.538 54.6133 122.007 54.3672 121.634C54.1257 121.26 53.7725 121.073 53.3076 121.073C52.6878 121.073 52.2617 121.31 52.0293 121.784V124.812C52.2708 125.3 52.7015 125.544 53.3213 125.544C54.2646 125.544 54.7363 124.771 54.7363 123.227ZM61.3467 127.137C60.262 127.137 59.3779 126.804 58.6943 126.139C58.0153 125.473 57.6758 124.587 57.6758 123.479V123.288C57.6758 122.545 57.8193 121.882 58.1064 121.299C58.3936 120.711 58.7992 120.26 59.3232 119.945C59.8519 119.626 60.4535 119.467 61.1279 119.467C62.1396 119.467 62.9349 119.786 63.5137 120.424C64.097 121.062 64.3887 121.966 64.3887 123.138V123.944H59.6787C59.7425 124.427 59.9339 124.815 60.2529 125.106C60.5765 125.398 60.9844 125.544 61.4766 125.544C62.2376 125.544 62.8324 125.268 63.2607 124.717L64.2314 125.804C63.9352 126.223 63.5342 126.551 63.0283 126.788C62.5225 127.021 61.9619 127.137 61.3467 127.137ZM61.1211 121.066C60.7292 121.066 60.4102 121.199 60.1641 121.463C59.9225 121.727 59.7676 122.105 59.6992 122.598H62.4473V122.44C62.4382 122.003 62.3197 121.666 62.0918 121.429C61.8639 121.187 61.5404 121.066 61.1211 121.066ZM67.6016 127H65.6191V116.5H67.6016V127Z" fill="white"/>
<g clip-path="url(#clip0_41:998)">
<path d="M69.9543 84.7169C69.1992 84.7164 68.4752 84.4181 67.9415 83.8876C67.4077 83.3571 67.1079 82.6378 67.1079 81.8878C67.1079 81.1378 67.4077 80.4185 67.9415 79.8881C68.4752 79.3576 69.1992 79.0593 69.9543 79.0588H112.263C112.05 78.6708 111.736 78.3469 111.353 78.1211C110.971 77.8953 110.535 77.776 110.09 77.7757H25.9917C24.8945 77.7769 23.8427 78.2107 23.0673 78.9817C22.292 79.7528 21.8566 80.798 21.8567 81.8878C21.8572 82.9774 22.2929 84.0222 23.0681 84.7931C23.8433 85.564 24.8947 85.9981 25.9917 86H110.09C110.535 85.9996 110.971 85.8803 111.353 85.6545C111.736 85.4288 112.05 85.1049 112.263 84.7169L69.9543 84.7169Z" fill="#CCCCCC"/>
<path d="M112.319 80.6177H72.0933C72.0317 80.6175 71.9727 80.5931 71.9292 80.5498C71.8857 80.5065 71.8613 80.4479 71.8613 80.3867C71.8613 80.3256 71.8857 80.2669 71.9292 80.2236C71.9727 80.1803 72.0317 80.1559 72.0933 80.1558H112.319C112.38 80.1559 112.439 80.1803 112.483 80.2236C112.526 80.2669 112.551 80.3256 112.551 80.3867C112.551 80.4479 112.526 80.5065 112.483 80.5498C112.439 80.5931 112.38 80.6175 112.319 80.6177Z" fill="#CCCCCC"/>
<path d="M112.319 82.1188H72.0934C72.0317 82.1188 71.9725 82.0944 71.9289 82.0511C71.8853 82.0078 71.8608 81.9491 71.8608 81.8878C71.8608 81.8266 71.8853 81.7678 71.9289 81.7245C71.9725 81.6812 72.0317 81.6569 72.0934 81.6569H112.319C112.381 81.6569 112.44 81.6812 112.483 81.7245C112.527 81.7678 112.551 81.8266 112.551 81.8878C112.551 81.9491 112.527 82.0078 112.483 82.0511C112.44 82.0944 112.381 82.1188 112.319 82.1188Z" fill="#CCCCCC"/>
<path d="M112.319 83.6199H72.0933C72.0317 83.6198 71.9727 83.5954 71.9292 83.5521C71.8857 83.5088 71.8613 83.4501 71.8613 83.389C71.8613 83.3278 71.8857 83.2692 71.9292 83.2259C71.9727 83.1826 72.0317 83.1582 72.0933 83.158H112.319C112.38 83.1582 112.439 83.1826 112.483 83.2259C112.526 83.2692 112.551 83.3278 112.551 83.389C112.551 83.4501 112.526 83.5088 112.483 83.5521C112.439 83.5954 112.38 83.6198 112.319 83.6199Z" fill="#CCCCCC"/>
<path d="M59.0258 76.7493C58.2707 76.7488 57.5467 76.4505 57.013 75.92C56.4792 75.3896 56.1794 74.6703 56.1794 73.9203C56.1794 73.1703 56.4792 72.451 57.013 71.9205C57.5467 71.39 58.2707 71.0918 59.0258 71.0912H101.334C101.121 70.7033 100.807 70.3793 100.425 70.1536C100.043 69.9278 99.6061 69.8085 99.1613 69.8081H15.0633C13.9661 69.8094 12.9143 70.2432 12.1389 71.0142C11.3636 71.7853 10.9281 72.8305 10.9282 73.9203C10.9288 75.0098 11.3645 76.0547 12.1397 76.8256C12.9149 77.5965 13.9663 78.0305 15.0633 78.0324H99.1613C99.6061 78.0321 100.043 77.9128 100.425 77.687C100.807 77.4612 101.121 77.1373 101.334 76.7493L59.0258 76.7493Z" fill="#3498DB"/>
<path d="M101.39 72.6501H61.1649C61.1034 72.65 61.0444 72.6256 61.0009 72.5823C60.9574 72.539 60.933 72.4803 60.933 72.4192C60.933 72.358 60.9574 72.2994 61.0009 72.2561C61.0444 72.2128 61.1034 72.1884 61.1649 72.1882H101.39C101.452 72.1882 101.511 72.2126 101.555 72.2559C101.598 72.2992 101.623 72.3579 101.623 72.4192C101.623 72.4804 101.598 72.5392 101.555 72.5825C101.511 72.6258 101.452 72.6501 101.39 72.6501Z" fill="#CCCCCC"/>
<path d="M101.39 74.1512H61.165C61.1033 74.1512 61.0442 74.1269 61.0006 74.0836C60.957 74.0403 60.9325 73.9815 60.9325 73.9203C60.9325 73.859 60.957 73.8003 61.0006 73.757C61.0442 73.7137 61.1033 73.6894 61.165 73.6894H101.39C101.452 73.6894 101.511 73.7137 101.555 73.757C101.599 73.8003 101.623 73.859 101.623 73.9203C101.623 73.9815 101.599 74.0403 101.555 74.0836C101.511 74.1269 101.452 74.1512 101.39 74.1512Z" fill="#CCCCCC"/>
<path d="M101.39 75.6524H61.1649C61.1034 75.6522 61.0444 75.6278 61.0009 75.5845C60.9574 75.5412 60.933 75.4826 60.933 75.4214C60.933 75.3603 60.9574 75.3016 61.0009 75.2583C61.0444 75.215 61.1034 75.1906 61.1649 75.1905H101.39C101.421 75.1904 101.451 75.1963 101.48 75.2079C101.508 75.2195 101.534 75.2365 101.555 75.2579C101.577 75.2794 101.594 75.3049 101.606 75.3329C101.617 75.361 101.624 75.3911 101.624 75.4214C101.624 75.4518 101.617 75.4819 101.606 75.5099C101.594 75.538 101.577 75.5635 101.555 75.5849C101.534 75.6064 101.508 75.6234 101.48 75.635C101.451 75.6465 101.421 75.6525 101.39 75.6524Z" fill="#CCCCCC"/>
<path d="M48.0976 68.516C47.3425 68.5155 46.6185 68.2172 46.0848 67.6867C45.551 67.1562 45.2512 66.4369 45.2512 65.6869C45.2512 64.937 45.551 64.2177 46.0848 63.6872C46.6185 63.1567 47.3425 62.8584 48.0976 62.8579H90.406C90.1932 62.4699 89.8791 62.146 89.4968 61.9202C89.1144 61.6944 88.6779 61.5751 88.233 61.5748H4.13502C3.03783 61.576 1.986 62.0098 1.21066 62.7809C0.435309 63.5519 -0.000136512 64.5972 3.21028e-08 65.6869C0.000555136 66.7765 0.436222 67.8213 1.21142 68.5922C1.98662 69.3631 3.03804 69.7972 4.13502 69.7991H88.233C88.6779 69.7987 89.1144 69.6794 89.4968 69.4536C89.8791 69.2279 90.1932 68.904 90.406 68.516L48.0976 68.516Z" fill="#CCCCCC"/>
<path d="M90.4622 64.4167H50.2367C50.1752 64.4166 50.1161 64.3922 50.0727 64.3489C50.0292 64.3056 50.0048 64.2469 50.0048 64.1858C50.0048 64.1246 50.0292 64.066 50.0727 64.0227C50.1161 63.9794 50.1752 63.955 50.2367 63.9548H90.4622C90.5239 63.9548 90.583 63.9792 90.6266 64.0225C90.6702 64.0658 90.6947 64.1245 90.6947 64.1858C90.6947 64.247 90.6702 64.3058 90.6266 64.3491C90.583 64.3924 90.5239 64.4167 90.4622 64.4167Z" fill="#CCCCCC"/>
<path d="M90.4623 65.9179H50.2368C50.2063 65.9179 50.176 65.9119 50.1478 65.9003C50.1196 65.8887 50.094 65.8717 50.0724 65.8502C50.0508 65.8288 50.0337 65.8033 50.022 65.7753C50.0103 65.7473 50.0043 65.7173 50.0043 65.6869C50.0043 65.6566 50.0103 65.6266 50.022 65.5986C50.0337 65.5705 50.0508 65.5451 50.0724 65.5236C50.094 65.5022 50.1196 65.4852 50.1478 65.4736C50.176 65.462 50.2063 65.456 50.2368 65.456H90.4623C90.4928 65.456 90.5231 65.462 90.5513 65.4736C90.5795 65.4852 90.6051 65.5022 90.6267 65.5236C90.6483 65.5451 90.6654 65.5705 90.6771 65.5986C90.6888 65.6266 90.6948 65.6566 90.6948 65.6869C90.6948 65.7173 90.6888 65.7473 90.6771 65.7753C90.6654 65.8033 90.6483 65.8288 90.6267 65.8502C90.6051 65.8717 90.5795 65.8887 90.5513 65.9003C90.5231 65.9119 90.4928 65.9179 90.4623 65.9179Z" fill="#CCCCCC"/>
<path d="M90.4623 67.419H50.2368C50.1751 67.419 50.116 67.3946 50.0724 67.3513C50.0288 67.308 50.0043 67.2493 50.0043 67.188C50.0043 67.1268 50.0288 67.068 50.0724 67.0247C50.116 66.9814 50.1751 66.9571 50.2368 66.9571H90.4623C90.4928 66.9571 90.5231 66.9631 90.5513 66.9747C90.5795 66.9863 90.6051 67.0033 90.6267 67.0247C90.6483 67.0462 90.6654 67.0716 90.6771 67.0997C90.6888 67.1277 90.6948 67.1577 90.6948 67.188C90.6948 67.2184 90.6888 67.2484 90.6771 67.2764C90.6654 67.3044 90.6483 67.3299 90.6267 67.3513C90.6051 67.3728 90.5795 67.3898 90.5513 67.4014C90.5231 67.413 90.4928 67.419 90.4623 67.419Z" fill="#CCCCCC"/>
<path d="M91.3911 50.9517C91.1705 50.9514 90.9582 50.8678 90.7973 50.7179C90.6364 50.5679 90.5388 50.3629 90.5244 50.1442L90.3953 48.1865C90.3802 47.9578 90.4572 47.7326 90.6093 47.5603C90.7615 47.388 90.9763 47.2828 91.2065 47.2678L106.649 46.2634C106.892 46.2475 107.136 46.2795 107.367 46.3574C107.598 46.4353 107.812 46.5576 107.995 46.7174C108.178 46.8771 108.328 47.0712 108.436 47.2885C108.544 47.5058 108.608 47.7421 108.624 47.9839C108.64 48.2256 108.608 48.4681 108.529 48.6976C108.451 48.927 108.328 49.1388 108.167 49.321C108.006 49.5031 107.81 49.652 107.592 49.7592C107.373 49.8663 107.135 49.9296 106.892 49.9455L91.4493 50.9499C91.4298 50.9511 91.4104 50.9517 91.3911 50.9517Z" fill="#3498DB"/>
<path d="M94.4361 51.2042C94.2112 51.2038 93.9951 51.117 93.8331 50.9619C93.6711 50.8069 93.5759 50.5956 93.5672 50.3723L93.4571 47.4483C93.4529 47.3349 93.4712 47.2218 93.5109 47.1154C93.5506 47.009 93.6111 46.9115 93.6888 46.8283C93.7665 46.7451 93.86 46.678 93.9638 46.6307C94.0676 46.5834 94.1798 46.5569 94.294 46.5527L106.993 46.0813C107.223 46.0727 107.448 46.1555 107.617 46.3114C107.786 46.4672 107.886 46.6834 107.894 46.9124L108.004 49.8365C108.009 49.9499 107.99 50.063 107.951 50.1694C107.911 50.2757 107.851 50.3733 107.773 50.4565C107.695 50.5396 107.602 50.6068 107.498 50.6541C107.394 50.7014 107.282 50.7279 107.168 50.7321L94.469 51.2035C94.458 51.204 94.447 51.2042 94.4361 51.2042Z" fill="#2F2E41"/>
<path d="M109.317 78.1587H107.342C107.111 78.1584 106.89 78.0673 106.727 77.9053C106.564 77.7433 106.472 77.5237 106.472 77.2947V60.9431C106.472 60.714 106.564 60.4944 106.727 60.3324C106.89 60.1704 107.111 60.0793 107.342 60.0791H109.317C109.548 60.0793 109.769 60.1704 109.932 60.3324C110.095 60.4944 110.187 60.714 110.187 60.9431V77.2947C110.187 77.5237 110.095 77.7433 109.932 77.9053C109.769 78.0673 109.548 78.1584 109.317 78.1587Z" fill="#2F2E41"/>
<path d="M100.549 69.5154L98.8602 68.4984C98.6631 68.3795 98.5215 68.1877 98.4666 67.9652C98.4117 67.7428 98.4478 67.5077 98.5672 67.3117L107.101 53.3283C107.221 53.1326 107.414 52.992 107.638 52.9374C107.862 52.8829 108.098 52.9188 108.296 53.0373L109.985 54.0543C110.182 54.1732 110.323 54.365 110.378 54.5874C110.433 54.8099 110.397 55.045 110.278 55.241L101.744 69.2244C101.624 69.4201 101.431 69.5607 101.207 69.6153C100.983 69.6698 100.747 69.6339 100.549 69.5154Z" fill="#2F2E41"/>
<path d="M106.317 43.0144C110.086 43.0144 113.142 39.9793 113.142 36.2353C113.142 32.4912 110.086 29.4561 106.317 29.4561C102.547 29.4561 99.4915 32.4912 99.4915 36.2353C99.4915 39.9793 102.547 43.0144 106.317 43.0144Z" fill="#3498DB"/>
<path d="M102.622 38.5499C102.403 38.4783 102.201 38.3607 102.031 38.2053C101.919 38.0943 101.832 37.9601 101.777 37.8123C101.722 37.6644 101.7 37.5064 101.713 37.3494C101.72 37.2375 101.753 37.1287 101.81 37.0316C101.866 36.9345 101.945 36.8517 102.039 36.7896C102.283 36.6341 102.609 36.6336 102.942 36.7791L102.929 34.1326L103.197 34.1314L103.211 37.2426L103.005 37.1137C102.766 36.9646 102.425 36.8596 102.183 37.0134C102.124 37.054 102.074 37.1078 102.039 37.1705C102.004 37.2331 101.983 37.3031 101.98 37.3748C101.971 37.4918 101.987 37.6094 102.028 37.7195C102.069 37.8296 102.133 37.9297 102.216 38.013C102.512 38.2934 102.943 38.3811 103.435 38.4594L103.392 38.7219C103.131 38.6875 102.873 38.63 102.622 38.5499Z" fill="#2F2E41"/>
<path d="M100.17 33.999L100.135 34.2625L101.564 34.4499L101.599 34.1864L100.17 33.999Z" fill="#2F2E41"/>
<path d="M104.681 34.5905L104.646 34.8541L106.075 35.0415L106.11 34.778L104.681 34.5905Z" fill="#2F2E41"/>
<path d="M112.016 65.3303H100.507C100.205 65.3299 99.9158 65.2108 99.7026 64.999C99.4893 64.7871 99.3694 64.4999 99.369 64.2004L101.779 45.8483C101.78 45.5501 101.901 45.2648 102.114 45.0547C102.327 44.8446 102.615 44.7267 102.916 44.727H107C108.631 44.7288 110.196 45.3733 111.349 46.5191C112.503 47.6649 113.152 49.2184 113.154 50.8388V64.2004C113.153 64.4999 113.033 64.7871 112.82 64.999C112.607 65.2108 112.318 65.3299 112.016 65.3303Z" fill="#2F2E41"/>
<path d="M121.918 58.0988C121.989 58.2499 122.015 58.4182 121.992 58.5834C121.969 58.7487 121.898 58.9038 121.789 59.0301L120.497 60.5147C120.423 60.6006 120.332 60.671 120.23 60.7219C120.128 60.7729 120.016 60.8033 119.903 60.8116C119.789 60.8198 119.674 60.8057 119.566 60.77C119.457 60.7344 119.357 60.6778 119.27 60.6036L107.56 50.5549C107.376 50.3966 107.224 50.2036 107.115 49.9871C107.005 49.7706 106.939 49.5348 106.922 49.2931C106.904 49.0514 106.934 48.8087 107.011 48.5786C107.088 48.3486 107.209 48.1358 107.369 47.9525C107.528 47.7691 107.722 47.6188 107.94 47.51C108.158 47.4012 108.396 47.3362 108.639 47.3186C108.883 47.301 109.127 47.3311 109.359 47.4074C109.59 47.4836 109.804 47.6044 109.989 47.7628L121.699 57.8115C121.792 57.8908 121.867 57.9887 121.918 58.0988Z" fill="#3498DB"/>
<path d="M119.334 54.7826C119.405 54.9337 119.43 55.102 119.407 55.2672C119.384 55.4325 119.314 55.5876 119.204 55.7139L116.998 58.2497C116.847 58.4228 116.634 58.5295 116.404 58.5461C116.174 58.5628 115.946 58.4882 115.772 58.3386L106.156 50.0872C106.069 50.013 105.998 49.9226 105.947 49.8212C105.896 49.7199 105.865 49.6094 105.857 49.4963C105.848 49.3831 105.863 49.2694 105.899 49.1617C105.935 49.054 105.991 48.9544 106.066 48.8685L108.272 46.3328C108.347 46.2469 108.437 46.1765 108.54 46.1256C108.642 46.0746 108.753 46.0442 108.867 46.0359C108.981 46.0277 109.095 46.0418 109.204 46.0775C109.312 46.1131 109.412 46.1697 109.499 46.2439L119.115 54.4953C119.207 54.5746 119.282 54.6725 119.334 54.7826Z" fill="#2F2E41"/>
<path d="M106.445 32.2146C105.532 31.4647 104.312 32.1739 103.281 32.0733C102.293 31.977 101.499 31.1141 101.282 30.1856C101.03 29.1023 101.577 28.0019 102.402 27.3079C103.305 26.5479 104.518 26.3117 105.674 26.4274C106.999 26.5599 108.219 27.149 109.318 27.8687C110.378 28.5412 111.356 29.3334 112.233 30.2293C113.019 31.0589 113.69 32.0528 113.92 33.1847C114.129 34.2135 114.006 35.3602 113.409 36.2463C113.092 36.7006 112.662 37.0661 112.161 37.3075C111.639 37.5744 111.081 37.7687 110.576 38.0689C109.812 38.5227 109.08 39.4477 109.34 40.391C109.395 40.5971 109.501 40.7864 109.648 40.9422C109.824 41.1294 110.131 40.8719 109.954 40.6842C109.644 40.3547 109.647 39.9072 109.802 39.5038C109.986 39.0491 110.32 38.6699 110.749 38.4284C111.278 38.115 111.864 37.9166 112.406 37.6299C112.926 37.3675 113.373 36.9844 113.712 36.5132C114.35 35.5962 114.523 34.4151 114.354 33.3288C114.17 32.1532 113.54 31.0937 112.759 30.2106C111.908 29.2496 110.871 28.4421 109.813 27.719C108.678 26.9432 107.427 26.2927 106.054 26.0748C104.863 25.886 103.579 26.0403 102.553 26.7023C101.596 27.3203 100.872 28.3658 100.821 29.5199C100.804 30.0448 100.929 30.5646 101.182 31.0259C101.435 31.4871 101.807 31.873 102.26 32.144C102.724 32.4083 103.261 32.5211 103.793 32.4665C104.363 32.4194 104.93 32.2352 105.505 32.2726C105.765 32.2833 106.014 32.378 106.215 32.5421C106.415 32.706 106.642 32.3771 106.445 32.2146Z" fill="#2F2E41"/>
<path d="M98.4188 67.5479C98.4213 67.5329 98.4241 67.5179 98.4274 67.503C98.4512 67.392 98.497 67.2867 98.562 67.1934C98.627 67.1001 98.71 67.0204 98.8062 66.9592L100.466 65.8958C100.66 65.7719 100.896 65.7294 101.121 65.7777C101.347 65.826 101.543 65.9612 101.669 66.1535L106.789 74.0386C106.914 74.2311 106.957 74.4652 106.908 74.6891C106.86 74.9131 106.724 75.1087 106.53 75.233L104.87 76.2964C104.676 76.4203 104.44 76.4628 104.215 76.4144C103.989 76.3661 103.792 76.231 103.667 76.0386L98.5467 68.1536C98.4297 67.9745 98.3841 67.7586 98.4188 67.5479Z" fill="#2F2E41"/>
</g>
<defs>
<filter id="filter0_dddddd_41:998" x="-80" y="0" width="294" height="314" filterUnits="userSpaceOnUse" color-interpolation-filters="sRGB">
<feFlood flood-opacity="0" result="BackgroundImageFix"/>
<feColorMatrix in="SourceAlpha" type="matrix" values="0 0 0 0 0 0 0 0 0 0 0 0 0 0 0 0 0 0 127 0" result="hardAlpha"/>
<feOffset dy="2.76726"/>
<feGaussianBlur stdDeviation="1.1069"/>
<feColorMatrix type="matrix" values="0 0 0 0 0.203922 0 0 0 0 0.596078 0 0 0 0 0.858824 0 0 0 0.0253031 0"/>
<feBlend mode="normal" in2="BackgroundImageFix" result="effect1_dropShadow_41:998"/>
<feColorMatrix in="SourceAlpha" type="matrix" values="0 0 0 0 0 0 0 0 0 0 0 0 0 0 0 0 0 0 127 0" result="hardAlpha"/>
<feOffset dy="6.6501"/>
<feGaussianBlur stdDeviation="2.66004"/>
<feColorMatrix type="matrix" values="0 0 0 0 0.203922 0 0 0 0 0.596078 0 0 0 0 0.858824 0 0 0 0.0363503 0"/>
<feBlend mode="normal" in2="effect1_dropShadow_41:998" result="effect2_dropShadow_41:998"/>
<feColorMatrix in="SourceAlpha" type="matrix" values="0 0 0 0 0 0 0 0 0 0 0 0 0 0 0 0 0 0 127 0" result="hardAlpha"/>
<feOffset dy="12.5216"/>
<feGaussianBlur stdDeviation="5.00862"/>
<feColorMatrix type="matrix" values="0 0 0 0 0.203922 0 0 0 0 0.596078 0 0 0 0 0.858824 0 0 0 0.045 0"/>
<feBlend mode="normal" in2="effect2_dropShadow_41:998" result="effect3_dropShadow_41:998"/>
<feColorMatrix in="SourceAlpha" type="matrix" values="0 0 0 0 0 0 0 0 0 0 0 0 0 0 0 0 0 0 127 0" result="hardAlpha"/>
<feOffset dy="22.3363"/>
<feGaussianBlur stdDeviation="8.93452"/>
<feColorMatrix type="matrix" values="0 0 0 0 0.203922 0 0 0 0 0.596078 0 0 0 0 0.858824 0 0 0 0.0536497 0"/>
<feBlend mode="normal" in2="effect3_dropShadow_41:998" result="effect4_dropShadow_41:998"/>
<feColorMatrix in="SourceAlpha" type="matrix" values="0 0 0 0 0 0 0 0 0 0 0 0 0 0 0 0 0 0 127 0" result="hardAlpha"/>
<feOffset dy="41.7776"/>
<feGaussianBlur stdDeviation="16.711"/>
<feColorMatrix type="matrix" values="0 0 0 0 0.203922 0 0 0 0 0.596078 0 0 0 0 0.858824 0 0 0 0.0646969 0"/>
<feBlend mode="normal" in2="effect4_dropShadow_41:998" result="effect5_dropShadow_41:998"/>
<feColorMatrix in="SourceAlpha" type="matrix" values="0 0 0 0 0 0 0 0 0 0 0 0 0 0 0 0 0 0 127 0" result="hardAlpha"/>
<feOffset dy="100"/>
<feGaussianBlur stdDeviation="40"/>
<feColorMatrix type="matrix" values="0 0 0 0 0.203922 0 0 0 0 0.596078 0 0 0 0 0.858824 0 0 0 0.09 0"/>
<feBlend mode="normal" in2="effect5_dropShadow_41:998" result="effect6_dropShadow_41:998"/>
<feBlend mode="normal" in="SourceGraphic" in2="effect6_dropShadow_41:998" result="shape"/>
</filter>
<clipPath id="clip0_41:998">
<rect width="122" height="60" fill="white" transform="translate(0 26)"/>
</clipPath>
</defs>
</svg>
