<svg width="243" height="69" viewBox="0 0 243 69" fill="none" xmlns="http://www.w3.org/2000/svg">
<g filter="url(#filter0_ddd_12:32)">
<rect x="7" y="1" width="229" height="54" rx="27" fill="#3498DB"/>
<path d="M90.6992 33.6328H98.4453V36H87.7344V18.9375H90.6992V33.6328ZM99.9102 29.543C99.9102 28.3008 100.156 27.1836 100.648 26.1914C101.141 25.1914 101.832 24.4258 102.723 23.8945C103.613 23.3555 104.637 23.0859 105.793 23.0859C107.504 23.0859 108.891 23.6367 109.953 24.7383C111.023 25.8398 111.602 27.3008 111.688 29.1211L111.699 29.7891C111.699 31.0391 111.457 32.1562 110.973 33.1406C110.496 34.125 109.809 34.8867 108.91 35.4258C108.02 35.9648 106.988 36.2344 105.816 36.2344C104.027 36.2344 102.594 35.6406 101.516 34.4531C100.445 33.2578 99.9102 31.668 99.9102 29.6836V29.543ZM102.758 29.7891C102.758 31.0938 103.027 32.1172 103.566 32.8594C104.105 33.5938 104.855 33.9609 105.816 33.9609C106.777 33.9609 107.523 33.5859 108.055 32.8359C108.594 32.0859 108.863 30.9883 108.863 29.543C108.863 28.2617 108.586 27.2461 108.031 26.4961C107.484 25.7461 106.738 25.3711 105.793 25.3711C104.863 25.3711 104.125 25.7422 103.578 26.4844C103.031 27.2188 102.758 28.3203 102.758 29.7891ZM113.609 29.5664C113.609 27.5977 114.07 26.0273 114.992 24.8555C115.922 23.6758 117.152 23.0859 118.684 23.0859C120.129 23.0859 121.266 23.5898 122.094 24.5977L122.223 23.3203H124.789V35.6133C124.789 37.2773 124.27 38.5898 123.23 39.5508C122.199 40.5117 120.805 40.9922 119.047 40.9922C118.117 40.9922 117.207 40.7969 116.316 40.4062C115.434 40.0234 114.762 39.5195 114.301 38.8945L115.648 37.1836C116.523 38.2227 117.602 38.7422 118.883 38.7422C119.828 38.7422 120.574 38.4844 121.121 37.9688C121.668 37.4609 121.941 36.7109 121.941 35.7188V34.8633C121.121 35.7773 120.027 36.2344 118.66 36.2344C117.176 36.2344 115.961 35.6445 115.016 34.4648C114.078 33.2852 113.609 31.6523 113.609 29.5664ZM116.445 29.8125C116.445 31.0859 116.703 32.0898 117.219 32.8242C117.742 33.5508 118.465 33.9141 119.387 33.9141C120.535 33.9141 121.387 33.4219 121.941 32.4375V26.8594C121.402 25.8984 120.559 25.418 119.41 25.418C118.473 25.418 117.742 25.7891 117.219 26.5312C116.703 27.2734 116.445 28.3672 116.445 29.8125ZM130.754 36H127.906V23.3203H130.754V36ZM127.73 20.0273C127.73 19.5898 127.867 19.2266 128.141 18.9375C128.422 18.6484 128.82 18.5039 129.336 18.5039C129.852 18.5039 130.25 18.6484 130.531 18.9375C130.812 19.2266 130.953 19.5898 130.953 20.0273C130.953 20.457 130.812 20.8164 130.531 21.1055C130.25 21.3867 129.852 21.5273 129.336 21.5273C128.82 21.5273 128.422 21.3867 128.141 21.1055C127.867 20.8164 127.73 20.457 127.73 20.0273ZM136.508 23.3203L136.59 24.7852C137.527 23.6523 138.758 23.0859 140.281 23.0859C142.922 23.0859 144.266 24.5977 144.312 27.6211V36H141.465V27.7852C141.465 26.9805 141.289 26.3867 140.938 26.0039C140.594 25.6133 140.027 25.418 139.238 25.418C138.09 25.418 137.234 25.9375 136.672 26.9766V36H133.824V23.3203H136.508Z" fill="white"/>
</g>
<defs>
<filter id="filter0_ddd_12:32" x="0" y="0.973138" width="243" height="68.0269" filterUnits="userSpaceOnUse" color-interpolation-filters="sRGB">
<feFlood flood-opacity="0" result="BackgroundImageFix"/>
<feColorMatrix in="SourceAlpha" type="matrix" values="0 0 0 0 0 0 0 0 0 0 0 0 0 0 0 0 0 0 127 0" result="hardAlpha"/>
<feOffset dy="0.471144"/>
<feGaussianBlur stdDeviation="0.232754"/>
<feColorMatrix type="matrix" values="0 0 0 0 0.313726 0 0 0 0 0.392157 0 0 0 0 0.670588 0 0 0 0.0350478 0"/>
<feBlend mode="normal" in2="BackgroundImageFix" result="effect1_dropShadow_12:32"/>
<feColorMatrix in="SourceAlpha" type="matrix" values="0 0 0 0 0 0 0 0 0 0 0 0 0 0 0 0 0 0 127 0" result="hardAlpha"/>
<feOffset dy="1.53668"/>
<feGaussianBlur stdDeviation="0.781771"/>
<feColorMatrix type="matrix" values="0 0 0 0 0.313726 0 0 0 0 0.392157 0 0 0 0 0.670588 0 0 0 0.0479259 0"/>
<feBlend mode="normal" in2="effect1_dropShadow_12:32" result="effect2_dropShadow_12:32"/>
<feColorMatrix in="SourceAlpha" type="matrix" values="0 0 0 0 0 0 0 0 0 0 0 0 0 0 0 0 0 0 127 0" result="hardAlpha"/>
<feOffset dy="7"/>
<feGaussianBlur stdDeviation="3.5"/>
<feColorMatrix type="matrix" values="0 0 0 0 0.313726 0 0 0 0 0.392157 0 0 0 0 0.670588 0 0 0 0.15 0"/>
<feBlend mode="normal" in2="effect2_dropShadow_12:32" result="effect3_dropShadow_12:32"/>
<feBlend mode="normal" in="SourceGraphic" in2="effect3_dropShadow_12:32" result="shape"/>
</filter>
</defs>
</svg>
