<svg width="146" height="34" viewBox="0 0 146 34" fill="none" xmlns="http://www.w3.org/2000/svg">
<rect width="146" height="34" rx="17" fill="#141414"/>
<path d="M57.0859 9.04688H58.8086V16.0264C58.8086 16.9788 58.5101 17.7354 57.9131 18.2959C57.3206 18.8564 56.5368 19.1367 55.5615 19.1367C54.5225 19.1367 53.7204 18.8747 53.1553 18.3506C52.5902 17.8265 52.3076 17.0973 52.3076 16.1631H54.0303C54.0303 16.6917 54.1602 17.0905 54.4199 17.3594C54.6842 17.6237 55.0648 17.7559 55.5615 17.7559C56.0264 17.7559 56.3955 17.6032 56.6689 17.2979C56.9469 16.988 57.0859 16.5618 57.0859 16.0195V9.04688ZM65.0498 19C64.9769 18.8587 64.9131 18.6286 64.8584 18.3096C64.3298 18.861 63.6826 19.1367 62.917 19.1367C62.1742 19.1367 61.568 18.9248 61.0986 18.501C60.6292 18.0771 60.3945 17.5531 60.3945 16.9287C60.3945 16.1403 60.6862 15.5365 61.2695 15.1172C61.8574 14.6934 62.696 14.4814 63.7852 14.4814H64.8037V13.9961C64.8037 13.6133 64.6966 13.3079 64.4824 13.0801C64.2682 12.8477 63.9424 12.7314 63.5049 12.7314C63.1266 12.7314 62.8167 12.8271 62.5752 13.0186C62.3337 13.2054 62.2129 13.4447 62.2129 13.7363H60.5518C60.5518 13.3307 60.6862 12.9525 60.9551 12.6016C61.224 12.2461 61.5885 11.9681 62.0488 11.7676C62.5137 11.5671 63.0309 11.4668 63.6006 11.4668C64.4665 11.4668 65.1569 11.6855 65.6719 12.123C66.1868 12.556 66.4512 13.1667 66.4648 13.9551V17.291C66.4648 17.9564 66.5583 18.4873 66.7451 18.8838V19H65.0498ZM63.2246 17.8037C63.5527 17.8037 63.8604 17.724 64.1475 17.5645C64.4391 17.4049 64.6579 17.1908 64.8037 16.9219V15.5273H63.9082C63.293 15.5273 62.8304 15.6344 62.5205 15.8486C62.2106 16.0628 62.0557 16.3659 62.0557 16.7578C62.0557 17.0768 62.1605 17.332 62.3701 17.5234C62.5843 17.7103 62.8691 17.8037 63.2246 17.8037ZM74.7021 16.71L75.8779 11.6035H77.498L75.4814 19H74.1143L72.5283 13.9209L70.9697 19H69.6025L67.5791 11.6035H69.1992L70.3955 16.6553L71.9131 11.6035H73.1641L74.7021 16.71ZM83.0283 19C82.9554 18.8587 82.8916 18.6286 82.8369 18.3096C82.3083 18.861 81.6611 19.1367 80.8955 19.1367C80.1527 19.1367 79.5465 18.9248 79.0771 18.501C78.6077 18.0771 78.373 17.5531 78.373 16.9287C78.373 16.1403 78.6647 15.5365 79.248 15.1172C79.8359 14.6934 80.6745 14.4814 81.7637 14.4814H82.7822V13.9961C82.7822 13.6133 82.6751 13.3079 82.4609 13.0801C82.2467 12.8477 81.9209 12.7314 81.4834 12.7314C81.1051 12.7314 80.7952 12.8271 80.5537 13.0186C80.3122 13.2054 80.1914 13.4447 80.1914 13.7363H78.5303C78.5303 13.3307 78.6647 12.9525 78.9336 12.6016C79.2025 12.2461 79.5671 11.9681 80.0273 11.7676C80.4922 11.5671 81.0094 11.4668 81.5791 11.4668C82.445 11.4668 83.1354 11.6855 83.6504 12.123C84.1654 12.556 84.4297 13.1667 84.4434 13.9551V17.291C84.4434 17.9564 84.5368 18.4873 84.7236 18.8838V19H83.0283ZM81.2031 17.8037C81.5312 17.8037 81.8389 17.724 82.126 17.5645C82.4176 17.4049 82.6364 17.1908 82.7822 16.9219V15.5273H81.8867C81.2715 15.5273 80.8089 15.6344 80.499 15.8486C80.1891 16.0628 80.0342 16.3659 80.0342 16.7578C80.0342 17.0768 80.139 17.332 80.3486 17.5234C80.5628 17.7103 80.8477 17.8037 81.2031 17.8037ZM92.6738 15.377C92.6738 16.5254 92.4163 17.4391 91.9014 18.1182C91.391 18.7972 90.6868 19.1367 89.7891 19.1367C88.9232 19.1367 88.2487 18.8245 87.7656 18.2002L87.6836 19H86.1797V8.5H87.8408V12.3145C88.3193 11.7493 88.9642 11.4668 89.7754 11.4668C90.6777 11.4668 91.3864 11.8018 91.9014 12.4717C92.4163 13.1416 92.6738 14.0781 92.6738 15.2812V15.377ZM91.0127 15.2334C91.0127 14.4313 90.8714 13.8298 90.5889 13.4287C90.3063 13.0277 89.8962 12.8271 89.3584 12.8271C88.6383 12.8271 88.1325 13.1416 87.8408 13.7705V16.8193C88.137 17.4619 88.6475 17.7832 89.3721 17.7832C89.8916 17.7832 90.2926 17.5895 90.5752 17.2021C90.8577 16.8148 91.0036 16.2292 91.0127 15.4453V15.2334Z" fill="white"/>
</svg>
