<svg width="28" height="20" viewBox="0 0 28 20" fill="none" xmlns="http://www.w3.org/2000/svg">
<path d="M5.5625 0.625C4.3193 0.625 3.12701 1.11886 2.24794 1.99794C1.36886 2.87701 0.875 4.0693 0.875 5.3125V14.6875C0.875 15.9307 1.36886 17.123 2.24794 18.0021C3.12701 18.8811 4.3193 19.375 5.5625 19.375H22.4375C23.6807 19.375 24.873 18.8811 25.7521 18.0021C26.6311 17.123 27.125 15.9307 27.125 14.6875V5.3125C27.125 4.0693 26.6311 2.87701 25.7521 1.99794C24.873 1.11886 23.6807 0.625 22.4375 0.625H5.5625ZM17.75 7.1875C17.75 6.93886 17.8488 6.7004 18.0246 6.52459C18.2004 6.34877 18.4389 6.25 18.6875 6.25H22.4375C22.6861 6.25 22.9246 6.34877 23.1004 6.52459C23.2762 6.7004 23.375 6.93886 23.375 7.1875C23.375 7.43614 23.2762 7.6746 23.1004 7.85041C22.9246 8.02623 22.6861 8.125 22.4375 8.125H18.6875C18.4389 8.125 18.2004 8.02623 18.0246 7.85041C17.8488 7.6746 17.75 7.43614 17.75 7.1875ZM18.6875 11.875H22.4375C22.6861 11.875 22.9246 11.9738 23.1004 12.1496C23.2762 12.3254 23.375 12.5639 23.375 12.8125C23.375 13.0611 23.2762 13.2996 23.1004 13.4754C22.9246 13.6512 22.6861 13.75 22.4375 13.75H18.6875C18.4389 13.75 18.2004 13.6512 18.0246 13.4754C17.8488 13.2996 17.75 13.0611 17.75 12.8125C17.75 12.5639 17.8488 12.3254 18.0246 12.1496C18.2004 11.9738 18.4389 11.875 18.6875 11.875ZM10.25 6.25C10.25 6.74728 10.0525 7.22419 9.70082 7.57582C9.34919 7.92746 8.87228 8.125 8.375 8.125C7.87772 8.125 7.40081 7.92746 7.04918 7.57582C6.69754 7.22419 6.5 6.74728 6.5 6.25C6.5 5.75272 6.69754 5.27581 7.04918 4.92418C7.40081 4.57254 7.87772 4.375 8.375 4.375C8.87228 4.375 9.34919 4.57254 9.70082 4.92418C10.0525 5.27581 10.25 5.75272 10.25 6.25V6.25ZM6.03125 10H10.7188C11.0917 10 11.4494 10.1482 11.7131 10.4119C11.9768 10.6756 12.125 11.0333 12.125 11.4062V12.8125C12.125 12.8125 12.125 15.625 8.375 15.625C4.625 15.625 4.625 12.8125 4.625 12.8125V11.4062C4.625 11.0333 4.77316 10.6756 5.03688 10.4119C5.3006 10.1482 5.65829 10 6.03125 10V10ZM14.9375 6.71875C14.9375 7.09171 14.7893 7.4494 14.5256 7.71312C14.2619 7.97684 13.9042 8.125 13.5312 8.125C13.1583 8.125 12.8006 7.97684 12.5369 7.71312C12.2732 7.4494 12.125 7.09171 12.125 6.71875C12.125 6.34579 12.2732 5.9881 12.5369 5.72438C12.8006 5.46066 13.1583 5.3125 13.5312 5.3125C13.9042 5.3125 14.2619 5.46066 14.5256 5.72438C14.7893 5.9881 14.9375 6.34579 14.9375 6.71875V6.71875ZM13.8969 13.6581C13.9499 13.4175 13.9832 13.1729 13.9963 12.9269L14 12.8781V11.4062C14 10.9037 13.8875 10.4256 13.685 10H14.9375C15.1861 10 15.4246 10.0988 15.6004 10.2746C15.7762 10.4504 15.875 10.6889 15.875 10.9375V11.875C15.875 12.3723 15.6775 12.8492 15.3258 13.2008C14.9742 13.5525 14.4973 13.75 14 13.75H13.8763L13.895 13.6581H13.8969Z" fill="white" fill-opacity="0.5"/>
</svg>
