<svg width="139" height="43" viewBox="0 0 139 43" fill="none" xmlns="http://www.w3.org/2000/svg">
<g filter="url(#filter0_d)">
<rect width="139" height="43" rx="21.5" fill="white"/>
</g>
<path d="M40.5039 24.6943C40.1667 25.1774 39.695 25.5397 39.0889 25.7812C38.4873 26.0182 37.7855 26.1367 36.9834 26.1367C36.1722 26.1367 35.4521 25.9476 34.8232 25.5693C34.1943 25.1865 33.7067 24.6442 33.3604 23.9424C33.0186 23.2406 32.8431 22.4271 32.834 21.502V20.6338C32.834 19.1344 33.1826 17.9723 33.8799 17.1475C34.5817 16.3226 35.5661 15.9102 36.833 15.9102C37.8721 15.9102 38.7083 16.1768 39.3418 16.71C39.9753 17.2386 40.3626 17.9906 40.5039 18.9658H39.1914C38.9453 17.6488 38.1615 16.9902 36.8398 16.9902C35.9603 16.9902 35.2926 17.3001 34.8369 17.9199C34.3857 18.5352 34.1579 19.4284 34.1533 20.5996V21.4131C34.1533 22.5296 34.4085 23.4183 34.9189 24.0791C35.4294 24.7354 36.1198 25.0635 36.9902 25.0635C37.4824 25.0635 37.9131 25.0088 38.2822 24.8994C38.6514 24.79 38.9567 24.6055 39.1982 24.3457V22.1104H36.8945V21.0439H40.5039V24.6943ZM45.5693 26.1367C44.5667 26.1367 43.751 25.8086 43.1221 25.1523C42.4932 24.4915 42.1787 23.6097 42.1787 22.5068V22.2744C42.1787 21.5407 42.3177 20.8867 42.5957 20.3125C42.8783 19.7337 43.2702 19.2826 43.7715 18.959C44.2773 18.6309 44.8242 18.4668 45.4121 18.4668C46.3737 18.4668 47.1211 18.7835 47.6543 19.417C48.1875 20.0505 48.4541 20.9574 48.4541 22.1377V22.6641H43.4434C43.4616 23.3932 43.6735 23.9834 44.0791 24.4346C44.4893 24.8812 45.0088 25.1045 45.6377 25.1045C46.0843 25.1045 46.4626 25.0133 46.7725 24.8311C47.0824 24.6488 47.3535 24.4072 47.5859 24.1064L48.3584 24.708C47.7386 25.6605 46.8089 26.1367 45.5693 26.1367ZM45.4121 19.5059C44.9017 19.5059 44.4733 19.6927 44.127 20.0664C43.7806 20.4355 43.5664 20.9551 43.4844 21.625H47.1895V21.5293C47.153 20.8867 46.9798 20.39 46.6699 20.0391C46.36 19.6836 45.9408 19.5059 45.4121 19.5059ZM51.6396 16.8125V18.6035H53.0205V19.5811H51.6396V24.168C51.6396 24.4642 51.7012 24.6875 51.8242 24.8379C51.9473 24.9837 52.1569 25.0566 52.4531 25.0566C52.599 25.0566 52.7995 25.0293 53.0547 24.9746V26C52.722 26.0911 52.3984 26.1367 52.084 26.1367C51.5189 26.1367 51.0928 25.9658 50.8057 25.624C50.5186 25.2822 50.375 24.7969 50.375 24.168V19.5811H49.0283V18.6035H50.375V16.8125H51.6396ZM61.1074 21.5635C59.9818 21.2399 59.1615 20.8434 58.6465 20.374C58.1361 19.9001 57.8809 19.3167 57.8809 18.624C57.8809 17.8402 58.193 17.193 58.8174 16.6826C59.4463 16.1676 60.262 15.9102 61.2646 15.9102C61.9482 15.9102 62.5566 16.0423 63.0898 16.3066C63.6276 16.571 64.0423 16.9355 64.334 17.4004C64.6302 17.8652 64.7783 18.3734 64.7783 18.9248H63.459C63.459 18.3232 63.2676 17.8516 62.8848 17.5098C62.502 17.1634 61.9619 16.9902 61.2646 16.9902C60.6175 16.9902 60.1117 17.1338 59.7471 17.4209C59.387 17.7035 59.207 18.0977 59.207 18.6035C59.207 19.0091 59.3779 19.3532 59.7197 19.6357C60.0661 19.9137 60.6517 20.1689 61.4766 20.4014C62.306 20.6338 62.9531 20.8913 63.418 21.1738C63.8874 21.4518 64.2337 21.7777 64.457 22.1514C64.6849 22.5251 64.7988 22.9648 64.7988 23.4707C64.7988 24.2773 64.4844 24.9245 63.8555 25.4121C63.2266 25.8952 62.3857 26.1367 61.333 26.1367C60.6494 26.1367 60.0114 26.0068 59.4189 25.7471C58.8265 25.4827 58.3685 25.1227 58.0449 24.667C57.7259 24.2113 57.5664 23.694 57.5664 23.1152H58.8857C58.8857 23.7168 59.1068 24.193 59.5488 24.5439C59.9954 24.8903 60.5902 25.0635 61.333 25.0635C62.0257 25.0635 62.5566 24.9222 62.9258 24.6396C63.2949 24.3571 63.4795 23.972 63.4795 23.4844C63.4795 22.9967 63.3086 22.6208 62.9668 22.3564C62.625 22.0876 62.0052 21.8232 61.1074 21.5635ZM68.0049 16.8125V18.6035H69.3857V19.5811H68.0049V24.168C68.0049 24.4642 68.0664 24.6875 68.1895 24.8379C68.3125 24.9837 68.5221 25.0566 68.8184 25.0566C68.9642 25.0566 69.1647 25.0293 69.4199 24.9746V26C69.0872 26.0911 68.7637 26.1367 68.4492 26.1367C67.8841 26.1367 67.458 25.9658 67.1709 25.624C66.8838 25.2822 66.7402 24.7969 66.7402 24.168V19.5811H65.3936V18.6035H66.7402V16.8125H68.0049ZM75.4355 26C75.3626 25.8542 75.3034 25.5944 75.2578 25.2207C74.6699 25.8314 73.9681 26.1367 73.1523 26.1367C72.4232 26.1367 71.8239 25.9316 71.3545 25.5215C70.8896 25.1068 70.6572 24.5827 70.6572 23.9492C70.6572 23.179 70.9489 22.582 71.5322 22.1582C72.1201 21.7298 72.945 21.5156 74.0068 21.5156H75.2373V20.9346C75.2373 20.4925 75.1051 20.1416 74.8408 19.8818C74.5765 19.6175 74.1868 19.4854 73.6719 19.4854C73.2207 19.4854 72.8424 19.5993 72.5371 19.8271C72.2318 20.055 72.0791 20.3307 72.0791 20.6543H70.8076C70.8076 20.2852 70.9375 19.9297 71.1973 19.5879C71.4616 19.2415 71.8171 18.9681 72.2637 18.7676C72.7148 18.5671 73.2093 18.4668 73.7471 18.4668C74.5993 18.4668 75.2669 18.681 75.75 19.1094C76.2331 19.5332 76.4837 20.1188 76.502 20.8662V24.2705C76.502 24.9495 76.5885 25.4896 76.7617 25.8906V26H75.4355ZM73.3369 25.0361C73.7334 25.0361 74.1094 24.9336 74.4648 24.7285C74.8203 24.5234 75.0778 24.2568 75.2373 23.9287V22.4111H74.2461C72.6966 22.4111 71.9219 22.8646 71.9219 23.7715C71.9219 24.168 72.054 24.4779 72.3184 24.7012C72.5827 24.9245 72.9222 25.0361 73.3369 25.0361ZM82.0596 19.7383C81.8682 19.7064 81.6608 19.6904 81.4375 19.6904C80.6081 19.6904 80.0452 20.0436 79.749 20.75V26H78.4844V18.6035H79.7148L79.7354 19.458C80.1501 18.7972 80.738 18.4668 81.499 18.4668C81.7451 18.4668 81.932 18.4987 82.0596 18.5625V19.7383ZM85.2861 16.8125V18.6035H86.667V19.5811H85.2861V24.168C85.2861 24.4642 85.3477 24.6875 85.4707 24.8379C85.5938 24.9837 85.8034 25.0566 86.0996 25.0566C86.2454 25.0566 86.446 25.0293 86.7012 24.9746V26C86.3685 26.0911 86.0449 26.1367 85.7305 26.1367C85.1654 26.1367 84.7393 25.9658 84.4521 25.624C84.165 25.2822 84.0215 24.7969 84.0215 24.168V19.5811H82.6748V18.6035H84.0215V16.8125H85.2861ZM91.2197 26.1367C90.2171 26.1367 89.4014 25.8086 88.7725 25.1523C88.1436 24.4915 87.8291 23.6097 87.8291 22.5068V22.2744C87.8291 21.5407 87.9681 20.8867 88.2461 20.3125C88.5286 19.7337 88.9206 19.2826 89.4219 18.959C89.9277 18.6309 90.4746 18.4668 91.0625 18.4668C92.0241 18.4668 92.7715 18.7835 93.3047 19.417C93.8379 20.0505 94.1045 20.9574 94.1045 22.1377V22.6641H89.0938C89.112 23.3932 89.3239 23.9834 89.7295 24.4346C90.1396 24.8812 90.6592 25.1045 91.2881 25.1045C91.7347 25.1045 92.113 25.0133 92.4229 24.8311C92.7327 24.6488 93.0039 24.4072 93.2363 24.1064L94.0088 24.708C93.389 25.6605 92.4593 26.1367 91.2197 26.1367ZM91.0625 19.5059C90.5521 19.5059 90.1237 19.6927 89.7773 20.0664C89.431 20.4355 89.2168 20.9551 89.1348 21.625H92.8398V21.5293C92.8034 20.8867 92.6302 20.39 92.3203 20.0391C92.0104 19.6836 91.5911 19.5059 91.0625 19.5059ZM95.2666 22.2402C95.2666 21.1055 95.5355 20.194 96.0732 19.5059C96.611 18.8132 97.3151 18.4668 98.1855 18.4668C99.0514 18.4668 99.7373 18.763 100.243 19.3555V15.5H101.508V26H100.346L100.284 25.207C99.7783 25.8268 99.0742 26.1367 98.1719 26.1367C97.3151 26.1367 96.6156 25.7858 96.0732 25.084C95.5355 24.3822 95.2666 23.4661 95.2666 22.3359V22.2402ZM96.5312 22.3838C96.5312 23.2223 96.7044 23.8786 97.0508 24.3525C97.3971 24.8265 97.8757 25.0635 98.4863 25.0635C99.2884 25.0635 99.874 24.7035 100.243 23.9834V20.5859C99.8649 19.8887 99.2839 19.54 98.5 19.54C97.8802 19.54 97.3971 19.7793 97.0508 20.2578C96.7044 20.7363 96.5312 21.445 96.5312 22.3838ZM104.892 23.1904H103.75L103.661 16.0469H104.987L104.892 23.1904ZM103.613 25.3643C103.613 25.1592 103.675 24.9883 103.798 24.8516C103.925 24.7103 104.112 24.6396 104.358 24.6396C104.604 24.6396 104.791 24.7103 104.919 24.8516C105.047 24.9883 105.11 25.1592 105.11 25.3643C105.11 25.5693 105.047 25.7402 104.919 25.877C104.791 26.0091 104.604 26.0752 104.358 26.0752C104.112 26.0752 103.925 26.0091 103.798 25.877C103.675 25.7402 103.613 25.5693 103.613 25.3643Z" fill="black"/>
<path d="M115 13L123 21L115 29" stroke="black" stroke-width="2" stroke-linecap="round" stroke-linejoin="round"/>
<defs>
<filter id="filter0_d" x="-4" y="0" width="147" height="51" filterUnits="userSpaceOnUse" color-interpolation-filters="sRGB">
<feFlood flood-opacity="0" result="BackgroundImageFix"/>
<feColorMatrix in="SourceAlpha" type="matrix" values="0 0 0 0 0 0 0 0 0 0 0 0 0 0 0 0 0 0 127 0" result="hardAlpha"/>
<feOffset dy="4"/>
<feGaussianBlur stdDeviation="2"/>
<feColorMatrix type="matrix" values="0 0 0 0 0 0 0 0 0 0 0 0 0 0 0 0 0 0 0.25 0"/>
<feBlend mode="normal" in2="BackgroundImageFix" result="effect1_dropShadow"/>
<feBlend mode="normal" in="SourceGraphic" in2="effect1_dropShadow" result="shape"/>
</filter>
</defs>
</svg>
