<svg width="134" height="134" viewBox="0 0 134 134" fill="none" xmlns="http://www.w3.org/2000/svg">
<g filter="url(#filter0_dddddd_46:39)">
<rect width="134" height="134" rx="24" fill="#A1D5F9"/>
</g>
<path d="M21.4561 87.4736C21.4561 87.4736 16.8339 87.1948 17.3785 90.4348C17.3785 90.4348 17.2691 91.0067 17.7885 91.267C17.7885 91.267 17.7973 91.0264 18.2631 91.1084C18.4289 91.1364 18.5974 91.1444 18.765 91.1325C18.992 91.117 19.2077 91.0279 19.3796 90.8788C19.3796 90.8788 20.6787 90.3419 21.1849 88.2183C21.1849 88.2183 21.5589 87.7547 21.5436 87.6355L20.7639 87.9635C20.7639 87.9635 21.0297 88.5267 20.8208 88.9936C20.8208 88.9936 20.7946 87.9843 20.6448 88.0095C20.6141 88.0149 20.2402 88.2052 20.2402 88.2052C20.2402 88.2052 20.6983 89.1893 20.3495 89.8979C20.3495 89.8979 20.4807 88.6896 20.0936 88.2752L19.5469 88.5967C19.5469 88.5967 20.0838 89.6092 19.7197 90.4348C19.7197 90.4348 19.8126 89.1675 19.4321 88.6743L18.9345 89.0625C18.9345 89.0625 19.4375 90.0609 19.1303 90.7454C19.1303 90.7454 19.0909 89.2703 18.8263 89.1587C18.8263 89.1587 18.3889 89.5425 18.3243 89.7055C18.3243 89.7055 18.6699 90.4294 18.4556 90.8121C18.4556 90.8121 18.3243 89.8279 18.2172 89.8279C18.2172 89.8279 17.7798 90.4786 17.7382 90.9215C17.7382 90.9215 17.7568 90.2566 18.1111 89.7612C17.861 89.8083 17.6302 89.9277 17.4474 90.1046C17.4474 90.1046 17.5151 89.6442 18.2183 89.6038C18.2183 89.6038 18.5769 89.1106 18.6732 89.08C18.6732 89.08 17.9733 89.022 17.549 89.2101C17.549 89.2101 17.9219 88.7727 18.8011 88.9728L19.2932 88.5715C19.2932 88.5715 18.3714 88.4458 17.981 88.5846C17.981 88.5846 18.4304 88.2008 19.4255 88.4808L19.9602 88.1614C19.9602 88.1614 19.174 87.992 18.706 88.0521C18.706 88.0521 19.2002 87.7853 20.1166 88.074L20.4993 87.9023C20.4993 87.9023 19.923 87.7929 19.7546 87.7711C19.5862 87.7492 19.5775 87.7066 19.5775 87.7066C19.9422 87.6458 20.3166 87.6874 20.659 87.8268C20.659 87.8268 21.4703 87.525 21.4561 87.4736Z" fill="#3498DB"/>
<path opacity="0.1" d="M18.2718 92.1024C20.0787 92.1024 21.5435 91.8547 21.5435 91.5491C21.5435 91.2435 20.0787 90.9958 18.2718 90.9958C16.4648 90.9958 15 91.2435 15 91.5491C15 91.8547 16.4648 92.1024 18.2718 92.1024Z" fill="#3498DB"/>
<path d="M122.947 80.1154C122.947 80.1154 120.34 79.958 120.651 81.7841C120.635 81.8769 120.649 81.9724 120.691 82.0569C120.732 82.1413 120.799 82.2104 120.883 82.2543C120.883 82.2543 120.883 82.1187 121.15 82.1647C121.243 82.18 121.338 82.1844 121.433 82.1778C121.561 82.1694 121.682 82.1195 121.779 82.0356C121.779 82.0356 122.512 81.7327 122.797 80.5353C122.797 80.5353 123.007 80.274 123 80.2073L122.562 80.3954C122.562 80.3954 122.712 80.7125 122.594 80.9771C122.594 80.9771 122.58 80.4074 122.496 80.4205C122.478 80.4205 122.266 80.5299 122.266 80.5299C122.266 80.5299 122.525 81.0766 122.331 81.4834C122.331 81.4834 122.404 80.8032 122.186 80.5692L121.876 80.7497C121.876 80.7497 122.179 81.3216 121.973 81.7874C121.973 81.7874 122.027 81.0722 121.811 80.7945L121.53 81.0132C121.53 81.0132 121.814 81.5753 121.639 81.9624C121.639 81.9624 121.617 81.1302 121.468 81.0679C121.361 81.1577 121.266 81.2601 121.185 81.373C121.185 81.373 121.379 81.7808 121.259 81.9974C121.259 81.9974 121.185 81.4429 121.123 81.4408C121.123 81.4408 120.879 81.8071 120.854 82.0586C120.866 81.8253 120.938 81.599 121.064 81.4025C120.923 81.4293 120.793 81.497 120.69 81.5971C120.69 81.5971 120.729 81.3369 121.128 81.3139C121.128 81.3139 121.33 81.0362 121.385 81.0187C121.385 81.0187 120.99 80.9859 120.75 81.0919C120.75 81.0919 120.961 80.847 121.457 80.9585L121.734 80.7322C121.734 80.7322 121.214 80.6611 120.994 80.7398C120.994 80.7398 121.248 80.5211 121.808 80.6808L122.11 80.5003C121.878 80.4496 121.64 80.4293 121.403 80.4402C121.403 80.4402 121.681 80.2893 122.198 80.4522L122.417 80.3549C122.417 80.3549 122.089 80.2915 121.998 80.2816C121.907 80.2718 121.898 80.2456 121.898 80.2456C122.103 80.2113 122.314 80.2348 122.508 80.3134C122.508 80.3134 122.955 80.1439 122.947 80.1154Z" fill="#3498DB"/>
<path opacity="0.1" d="M121.152 82.7245C122.171 82.7245 122.996 82.585 122.996 82.4129C122.996 82.2408 122.171 82.1012 121.152 82.1012C120.133 82.1012 119.307 82.2408 119.307 82.4129C119.307 82.585 120.133 82.7245 121.152 82.7245Z" fill="#3498DB"/>
<path d="M117.587 85.0876C117.587 85.0876 114.44 84.8984 114.816 87.1051C114.797 87.2172 114.814 87.3324 114.864 87.4343C114.914 87.5362 114.995 87.6196 115.096 87.6727C115.096 87.6727 115.096 87.5086 115.424 87.5633C115.537 87.5824 115.652 87.5879 115.766 87.5797C115.921 87.5689 116.067 87.5083 116.184 87.4069C116.184 87.4069 117.069 87.0417 117.412 85.5961C117.412 85.5961 117.667 85.2801 117.657 85.1991L117.125 85.4266C117.125 85.4266 117.307 85.8093 117.165 86.1275C117.165 86.1275 117.147 85.4397 117.046 85.4561C117.025 85.4561 116.769 85.5884 116.769 85.5884C116.769 85.5884 117.082 86.2566 116.846 86.741C116.846 86.741 116.935 85.9187 116.672 85.6376L116.298 85.8563C116.298 85.8563 116.663 86.5463 116.416 87.1084C116.416 87.1084 116.479 86.2456 116.219 85.9056L115.881 86.1691C115.881 86.1691 116.223 86.8492 116.014 87.3151C116.014 87.3151 115.987 86.3112 115.807 86.2358C115.807 86.2358 115.51 86.496 115.466 86.6043C115.466 86.6043 115.701 87.0975 115.555 87.3577C115.555 87.3577 115.466 86.6885 115.392 86.6852C115.392 86.6852 115.097 87.1281 115.064 87.4321C115.079 87.1512 115.167 86.8791 115.319 86.6426C115.149 86.6748 114.991 86.7562 114.866 86.8766C114.866 86.8766 114.912 86.5638 115.391 86.5365C115.391 86.5365 115.635 86.1997 115.701 86.1789C115.701 86.1789 115.224 86.1396 114.935 86.2675C114.935 86.2675 115.19 85.9723 115.788 86.1068L116.123 85.8334C116.123 85.8334 115.495 85.747 115.229 85.8421C115.229 85.8421 115.536 85.5808 116.214 85.771L116.578 85.5523C116.578 85.5523 116.043 85.4375 115.725 85.4791C115.725 85.4791 116.06 85.2976 116.685 85.4944L116.945 85.3774C116.945 85.3774 116.552 85.2998 116.439 85.2877C116.325 85.2757 116.317 85.244 116.317 85.244C116.566 85.2027 116.82 85.2311 117.053 85.326C117.053 85.326 117.596 85.1226 117.587 85.0876Z" fill="#3498DB"/>
<path opacity="0.1" d="M115.419 88.238C116.649 88.238 117.646 88.0696 117.646 87.8618C117.646 87.6541 116.649 87.4857 115.419 87.4857C114.188 87.4857 113.191 87.6541 113.191 87.8618C113.191 88.0696 114.188 88.238 115.419 88.238Z" fill="#3498DB"/>
<path opacity="0.1" d="M103.081 87.01C108.657 87.01 113.177 86.3045 113.177 85.4342C113.177 84.564 108.657 83.8585 103.081 83.8585C97.5045 83.8585 92.9843 84.564 92.9843 85.4342C92.9843 86.3045 97.5045 87.01 103.081 87.01Z" fill="#3498DB"/>
<path opacity="0.1" d="M71.1317 91.1106C77.3974 91.1106 82.4768 90.601 82.4768 89.9723C82.4768 89.3436 77.3974 88.834 71.1317 88.834C64.866 88.834 59.7866 89.3436 59.7866 89.9723C59.7866 90.601 64.866 91.1106 71.1317 91.1106Z" fill="#3498DB"/>
<path opacity="0.1" d="M36.7597 89.9799C41.5156 89.9799 45.371 89.742 45.371 89.4485C45.371 89.155 41.5156 88.9171 36.7597 88.9171C32.0037 88.9171 28.1483 89.155 28.1483 89.4485C28.1483 89.742 32.0037 89.9799 36.7597 89.9799Z" fill="#3498DB"/>
<path opacity="0.1" d="M52.0489 9.74524C55.243 6.90213 60.2578 6.31929 64.821 6.54565C79.1557 7.25752 92.0951 14.1783 103.288 22.0067C107.341 24.8399 111.33 27.8941 113.96 31.7968C119.318 39.74 117.726 50.745 110.281 57.2897C107.748 59.516 104.677 61.2263 101.524 62.7364C95.9191 65.4275 89.871 67.5872 83.5101 68.2039C78.9731 68.6413 74.3804 68.2859 69.8708 67.6736C57.2693 65.9633 44.9006 62.1842 34.5342 55.7216C29.9875 52.8785 25.7009 49.3574 23.8267 44.7701C21.9524 40.1829 23.152 34.3698 27.795 31.6547C29.7152 30.5316 32.0115 30.0242 34.2587 29.5486C37.5676 28.8476 40.929 28.1565 43.9154 26.7306C46.9991 25.2588 50.6503 22.4124 50.039 19.1548C49.3851 15.6589 48.8591 12.5883 52.0489 9.74524Z" fill="#3498DB"/>
<path opacity="0.9" d="M78.5171 48.8412V27.9619H81.3602V21.7289H60.9883V27.9619H63.8314V48.8412C59.9051 50.3325 56.525 52.9823 54.1396 56.4391C51.7542 59.8959 50.4763 63.9963 50.4753 68.1963C50.4753 79.6288 59.7439 88.8963 71.1764 88.8963C82.609 88.8963 91.8765 79.6288 91.8765 68.1963C91.8755 63.9959 90.5971 59.8951 88.2111 56.4382C85.825 52.9813 82.4442 50.3318 78.5171 48.8412Z" fill="#96B7FE"/>
<path opacity="0.1" d="M78.5171 27.8974H63.827V28.1784H78.5171V27.8974Z" fill="black"/>
<path d="M59.5941 67.6408C59.5941 67.6408 72.0601 67.4221 78.293 64.3023C84.526 61.1825 88.0875 63.9677 87.7529 65.8605C87.4183 67.7534 85.6392 71.4243 78.5161 71.8748C71.393 72.3253 59.5941 67.6408 59.5941 67.6408Z" fill="#3498DB"/>
<path opacity="0.1" d="M59.5941 67.6408C59.5941 67.6408 72.0601 67.4221 78.293 64.3023C84.526 61.1825 88.0875 63.9677 87.7529 65.8605C87.4183 67.7534 85.6392 71.4243 78.5161 71.8748C71.393 72.3253 59.5941 67.6408 59.5941 67.6408Z" fill="black"/>
<path d="M54.2556 65.6397C54.2556 65.6397 52.9237 84.1144 70.3924 84.4479C87.8611 84.7814 87.754 65.8584 87.754 65.8584C87.754 65.8584 81.3023 72.8688 66.0523 67.082C66.0523 67.0864 58.1507 64.9715 54.2556 65.6397Z" fill="#3498DB"/>
<path opacity="0.1" d="M87.6972 65.925C87.3484 70.1809 85.0859 83.5031 70.3991 83.2221C56.002 82.9498 54.3716 70.3636 54.2437 65.936C54.1639 68.3121 54.2349 84.1373 70.3958 84.4468C87.8689 84.7748 87.7574 65.8572 87.7574 65.8572C87.7574 65.8572 87.7355 65.8846 87.6972 65.925Z" fill="black"/>
<path opacity="0.3" d="M70.4985 59.9349C71.7505 59.9349 72.7654 58.92 72.7654 57.668C72.7654 56.4161 71.7505 55.4012 70.4985 55.4012C69.2466 55.4012 68.2317 56.4161 68.2317 57.668C68.2317 58.92 69.2466 59.9349 70.4985 59.9349Z" fill="#3498DB"/>
<path opacity="0.3" d="M71.7932 50.0025C72.5681 50.0025 73.1962 49.3744 73.1962 48.5996C73.1962 47.8247 72.5681 47.1966 71.7932 47.1966C71.0184 47.1966 70.3903 47.8247 70.3903 48.5996C70.3903 49.3744 71.0184 50.0025 71.7932 50.0025Z" fill="#3498DB"/>
<path opacity="0.3" d="M68.6626 41.9052C69.4374 41.9052 70.0656 41.277 70.0656 40.5022C70.0656 39.7274 69.4374 39.0992 68.6626 39.0992C67.8878 39.0992 67.2596 39.7274 67.2596 40.5022C67.2596 41.277 67.8878 41.9052 68.6626 41.9052Z" fill="#3498DB"/>
<path opacity="0.2" d="M56.6417 59.4165C56.5215 60.3723 56.5455 61.5686 57.3995 62.0147C56.6833 61.6407 59.6193 57.4001 59.2027 56.5341C58.3115 54.686 56.7511 58.5286 56.6417 59.4165Z" fill="white"/>
<path opacity="0.3" d="M67.5285 17.5627C68.7805 17.5627 69.7954 16.5478 69.7954 15.2959C69.7954 14.0439 68.7805 13.0291 67.5285 13.0291C66.2766 13.0291 65.2617 14.0439 65.2617 15.2959C65.2617 16.5478 66.2766 17.5627 67.5285 17.5627Z" fill="#3498DB"/>
<path opacity="0.3" d="M74.3291 13.0947C75.2598 13.0947 76.0142 12.3402 76.0142 11.4096C76.0142 10.4789 75.2598 9.72449 74.3291 9.72449C73.3985 9.72449 72.644 10.4789 72.644 11.4096C72.644 12.3402 73.3985 13.0947 74.3291 13.0947Z" fill="#3498DB"/>
<path opacity="0.3" d="M69.4717 7.75179C69.9555 7.75179 70.3476 7.35964 70.3476 6.8759C70.3476 6.39215 69.9555 6 69.4717 6C68.988 6 68.5958 6.39215 68.5958 6.8759C68.5958 7.35964 68.988 7.75179 69.4717 7.75179Z" fill="#3498DB"/>
<path opacity="0.9" d="M46.0347 34.7788H27.7152V40.2124H30.5069V82.6032C30.4959 83.4466 30.6524 84.2838 30.9676 85.0662C31.2827 85.8487 31.7501 86.5607 32.3426 87.161C32.9351 87.7614 33.641 88.238 34.4192 88.5634C35.1974 88.8887 36.0325 89.0563 36.876 89.0563C37.7195 89.0563 38.5546 88.8887 39.3329 88.5634C40.1111 88.238 40.8169 87.7614 41.4095 87.161C42.002 86.5607 42.4694 85.8487 42.7845 85.0662C43.0996 84.2838 43.2562 83.4466 43.2451 82.6032V40.2124H46.0347V34.7788Z" fill="#96B7FE"/>
<path d="M34.7509 49.8167C34.7509 49.8167 39.2845 48.1972 40.5464 49.3487C40.5464 49.3487 38.7104 52.0474 37.0199 51.9392C35.3293 51.8309 34.7509 49.8167 34.7509 49.8167Z" fill="#3498DB"/>
<path opacity="0.1" d="M34.7509 49.8167C34.7509 49.8167 39.2845 48.1972 40.5464 49.3487C40.5464 49.3487 38.7104 52.0474 37.0199 51.9392C35.3293 51.8309 34.7509 49.8167 34.7509 49.8167Z" fill="black"/>
<path d="M40.5442 49.353V80.1198C40.5442 80.6302 40.4437 81.1355 40.2484 81.607C40.0531 82.0785 39.7668 82.507 39.406 82.8678C39.0451 83.2287 38.6167 83.515 38.1451 83.7103C37.6736 83.9056 37.1683 84.0061 36.6579 84.0061C35.6272 84.0061 34.6387 83.5967 33.9099 82.8678C33.1811 82.139 32.7716 81.1505 32.7716 80.1198V49.353C32.7716 49.353 34.6426 48.8489 36.4053 49.9293C38.168 51.0097 40.5442 49.353 40.5442 49.353Z" fill="#3498DB"/>
<path opacity="0.1" d="M43.243 40.1785H30.5048V40.4289H43.243V40.1785Z" fill="black"/>
<path opacity="0.1" d="M36.6579 82.1351C36.1475 82.1351 35.642 82.0346 35.1704 81.8392C34.6989 81.6438 34.2704 81.3575 33.9095 80.9965C33.5486 80.6355 33.2624 80.2069 33.0671 79.7353C32.8719 79.2637 32.7715 78.7582 32.7716 78.2477V80.1909C32.7716 81.2216 33.1811 82.2101 33.9099 82.9389C34.6387 83.6678 35.6272 84.0772 36.6579 84.0772C37.6886 84.0772 38.6771 83.6678 39.406 82.9389C40.1348 82.2101 40.5442 81.2216 40.5442 80.1909V78.2477C40.5444 78.7582 40.444 79.2637 40.2487 79.7353C40.0535 80.2069 39.7672 80.6355 39.4063 80.9965C39.0454 81.3575 38.617 81.6438 38.1454 81.8392C37.6738 82.0346 37.1684 82.1351 36.6579 82.1351Z" fill="black"/>
<path opacity="0.3" d="M36.659 46.3317C37.0962 46.3317 37.4507 45.9772 37.4507 45.54C37.4507 45.1027 37.0962 44.7483 36.659 44.7483C36.2218 44.7483 35.8673 45.1027 35.8673 45.54C35.8673 45.9772 36.2218 46.3317 36.659 46.3317Z" fill="#3498DB"/>
<path opacity="0.3" d="M39.2495 43.2371C39.5279 43.2371 39.7536 43.0114 39.7536 42.733C39.7536 42.4545 39.5279 42.2289 39.2495 42.2289C38.9711 42.2289 38.7454 42.4545 38.7454 42.733C38.7454 43.0114 38.9711 43.2371 39.2495 43.2371Z" fill="#3498DB"/>
<path opacity="0.3" d="M35.723 42.23C36.0014 42.23 36.2271 42.0043 36.2271 41.7258C36.2271 41.4474 36.0014 41.2217 35.723 41.2217C35.4446 41.2217 35.2189 41.4474 35.2189 41.7258C35.2189 42.0043 35.4446 42.23 35.723 42.23Z" fill="#3498DB"/>
<path opacity="0.2" d="M31.4911 55.6385C31.3708 56.5942 31.3949 57.7905 32.2489 58.2366C31.5316 57.8627 34.4687 53.6231 34.0521 52.756C33.1587 50.9102 31.6005 54.7516 31.4911 55.6385Z" fill="white"/>
<path opacity="0.3" d="M38.3014 31.3791C39.3637 31.3791 40.2249 30.518 40.2249 29.4557C40.2249 28.3934 39.3637 27.5322 38.3014 27.5322C37.2391 27.5322 36.3779 28.3934 36.3779 29.4557C36.3779 30.518 37.2391 31.3791 38.3014 31.3791Z" fill="#3498DB"/>
<path opacity="0.3" d="M32.5311 27.5879C33.3211 27.5879 33.9614 26.9476 33.9614 26.1576C33.9614 25.3677 33.3211 24.7273 32.5311 24.7273C31.7412 24.7273 31.1008 25.3677 31.1008 26.1576C31.1008 26.9476 31.7412 27.5879 32.5311 27.5879Z" fill="#3498DB"/>
<path opacity="0.3" d="M36.6524 23.0543C37.0631 23.0543 37.396 22.7214 37.396 22.3107C37.396 21.9 37.0631 21.5671 36.6524 21.5671C36.2417 21.5671 35.9088 21.9 35.9088 22.3107C35.9088 22.7214 36.2417 23.0543 36.6524 23.0543Z" fill="#3498DB"/>
<path d="M112.962 55.352C112.962 55.352 111.284 47.0042 111.926 45.9653C111.926 45.9653 111.949 44.9998 111.911 43.7696C111.911 43.7226 111.911 43.6755 111.911 43.6274C112.023 43.7041 112.141 43.7728 112.263 43.833C112.854 44.1381 113.534 44.226 114.184 44.0812L113.673 43.5148C113.552 43.3792 113.424 43.2338 113.398 43.0544C113.391 42.8819 113.428 42.7106 113.507 42.5569C113.989 41.3376 114.019 39.8034 113.085 38.8729C112.3 38.0899 112.107 37.0795 111.259 36.3655C110.635 35.8417 110.293 35.074 109.97 34.3337C109.696 33.7061 109.423 33.074 109.264 32.4092C109.142 31.8898 109.094 31.3529 108.925 30.8455C108.757 30.3381 108.444 29.8449 107.953 29.6186C107.771 29.5549 107.594 29.4767 107.425 29.3845C107.215 29.2435 107.089 29.0139 106.938 28.8137C106.173 27.7957 103.592 28.3949 102.372 28.8083C102.041 28.9122 101.734 29.0822 101.47 29.308L101.481 29.2894L101.511 29.2446C101.378 29.3525 101.263 29.481 101.17 29.6251C100.992 29.9072 100.918 30.2386 100.77 30.536C100.591 30.8969 99.5955 31.904 100.023 32.3097C100.052 32.3368 100.086 32.359 100.123 32.3753C100.282 32.4405 100.457 32.4579 100.627 32.4256C100.62 32.4398 100.614 32.454 100.608 32.4682C100.463 32.8263 100.389 33.2092 100.389 33.5956C100.397 34.4046 100.725 35.1776 101.302 35.7446C101.879 36.3116 102.658 36.6262 103.466 36.6192C103.786 36.6197 104.104 36.571 104.409 36.4748C104.417 36.5131 104.423 36.5514 104.43 36.5896C104.43 36.606 104.43 36.6214 104.438 36.6367L104.384 36.7121L104.375 36.6979L102.78 38.9286C102.536 39.0992 101.131 40.1162 101.055 40.8784C100.972 41.7127 100.889 42.6903 100.889 42.6903L100.878 42.8991C100.809 42.9573 100.727 42.9997 100.64 43.0235C100.552 43.0473 100.46 43.0519 100.371 43.0369C99.8732 42.9549 99.8732 44.8696 99.8732 44.8696C99.8732 44.8696 99.5452 45.1747 99.3145 44.9101C99.0837 44.6455 98.4856 45.5411 98.4856 45.5411L94.7141 45.704H94.6277L94.4243 45.0741C94.4021 45.0091 94.3554 44.9552 94.2943 44.9238C94.2331 44.8924 94.1621 44.8859 94.0963 44.9057C94.0803 44.9101 94.0649 44.9164 94.0503 44.9243L94.0372 44.9331C94.0279 44.9384 94.0191 44.9446 94.011 44.9517C94.0058 44.9551 94.001 44.9591 93.9968 44.9637C93.9893 44.9701 93.9823 44.977 93.976 44.9845C93.9721 44.989 93.9684 44.9937 93.965 44.9987L93.9585 45.0052C93.935 45.0376 93.9194 45.0751 93.913 45.1146C93.9065 45.154 93.9094 45.1945 93.9213 45.2327L94.0963 45.7729C93.3691 45.9194 92.6244 46.3317 93.2313 47.4689L90.1564 46.9014L91.1515 47.7357L96.2909 48.7964C96.2231 48.9189 96.268 49.0949 96.4801 49.3432C97.3932 50.417 99.0619 50.7079 99.7322 50.7844C99.9083 51.1793 100.128 51.5531 100.388 51.8987L100.329 52.9681C100.329 52.9681 98.6321 61.1246 98.3205 61.539C98.4745 61.36 98.6152 61.1699 98.7415 60.9704C98.2483 62.6467 97.5594 64.9409 97.379 65.2843C97.0881 65.831 96.8191 68.053 97.1504 68.1963C97.2543 68.24 97.5419 68.2192 97.9563 68.1875V68.3712L97.9377 75.3423C97.9377 75.3423 98.0208 79.619 97.7923 80.0258C97.5638 80.4325 97.5025 81.2877 97.5025 81.2877C97.5025 81.2877 96.5862 82.9749 95.8623 83.6529L95.8459 83.6671L95.8229 83.5075C95.8229 83.5075 94.9481 84.6075 93.0257 84.5463C93.0257 84.5463 91.8655 85.2997 93.5856 85.3402C95.3057 85.3806 97.5014 85.2789 97.5014 85.2789C97.5014 85.2789 99.0323 82.9378 100.319 83.2428V85.0143H100.713V83.2275C100.896 83.1072 101.052 82.951 101.172 82.7685C101.292 82.586 101.374 82.3809 101.413 82.1657C101.447 81.9445 101.422 81.7183 101.342 81.5094C101.262 81.3006 101.128 81.1163 100.955 80.9749C100.877 80.9043 100.814 80.8183 100.771 80.7223C100.728 80.6263 100.705 80.5225 100.703 80.4172L100.689 80.4293C100.689 80.3943 100.68 80.3582 100.675 80.3199C100.565 79.4036 100.422 77.5184 100.921 76.1209C101.604 74.2061 101.812 71.5402 101.314 69.9513C101.154 69.4441 101.023 68.9282 100.921 68.4062C100.909 68.3395 100.897 68.2772 100.887 68.2181C101.228 68.2646 101.565 68.3336 101.896 68.4248C103.051 68.7419 105.574 68.801 107.728 68.7846C107.733 68.8436 107.74 68.9048 107.746 68.9672C107.786 69.3969 107.867 69.8217 107.989 70.2356C108.258 71.0514 108.383 74.6337 108.383 74.6337C108.383 74.6337 108.732 77.5807 108.541 78.7814C108.432 79.4484 108.34 80.1176 108.28 80.7901V80.8032C108.28 80.8032 107.709 82.4315 107.296 83.3183C107.285 83.3413 107.275 83.3631 107.264 83.385C107.152 83.3952 107.042 83.4191 106.936 83.4561C106.936 83.4561 106.377 84.5758 105.818 84.7595C105.258 84.9432 105.445 85.5534 106.709 85.3293C107.973 85.1051 109.88 84.9225 109.88 84.9225L109.963 83.7819L110.351 83.2964L110.253 84.4337L110.667 84.3528L110.613 82.9684L111.248 82.1734C111.248 82.1734 112.013 81.4911 110.875 80.1482V80.1767C110.863 80.157 110.851 80.1373 110.838 80.1187V80.1121C110.65 79.8191 110.499 79.2734 110.774 78.3046C111.272 76.555 111.562 74.9661 111.562 74.9661C111.562 74.9661 112.674 70.7113 111.336 68.6971H111.397C111.259 68.4137 111.162 68.1127 111.108 67.8026C111.101 67.7654 111.096 67.7271 111.089 67.6932C112.073 67.6364 113.05 67.457 113.841 67.0721C113.832 67.0601 113.356 56.9605 112.962 55.352ZM100.406 48.3098V48.3295L100.201 48.3393L100.406 48.3098ZM99.7092 48.406C99.6756 48.4132 99.6441 48.4282 99.6174 48.4498C99.5302 48.5735 99.4753 48.7171 99.4577 48.8675L99.1406 48.7953C99.1406 48.7953 98.9219 48.7483 98.5938 48.6958L98.4418 48.5438C98.8639 48.5044 99.297 48.4574 99.7092 48.406Z" fill="url(#paint0_linear_46:39)"/>
<path d="M110.201 82.9782L110.08 84.4195L110.486 84.3375L110.425 82.7759L110.201 82.9782Z" fill="#1D2366"/>
<path d="M100.949 76.1406C100.461 77.5326 100.601 79.4123 100.71 80.3254C100.75 80.6633 100.788 80.8722 100.788 80.8722C100.788 80.8722 100.057 82.5365 99.9958 82.5977C99.9346 82.6589 97.8438 83.934 97.8438 83.934L96.3829 84.7858C96.3829 84.7858 94.9012 84.1363 95.6174 83.911C95.7624 83.8526 95.893 83.7635 96.0002 83.6497C96.7087 82.9739 97.6065 81.2932 97.6065 81.2932C97.6065 81.2932 97.6667 80.4413 97.8897 80.0356C98.1128 79.6299 98.0319 75.3686 98.0319 75.3686L98.0505 68.4204V67.515L100.83 67.5358C100.848 67.8434 100.888 68.1493 100.95 68.4511C101.051 68.9711 101.18 69.4851 101.338 69.9907C101.821 71.5774 101.619 74.2324 100.949 76.1406Z" fill="#FFB0B1"/>
<path opacity="0.1" d="M100.786 80.8722C100.786 80.8722 100.056 82.5365 99.9947 82.5977C99.9335 82.6589 97.8438 83.934 97.8438 83.934L96.3829 84.7858C96.3829 84.7858 94.9012 84.1363 95.6174 83.911C95.7624 83.8526 95.893 83.7635 96.0002 83.6497L96.0636 84.0936L96.5513 84.0728L100.71 80.3254C100.749 80.6622 100.786 80.8722 100.786 80.8722Z" fill="black"/>
<path d="M100.736 80.4216L96.5458 84.1964L96.0581 84.2161L95.9575 83.5064C95.9575 83.5064 95.1045 84.5999 93.2172 84.5409C93.2172 84.5409 92.081 85.2921 93.7639 85.3325C95.4468 85.373 97.5999 85.2713 97.5999 85.2713C97.5999 85.2713 99.1013 82.9378 100.359 83.2429V85.0078H100.745V83.2221C100.924 83.1011 101.078 82.9451 101.195 82.7634C101.313 82.5817 101.393 82.378 101.429 82.1647C101.463 81.9449 101.439 81.7201 101.361 81.5121C101.282 81.3041 101.152 81.1199 100.981 80.9771C100.904 80.9061 100.843 80.8202 100.801 80.7247C100.759 80.6292 100.737 80.526 100.736 80.4216Z" fill="#1D2366"/>
<path d="M110.587 78.3112C110.317 79.2768 110.465 79.8202 110.649 80.1122V80.1188C110.888 80.4801 111.054 80.8846 111.137 81.3096L111.155 81.4014L109.248 84.1811L108.213 84.5868C108.213 84.5868 106.549 84.0193 106.853 83.8563C106.93 83.8159 107.049 83.6059 107.181 83.3096C107.589 82.4348 108.149 80.8098 108.149 80.8098V80.7956C108.207 80.1253 108.301 79.4583 108.405 78.7934C108.591 77.5982 108.25 74.6611 108.25 74.6611C108.25 74.6611 108.128 71.0908 107.864 70.2783C107.745 69.8654 107.665 69.4422 107.626 69.0142C107.572 68.5036 107.56 68.0869 107.56 68.0869C107.56 68.0869 108.653 66.5648 110.664 68.2083C110.824 68.3403 110.965 68.4937 111.083 68.6643C112.47 70.6326 111.354 74.9858 111.354 74.9858C111.354 74.9858 111.074 76.5671 110.587 78.3112Z" fill="#FFB0B1"/>
<path opacity="0.1" d="M111.155 81.3959L109.248 84.1756L108.213 84.5813C108.213 84.5813 106.549 84.0138 106.853 83.8509C106.93 83.8104 107.049 83.6004 107.181 83.3041C107.885 83.3041 108.251 83.969 108.251 83.969L109.143 83.8279C109.143 83.8279 110.321 81.514 110.584 81.373C110.848 81.2319 110.625 80.3167 110.625 80.3167V80.0837L110.645 80.1089V80.1155C110.886 80.4775 111.053 80.8832 111.137 81.3096L111.155 81.3959Z" fill="black"/>
<path d="M108.314 84.0335C108.314 84.0335 107.807 83.1007 106.833 83.4452C106.833 83.4452 106.287 84.5616 105.74 84.7442C105.193 84.9269 105.375 85.5348 106.615 85.3118C107.855 85.0887 109.719 84.9061 109.719 84.9061L109.8 83.7699L111.058 82.1669C111.058 82.1669 111.809 81.4867 110.692 80.1483V80.3812C110.692 80.3812 110.911 81.2942 110.652 81.4364C110.393 81.5786 109.212 83.8913 109.212 83.8913L108.314 84.0335Z" fill="#1D2366"/>
<path opacity="0.1" d="M100.827 67.5369C100.845 67.8445 100.885 68.1504 100.947 68.4522C99.8023 68.2838 98.7405 68.368 98.045 68.4215V67.5161L100.827 67.5369Z" fill="black"/>
<path opacity="0.1" d="M111.195 68.9168C111.195 68.9168 109.568 68.9956 107.631 69.012C107.576 68.5013 107.564 68.0847 107.564 68.0847C107.564 68.0847 108.657 66.5625 110.668 68.2061C110.828 68.338 110.969 68.4915 111.087 68.6621C111.119 68.7488 111.155 68.8338 111.195 68.9168Z" fill="black"/>
<path d="M111.195 68.7343C111.195 68.7343 104.073 69.0787 101.901 68.4707C99.7279 67.8628 97.5791 68.3887 97.2544 68.2466C96.9296 68.1044 97.1942 65.8934 97.4731 65.3455C97.7519 64.7977 99.32 59.258 99.32 59.258L100.821 51.4252L102.405 50.9878L102.514 50.9572L105.271 50.1918L107.293 49.6341C107.293 49.6341 111.31 65.3193 110.965 66.474C110.84 66.9171 110.82 67.3833 110.907 67.8354C110.961 68.147 111.058 68.4495 111.195 68.7343Z" fill="#1D2366"/>
<path d="M95.5924 46.0681C95.5924 46.0681 94.1708 47.5903 95.2468 48.4421C96.3228 49.294 97.0325 48.5242 97.0325 48.5242L95.5924 46.0681Z" fill="#C7DAF5"/>
<path opacity="0.1" d="M95.5924 46.0681C95.5924 46.0681 94.1708 47.5903 95.2468 48.4421C96.3228 49.294 97.0325 48.5242 97.0325 48.5242L95.5924 46.0681Z" fill="black"/>
<path d="M107.087 36.0451C107.087 36.0451 106.921 36.2026 106.669 36.4377C106.312 36.7712 105.783 37.26 105.312 37.6701C104.656 38.2365 104.126 38.6542 104.317 38.2966C104.509 37.9391 104.473 37.3245 104.377 36.746L104.358 36.6312C104.278 36.2064 104.173 35.7868 104.043 35.3748C104.043 35.3748 105.094 34.0167 105.675 33.4808C105.894 33.2807 106.044 33.1954 106.052 33.3354C106.063 33.5257 106.206 33.9412 106.38 34.3917C106.386 34.4049 106.392 34.4191 106.397 34.4322C106.515 34.7351 106.648 35.0511 106.765 35.3212C106.943 35.7356 107.087 36.0451 107.087 36.0451Z" fill="#FFB0B1"/>
<path opacity="0.1" d="M106.396 34.4322C106.297 34.9634 106.058 35.4584 105.702 35.8654C105.347 36.2725 104.888 36.5766 104.375 36.746C104.295 36.2819 104.183 35.8238 104.041 35.3748C104.041 35.3748 106.019 32.8182 106.049 33.3354C106.068 33.5322 106.215 33.9674 106.396 34.4322Z" fill="black"/>
<path opacity="0.1" d="M104.181 37.4295L104.437 37.0697C104.437 37.0697 104.606 38.1042 105.23 37.6482C105.855 37.1922 105.887 41.0818 105.887 41.0818L105.215 51.0961L100.375 50.8063L100.512 45.9675L101.059 43.5323L102.414 39.9861L103.225 38.8149L104.181 37.4295Z" fill="black"/>
<path d="M105.884 41.143L105.279 50.1972L105.215 51.1562L102.516 50.9955L102.407 50.9889L100.372 50.8675L100.509 46.0277L101.055 43.5935L102.41 40.0473L103.225 38.8751L104.184 37.4907L104.44 37.1299C104.44 37.1299 104.609 38.1654 105.234 37.7083L105.246 37.6996C105.855 37.3081 105.884 41.143 105.884 41.143Z" fill="#1D2366"/>
<path d="M101.131 42.7406C101.131 42.7406 100.888 43.248 100.4 43.1671C99.9127 43.0861 99.9138 44.9932 99.9138 44.9932C99.9138 44.9932 99.5857 45.2972 99.367 45.0337C99.1483 44.7701 98.5557 45.6624 98.5557 45.6624L94.8629 45.8254C94.8629 45.8254 96.5032 46.5755 96.1817 48.8489C96.1817 48.8489 101.759 48.5034 101.944 47.9741C102.13 47.4448 101.131 42.7406 101.131 42.7406Z" fill="white"/>
<path opacity="0.03" d="M101.131 42.7406C101.131 42.7406 100.888 43.248 100.4 43.1671C99.9127 43.0861 99.9138 44.9932 99.9138 44.9932C99.9138 44.9932 99.5857 45.2972 99.367 45.0337C99.1483 44.7701 98.5557 45.6624 98.5557 45.6624L94.8629 45.8254C94.8629 45.8254 96.5032 46.5755 96.1817 48.8489C96.1817 48.8489 101.759 48.5034 101.944 47.9741C102.13 47.4448 101.131 42.7406 101.131 42.7406Z" fill="black"/>
<path d="M90.397 47.0217L91.3713 47.8538L99.3867 49.5378L98.3916 48.5241L90.397 47.0217Z" fill="white"/>
<path d="M104.195 37.7488C104.063 37.9478 103.682 38.9932 103.363 39.9019C103.098 40.6586 102.876 41.3234 102.876 41.3234C102.876 41.3234 102.359 44.6925 102.095 45.3005C101.832 45.9085 101.974 48.2858 101.974 48.2858L100.99 54.1502C100.99 54.1502 100.544 57.1737 99.8547 58.9791C99.1789 60.7517 98.4135 61.586 98.3927 61.6112C98.6978 61.1989 100.361 53.0698 100.361 53.0698L100.908 42.8215C100.908 42.8215 100.989 41.8483 101.071 41.0162C101.153 40.184 102.795 39.0478 102.795 39.0478L104.383 36.7898C104.546 37.0117 104.439 37.3835 104.195 37.7488Z" fill="white"/>
<path d="M100.054 50.9178C100.054 50.9178 97.7202 50.8172 96.5841 49.4569C95.4479 48.0966 99.2019 48.9102 99.2019 48.9102L100.175 49.1289L100.054 50.9178Z" fill="#FFB0B1"/>
<path opacity="0.1" d="M110.972 66.4816C110.847 66.9247 110.827 67.3909 110.914 67.8431C108.364 68.0246 105.636 67.3335 105.636 67.3335C105.129 67.8004 103.789 68.4904 103.789 68.4904L103.059 59.4395C102.593 58.2213 102.41 51.8298 102.41 51.8298C102.41 51.8298 102.452 51.4952 102.52 50.9944C102.52 50.9823 102.52 50.9692 102.525 50.9572C102.708 49.5575 103.072 46.9298 103.244 46.5744C103.488 46.0878 102.494 44.7898 102.494 44.7898L102.946 40.9319L103.001 40.4672C103.955 40.0407 104.686 38.6815 104.686 38.6815L105.246 37.6974C105.857 37.3059 105.886 41.1408 105.886 41.1408L105.281 50.195L107.302 49.6373C107.302 49.6373 111.317 65.3247 110.972 66.4816Z" fill="black"/>
<path d="M113.59 67.1104C110.811 68.4904 105.757 67.2121 105.757 67.2121C105.25 67.6791 103.911 68.3691 103.911 68.3691L103.18 59.3181C102.714 58.1011 102.532 51.7095 102.532 51.7095C102.532 51.7095 103.12 46.9408 103.363 46.4542C103.434 46.312 103.4 46.101 103.316 45.8735C102.901 44.7895 102.748 43.6226 102.871 42.4683L103.065 40.8117L103.12 40.347C104.073 39.9205 104.804 38.5602 104.804 38.5602L105.312 37.6701L106.248 36.0298L106.691 35.2534L106.766 35.3212L107.341 35.8417C107.341 35.8417 107.585 36.0429 107.95 36.3524C108.746 37.0227 110.122 38.2037 110.83 38.9254C111.455 39.5629 111.651 42.0375 111.705 43.9008C111.743 45.1267 111.72 46.0878 111.72 46.0878C111.09 47.1223 112.734 55.4428 112.734 55.4428C113.123 57.0458 113.59 67.1104 113.59 67.1104Z" fill="white"/>
<path opacity="0.03" d="M108.255 38.5404C108.255 38.5404 106.347 42.1731 106.571 43.552C106.795 44.9309 107.423 46.4946 107.118 46.8598C107.013 46.9981 106.878 47.1104 106.723 47.1878C106.568 47.2652 106.398 47.3056 106.224 47.306C105.92 47.3267 105.108 47.8943 105.108 47.9555C105.108 48.0167 104.358 48.0167 103.686 48.3011C103.015 48.5854 102.022 48.7472 102.022 48.7472C102.022 48.7472 100.094 48.686 99.9116 48.8686C99.729 49.0512 99.5463 50.1469 99.9323 51.0195C100.318 51.8921 100.744 52.5417 101.068 52.6598C101.393 52.7779 103.442 52.0922 105.106 51.9293C106.769 51.7664 108.583 50.452 108.583 50.452C108.583 50.452 110.571 49.7412 110.917 48.5438C111.262 47.3464 110.49 40.7723 110.49 40.7723C110.49 40.7723 109.895 37.7083 108.255 38.5404Z" fill="black"/>
<path opacity="0.03" d="M108.01 38.2365C108.01 38.2365 106.103 41.868 106.326 43.248C106.549 44.628 107.178 46.1906 106.873 46.5558C106.768 46.6941 106.633 46.8064 106.478 46.8838C106.323 46.9612 106.153 47.0016 105.979 47.002C105.675 47.0228 104.864 47.5903 104.864 47.6515C104.864 47.7128 104.113 47.7117 103.442 47.996C102.772 48.2803 101.778 48.4421 101.778 48.4421C101.778 48.4421 99.8503 48.382 99.6677 48.5646C99.4851 48.7472 99.3024 49.8429 99.6884 50.7155C100.074 51.5881 100.5 52.2377 100.825 52.3558C101.149 52.4739 103.199 51.7871 104.863 51.6253C106.527 51.4635 108.335 50.1447 108.335 50.1447C108.335 50.1447 110.323 49.435 110.668 48.2376C111.014 47.0402 110.242 40.4661 110.242 40.4661C110.242 40.4661 109.654 37.4043 108.01 38.2365Z" fill="black"/>
<path d="M108.193 38.3579C108.193 38.3579 106.287 41.9905 106.505 43.365C106.724 44.7395 107.357 46.3076 107.052 46.6729C106.948 46.8113 106.813 46.9237 106.658 47.0011C106.503 47.0786 106.332 47.1189 106.159 47.119C105.855 47.1398 105.043 47.7073 105.043 47.7685C105.043 47.8298 104.292 47.8298 103.622 48.1141C102.952 48.3984 101.958 48.5602 101.958 48.5602C101.958 48.5602 100.03 48.499 99.8471 48.6816C99.6645 48.8642 99.4819 49.9599 99.8679 50.8325C100.254 51.7052 100.679 52.3547 101.004 52.4728C101.329 52.5909 103.378 51.9053 105.042 51.7423C106.707 51.5794 108.512 50.2617 108.512 50.2617C108.512 50.2617 110.5 49.551 110.846 48.3536C111.191 47.1562 110.419 40.582 110.419 40.582C110.419 40.582 109.836 37.5257 108.193 38.3579Z" fill="white"/>
<path opacity="0.1" d="M108.152 48.0977C108.152 48.0977 106.63 47.7937 107.158 48.3011C107.686 48.8085 107.685 49.2546 108.335 49.2338C108.984 49.2131 108.152 48.0977 108.152 48.0977Z" fill="black"/>
<path opacity="0.1" d="M110.73 59.0349C110.73 59.0349 110.04 59.5018 111.358 60.5767C112.677 61.6516 110.73 59.0349 110.73 59.0349Z" fill="black"/>
<path opacity="0.1" d="M109.41 62.8698C109.41 62.931 109.167 65.1016 110.08 65.6495C110.993 66.1973 109.41 62.8698 109.41 62.8698Z" fill="black"/>
<path d="M94.922 45.8232C94.1872 45.8484 92.5961 46.0736 93.4206 47.6111C94.15 48.9714 95.3747 48.0627 96.0603 47.3716C95.8931 46.7288 95.4856 46.1746 94.922 45.8232Z" fill="#FFB0B1"/>
<path d="M96.0724 47.3591C96.0832 47.3494 96.0928 47.3386 96.1025 47.3289C96.0928 47.3386 96.0832 47.3494 96.0724 47.3591Z" fill="#FFB0B1"/>
<path opacity="0.1" d="M107.95 36.4125C107.169 36.9461 106.514 37.3967 106.387 37.4907C106.036 37.7488 105.367 39.2709 104.941 40.0473C104.597 40.6728 103.485 40.8335 103.065 40.8729L103.116 40.4125C104.069 39.9872 104.8 38.6269 104.8 38.6269L106.687 35.3201L107.337 35.9084C107.337 35.9084 107.585 36.1041 107.95 36.4125Z" fill="black"/>
<path d="M107.95 36.3524C107.169 36.8849 106.514 37.3365 106.387 37.4295C106.036 37.6886 105.367 39.2097 104.941 39.9861C104.597 40.6116 103.485 40.7723 103.065 40.8117L103.12 40.347C104.074 39.9205 104.804 38.5602 104.804 38.5602L106.691 35.2534L107.341 35.8417C107.341 35.8417 107.585 36.0386 107.95 36.3524Z" fill="#DCE7FF"/>
<path d="M106.447 33.7618C106.448 33.9736 106.426 34.1848 106.381 34.3917C106.299 34.7783 106.142 35.1449 105.917 35.4699C105.509 36.0639 104.901 36.4919 104.204 36.6761C103.507 36.8603 102.767 36.7886 102.118 36.4739C101.47 36.1592 100.955 35.6225 100.669 34.961C100.382 34.2996 100.342 33.5573 100.556 32.8688C100.769 32.1803 101.223 31.5913 101.834 31.2085C102.445 30.8258 103.173 30.6748 103.885 30.7828C104.598 30.8908 105.249 31.2508 105.719 31.7974C106.189 32.3439 106.447 33.0409 106.447 33.7618Z" fill="#FFB0B1"/>
<path opacity="0.1" d="M111.708 43.9008C111.296 43.6468 110.96 43.2855 110.736 42.8554C110.567 42.5197 110.454 42.1337 110.163 41.8942C109.903 41.6821 109.551 41.6296 109.228 41.5345C108.16 41.2185 107.26 40.242 107.229 39.1288C107.214 38.605 107.377 38.0812 107.303 37.5629C107.261 37.2687 107.143 36.9904 106.962 36.7548C106.874 36.6412 106.776 36.5355 106.669 36.4387C106.527 36.3042 106.377 36.1741 106.248 36.0309C106.165 35.943 106.091 35.8457 106.03 35.7411C105.982 35.6553 105.942 35.5648 105.913 35.471C105.714 34.8499 105.894 34.1107 105.671 33.4819C105.671 33.471 105.663 33.459 105.659 33.448C105.574 33.2239 105.402 33.0008 105.165 32.9833C104.927 32.9658 104.721 33.1637 104.493 33.2534C104.017 33.4382 103.502 33.1232 103.105 32.8018C102.708 32.4803 102.259 32.1129 101.753 32.185C101.42 32.232 101.155 32.4606 100.848 32.5787C100.776 32.6047 100.703 32.6252 100.629 32.6399C100.89 31.9907 101.369 31.4525 101.983 31.1177C102.598 30.783 103.31 30.6726 103.997 30.8054C104.684 30.9382 105.303 31.306 105.749 31.8456C106.195 32.3853 106.438 33.0632 106.439 33.7629C106.439 33.9747 106.417 34.1859 106.372 34.3928C106.379 34.4059 106.384 34.4201 106.389 34.4333C106.508 34.7362 106.64 35.0522 106.757 35.3223L107.332 35.8428C107.332 35.8428 107.576 36.044 107.941 36.3535C108.737 37.0238 110.113 38.2048 110.821 38.9265C111.455 39.5629 111.651 42.0375 111.708 43.9008Z" fill="black"/>
<path d="M100.819 30.723C100.965 30.4267 101.038 30.0954 101.211 29.8154C101.466 29.4054 101.912 29.1484 102.368 28.9909C103.562 28.5798 106.086 27.9816 106.839 28.9909C106.988 29.191 107.11 29.4207 107.316 29.5617C107.482 29.6522 107.655 29.7297 107.833 29.7936C108.314 30.0199 108.621 30.5109 108.785 31.0161C108.949 31.5213 108.998 32.0571 109.113 32.5754C109.267 33.2381 109.537 33.8669 109.805 34.4923C110.121 35.2305 110.461 35.9948 111.066 36.5175C111.899 37.2294 112.086 38.2365 112.854 39.0162C113.77 39.9435 113.74 41.4733 113.269 42.6871C113.191 42.8405 113.153 43.0114 113.159 43.1835C113.204 43.3592 113.298 43.5186 113.43 43.6428L113.929 44.207C113.332 44.3358 112.71 44.2667 112.156 44.0103C111.601 43.7538 111.146 43.3239 110.858 42.7855C110.687 42.4498 110.574 42.0638 110.284 41.8254C110.023 41.6121 109.672 41.5607 109.349 41.4645C108.28 41.1485 107.38 40.172 107.35 39.0588C107.334 38.5361 107.497 38.0112 107.424 37.4929C107.38 37.2025 107.264 36.9279 107.085 36.6947C106.804 36.3294 106.383 36.0812 106.156 35.681C105.771 35.0019 106.063 34.1184 105.785 33.3846C105.7 33.1659 105.529 32.9374 105.291 32.9199C105.052 32.9024 104.847 33.1014 104.619 33.19C104.142 33.3748 103.628 33.0599 103.232 32.7384C102.835 32.4169 102.385 32.0505 101.88 32.1227C101.545 32.1697 101.282 32.3972 100.973 32.5153C100.746 32.6028 100.285 32.6815 100.084 32.489C99.6656 32.0866 100.64 31.0828 100.819 30.723Z" fill="#591D4B"/>
<path opacity="0.1" d="M111.142 42.4497C110.972 42.114 110.86 41.728 110.569 41.4886C110.309 41.2753 109.957 41.2239 109.634 41.1288C108.566 40.8128 107.666 39.8363 107.635 38.7231C107.619 38.1993 107.783 37.6755 107.708 37.1572C107.666 36.8631 107.549 36.5847 107.368 36.3491C107.088 35.9839 106.666 35.7345 106.44 35.3343C106.054 34.6553 106.347 33.7717 106.069 33.038C105.984 32.8193 105.813 32.5907 105.575 32.5732C105.336 32.5557 105.131 32.7537 104.903 32.8422C104.427 33.0281 103.912 32.7132 103.516 32.3917C103.12 32.0702 102.669 31.7039 102.163 31.775C101.835 31.822 101.566 32.0494 101.258 32.1686C101.03 32.2561 100.569 32.3348 100.369 32.1424C99.9499 31.7378 100.924 30.734 101.1 30.3753C101.246 30.0789 101.319 29.7476 101.492 29.4677L101.521 29.4218C101.393 29.5306 101.282 29.659 101.193 29.8023C101.018 30.0822 100.946 30.4136 100.802 30.7099C100.626 31.0697 99.6514 32.0735 100.07 32.477C100.269 32.6695 100.726 32.5864 100.959 32.5032C101.266 32.3851 101.53 32.1577 101.865 32.1096C102.37 32.0385 102.819 32.4048 103.216 32.7263C103.613 33.0478 104.128 33.3627 104.604 33.1779C104.832 33.0894 105.031 32.8893 105.275 32.9078C105.519 32.9264 105.685 33.1484 105.771 33.3726C106.048 34.1019 105.755 34.9855 106.14 35.6689C106.368 36.0681 106.79 36.3174 107.07 36.6826C107.251 36.9182 107.368 37.1966 107.41 37.4907C107.484 38.009 107.32 38.5328 107.337 39.0566C107.37 40.1709 108.267 41.1474 109.335 41.4623C109.658 41.5574 110.01 41.6088 110.27 41.8232C110.561 42.0616 110.673 42.4476 110.843 42.7833C111.132 43.3217 111.587 43.7516 112.141 44.0081C112.695 44.2645 113.318 44.3336 113.915 44.2048L113.68 43.938C112.648 43.9555 111.61 43.3716 111.142 42.4497Z" fill="black"/>
<path opacity="0.1" d="M104.135 37.81C104.001 38.009 103.621 39.0544 103.303 39.962C103.005 39.8472 102.734 39.108 102.734 39.108L104.318 36.8499C104.485 37.073 104.377 37.4448 104.135 37.81Z" fill="black"/>
<path d="M104.195 37.7488C104.063 37.9478 103.682 38.9932 103.363 39.9019C103.065 39.7871 102.795 39.0478 102.795 39.0478L104.383 36.7898C104.546 37.0117 104.439 37.3835 104.195 37.7488Z" fill="#DCE7FF"/>
<path d="M94.9646 48.1327L94.0843 45.3606C94.0738 45.328 94.0697 45.2937 94.0725 45.2595C94.0753 45.2254 94.0847 45.1921 94.1004 45.1616C94.116 45.1312 94.1375 45.1041 94.1637 45.0819C94.1898 45.0598 94.2201 45.043 94.2527 45.0326C94.2853 45.0217 94.3197 45.0175 94.354 45.0201C94.3882 45.0227 94.4216 45.0321 94.4521 45.0478C94.4827 45.0635 94.5098 45.0851 94.5319 45.1114C94.554 45.1377 94.5706 45.1682 94.5808 45.201L95.461 47.9752L95.3735 48.5558L94.9646 48.1327Z" fill="#BE8B87"/>
<path opacity="0.1" d="M94.1674 45.1146C94.2 45.1041 94.2345 45.1001 94.2687 45.1029C94.3029 45.1058 94.3362 45.1153 94.3667 45.1311C94.3972 45.1468 94.4242 45.1685 94.4463 45.1947C94.4684 45.221 94.4851 45.2513 94.4954 45.2841L95.3757 48.0561L95.309 48.4935L95.3735 48.5602L95.461 47.9796L94.5807 45.2075C94.5705 45.1747 94.5539 45.1443 94.5318 45.118C94.5098 45.0917 94.4826 45.0701 94.4521 45.0544C94.4215 45.0387 94.3882 45.0293 94.3539 45.0267C94.3197 45.024 94.2853 45.0283 94.2527 45.0391C94.1979 45.0561 94.1505 45.0912 94.1182 45.1386C94.1336 45.1288 94.1501 45.1208 94.1674 45.1146Z" fill="white"/>
<path d="M94.9646 48.1327L95.4589 47.9752L95.3867 48.452L95.3714 48.5559L95.227 48.405L94.9646 48.1327Z" fill="#EFC8C4"/>
<path d="M95.2271 48.4049C95.2361 48.3945 95.2468 48.3856 95.2588 48.3787C95.2658 48.3743 95.274 48.372 95.2823 48.372C95.2906 48.372 95.2987 48.3743 95.3058 48.3787C95.3129 48.3869 95.3188 48.3961 95.3233 48.406C95.3299 48.4175 95.339 48.4274 95.35 48.4348C95.361 48.4422 95.3736 48.4469 95.3867 48.4487L95.3714 48.558L95.2271 48.4049Z" fill="#727A9C"/>
<path d="M94.08 46.3426C94.08 46.3426 95.846 46.3328 95.4293 47.0829C95.0127 47.833 94.3643 47.9249 94.3643 47.9249L94.08 46.3426Z" fill="#FFB0B1"/>
<path d="M23.2617 111H19.7461V93.9375H23.2617V111ZM30.0469 104.988V111H26.5312V93.9375H33.1875C34.4688 93.9375 35.5938 94.1719 36.5625 94.6406C37.5391 95.1094 38.2891 95.7773 38.8125 96.6445C39.3359 97.5039 39.5977 98.4844 39.5977 99.5859C39.5977 101.258 39.0234 102.578 37.875 103.547C36.7344 104.508 35.1523 104.988 33.1289 104.988H30.0469ZM30.0469 102.141H33.1875C34.1172 102.141 34.8242 101.922 35.3086 101.484C35.8008 101.047 36.0469 100.422 36.0469 99.6094C36.0469 98.7734 35.8008 98.0977 35.3086 97.582C34.8164 97.0664 34.1367 96.8008 33.2695 96.7852H30.0469V102.141ZM49.5703 107.484H43.4062L42.2344 111H38.4961L44.8477 93.9375H48.1055L54.4922 111H50.7539L49.5703 107.484ZM44.3555 104.637H48.6211L46.4766 98.25L44.3555 104.637Z" fill="#FFFDFD"/>
<path d="M20.6865 121.148H21.7393C22.2406 121.148 22.612 121.023 22.8535 120.772C23.0951 120.522 23.2158 120.189 23.2158 119.774C23.2158 119.373 23.0951 119.061 22.8535 118.838C22.6165 118.615 22.2884 118.503 21.8691 118.503C21.4909 118.503 21.1742 118.608 20.9189 118.817C20.6637 119.022 20.5361 119.291 20.5361 119.624H18.5605C18.5605 119.104 18.6995 118.64 18.9775 118.229C19.2601 117.815 19.652 117.491 20.1533 117.259C20.6592 117.026 21.2152 116.91 21.8213 116.91C22.874 116.91 23.6989 117.163 24.2959 117.669C24.8929 118.17 25.1914 118.863 25.1914 119.747C25.1914 120.203 25.0524 120.622 24.7744 121.005C24.4964 121.388 24.1318 121.682 23.6807 121.887C24.2412 122.087 24.6582 122.388 24.9316 122.789C25.2096 123.19 25.3486 123.664 25.3486 124.211C25.3486 125.095 25.0251 125.804 24.3779 126.337C23.7354 126.87 22.8831 127.137 21.8213 127.137C20.8278 127.137 20.0143 126.875 19.3809 126.351C18.752 125.826 18.4375 125.134 18.4375 124.272H20.4131C20.4131 124.646 20.5521 124.951 20.8301 125.188C21.1126 125.425 21.459 125.544 21.8691 125.544C22.3385 125.544 22.7054 125.421 22.9697 125.175C23.2386 124.924 23.373 124.594 23.373 124.184C23.373 123.19 22.8262 122.693 21.7324 122.693H20.6865V121.148ZM33.0938 117.047L35.6504 124.266L38.1934 117.047H40.8867V127H38.8291V124.279L39.0342 119.583L36.3477 127H34.9395L32.2598 119.59L32.4648 124.279V127H30.4141V117.047H33.0938ZM46.834 127C46.7428 126.822 46.6768 126.601 46.6357 126.337C46.1572 126.87 45.5352 127.137 44.7695 127.137C44.0449 127.137 43.4434 126.927 42.9648 126.508C42.4909 126.089 42.2539 125.56 42.2539 124.922C42.2539 124.138 42.5433 123.536 43.1221 123.117C43.7054 122.698 44.5462 122.486 45.6445 122.481H46.5537V122.058C46.5537 121.716 46.4648 121.442 46.2871 121.237C46.1139 121.032 45.8382 120.93 45.46 120.93C45.1273 120.93 44.8652 121.009 44.6738 121.169C44.487 121.328 44.3936 121.547 44.3936 121.825H42.418C42.418 121.397 42.5501 121 42.8145 120.636C43.0788 120.271 43.4525 119.986 43.9355 119.781C44.4186 119.572 44.9609 119.467 45.5625 119.467C46.474 119.467 47.1963 119.697 47.7295 120.157C48.2673 120.613 48.5361 121.256 48.5361 122.085V125.291C48.5407 125.993 48.6387 126.524 48.8301 126.884V127H46.834ZM45.2002 125.626C45.4919 125.626 45.7607 125.562 46.0068 125.435C46.2529 125.302 46.4352 125.127 46.5537 124.908V123.637H45.8154C44.8265 123.637 44.3001 123.979 44.2363 124.662L44.2295 124.778C44.2295 125.024 44.3161 125.227 44.4893 125.387C44.6624 125.546 44.8994 125.626 45.2002 125.626ZM56.7119 123.37C56.7119 124.509 56.4521 125.423 55.9326 126.111C55.4176 126.795 54.7204 127.137 53.8408 127.137C53.0934 127.137 52.4896 126.877 52.0293 126.357V129.844H50.0537V119.604H51.8857L51.9541 120.328C52.4326 119.754 53.057 119.467 53.8271 119.467C54.7386 119.467 55.4473 119.804 55.9531 120.479C56.459 121.153 56.7119 122.083 56.7119 123.268V123.37ZM54.7363 123.227C54.7363 122.538 54.6133 122.007 54.3672 121.634C54.1257 121.26 53.7725 121.073 53.3076 121.073C52.6878 121.073 52.2617 121.31 52.0293 121.784V124.812C52.2708 125.3 52.7015 125.544 53.3213 125.544C54.2646 125.544 54.7363 124.771 54.7363 123.227ZM61.3467 127.137C60.262 127.137 59.3779 126.804 58.6943 126.139C58.0153 125.473 57.6758 124.587 57.6758 123.479V123.288C57.6758 122.545 57.8193 121.882 58.1064 121.299C58.3936 120.711 58.7992 120.26 59.3232 119.945C59.8519 119.626 60.4535 119.467 61.1279 119.467C62.1396 119.467 62.9349 119.786 63.5137 120.424C64.097 121.062 64.3887 121.966 64.3887 123.138V123.944H59.6787C59.7425 124.427 59.9339 124.815 60.2529 125.106C60.5765 125.398 60.9844 125.544 61.4766 125.544C62.2376 125.544 62.8324 125.268 63.2607 124.717L64.2314 125.804C63.9352 126.223 63.5342 126.551 63.0283 126.788C62.5225 127.021 61.9619 127.137 61.3467 127.137ZM61.1211 121.066C60.7292 121.066 60.4102 121.199 60.1641 121.463C59.9225 121.727 59.7676 122.105 59.6992 122.598H62.4473V122.44C62.4382 122.003 62.3197 121.666 62.0918 121.429C61.8639 121.187 61.5404 121.066 61.1211 121.066ZM67.6016 127H65.6191V116.5H67.6016V127Z" fill="white"/>
<defs>
<filter id="filter0_dddddd_46:39" x="-80" y="0" width="294" height="314" filterUnits="userSpaceOnUse" color-interpolation-filters="sRGB">
<feFlood flood-opacity="0" result="BackgroundImageFix"/>
<feColorMatrix in="SourceAlpha" type="matrix" values="0 0 0 0 0 0 0 0 0 0 0 0 0 0 0 0 0 0 127 0" result="hardAlpha"/>
<feOffset dy="2.76726"/>
<feGaussianBlur stdDeviation="1.1069"/>
<feColorMatrix type="matrix" values="0 0 0 0 0.203922 0 0 0 0 0.596078 0 0 0 0 0.858824 0 0 0 0.0253031 0"/>
<feBlend mode="normal" in2="BackgroundImageFix" result="effect1_dropShadow_46:39"/>
<feColorMatrix in="SourceAlpha" type="matrix" values="0 0 0 0 0 0 0 0 0 0 0 0 0 0 0 0 0 0 127 0" result="hardAlpha"/>
<feOffset dy="6.6501"/>
<feGaussianBlur stdDeviation="2.66004"/>
<feColorMatrix type="matrix" values="0 0 0 0 0.203922 0 0 0 0 0.596078 0 0 0 0 0.858824 0 0 0 0.0363503 0"/>
<feBlend mode="normal" in2="effect1_dropShadow_46:39" result="effect2_dropShadow_46:39"/>
<feColorMatrix in="SourceAlpha" type="matrix" values="0 0 0 0 0 0 0 0 0 0 0 0 0 0 0 0 0 0 127 0" result="hardAlpha"/>
<feOffset dy="12.5216"/>
<feGaussianBlur stdDeviation="5.00862"/>
<feColorMatrix type="matrix" values="0 0 0 0 0.203922 0 0 0 0 0.596078 0 0 0 0 0.858824 0 0 0 0.045 0"/>
<feBlend mode="normal" in2="effect2_dropShadow_46:39" result="effect3_dropShadow_46:39"/>
<feColorMatrix in="SourceAlpha" type="matrix" values="0 0 0 0 0 0 0 0 0 0 0 0 0 0 0 0 0 0 127 0" result="hardAlpha"/>
<feOffset dy="22.3363"/>
<feGaussianBlur stdDeviation="8.93452"/>
<feColorMatrix type="matrix" values="0 0 0 0 0.203922 0 0 0 0 0.596078 0 0 0 0 0.858824 0 0 0 0.0536497 0"/>
<feBlend mode="normal" in2="effect3_dropShadow_46:39" result="effect4_dropShadow_46:39"/>
<feColorMatrix in="SourceAlpha" type="matrix" values="0 0 0 0 0 0 0 0 0 0 0 0 0 0 0 0 0 0 127 0" result="hardAlpha"/>
<feOffset dy="41.7776"/>
<feGaussianBlur stdDeviation="16.711"/>
<feColorMatrix type="matrix" values="0 0 0 0 0.203922 0 0 0 0 0.596078 0 0 0 0 0.858824 0 0 0 0.0646969 0"/>
<feBlend mode="normal" in2="effect4_dropShadow_46:39" result="effect5_dropShadow_46:39"/>
<feColorMatrix in="SourceAlpha" type="matrix" values="0 0 0 0 0 0 0 0 0 0 0 0 0 0 0 0 0 0 127 0" result="hardAlpha"/>
<feOffset dy="100"/>
<feGaussianBlur stdDeviation="40"/>
<feColorMatrix type="matrix" values="0 0 0 0 0.203922 0 0 0 0 0.596078 0 0 0 0 0.858824 0 0 0 0.09 0"/>
<feBlend mode="normal" in2="effect5_dropShadow_46:39" result="effect6_dropShadow_46:39"/>
<feBlend mode="normal" in="SourceGraphic" in2="effect6_dropShadow_46:39" result="shape"/>
</filter>
<linearGradient id="paint0_linear_46:39" x1="102.164" y1="85.373" x2="102.164" y2="28.2528" gradientUnits="userSpaceOnUse">
<stop stop-color="#808080" stop-opacity="0.25"/>
<stop offset="0.54" stop-color="#808080" stop-opacity="0.12"/>
<stop offset="1" stop-color="#808080" stop-opacity="0.1"/>
</linearGradient>
</defs>
</svg>
