<svg width="134" height="134" viewBox="0 0 134 134" fill="none" xmlns="http://www.w3.org/2000/svg">
<g filter="url(#filter0_dddddd_41:825)">
<rect width="134" height="134" rx="24" fill="#A1D5F9"/>
</g>
<path d="M23.2617 111H19.7461V93.9375H23.2617V111ZM30.0469 104.988V111H26.5312V93.9375H33.1875C34.4688 93.9375 35.5938 94.1719 36.5625 94.6406C37.5391 95.1094 38.2891 95.7773 38.8125 96.6445C39.3359 97.5039 39.5977 98.4844 39.5977 99.5859C39.5977 101.258 39.0234 102.578 37.875 103.547C36.7344 104.508 35.1523 104.988 33.1289 104.988H30.0469ZM30.0469 102.141H33.1875C34.1172 102.141 34.8242 101.922 35.3086 101.484C35.8008 101.047 36.0469 100.422 36.0469 99.6094C36.0469 98.7734 35.8008 98.0977 35.3086 97.582C34.8164 97.0664 34.1367 96.8008 33.2695 96.7852H30.0469V102.141ZM50.8711 106.523C50.8711 105.859 50.6367 105.352 50.168 105C49.6992 104.641 48.8555 104.266 47.6367 103.875C46.418 103.477 45.4531 103.086 44.7422 102.703C42.8047 101.656 41.8359 100.246 41.8359 98.4727C41.8359 97.5508 42.0938 96.7305 42.6094 96.0117C43.1328 95.2852 43.8789 94.7188 44.8477 94.3125C45.8242 93.9062 46.918 93.7031 48.1289 93.7031C49.3477 93.7031 50.4336 93.9258 51.3867 94.3711C52.3398 94.8086 53.0781 95.4297 53.6016 96.2344C54.1328 97.0391 54.3984 97.9531 54.3984 98.9766H50.8828C50.8828 98.1953 50.6367 97.5898 50.1445 97.1602C49.6523 96.7227 48.9609 96.5039 48.0703 96.5039C47.2109 96.5039 46.543 96.6875 46.0664 97.0547C45.5898 97.4141 45.3516 97.8906 45.3516 98.4844C45.3516 99.0391 45.6289 99.5039 46.1836 99.8789C46.7461 100.254 47.5703 100.605 48.6562 100.934C50.6562 101.535 52.1133 102.281 53.0273 103.172C53.9414 104.062 54.3984 105.172 54.3984 106.5C54.3984 107.977 53.8398 109.137 52.7227 109.98C51.6055 110.816 50.1016 111.234 48.2109 111.234C46.8984 111.234 45.7031 110.996 44.625 110.52C43.5469 110.035 42.7227 109.375 42.1523 108.539C41.5898 107.703 41.3086 106.734 41.3086 105.633H44.8359C44.8359 107.516 45.9609 108.457 48.2109 108.457C49.0469 108.457 49.6992 108.289 50.168 107.953C50.6367 107.609 50.8711 107.133 50.8711 106.523Z" fill="#FFFDFD"/>
<path d="M20.6865 121.148H21.7393C22.2406 121.148 22.612 121.023 22.8535 120.772C23.0951 120.522 23.2158 120.189 23.2158 119.774C23.2158 119.373 23.0951 119.061 22.8535 118.838C22.6165 118.615 22.2884 118.503 21.8691 118.503C21.4909 118.503 21.1742 118.608 20.9189 118.817C20.6637 119.022 20.5361 119.291 20.5361 119.624H18.5605C18.5605 119.104 18.6995 118.64 18.9775 118.229C19.2601 117.815 19.652 117.491 20.1533 117.259C20.6592 117.026 21.2152 116.91 21.8213 116.91C22.874 116.91 23.6989 117.163 24.2959 117.669C24.8929 118.17 25.1914 118.863 25.1914 119.747C25.1914 120.203 25.0524 120.622 24.7744 121.005C24.4964 121.388 24.1318 121.682 23.6807 121.887C24.2412 122.087 24.6582 122.388 24.9316 122.789C25.2096 123.19 25.3486 123.664 25.3486 124.211C25.3486 125.095 25.0251 125.804 24.3779 126.337C23.7354 126.87 22.8831 127.137 21.8213 127.137C20.8278 127.137 20.0143 126.875 19.3809 126.351C18.752 125.826 18.4375 125.134 18.4375 124.272H20.4131C20.4131 124.646 20.5521 124.951 20.8301 125.188C21.1126 125.425 21.459 125.544 21.8691 125.544C22.3385 125.544 22.7054 125.421 22.9697 125.175C23.2386 124.924 23.373 124.594 23.373 124.184C23.373 123.19 22.8262 122.693 21.7324 122.693H20.6865V121.148ZM33.0938 117.047L35.6504 124.266L38.1934 117.047H40.8867V127H38.8291V124.279L39.0342 119.583L36.3477 127H34.9395L32.2598 119.59L32.4648 124.279V127H30.4141V117.047H33.0938ZM46.834 127C46.7428 126.822 46.6768 126.601 46.6357 126.337C46.1572 126.87 45.5352 127.137 44.7695 127.137C44.0449 127.137 43.4434 126.927 42.9648 126.508C42.4909 126.089 42.2539 125.56 42.2539 124.922C42.2539 124.138 42.5433 123.536 43.1221 123.117C43.7054 122.698 44.5462 122.486 45.6445 122.481H46.5537V122.058C46.5537 121.716 46.4648 121.442 46.2871 121.237C46.1139 121.032 45.8382 120.93 45.46 120.93C45.1273 120.93 44.8652 121.009 44.6738 121.169C44.487 121.328 44.3936 121.547 44.3936 121.825H42.418C42.418 121.397 42.5501 121 42.8145 120.636C43.0788 120.271 43.4525 119.986 43.9355 119.781C44.4186 119.572 44.9609 119.467 45.5625 119.467C46.474 119.467 47.1963 119.697 47.7295 120.157C48.2673 120.613 48.5361 121.256 48.5361 122.085V125.291C48.5407 125.993 48.6387 126.524 48.8301 126.884V127H46.834ZM45.2002 125.626C45.4919 125.626 45.7607 125.562 46.0068 125.435C46.2529 125.302 46.4352 125.127 46.5537 124.908V123.637H45.8154C44.8265 123.637 44.3001 123.979 44.2363 124.662L44.2295 124.778C44.2295 125.024 44.3161 125.227 44.4893 125.387C44.6624 125.546 44.8994 125.626 45.2002 125.626ZM56.7119 123.37C56.7119 124.509 56.4521 125.423 55.9326 126.111C55.4176 126.795 54.7204 127.137 53.8408 127.137C53.0934 127.137 52.4896 126.877 52.0293 126.357V129.844H50.0537V119.604H51.8857L51.9541 120.328C52.4326 119.754 53.057 119.467 53.8271 119.467C54.7386 119.467 55.4473 119.804 55.9531 120.479C56.459 121.153 56.7119 122.083 56.7119 123.268V123.37ZM54.7363 123.227C54.7363 122.538 54.6133 122.007 54.3672 121.634C54.1257 121.26 53.7725 121.073 53.3076 121.073C52.6878 121.073 52.2617 121.31 52.0293 121.784V124.812C52.2708 125.3 52.7015 125.544 53.3213 125.544C54.2646 125.544 54.7363 124.771 54.7363 123.227ZM61.3467 127.137C60.262 127.137 59.3779 126.804 58.6943 126.139C58.0153 125.473 57.6758 124.587 57.6758 123.479V123.288C57.6758 122.545 57.8193 121.882 58.1064 121.299C58.3936 120.711 58.7992 120.26 59.3232 119.945C59.8519 119.626 60.4535 119.467 61.1279 119.467C62.1396 119.467 62.9349 119.786 63.5137 120.424C64.097 121.062 64.3887 121.966 64.3887 123.138V123.944H59.6787C59.7425 124.427 59.9339 124.815 60.2529 125.106C60.5765 125.398 60.9844 125.544 61.4766 125.544C62.2376 125.544 62.8324 125.268 63.2607 124.717L64.2314 125.804C63.9352 126.223 63.5342 126.551 63.0283 126.788C62.5225 127.021 61.9619 127.137 61.3467 127.137ZM61.1211 121.066C60.7292 121.066 60.4102 121.199 60.1641 121.463C59.9225 121.727 59.7676 122.105 59.6992 122.598H62.4473V122.44C62.4382 122.003 62.3197 121.666 62.0918 121.429C61.8639 121.187 61.5404 121.066 61.1211 121.066ZM67.6016 127H65.6191V116.5H67.6016V127Z" fill="white"/>
<g clip-path="url(#clip0_41:825)">
<path d="M74.9263 46.5845C77.334 46.5845 79.2858 44.635 79.2858 42.2301C79.2858 39.8252 77.334 37.8757 74.9263 37.8757C72.5186 37.8757 70.5668 39.8252 70.5668 42.2301C70.5668 44.635 72.5186 46.5845 74.9263 46.5845Z" fill="#E6E6E6"/>
<path d="M85.6107 47.8258L81.0549 43.2753C81.4041 42.7328 81.6408 42.1257 81.7508 41.4902C81.8609 40.8546 81.8421 40.2035 81.6955 39.5753C81.549 38.9472 81.2778 38.3548 80.8979 37.8332C80.5179 37.3117 80.0371 36.8716 79.4838 36.5391C78.4419 35.9174 77.2043 35.7092 76.016 35.9558C74.8277 36.2023 73.7755 36.8856 73.0677 37.8703C72.4164 38.7824 72.1036 39.8927 72.183 41.0102C72.2625 42.1278 72.7292 43.1827 73.5031 43.9938C74.2769 44.8048 75.3094 45.3213 76.4231 45.4543C77.5369 45.5874 78.6622 45.3287 79.6057 44.7228L84.1615 49.2733C84.3537 49.4651 84.6143 49.5728 84.886 49.5727C85.1577 49.5726 85.4182 49.4648 85.6103 49.2729C85.8024 49.081 85.9104 48.8207 85.9105 48.5494C85.9105 48.278 85.8027 48.0177 85.6107 47.8258V47.8258ZM79.4356 43.1054C78.8711 43.6693 78.1283 44.0202 77.3339 44.0984C76.5394 44.1765 75.7423 43.9771 75.0786 43.5341C74.4148 43.0911 73.9253 42.4319 73.6935 41.6689C73.4618 40.9058 73.5021 40.0861 73.8076 39.3495C74.1131 38.6128 74.6649 38.0047 75.369 37.6288C76.073 37.2529 76.8858 37.1325 77.6688 37.288C78.4517 37.4436 79.1565 37.8655 79.663 38.4819C80.1694 39.0983 80.4462 39.871 80.4462 40.6684C80.4468 41.1211 80.3578 41.5694 80.1844 41.9876C80.011 42.4059 79.7565 42.7858 79.4356 43.1054V43.1054Z" fill="#3F3D56"/>
<path d="M118.635 54.5379C130.286 67.4074 96.512 85.9542 69.2218 85.9542C41.9315 85.9542 23.0509 71.5837 19.8084 54.5379C11.9464 13.2076 86.7948 -13.0617 69.2218 23.1216C43.607 75.8629 109.46 44.4029 118.635 54.5379Z" fill="#E6E6E6"/>
<path d="M113.408 57.5837C125.058 70.4532 91.2845 89 63.9942 89C36.704 89 17.8234 74.6295 14.5809 57.5837C6.71885 16.2534 81.5673 -10.0159 63.9942 26.1674C38.3795 78.9087 104.232 47.4487 113.408 57.5837Z" fill="#3F3D56"/>
<path d="M30.2919 27.4105C22.1165 27.0509 15.7776 25.2895 15.8609 23.4004C15.9108 22.2678 18.2246 21.3571 22.2088 20.9018C22.223 20.9001 22.2375 20.9012 22.2513 20.9051C22.2651 20.9089 22.2781 20.9155 22.2893 20.9244C22.3006 20.9333 22.31 20.9443 22.317 20.9568C22.324 20.9694 22.3284 20.9832 22.3301 20.9974C22.3317 21.0117 22.3305 21.0261 22.3265 21.0399C22.3225 21.0537 22.3159 21.0665 22.3069 21.0777C22.2979 21.0889 22.2868 21.0983 22.2742 21.1052C22.2616 21.1121 22.2478 21.1164 22.2335 21.1179C18.4804 21.5469 16.1219 22.4251 16.0785 23.41C16.0032 25.1183 22.5165 26.8508 30.3014 27.1931C38.0864 27.5355 44.7269 26.3815 44.8022 24.6732C44.8458 23.6842 42.5591 22.5993 38.8343 21.8418C38.8203 21.839 38.8069 21.8335 38.795 21.8255C38.7831 21.8175 38.7729 21.8073 38.765 21.7953C38.7571 21.7834 38.7516 21.7701 38.7489 21.756C38.7461 21.742 38.7462 21.7275 38.749 21.7135C38.7519 21.6995 38.7575 21.6861 38.7655 21.6743C38.7735 21.6624 38.7838 21.6523 38.7958 21.6444C38.8078 21.6365 38.8212 21.631 38.8352 21.6283C38.8493 21.6257 38.8638 21.6258 38.8778 21.6286C42.8313 22.4326 45.0699 23.5458 45.0198 24.6828C44.9365 26.5719 38.4672 27.77 30.2919 27.4105Z" fill="#3498DB"/>
<path d="M23.0309 27.7269C23.7148 29.0246 24.7279 30.1201 25.9689 30.9039C27.2098 31.6877 28.6351 32.1322 30.1021 32.193C31.569 32.2538 33.0263 31.9288 34.328 31.2504C35.6297 30.5721 36.7302 29.5641 37.5194 28.3275C32.6826 28.3926 27.8457 28.1921 23.0309 27.7269V27.7269Z" fill="#3498DB"/>
<path d="M38.4239 26.0394C38.8355 24.8062 38.9541 23.4943 38.7703 22.2075C38.5865 20.9206 38.1054 19.6942 37.365 18.6252C36.6246 17.5562 35.6452 16.674 34.5045 16.0484C33.3637 15.4228 32.0928 15.071 30.7924 15.0209C29.4919 14.9707 28.1977 15.2236 27.012 15.7594C25.8263 16.2953 24.7818 17.0994 23.9611 18.1082C23.1403 19.117 22.5659 20.3027 22.2833 21.5716C22.0007 22.8404 22.0177 24.1575 22.3329 25.4187C27.6471 26.3198 33.0559 26.5284 38.4239 26.0394V26.0394Z" fill="#3498DB"/>
<path d="M32.3871 20.4242C32.9285 20.4242 33.3673 19.9859 33.3673 19.4452C33.3673 18.9045 32.9285 18.4662 32.3871 18.4662C31.8458 18.4662 31.407 18.9045 31.407 19.4452C31.407 19.9859 31.8458 20.4242 32.3871 20.4242Z" fill="white"/>
<path d="M27.3426 24.2304C28.2448 24.2304 28.9762 23.4999 28.9762 22.5988C28.9762 21.6976 28.2448 20.9671 27.3426 20.9671C26.4404 20.9671 25.709 21.6976 25.709 22.5988C25.709 23.4999 26.4404 24.2304 27.3426 24.2304Z" fill="white"/>
<path d="M51.9982 22.6321C52.5997 22.6321 53.0873 22.1451 53.0873 21.5443C53.0873 20.9436 52.5997 20.4566 51.9982 20.4566C51.3968 20.4566 50.9092 20.9436 50.9092 21.5443C50.9092 22.1451 51.3968 22.6321 51.9982 22.6321Z" fill="#3498DB"/>
<path d="M27.3853 55.9185C27.7462 55.9185 28.0387 55.6263 28.0387 55.2658C28.0387 54.9054 27.7462 54.6132 27.3853 54.6132C27.0244 54.6132 26.7318 54.9054 26.7318 55.2658C26.7318 55.6263 27.0244 55.9185 27.3853 55.9185Z" fill="#E6E6E6"/>
<path d="M73.1262 78.327C73.4871 78.327 73.7797 78.0348 73.7797 77.6743C73.7797 77.3139 73.4871 77.0217 73.1262 77.0217C72.7653 77.0217 72.4728 77.3139 72.4728 77.6743C72.4728 78.0348 72.7653 78.327 73.1262 78.327Z" fill="#E6E6E6"/>
<path d="M30.5435 43.3001C30.724 43.3001 30.8703 43.154 30.8703 42.9738C30.8703 42.7936 30.724 42.6475 30.5435 42.6475C30.3631 42.6475 30.2168 42.7936 30.2168 42.9738C30.2168 43.154 30.3631 43.3001 30.5435 43.3001Z" fill="#E6E6E6"/>
<path d="M57.5526 67.6667C57.733 67.6667 57.8793 67.5206 57.8793 67.3403C57.8793 67.1601 57.733 67.014 57.5526 67.014C57.3721 67.014 57.2258 67.1601 57.2258 67.3403C57.2258 67.5206 57.3721 67.6667 57.5526 67.6667Z" fill="#E6E6E6"/>
<path d="M106.67 64.5121C106.85 64.5121 106.996 64.366 106.996 64.1857C106.996 64.0055 106.85 63.8594 106.67 63.8594C106.489 63.8594 106.343 64.0055 106.343 64.1857C106.343 64.366 106.489 64.5121 106.67 64.5121Z" fill="#E6E6E6"/>
<path d="M91.3138 74.1934C91.4942 74.1934 91.6405 74.0473 91.6405 73.8671C91.6405 73.6868 91.4942 73.5407 91.3138 73.5407C91.1333 73.5407 90.9871 73.6868 90.9871 73.8671C90.9871 74.0473 91.1333 74.1934 91.3138 74.1934Z" fill="#E6E6E6"/>
<path d="M75.3044 62.4453C75.4848 62.4453 75.6311 62.2992 75.6311 62.1189C75.6311 61.9387 75.4848 61.7926 75.3044 61.7926C75.1239 61.7926 74.9777 61.9387 74.9777 62.1189C74.9777 62.2992 75.1239 62.4453 75.3044 62.4453Z" fill="#E6E6E6"/>
<path d="M54.612 30.2467C54.7925 30.2467 54.9387 30.1005 54.9387 29.9203C54.9387 29.7401 54.7925 29.594 54.612 29.594C54.4316 29.594 54.2853 29.7401 54.2853 29.9203C54.2853 30.1005 54.4316 30.2467 54.612 30.2467Z" fill="#E6E6E6"/>
<path d="M57.2258 14.1473C57.4062 14.1473 57.5525 14.0012 57.5525 13.821C57.5525 13.6408 57.4062 13.4947 57.2258 13.4947C57.0453 13.4947 56.899 13.6408 56.899 13.821C56.899 14.0012 57.0453 14.1473 57.2258 14.1473Z" fill="#E6E6E6"/>
<path d="M55.7011 81.9167C55.8816 81.9167 56.0279 81.7706 56.0279 81.5904C56.0279 81.4102 55.8816 81.2641 55.7011 81.2641C55.5207 81.2641 55.3744 81.4102 55.3744 81.5904C55.3744 81.7706 55.5207 81.9167 55.7011 81.9167Z" fill="#E6E6E6"/>
<path d="M39.5828 75.0637C39.7633 75.0637 39.9096 74.9176 39.9096 74.7373C39.9096 74.5571 39.7633 74.411 39.5828 74.411C39.4024 74.411 39.2561 74.5571 39.2561 74.7373C39.2561 74.9176 39.4024 75.0637 39.5828 75.0637Z" fill="#E6E6E6"/>
<path d="M90.6604 63.3155C90.8408 63.3155 90.9871 63.1694 90.9871 62.9892C90.9871 62.809 90.8408 62.6628 90.6604 62.6628C90.4799 62.6628 90.3336 62.809 90.3336 62.9892C90.3336 63.1694 90.4799 63.3155 90.6604 63.3155Z" fill="#E6E6E6"/>
<path d="M30.159 31.4324C30.7003 31.4324 31.1392 30.9941 31.1392 30.4534C31.1392 29.9127 30.7003 29.4744 30.159 29.4744C29.6177 29.4744 29.1788 29.9127 29.1788 30.4534C29.1788 30.9941 29.6177 31.4324 30.159 31.4324Z" fill="white"/>
<path d="M52.325 45.4757C52.325 48.3998 47.7989 55.2132 46.4761 57.1419C46.4362 57.2002 46.3827 57.2479 46.3202 57.2809C46.2576 57.3139 46.188 57.3311 46.1173 57.3311C46.0465 57.3311 45.9769 57.3139 45.9144 57.2809C45.8518 57.2479 45.7983 57.2002 45.7584 57.1419C44.4357 55.2132 39.9095 48.3998 39.9095 45.4757C39.9095 44.6615 40.0701 43.8552 40.3821 43.1029C40.694 42.3507 41.1513 41.6671 41.7277 41.0914C42.3042 40.5156 42.9885 40.0589 43.7417 39.7473C44.4948 39.4357 45.3021 39.2753 46.1173 39.2753C46.9325 39.2753 47.7397 39.4357 48.4929 39.7473C49.246 40.0589 49.9303 40.5156 50.5068 41.0914C51.0832 41.6671 51.5405 42.3507 51.8524 43.1029C52.1644 43.8552 52.325 44.6615 52.325 45.4757V45.4757Z" fill="white"/>
<path d="M46.1173 48.1952C47.8616 48.1952 49.2756 46.7829 49.2756 45.0406C49.2756 43.2984 47.8616 41.886 46.1173 41.886C44.373 41.886 42.959 43.2984 42.959 45.0406C42.959 46.7829 44.373 48.1952 46.1173 48.1952Z" fill="#3498DB"/>
<path d="M46.0628 60.7048C48.0778 60.7048 49.7112 60.3883 49.7112 59.9978C49.7112 59.6073 48.0778 59.2907 46.0628 59.2907C44.0479 59.2907 42.4144 59.6073 42.4144 59.9978C42.4144 60.3883 44.0479 60.7048 46.0628 60.7048Z" fill="white"/>
<path d="M102.961 40.583C102.934 40.6365 102.91 40.6921 102.891 40.7493L97.6875 42.1935L96.7497 41.2769L95.1797 42.5097L96.682 44.2936C96.8033 44.4377 96.9682 44.5386 97.1519 44.5811C97.3356 44.6237 97.5281 44.6055 97.7006 44.5295L103.322 42.051C103.513 42.1832 103.739 42.2543 103.971 42.2548C104.203 42.2553 104.43 42.1852 104.622 42.0538C104.813 41.9224 104.96 41.736 105.042 41.5193C105.125 41.3026 105.139 41.0659 105.084 40.8407C105.029 40.6155 104.906 40.4125 104.732 40.2586C104.559 40.1048 104.342 40.0074 104.112 39.9794C103.881 39.9514 103.648 39.9942 103.442 40.102C103.237 40.2098 103.069 40.3776 102.961 40.583H102.961Z" fill="#FFB8B8"/>
<path d="M97.5041 42.2782L95.5508 43.7967C95.4952 43.8399 95.431 43.8706 95.3625 43.8868C95.2939 43.903 95.2227 43.9042 95.1536 43.8904C95.0846 43.8766 95.0193 43.8481 94.9623 43.8068C94.9052 43.7655 94.8578 43.7125 94.8231 43.6512L93.6092 41.5053C93.3894 41.22 93.2919 40.8594 93.338 40.5024C93.384 40.1454 93.57 39.8212 93.855 39.601C94.14 39.3807 94.5009 39.2824 94.8584 39.3275C95.2159 39.3726 95.541 39.5575 95.7622 39.8416L97.5415 41.5379C97.5925 41.5865 97.6323 41.6454 97.6584 41.7108C97.6844 41.7761 97.6961 41.8463 97.6925 41.9166C97.689 41.9868 97.6703 42.0555 97.6378 42.1179C97.6053 42.1803 97.5597 42.235 97.5041 42.2782V42.2782Z" fill="#3498DB"/>
<path d="M103.46 39.8648L105.441 40.7549C105.524 40.7922 105.589 40.8608 105.621 40.9458C105.653 41.0307 105.65 41.125 105.613 41.2078L105.379 41.7285C105.406 41.741 105.428 41.7639 105.438 41.7922C105.449 41.8204 105.448 41.8518 105.436 41.8795L105.342 42.0877C105.33 42.1153 105.307 42.1368 105.278 42.1475C105.25 42.1582 105.219 42.1573 105.191 42.145L105.097 42.3533C105.125 42.3658 105.146 42.3887 105.157 42.4169C105.168 42.4452 105.167 42.4766 105.154 42.5042L105.061 42.7125C105.048 42.7401 105.025 42.7615 104.997 42.7723C104.969 42.783 104.937 42.7821 104.91 42.7698L103.643 45.5813C103.606 45.6642 103.537 45.7288 103.452 45.761C103.367 45.7933 103.273 45.7904 103.19 45.7532L101.209 44.863C101.126 44.8258 101.061 44.7571 101.029 44.6721C100.997 44.5872 100.999 44.4929 101.037 44.4101L103.007 40.0366C103.044 39.9537 103.113 39.8891 103.198 39.8569C103.283 39.8246 103.377 39.8275 103.46 39.8648V39.8648Z" fill="#3F3D56"/>
<path d="M101.569 44.586L103.158 45.3008C103.237 45.3363 103.328 45.339 103.409 45.3082C103.491 45.2774 103.557 45.2156 103.593 45.1364L104.327 43.5058L104.582 42.9406L105.246 41.4653C105.282 41.386 105.284 41.2958 105.254 41.2145C105.223 41.1332 105.161 41.0674 105.082 41.0314L104.582 40.8065L103.491 40.3167C103.412 40.2811 103.321 40.2786 103.24 40.3097C103.159 40.3407 103.093 40.4028 103.057 40.4822L102.415 41.9084L101.683 43.5321L101.404 44.1521C101.368 44.2315 101.366 44.3217 101.397 44.403C101.427 44.4843 101.489 44.5501 101.569 44.586V44.586Z" fill="#F2F2F2"/>
<path d="M98.2481 64.7889L99.5833 64.7888L100.219 59.6448L98.2479 59.6449L98.2481 64.7889Z" fill="#FFB8B8"/>
<path d="M97.9076 64.3535L100.537 64.3534H100.537C100.757 64.3534 100.975 64.3967 101.178 64.4808C101.382 64.5649 101.566 64.6882 101.722 64.8436C101.878 64.999 102.001 65.1835 102.085 65.3866C102.169 65.5897 102.213 65.8073 102.213 66.0271V66.0815L97.9077 66.0816L97.9076 64.3535Z" fill="#2F2E41"/>
<path d="M101.733 64.4626L103.068 64.4625L103.704 59.3185L101.733 59.3186L101.733 64.4626Z" fill="#FFB8B8"/>
<path d="M101.393 64.0272L104.022 64.0271H104.022C104.242 64.0271 104.46 64.0703 104.664 64.1545C104.867 64.2386 105.052 64.3619 105.207 64.5173C105.363 64.6727 105.486 64.8572 105.57 65.0603C105.655 65.2633 105.698 65.481 105.698 65.7008V65.7552L101.393 65.7553L101.393 64.0272Z" fill="#2F2E41"/>
<path d="M92.2591 52.7183C92.5436 53.5605 93.0832 54.2936 93.8032 54.8161C94.5231 55.3386 95.3879 55.6246 96.2778 55.6346L96.3453 55.6357C97.0347 55.6553 97.8439 55.4334 98.6378 55.1147C100.206 54.4848 101.712 53.4765 102.112 53.1991L101.435 59.703L101.16 62.3398C101.153 62.408 101.161 62.4769 101.182 62.5421C101.203 62.6072 101.238 62.6672 101.284 62.7181C101.33 62.7691 101.386 62.8098 101.449 62.8378C101.512 62.8657 101.579 62.8802 101.648 62.8804H103.339C103.448 62.8805 103.553 62.8446 103.639 62.7785C103.725 62.7124 103.787 62.6197 103.814 62.5149L106.607 51.8926C106.69 51.5747 106.697 51.2414 106.626 50.9203C106.555 50.5993 106.409 50.2997 106.199 50.0464C105.989 49.793 105.722 49.5932 105.42 49.4635C105.117 49.3338 104.788 49.2779 104.46 49.3004L98.6596 49.6975L99.0647 48.0788L93.8873 47.7351L93.8721 47.746C93.7479 47.8363 93.627 47.9309 93.5116 48.0299C93.2229 48.2737 92.967 48.5538 92.7503 48.8631C92.3625 49.4182 92.1153 50.0589 92.0297 50.7303C91.9442 51.4018 92.0229 52.0839 92.2591 52.7183Z" fill="#2F2E41"/>
<path d="M92.2591 52.7183C92.5436 53.5605 93.0832 54.2937 93.8032 54.8162C94.5231 55.3386 95.3879 55.6247 96.2778 55.6347C97.1288 55.2045 97.95 54.7179 98.7358 54.1781L98.6378 55.1147L97.784 63.3188C97.7771 63.387 97.7845 63.4559 97.8059 63.5211C97.8272 63.5863 97.862 63.6463 97.908 63.6972C97.9539 63.7481 98.0101 63.7889 98.0727 63.8168C98.1354 63.8448 98.2033 63.8593 98.2719 63.8595H99.9632C100.072 63.8595 100.177 63.8237 100.263 63.7575C100.349 63.6914 100.41 63.5987 100.438 63.494L101.435 59.703L103.23 52.8717C103.314 52.5537 103.321 52.2204 103.25 51.8994C103.179 51.5783 103.033 51.2787 102.823 51.0254C102.613 50.772 102.346 50.5723 102.044 50.4425C101.741 50.3128 101.412 50.2569 101.084 50.2795L95.2835 50.6765L95.6886 49.0579L92.7503 48.8632C92.3625 49.4182 92.1153 50.0589 92.0297 50.7304C91.9442 51.4018 92.0229 52.0839 92.2591 52.7183V52.7183Z" fill="#2F2E41"/>
<path d="M93.5042 48.4051L93.4652 48.4004L92.5618 43.9639C92.5541 43.9254 91.8156 40.0986 94.0796 38.098L94.119 37.8242C94.1291 37.7542 94.1543 37.6871 94.1929 37.6277C94.2314 37.5683 94.2824 37.5179 94.3423 37.4801C94.4022 37.4423 94.4696 37.4179 94.5399 37.4086C94.6102 37.3993 94.6816 37.4054 94.7493 37.4263L96.8822 38.0871C97.003 38.1243 97.1046 38.2067 97.1659 38.317C97.2272 38.4274 97.2434 38.5571 97.211 38.6791L97.0037 39.4669C97.2912 39.8041 100.675 43.8737 99.4966 47.0091L98.9686 49.0707L93.5042 48.4051Z" fill="#3498DB"/>
<path d="M102.361 44.9426C102.31 44.9746 102.261 45.0106 102.216 45.0503L96.9994 43.6516L96.6584 42.3861L94.679 42.6505L95.0647 44.9495C95.0959 45.1352 95.1865 45.3058 95.323 45.4357C95.4595 45.5656 95.6345 45.6478 95.8218 45.6699L101.924 46.3899C102.021 46.6006 102.18 46.7768 102.38 46.8951C102.579 47.0135 102.81 47.0683 103.042 47.0522C103.273 47.0362 103.495 46.9502 103.676 46.8055C103.857 46.6609 103.991 46.4645 104.057 46.2424C104.124 46.0204 104.122 45.7833 104.051 45.5626C103.98 45.3419 103.843 45.1481 103.659 45.007C103.474 44.8659 103.251 44.7842 103.02 44.7726C102.788 44.7611 102.558 44.8204 102.361 44.9426H102.361Z" fill="#FFB8B8"/>
<path d="M96.7985 43.6315L94.3436 43.9473C94.2737 43.9563 94.2028 43.9501 94.1355 43.9292C94.0683 43.9084 94.0063 43.8733 93.9539 43.8263C93.9014 43.7794 93.8597 43.7217 93.8316 43.6572C93.8035 43.5927 93.7896 43.5229 93.791 43.4525L93.8378 40.9882C93.7938 40.631 93.8934 40.2709 94.1147 39.9869C94.3361 39.7029 94.6612 39.5182 95.0187 39.4733C95.3763 39.4284 95.737 39.5269 96.0219 39.7472C96.3068 39.9676 96.4926 40.2918 96.5386 40.6487L97.2075 43.013C97.2266 43.0807 97.2309 43.1517 97.2201 43.2212C97.2093 43.2907 97.1836 43.3571 97.1448 43.4158C97.106 43.4745 97.0549 43.5241 96.9952 43.5613C96.9354 43.5985 96.8683 43.6225 96.7985 43.6315V43.6315Z" fill="#3498DB"/>
<path d="M96.1074 36.8242C97.5847 36.8242 98.7823 35.628 98.7823 34.1525C98.7823 32.6769 97.5847 31.4807 96.1074 31.4807C94.6301 31.4807 93.4325 32.6769 93.4325 34.1525C93.4325 35.628 94.6301 36.8242 96.1074 36.8242Z" fill="#FFB8B8"/>
<path d="M95.9667 34.3756L95.6318 33.7664C94.9975 36.348 96.1179 38.4845 96.1179 38.4845L91.769 36.4611L91.8104 35.7432L91.3801 36.231L90.7618 35.8906L90.6801 35.425L90.2134 35.5404L91.9171 32.4525C93.5705 29.514 95.9744 30.6359 95.9744 30.6359C99.7988 30.4543 99.3317 34.2229 99.3317 34.2229L95.9667 34.3756Z" fill="#2F2E41"/>
<path d="M65.5175 54.2856C66.1343 53.8907 65.3843 51.6231 63.8424 49.2207C62.3005 46.8183 60.5505 45.1909 59.9338 45.5858C59.3171 45.9807 60.0671 48.2483 61.609 50.6507C63.1509 53.0531 64.9008 54.6805 65.5175 54.2856Z" fill="#3F3D56"/>
</g>
<g filter="url(#filter1_dddddd_41:825)">
<rect width="134" height="134" rx="24" fill="#A1D5F9"/>
</g>
<path d="M19.8252 104V94.7578H23.0625C24.1839 94.7578 25.0345 94.9736 25.6143 95.4053C26.194 95.8327 26.4839 96.4611 26.4839 97.2905C26.4839 97.7433 26.3675 98.1432 26.1348 98.4902C25.902 98.833 25.5783 99.0848 25.1636 99.2456C25.6375 99.3641 26.0099 99.6032 26.2808 99.9629C26.5558 100.323 26.6934 100.763 26.6934 101.283C26.6934 102.172 26.4098 102.845 25.8428 103.302C25.2757 103.759 24.4674 103.992 23.418 104H19.8252ZM21.7295 99.9756V102.47H23.3608C23.8094 102.47 24.1585 102.364 24.4082 102.153C24.6621 101.937 24.7891 101.641 24.7891 101.264C24.7891 100.418 24.3511 99.9883 23.4751 99.9756H21.7295ZM21.7295 98.6299H23.1387C24.0993 98.613 24.5796 98.23 24.5796 97.481C24.5796 97.062 24.4569 96.7616 24.2114 96.5796C23.9702 96.3934 23.5872 96.3003 23.0625 96.3003H21.7295V98.6299ZM33.3457 102.096H30.0068L29.3721 104H27.3472L30.7876 94.7578H32.5522L36.0117 104H33.9868L33.3457 102.096ZM30.521 100.553H32.8315L31.6699 97.0938L30.521 100.553ZM44.397 104H42.4927V100.039H38.7793V104H36.875V94.7578H38.7793V98.5029H42.4927V94.7578H44.397V104ZM51.3984 102.096H48.0596L47.4248 104H45.3999L48.8403 94.7578H50.605L54.0645 104H52.0396L51.3984 102.096ZM48.5737 100.553H50.8843L49.7227 97.0938L48.5737 100.553ZM59.7202 101.575C59.7202 101.215 59.5933 100.94 59.3394 100.75C59.0854 100.555 58.6284 100.352 57.9683 100.141C57.3081 99.9248 56.7855 99.7132 56.4004 99.5059C55.3509 98.9388 54.8262 98.175 54.8262 97.2144C54.8262 96.715 54.9658 96.2707 55.2451 95.8813C55.5286 95.4878 55.9328 95.181 56.4575 94.9609C56.9865 94.7409 57.5789 94.6309 58.2349 94.6309C58.895 94.6309 59.4832 94.7515 59.9995 94.9927C60.5158 95.2297 60.9157 95.5661 61.1992 96.002C61.487 96.4378 61.6309 96.9329 61.6309 97.4873H59.7266C59.7266 97.0641 59.5933 96.7362 59.3267 96.5034C59.0601 96.2664 58.6855 96.1479 58.2031 96.1479C57.7376 96.1479 57.3758 96.2474 57.1177 96.4463C56.8595 96.641 56.7305 96.8991 56.7305 97.2207C56.7305 97.5212 56.8807 97.7729 57.1812 97.9761C57.4858 98.1792 57.9323 98.3696 58.5205 98.5474C59.6038 98.8732 60.3931 99.2773 60.8882 99.7598C61.3833 100.242 61.6309 100.843 61.6309 101.562C61.6309 102.362 61.3283 102.991 60.7231 103.448C60.118 103.901 59.3034 104.127 58.2793 104.127C57.5684 104.127 56.9209 103.998 56.3369 103.74C55.7529 103.477 55.3065 103.12 54.9976 102.667C54.6929 102.214 54.5405 101.689 54.5405 101.093H56.4512C56.4512 102.113 57.0605 102.623 58.2793 102.623C58.7321 102.623 59.0854 102.532 59.3394 102.35C59.5933 102.163 59.7202 101.905 59.7202 101.575ZM68.1436 102.096H64.8047L64.1699 104H62.145L65.5854 94.7578H67.3501L70.8096 104H68.7847L68.1436 102.096ZM65.3188 100.553H67.6294L66.4678 97.0938L65.3188 100.553Z" fill="#FFFDFD"/>
<path d="M25.499 127H18.6768V125.646L21.8965 122.215C22.3385 121.732 22.6644 121.31 22.874 120.95C23.0882 120.59 23.1953 120.248 23.1953 119.925C23.1953 119.483 23.0837 119.136 22.8604 118.886C22.637 118.631 22.318 118.503 21.9033 118.503C21.4567 118.503 21.1035 118.658 20.8438 118.968C20.5885 119.273 20.4609 119.676 20.4609 120.178H18.4785C18.4785 119.572 18.6221 119.018 18.9092 118.517C19.2008 118.015 19.611 117.623 20.1396 117.341C20.6683 117.054 21.2676 116.91 21.9375 116.91C22.9629 116.91 23.7581 117.156 24.3232 117.648C24.8929 118.141 25.1777 118.836 25.1777 119.733C25.1777 120.226 25.0501 120.727 24.7949 121.237C24.5397 121.748 24.1022 122.342 23.4824 123.021L21.2197 125.407H25.499V127ZM33.0938 117.047L35.6504 124.266L38.1934 117.047H40.8867V127H38.8291V124.279L39.0342 119.583L36.3477 127H34.9395L32.2598 119.59L32.4648 124.279V127H30.4141V117.047H33.0938ZM46.834 127C46.7428 126.822 46.6768 126.601 46.6357 126.337C46.1572 126.87 45.5352 127.137 44.7695 127.137C44.0449 127.137 43.4434 126.927 42.9648 126.508C42.4909 126.089 42.2539 125.56 42.2539 124.922C42.2539 124.138 42.5433 123.536 43.1221 123.117C43.7054 122.698 44.5462 122.486 45.6445 122.481H46.5537V122.058C46.5537 121.716 46.4648 121.442 46.2871 121.237C46.1139 121.032 45.8382 120.93 45.46 120.93C45.1273 120.93 44.8652 121.009 44.6738 121.169C44.487 121.328 44.3936 121.547 44.3936 121.825H42.418C42.418 121.397 42.5501 121 42.8145 120.636C43.0788 120.271 43.4525 119.986 43.9355 119.781C44.4186 119.572 44.9609 119.467 45.5625 119.467C46.474 119.467 47.1963 119.697 47.7295 120.157C48.2673 120.613 48.5361 121.256 48.5361 122.085V125.291C48.5407 125.993 48.6387 126.524 48.8301 126.884V127H46.834ZM45.2002 125.626C45.4919 125.626 45.7607 125.562 46.0068 125.435C46.2529 125.302 46.4352 125.127 46.5537 124.908V123.637H45.8154C44.8265 123.637 44.3001 123.979 44.2363 124.662L44.2295 124.778C44.2295 125.024 44.3161 125.227 44.4893 125.387C44.6624 125.546 44.8994 125.626 45.2002 125.626ZM56.7119 123.37C56.7119 124.509 56.4521 125.423 55.9326 126.111C55.4176 126.795 54.7204 127.137 53.8408 127.137C53.0934 127.137 52.4896 126.877 52.0293 126.357V129.844H50.0537V119.604H51.8857L51.9541 120.328C52.4326 119.754 53.057 119.467 53.8271 119.467C54.7386 119.467 55.4473 119.804 55.9531 120.479C56.459 121.153 56.7119 122.083 56.7119 123.268V123.37ZM54.7363 123.227C54.7363 122.538 54.6133 122.007 54.3672 121.634C54.1257 121.26 53.7725 121.073 53.3076 121.073C52.6878 121.073 52.2617 121.31 52.0293 121.784V124.812C52.2708 125.3 52.7015 125.544 53.3213 125.544C54.2646 125.544 54.7363 124.771 54.7363 123.227ZM61.3467 127.137C60.262 127.137 59.3779 126.804 58.6943 126.139C58.0153 125.473 57.6758 124.587 57.6758 123.479V123.288C57.6758 122.545 57.8193 121.882 58.1064 121.299C58.3936 120.711 58.7992 120.26 59.3232 119.945C59.8519 119.626 60.4535 119.467 61.1279 119.467C62.1396 119.467 62.9349 119.786 63.5137 120.424C64.097 121.062 64.3887 121.966 64.3887 123.138V123.944H59.6787C59.7425 124.427 59.9339 124.815 60.2529 125.106C60.5765 125.398 60.9844 125.544 61.4766 125.544C62.2376 125.544 62.8324 125.268 63.2607 124.717L64.2314 125.804C63.9352 126.223 63.5342 126.551 63.0283 126.788C62.5225 127.021 61.9619 127.137 61.3467 127.137ZM61.1211 121.066C60.7292 121.066 60.4102 121.199 60.1641 121.463C59.9225 121.727 59.7676 122.105 59.6992 122.598H62.4473V122.44C62.4382 122.003 62.3197 121.666 62.0918 121.429C61.8639 121.187 61.5404 121.066 61.1211 121.066ZM67.6016 127H65.6191V116.5H67.6016V127Z" fill="white"/>
<g clip-path="url(#clip1_41:825)">
<path d="M96.5198 76.4885C96.2893 76.4882 96.0675 76.4006 95.8994 76.2435C95.7313 76.0863 95.6294 75.8714 95.6143 75.6423L95.4795 73.5907C95.4637 73.351 95.5442 73.115 95.7031 72.9345C95.862 72.7539 96.0864 72.6437 96.3269 72.628L112.459 71.5753C112.713 71.5585 112.969 71.5919 113.21 71.6734C113.452 71.7549 113.675 71.883 113.866 72.0505C114.058 72.2179 114.215 72.4214 114.328 72.6492C114.44 72.877 114.507 73.1247 114.524 73.3782C114.54 73.6317 114.507 73.886 114.425 74.1265C114.343 74.3671 114.214 74.5891 114.046 74.7801C113.878 74.971 113.673 75.127 113.444 75.2392C113.216 75.3514 112.967 75.4176 112.713 75.434L96.5805 76.4866C96.5602 76.4878 96.54 76.4885 96.5198 76.4885Z" fill="#3498DB"/>
<path d="M99.7007 76.753C99.4657 76.7526 99.24 76.6617 99.0708 76.4992C98.9016 76.3367 98.802 76.1153 98.793 75.8813L98.678 72.8171C98.6735 72.6983 98.6926 72.5797 98.7341 72.4682C98.7757 72.3568 98.8388 72.2545 98.92 72.1674C99.0012 72.0802 99.0988 72.0099 99.2073 71.9603C99.3157 71.9107 99.433 71.8829 99.5522 71.8785L112.818 71.3845C113.059 71.3756 113.293 71.4623 113.47 71.6256C113.647 71.789 113.751 72.0156 113.76 72.2555L113.875 75.3198C113.88 75.4386 113.86 75.5572 113.819 75.6686C113.777 75.7801 113.714 75.8823 113.633 75.9695C113.552 76.0566 113.454 76.127 113.346 76.1766C113.237 76.2261 113.12 76.2539 113.001 76.2584L99.735 76.7524C99.7236 76.7528 99.7121 76.753 99.7007 76.753Z" fill="#2F2E41"/>
<path d="M115.246 105H113.183C112.942 105 112.711 104.904 112.54 104.734C112.37 104.565 112.274 104.335 112.274 104.095V86.9589C112.274 86.7189 112.37 86.4887 112.54 86.319C112.711 86.1492 112.942 86.0538 113.183 86.0535H115.246C115.487 86.0538 115.718 86.1492 115.888 86.319C116.059 86.4887 116.155 86.7189 116.155 86.9589V104.095C116.155 104.335 116.059 104.565 115.888 104.734C115.718 104.904 115.487 105 115.246 105Z" fill="#2F2E41"/>
<path d="M110.317 105H108.253C108.012 105 107.781 104.904 107.611 104.734C107.441 104.565 107.345 104.335 107.345 104.095V86.9589C107.345 86.7189 107.441 86.4887 107.611 86.319C107.781 86.1492 108.012 86.0538 108.253 86.0535H110.317C110.558 86.0538 110.789 86.1492 110.959 86.319C111.13 86.4887 111.225 86.7189 111.226 86.9589V104.095C111.225 104.335 111.13 104.565 110.959 104.734C110.789 104.904 110.558 105 110.317 105Z" fill="#2F2E41"/>
<path d="M112.112 68.1706C116.05 68.1706 119.242 64.99 119.242 61.0664C119.242 57.1429 116.05 53.9622 112.112 53.9622C108.174 53.9622 104.982 57.1429 104.982 61.0664C104.982 64.99 108.174 68.1706 112.112 68.1706Z" fill="#3498DB"/>
<path d="M108.253 63.4921C108.023 63.417 107.813 63.2938 107.635 63.1309C107.517 63.0146 107.427 62.874 107.369 62.7191C107.312 62.5641 107.289 62.3986 107.303 62.234C107.31 62.1167 107.345 62.0027 107.404 61.9009C107.463 61.7992 107.544 61.7124 107.643 61.6474C107.898 61.4844 108.239 61.4839 108.586 61.6364L108.573 58.863L108.852 58.8617L108.868 62.1221L108.652 61.987C108.403 61.8307 108.046 61.7207 107.794 61.8819C107.731 61.9244 107.68 61.9808 107.643 62.0465C107.606 62.1121 107.585 62.1854 107.581 62.2606C107.572 62.3832 107.589 62.5064 107.631 62.6218C107.674 62.7372 107.741 62.8421 107.828 62.9294C108.137 63.2232 108.587 63.3151 109.101 63.3972L109.057 63.6723C108.784 63.6363 108.515 63.5759 108.253 63.4921Z" fill="#2F2E41"/>
<path d="M105.691 58.7232L105.654 58.9994L107.147 59.1959L107.184 58.9197L105.691 58.7232Z" fill="#2F2E41"/>
<path d="M110.403 59.3428L110.366 59.619L111.859 59.8154L111.896 59.5392L110.403 59.3428Z" fill="#2F2E41"/>
<path d="M116.762 91.5565H106.042C105.777 91.5561 105.519 91.4674 105.31 91.3043C105.101 91.1413 104.953 90.9133 104.889 90.6566C104.857 90.5158 104.851 90.3703 104.873 90.2275C104.873 90.2275 106.967 78.5125 108.003 72.8861C108.154 72.066 108.588 71.3246 109.231 70.791C109.874 70.2573 110.685 69.9651 111.522 69.9653H111.522C113.572 69.9653 115.539 70.777 116.989 72.2219C118.44 73.6667 119.254 75.6264 119.254 77.6698V89.0729C119.254 89.399 119.19 89.722 119.064 90.0233C118.939 90.3246 118.756 90.5984 118.524 90.829C118.293 91.0597 118.018 91.2426 117.715 91.3674C117.413 91.4922 117.089 91.5565 116.762 91.5565Z" fill="#2F2E41"/>
<path d="M114.695 90.0085C114.616 90.1649 114.494 90.2954 114.343 90.3842C114.192 90.4731 114.018 90.5165 113.843 90.5094L111.781 90.4228C111.662 90.4178 111.545 90.3895 111.437 90.3394C111.328 90.2893 111.231 90.2185 111.15 90.1309C111.07 90.0434 111.007 89.9408 110.966 89.8292C110.925 89.7175 110.907 89.5989 110.912 89.4801L111.592 73.3867C111.603 73.133 111.663 72.884 111.771 72.6537C111.878 72.4234 112.03 72.2165 112.218 72.0446C112.405 71.8728 112.625 71.7395 112.864 71.6523C113.104 71.5651 113.358 71.5257 113.612 71.5364C113.867 71.5471 114.117 71.6076 114.348 71.7146C114.579 71.8215 114.787 71.9728 114.959 72.1597C115.132 72.3466 115.266 72.5656 115.353 72.804C115.441 73.0425 115.48 73.2958 115.469 73.5494L114.789 89.6428C114.784 89.77 114.752 89.8946 114.695 90.0085Z" fill="#3498DB"/>
<path d="M115.75 85.7414C115.671 85.8977 115.549 86.0282 115.398 86.1171C115.247 86.2059 115.074 86.2494 114.898 86.2422L111.377 86.0944C111.136 86.084 110.909 85.9789 110.746 85.8022C110.583 85.6254 110.497 85.3915 110.507 85.1516L111.066 71.9367C111.071 71.8179 111.099 71.7012 111.15 71.5934C111.2 71.4855 111.271 71.3886 111.359 71.3081C111.447 71.2277 111.55 71.1652 111.662 71.1244C111.774 71.0836 111.893 71.0651 112.012 71.0701L115.533 71.2179C115.653 71.2229 115.77 71.2513 115.878 71.3014C115.986 71.3514 116.084 71.4223 116.164 71.5098C116.245 71.5974 116.308 71.6999 116.349 71.8116C116.39 71.9232 116.408 72.0419 116.403 72.1607L115.844 85.3757C115.839 85.5028 115.807 85.6275 115.75 85.7414Z" fill="#2F2E41"/>
<path d="M111.716 56.4519C110.178 57.0562 107.854 57.6986 106.84 55.9045C106.642 55.5378 106.525 55.1333 106.496 54.718C106.467 54.3026 106.528 53.8859 106.673 53.4956C106.979 52.6492 107.631 51.9519 108.373 51.4591C109.764 50.5361 111.523 50.2848 113.143 50.6416C113.957 50.8182 114.73 51.1491 115.419 51.6162C116.203 52.1513 116.754 52.8736 117.309 53.6296C117.875 54.4024 118.517 55.1819 119.449 55.5205C120.21 55.7973 121.165 55.656 121.704 55.0118C121.83 54.8614 121.926 54.6889 121.989 54.5032C122.07 54.2665 121.694 54.1649 121.613 54.4001C121.33 55.2292 120.288 55.4149 119.552 55.1466C118.581 54.7923 117.967 53.872 117.384 53.0774C116.827 52.3178 116.212 51.6491 115.407 51.1452C114.684 50.6956 113.883 50.3841 113.046 50.2266C111.36 49.907 109.544 50.1903 108.115 51.1662C107.327 51.68 106.71 52.4147 106.342 53.2776C106.014 54.0941 106.023 55.0061 106.365 55.8165C106.537 56.2203 106.805 56.5763 107.146 56.8534C107.487 57.1305 107.892 57.3204 108.323 57.4066C109.265 57.5968 110.244 57.378 111.139 57.0763C111.368 56.999 111.594 56.9142 111.819 56.8258C112.05 56.7353 111.949 56.3602 111.716 56.4519V56.4519Z" fill="#2F2E41"/>
<path d="M18.2426 11H67.0577C68.7128 11.0019 70.2995 11.6578 71.4698 12.8238C72.6402 13.9899 73.2985 15.5708 73.3003 17.2199V43.8281C73.2985 45.4772 72.6402 47.0582 71.4698 48.2242C70.2995 49.3903 68.7128 50.0462 67.0577 50.048H18.2426C16.5876 50.0462 15.0008 49.3903 13.8305 48.2242C12.6602 47.0582 12.0019 45.4772 12 43.8281V17.2199C12.0019 15.5708 12.6602 13.9899 13.8305 12.8238C15.0008 11.6578 16.5876 11.0019 18.2426 11Z" fill="#F2F2F2"/>
<path d="M18.2426 12.7906H67.0577C68.2363 12.7919 69.3663 13.259 70.1997 14.0893C71.0331 14.9197 71.5019 16.0456 71.5032 17.2199V43.8281C71.5019 45.0025 71.0331 46.1283 70.1997 46.9587C69.3663 47.789 68.2363 48.2561 67.0577 48.2574H18.2426C17.064 48.2561 15.934 47.789 15.1006 46.9587C14.2672 46.1283 13.7984 45.0024 13.7971 43.8281V17.2199C13.7984 16.0456 14.2672 14.9197 15.1006 14.0893C15.934 13.259 17.064 12.7919 18.2426 12.7906Z" fill="white"/>
<path d="M18.7189 59.5747C18.5716 59.5743 18.4258 59.5449 18.2899 59.4882C18.0871 59.407 17.9136 59.2667 17.7922 59.0856C17.6707 58.9045 17.607 58.6911 17.6093 58.4733V49.275L29.9172 48.8624L19.4915 59.2501C19.3907 59.3525 19.2705 59.4339 19.1379 59.4896C19.0053 59.5453 18.8628 59.5742 18.7189 59.5747Z" fill="#F2F2F2"/>
<path d="M60.9439 19.409H24.2374C22.7678 19.409 21.5764 20.596 21.5764 22.0603V22.0603C21.5764 23.5245 22.7678 24.7116 24.2374 24.7116H60.9439C62.4135 24.7116 63.6048 23.5245 63.6048 22.0603C63.6048 20.596 62.4135 19.409 60.9439 19.409Z" fill="#F2F2F2"/>
<path d="M61.0034 27.8727H24.297C22.8274 27.8727 21.636 29.0598 21.636 30.524V30.524C21.636 31.9883 22.8274 33.1753 24.297 33.1753H61.0034C62.4731 33.1753 63.6644 31.9883 63.6644 30.524C63.6644 29.0598 62.4731 27.8727 61.0034 27.8727Z" fill="#F2F2F2"/>
<path d="M61.0629 36.3365H24.3564C22.8868 36.3365 21.6954 37.5235 21.6954 38.9877V38.9877C21.6954 40.452 22.8868 41.639 24.3564 41.639H61.0629C62.5325 41.639 63.7239 40.452 63.7239 38.9877C63.7239 37.5235 62.5325 36.3365 61.0629 36.3365Z" fill="#F2F2F2"/>
<path d="M95.3253 24.5706H46.5102C44.8551 24.5725 43.2684 25.2284 42.0981 26.3945C40.9277 27.5605 40.2694 29.1415 40.2676 30.7905V57.3988C40.2694 59.0479 40.9277 60.6288 42.0981 61.7949C43.2684 62.9609 44.8551 63.6168 46.5102 63.6187H95.3253C96.9803 63.6168 98.5671 62.9609 99.7374 61.7949C100.908 60.6288 101.566 59.0479 101.568 57.3988V30.7905C101.566 29.1415 100.908 27.5605 99.7374 26.3945C98.5671 25.2284 96.9804 24.5725 95.3253 24.5706Z" fill="#E6E6E6"/>
<path d="M95.3254 26.3612H46.5102C45.3316 26.3626 44.2016 26.8296 43.3682 27.66C42.5348 28.4904 42.066 29.6162 42.0647 30.7906V57.3988C42.066 58.5731 42.5348 59.699 43.3682 60.5294C44.2016 61.3597 45.3316 61.8268 46.5102 61.8281H95.3254C96.504 61.8268 97.6339 61.3597 98.4673 60.5293C99.3007 59.699 99.7695 58.5731 99.7708 57.3988V30.7906C99.7695 29.6162 99.3007 28.4904 98.4673 27.66C97.6339 26.8297 96.504 26.3626 95.3254 26.3612Z" fill="white"/>
<path d="M91.6117 72.8207L81.186 62.433L93.494 62.8456V72.0439C93.4963 72.2617 93.4325 72.4751 93.3111 72.6562C93.1896 72.8373 93.0162 72.9776 92.8133 73.0588C92.6774 73.1155 92.5317 73.1449 92.3844 73.1453C92.2404 73.1448 92.098 73.1159 91.9654 73.0602C91.8328 73.0045 91.7125 72.9231 91.6117 72.8207Z" fill="#E6E6E6"/>
<path d="M60.1512 47.455C62.0139 47.455 63.5239 45.9505 63.5239 44.0946C63.5239 42.2388 62.0139 40.7343 60.1512 40.7343C58.2886 40.7343 56.7786 42.2388 56.7786 44.0946C56.7786 45.9505 58.2886 47.455 60.1512 47.455Z" fill="#3498DB"/>
<path d="M70.9178 47.455C72.7805 47.455 74.2905 45.9505 74.2905 44.0946C74.2905 42.2388 72.7805 40.7343 70.9178 40.7343C69.0552 40.7343 67.5452 42.2388 67.5452 44.0946C67.5452 45.9505 69.0552 47.455 70.9178 47.455Z" fill="#3498DB"/>
<path d="M81.6843 47.455C83.547 47.455 85.0569 45.9505 85.0569 44.0946C85.0569 42.2388 83.547 40.7343 81.6843 40.7343C79.8216 40.7343 78.3116 42.2388 78.3116 44.0946C78.3116 45.9505 79.8216 47.455 81.6843 47.455Z" fill="#3498DB"/>
</g>
<defs>
<filter id="filter0_dddddd_41:825" x="-80" y="0" width="294" height="314" filterUnits="userSpaceOnUse" color-interpolation-filters="sRGB">
<feFlood flood-opacity="0" result="BackgroundImageFix"/>
<feColorMatrix in="SourceAlpha" type="matrix" values="0 0 0 0 0 0 0 0 0 0 0 0 0 0 0 0 0 0 127 0" result="hardAlpha"/>
<feOffset dy="2.76726"/>
<feGaussianBlur stdDeviation="1.1069"/>
<feColorMatrix type="matrix" values="0 0 0 0 0.203922 0 0 0 0 0.596078 0 0 0 0 0.858824 0 0 0 0.0253031 0"/>
<feBlend mode="normal" in2="BackgroundImageFix" result="effect1_dropShadow_41:825"/>
<feColorMatrix in="SourceAlpha" type="matrix" values="0 0 0 0 0 0 0 0 0 0 0 0 0 0 0 0 0 0 127 0" result="hardAlpha"/>
<feOffset dy="6.6501"/>
<feGaussianBlur stdDeviation="2.66004"/>
<feColorMatrix type="matrix" values="0 0 0 0 0.203922 0 0 0 0 0.596078 0 0 0 0 0.858824 0 0 0 0.0363503 0"/>
<feBlend mode="normal" in2="effect1_dropShadow_41:825" result="effect2_dropShadow_41:825"/>
<feColorMatrix in="SourceAlpha" type="matrix" values="0 0 0 0 0 0 0 0 0 0 0 0 0 0 0 0 0 0 127 0" result="hardAlpha"/>
<feOffset dy="12.5216"/>
<feGaussianBlur stdDeviation="5.00862"/>
<feColorMatrix type="matrix" values="0 0 0 0 0.203922 0 0 0 0 0.596078 0 0 0 0 0.858824 0 0 0 0.045 0"/>
<feBlend mode="normal" in2="effect2_dropShadow_41:825" result="effect3_dropShadow_41:825"/>
<feColorMatrix in="SourceAlpha" type="matrix" values="0 0 0 0 0 0 0 0 0 0 0 0 0 0 0 0 0 0 127 0" result="hardAlpha"/>
<feOffset dy="22.3363"/>
<feGaussianBlur stdDeviation="8.93452"/>
<feColorMatrix type="matrix" values="0 0 0 0 0.203922 0 0 0 0 0.596078 0 0 0 0 0.858824 0 0 0 0.0536497 0"/>
<feBlend mode="normal" in2="effect3_dropShadow_41:825" result="effect4_dropShadow_41:825"/>
<feColorMatrix in="SourceAlpha" type="matrix" values="0 0 0 0 0 0 0 0 0 0 0 0 0 0 0 0 0 0 127 0" result="hardAlpha"/>
<feOffset dy="41.7776"/>
<feGaussianBlur stdDeviation="16.711"/>
<feColorMatrix type="matrix" values="0 0 0 0 0.203922 0 0 0 0 0.596078 0 0 0 0 0.858824 0 0 0 0.0646969 0"/>
<feBlend mode="normal" in2="effect4_dropShadow_41:825" result="effect5_dropShadow_41:825"/>
<feColorMatrix in="SourceAlpha" type="matrix" values="0 0 0 0 0 0 0 0 0 0 0 0 0 0 0 0 0 0 127 0" result="hardAlpha"/>
<feOffset dy="100"/>
<feGaussianBlur stdDeviation="40"/>
<feColorMatrix type="matrix" values="0 0 0 0 0.203922 0 0 0 0 0.596078 0 0 0 0 0.858824 0 0 0 0.09 0"/>
<feBlend mode="normal" in2="effect5_dropShadow_41:825" result="effect6_dropShadow_41:825"/>
<feBlend mode="normal" in="SourceGraphic" in2="effect6_dropShadow_41:825" result="shape"/>
</filter>
<filter id="filter1_dddddd_41:825" x="-80" y="0" width="294" height="314" filterUnits="userSpaceOnUse" color-interpolation-filters="sRGB">
<feFlood flood-opacity="0" result="BackgroundImageFix"/>
<feColorMatrix in="SourceAlpha" type="matrix" values="0 0 0 0 0 0 0 0 0 0 0 0 0 0 0 0 0 0 127 0" result="hardAlpha"/>
<feOffset dy="2.76726"/>
<feGaussianBlur stdDeviation="1.1069"/>
<feColorMatrix type="matrix" values="0 0 0 0 0.203922 0 0 0 0 0.596078 0 0 0 0 0.858824 0 0 0 0.0253031 0"/>
<feBlend mode="normal" in2="BackgroundImageFix" result="effect1_dropShadow_41:825"/>
<feColorMatrix in="SourceAlpha" type="matrix" values="0 0 0 0 0 0 0 0 0 0 0 0 0 0 0 0 0 0 127 0" result="hardAlpha"/>
<feOffset dy="6.6501"/>
<feGaussianBlur stdDeviation="2.66004"/>
<feColorMatrix type="matrix" values="0 0 0 0 0.203922 0 0 0 0 0.596078 0 0 0 0 0.858824 0 0 0 0.0363503 0"/>
<feBlend mode="normal" in2="effect1_dropShadow_41:825" result="effect2_dropShadow_41:825"/>
<feColorMatrix in="SourceAlpha" type="matrix" values="0 0 0 0 0 0 0 0 0 0 0 0 0 0 0 0 0 0 127 0" result="hardAlpha"/>
<feOffset dy="12.5216"/>
<feGaussianBlur stdDeviation="5.00862"/>
<feColorMatrix type="matrix" values="0 0 0 0 0.203922 0 0 0 0 0.596078 0 0 0 0 0.858824 0 0 0 0.045 0"/>
<feBlend mode="normal" in2="effect2_dropShadow_41:825" result="effect3_dropShadow_41:825"/>
<feColorMatrix in="SourceAlpha" type="matrix" values="0 0 0 0 0 0 0 0 0 0 0 0 0 0 0 0 0 0 127 0" result="hardAlpha"/>
<feOffset dy="22.3363"/>
<feGaussianBlur stdDeviation="8.93452"/>
<feColorMatrix type="matrix" values="0 0 0 0 0.203922 0 0 0 0 0.596078 0 0 0 0 0.858824 0 0 0 0.0536497 0"/>
<feBlend mode="normal" in2="effect3_dropShadow_41:825" result="effect4_dropShadow_41:825"/>
<feColorMatrix in="SourceAlpha" type="matrix" values="0 0 0 0 0 0 0 0 0 0 0 0 0 0 0 0 0 0 127 0" result="hardAlpha"/>
<feOffset dy="41.7776"/>
<feGaussianBlur stdDeviation="16.711"/>
<feColorMatrix type="matrix" values="0 0 0 0 0.203922 0 0 0 0 0.596078 0 0 0 0 0.858824 0 0 0 0.0646969 0"/>
<feBlend mode="normal" in2="effect4_dropShadow_41:825" result="effect5_dropShadow_41:825"/>
<feColorMatrix in="SourceAlpha" type="matrix" values="0 0 0 0 0 0 0 0 0 0 0 0 0 0 0 0 0 0 127 0" result="hardAlpha"/>
<feOffset dy="100"/>
<feGaussianBlur stdDeviation="40"/>
<feColorMatrix type="matrix" values="0 0 0 0 0.203922 0 0 0 0 0.596078 0 0 0 0 0.858824 0 0 0 0.09 0"/>
<feBlend mode="normal" in2="effect5_dropShadow_41:825" result="effect6_dropShadow_41:825"/>
<feBlend mode="normal" in="SourceGraphic" in2="effect6_dropShadow_41:825" result="shape"/>
</filter>
<clipPath id="clip0_41:825">
<rect width="107" height="83" fill="white" transform="translate(14 6)"/>
</clipPath>
<clipPath id="clip1_41:825">
<rect width="110" height="94" fill="white" transform="translate(12 11)"/>
</clipPath>
</defs>
</svg>
