<svg width="170" height="46" viewBox="0 0 170 46" fill="none" xmlns="http://www.w3.org/2000/svg">
<g filter="url(#filter0_d_25:481)">
<rect x="4" width="162" height="38" rx="19" fill="#3498DB"/>
<path d="M63.6689 20.165H61.7412V24H60.0117V14.0469H63.5117C64.6602 14.0469 65.5465 14.3044 66.1709 14.8193C66.7952 15.3343 67.1074 16.0794 67.1074 17.0547C67.1074 17.7201 66.9456 18.2783 66.6221 18.7295C66.3031 19.1761 65.8564 19.5202 65.2822 19.7617L67.5176 23.9111V24H65.665L63.6689 20.165ZM61.7412 18.7773H63.5186C64.1019 18.7773 64.5576 18.6315 64.8857 18.3398C65.2139 18.0436 65.3779 17.6403 65.3779 17.1299C65.3779 16.5967 65.2253 16.1842 64.9199 15.8926C64.6191 15.6009 64.168 15.4505 63.5664 15.4414H61.7412V18.7773ZM71.8447 24.1367C70.792 24.1367 69.9375 23.8063 69.2812 23.1455C68.6296 22.4801 68.3037 21.596 68.3037 20.4932V20.2881C68.3037 19.5498 68.445 18.8913 68.7275 18.3125C69.0146 17.7292 69.4157 17.2757 69.9307 16.9521C70.4456 16.6286 71.0199 16.4668 71.6533 16.4668C72.6605 16.4668 73.4375 16.7881 73.9844 17.4307C74.5358 18.0732 74.8115 18.9824 74.8115 20.1582V20.8281H69.9785C70.0286 21.4388 70.2314 21.9219 70.5869 22.2773C70.9469 22.6328 71.3981 22.8105 71.9404 22.8105C72.7015 22.8105 73.3213 22.5029 73.7998 21.8877L74.6953 22.7422C74.3991 23.1842 74.0026 23.5283 73.5059 23.7744C73.0137 24.016 72.46 24.1367 71.8447 24.1367ZM71.6465 17.7998C71.1908 17.7998 70.8216 17.9593 70.5391 18.2783C70.2611 18.5973 70.0833 19.0417 70.0059 19.6113H73.1709V19.4883C73.1344 18.9323 72.9863 18.513 72.7266 18.2305C72.4668 17.9434 72.1068 17.7998 71.6465 17.7998ZM75.8164 20.2471C75.8164 19.0986 76.0853 18.1826 76.623 17.499C77.1654 16.8109 77.8831 16.4668 78.7764 16.4668C79.6195 16.4668 80.2826 16.7607 80.7656 17.3486L80.8408 16.6035H82.3379V23.7744C82.3379 24.7451 82.0348 25.5107 81.4287 26.0713C80.8271 26.6318 80.0137 26.9121 78.9883 26.9121C78.446 26.9121 77.915 26.7982 77.3955 26.5703C76.8805 26.347 76.4886 26.0531 76.2197 25.6885L77.0059 24.6904C77.5163 25.2965 78.1452 25.5996 78.8926 25.5996C79.444 25.5996 79.8792 25.4492 80.1982 25.1484C80.5173 24.8522 80.6768 24.4147 80.6768 23.8359V23.3369C80.1982 23.8701 79.5602 24.1367 78.7627 24.1367C77.8968 24.1367 77.1882 23.7926 76.6367 23.1045C76.0898 22.4163 75.8164 21.4639 75.8164 20.2471ZM77.4707 20.3906C77.4707 21.1335 77.6211 21.7191 77.9219 22.1475C78.2272 22.5713 78.6488 22.7832 79.1865 22.7832C79.8564 22.7832 80.3532 22.4961 80.6768 21.9219V18.668C80.3623 18.1074 79.8701 17.8271 79.2002 17.8271C78.6533 17.8271 78.2272 18.0436 77.9219 18.4766C77.6211 18.9095 77.4707 19.5475 77.4707 20.3906ZM85.8174 24H84.1562V16.6035H85.8174V24ZM84.0537 14.6826C84.0537 14.4274 84.1335 14.2155 84.293 14.0469C84.457 13.8783 84.6895 13.7939 84.9902 13.7939C85.291 13.7939 85.5234 13.8783 85.6875 14.0469C85.8516 14.2155 85.9336 14.4274 85.9336 14.6826C85.9336 14.9333 85.8516 15.1429 85.6875 15.3115C85.5234 15.4756 85.291 15.5576 84.9902 15.5576C84.6895 15.5576 84.457 15.4756 84.293 15.3115C84.1335 15.1429 84.0537 14.9333 84.0537 14.6826ZM91.7783 21.9902C91.7783 21.694 91.6553 21.4684 91.4092 21.3135C91.1676 21.1585 90.7643 21.0218 90.1992 20.9033C89.6341 20.7848 89.1624 20.6344 88.7842 20.4521C87.9548 20.0511 87.54 19.4701 87.54 18.709C87.54 18.071 87.8089 17.5378 88.3467 17.1094C88.8844 16.681 89.568 16.4668 90.3975 16.4668C91.2816 16.4668 91.9948 16.6855 92.5371 17.123C93.084 17.5605 93.3574 18.1279 93.3574 18.8252H91.6963C91.6963 18.5062 91.5778 18.2419 91.3408 18.0322C91.1038 17.818 90.7894 17.7109 90.3975 17.7109C90.0329 17.7109 89.7344 17.7952 89.502 17.9639C89.2741 18.1325 89.1602 18.3581 89.1602 18.6406C89.1602 18.8958 89.2673 19.0941 89.4814 19.2354C89.6956 19.3766 90.1286 19.5202 90.7803 19.666C91.432 19.8073 91.9424 19.9782 92.3115 20.1787C92.6852 20.3747 92.9609 20.6117 93.1387 20.8896C93.321 21.1676 93.4121 21.5049 93.4121 21.9014C93.4121 22.5667 93.1364 23.1068 92.585 23.5215C92.0335 23.9316 91.3112 24.1367 90.418 24.1367C89.8118 24.1367 89.2718 24.0273 88.7979 23.8086C88.3239 23.5898 87.9548 23.2891 87.6904 22.9062C87.4261 22.5234 87.2939 22.111 87.2939 21.6689H88.9072C88.93 22.0609 89.0781 22.3639 89.3516 22.5781C89.625 22.7878 89.9873 22.8926 90.4385 22.8926C90.876 22.8926 91.2087 22.8105 91.4365 22.6465C91.6644 22.4779 91.7783 22.2591 91.7783 21.9902ZM96.9463 14.8057V16.6035H98.252V17.834H96.9463V21.9629C96.9463 22.2454 97.001 22.4505 97.1104 22.5781C97.2243 22.7012 97.4248 22.7627 97.7119 22.7627C97.9033 22.7627 98.097 22.7399 98.293 22.6943V23.9795C97.9147 24.0843 97.5501 24.1367 97.1992 24.1367C95.9232 24.1367 95.2852 23.4326 95.2852 22.0244V17.834H94.0684V16.6035H95.2852V14.8057H96.9463ZM102.784 24.1367C101.731 24.1367 100.877 23.8063 100.221 23.1455C99.569 22.4801 99.2432 21.596 99.2432 20.4932V20.2881C99.2432 19.5498 99.3844 18.8913 99.667 18.3125C99.9541 17.7292 100.355 17.2757 100.87 16.9521C101.385 16.6286 101.959 16.4668 102.593 16.4668C103.6 16.4668 104.377 16.7881 104.924 17.4307C105.475 18.0732 105.751 18.9824 105.751 20.1582V20.8281H100.918C100.968 21.4388 101.171 21.9219 101.526 22.2773C101.886 22.6328 102.338 22.8105 102.88 22.8105C103.641 22.8105 104.261 22.5029 104.739 21.8877L105.635 22.7422C105.339 23.1842 104.942 23.5283 104.445 23.7744C103.953 24.016 103.399 24.1367 102.784 24.1367ZM102.586 17.7998C102.13 17.7998 101.761 17.9593 101.479 18.2783C101.201 18.5973 101.023 19.0417 100.945 19.6113H104.11V19.4883C104.074 18.9323 103.926 18.513 103.666 18.2305C103.406 17.9434 103.046 17.7998 102.586 17.7998ZM110.919 18.1211C110.7 18.0846 110.475 18.0664 110.242 18.0664C109.481 18.0664 108.968 18.3581 108.704 18.9414V24H107.043V16.6035H108.629L108.67 17.4307C109.071 16.7881 109.627 16.4668 110.338 16.4668C110.575 16.4668 110.771 16.4987 110.926 16.5625L110.919 18.1211Z" fill="white"/>
</g>
<defs>
<filter id="filter0_d_25:481" x="0" y="0" width="170" height="46" filterUnits="userSpaceOnUse" color-interpolation-filters="sRGB">
<feFlood flood-opacity="0" result="BackgroundImageFix"/>
<feColorMatrix in="SourceAlpha" type="matrix" values="0 0 0 0 0 0 0 0 0 0 0 0 0 0 0 0 0 0 127 0" result="hardAlpha"/>
<feOffset dy="4"/>
<feGaussianBlur stdDeviation="2"/>
<feColorMatrix type="matrix" values="0 0 0 0 0 0 0 0 0 0 0 0 0 0 0 0 0 0 0.25 0"/>
<feBlend mode="normal" in2="BackgroundImageFix" result="effect1_dropShadow_25:481"/>
<feBlend mode="normal" in="SourceGraphic" in2="effect1_dropShadow_25:481" result="shape"/>
</filter>
</defs>
</svg>
