<svg width="229" height="54" viewBox="0 0 229 54" fill="none" xmlns="http://www.w3.org/2000/svg">
<rect width="229" height="54" rx="27" fill="#3498DB"/>
<path d="M83.6523 30.6055C83.6523 29.8555 83.3867 29.2773 82.8555 28.8711C82.332 28.4648 81.3828 28.0547 80.0078 27.6406C78.6328 27.2266 77.5391 26.7656 76.7266 26.2578C75.1719 25.2812 74.3945 24.0078 74.3945 22.4375C74.3945 21.0625 74.9531 19.9297 76.0703 19.0391C77.1953 18.1484 78.6523 17.7031 80.4414 17.7031C81.6289 17.7031 82.6875 17.9219 83.6172 18.3594C84.5469 18.7969 85.2773 19.4219 85.8086 20.2344C86.3398 21.0391 86.6055 21.9336 86.6055 22.918H83.6523C83.6523 22.0273 83.3711 21.332 82.8086 20.832C82.2539 20.3242 81.457 20.0703 80.418 20.0703C79.4492 20.0703 78.6953 20.2773 78.1562 20.6914C77.625 21.1055 77.3594 21.6836 77.3594 22.4258C77.3594 23.0508 77.6484 23.5742 78.2266 23.9961C78.8047 24.4102 79.7578 24.8164 81.0859 25.2148C82.4141 25.6055 83.4805 26.0547 84.2852 26.5625C85.0898 27.0625 85.6797 27.6406 86.0547 28.2969C86.4297 28.9453 86.6172 29.707 86.6172 30.582C86.6172 32.0039 86.0703 33.1367 84.9766 33.9805C83.8906 34.8164 82.4141 35.2344 80.5469 35.2344C79.3125 35.2344 78.1758 35.0078 77.1367 34.5547C76.1055 34.0938 75.3008 33.4609 74.7227 32.6562C74.1523 31.8516 73.8672 30.9141 73.8672 29.8438H76.832C76.832 30.8125 77.1523 31.5625 77.793 32.0938C78.4336 32.625 79.3516 32.8906 80.5469 32.8906C81.5781 32.8906 82.3516 32.6836 82.8672 32.2695C83.3906 31.8477 83.6523 31.293 83.6523 30.6055ZM91.9727 35H89.125V22.3203H91.9727V35ZM88.9492 19.0273C88.9492 18.5898 89.0859 18.2266 89.3594 17.9375C89.6406 17.6484 90.0391 17.5039 90.5547 17.5039C91.0703 17.5039 91.4688 17.6484 91.75 17.9375C92.0312 18.2266 92.1719 18.5898 92.1719 19.0273C92.1719 19.457 92.0312 19.8164 91.75 20.1055C91.4688 20.3867 91.0703 20.5273 90.5547 20.5273C90.0391 20.5273 89.6406 20.3867 89.3594 20.1055C89.0859 19.8164 88.9492 19.457 88.9492 19.0273ZM94.5859 28.5664C94.5859 26.5977 95.0469 25.0273 95.9688 23.8555C96.8984 22.6758 98.1289 22.0859 99.6602 22.0859C101.105 22.0859 102.242 22.5898 103.07 23.5977L103.199 22.3203H105.766V34.6133C105.766 36.2773 105.246 37.5898 104.207 38.5508C103.176 39.5117 101.781 39.9922 100.023 39.9922C99.0938 39.9922 98.1836 39.7969 97.293 39.4062C96.4102 39.0234 95.7383 38.5195 95.2773 37.8945L96.625 36.1836C97.5 37.2227 98.5781 37.7422 99.8594 37.7422C100.805 37.7422 101.551 37.4844 102.098 36.9688C102.645 36.4609 102.918 35.7109 102.918 34.7188V33.8633C102.098 34.7773 101.004 35.2344 99.6367 35.2344C98.1523 35.2344 96.9375 34.6445 95.9922 33.4648C95.0547 32.2852 94.5859 30.6523 94.5859 28.5664ZM97.4219 28.8125C97.4219 30.0859 97.6797 31.0898 98.1953 31.8242C98.7188 32.5508 99.4414 32.9141 100.363 32.9141C101.512 32.9141 102.363 32.4219 102.918 31.4375V25.8594C102.379 24.8984 101.535 24.418 100.387 24.418C99.4492 24.418 98.7188 24.7891 98.1953 25.5312C97.6797 26.2734 97.4219 27.3672 97.4219 28.8125ZM111.344 22.3203L111.426 23.7852C112.363 22.6523 113.594 22.0859 115.117 22.0859C117.758 22.0859 119.102 23.5977 119.148 26.6211V35H116.301V26.7852C116.301 25.9805 116.125 25.3867 115.773 25.0039C115.43 24.6133 114.863 24.418 114.074 24.418C112.926 24.418 112.07 24.9375 111.508 25.9766V35H108.66V22.3203H111.344ZM140.793 17.9375V29.3398C140.793 31.1523 140.211 32.5898 139.047 33.6523C137.891 34.707 136.348 35.2344 134.418 35.2344C132.465 35.2344 130.914 34.7148 129.766 33.6758C128.617 32.6289 128.043 31.1797 128.043 29.3281V17.9375H130.996V29.3516C130.996 30.4922 131.285 31.3633 131.863 31.9648C132.441 32.5664 133.293 32.8672 134.418 32.8672C136.699 32.8672 137.84 31.6641 137.84 29.2578V17.9375H140.793ZM154.797 28.7891C154.797 30.75 154.352 32.3164 153.461 33.4883C152.57 34.6523 151.375 35.2344 149.875 35.2344C148.484 35.2344 147.371 34.7773 146.535 33.8633V39.875H143.688V22.3203H146.312L146.43 23.6094C147.266 22.5938 148.402 22.0859 149.84 22.0859C151.387 22.0859 152.598 22.6641 153.473 23.8203C154.355 24.9688 154.797 26.5664 154.797 28.6133V28.7891ZM151.961 28.543C151.961 27.2773 151.707 26.2734 151.199 25.5312C150.699 24.7891 149.98 24.418 149.043 24.418C147.879 24.418 147.043 24.8984 146.535 25.8594V31.4844C147.051 32.4688 147.895 32.9609 149.066 32.9609C149.973 32.9609 150.68 32.5977 151.188 31.8711C151.703 31.1367 151.961 30.0273 151.961 28.543Z" fill="white"/>
</svg>
