<svg width="183" height="45" viewBox="0 0 183 45" fill="none" xmlns="http://www.w3.org/2000/svg">
<g id="Primari Button" filter="url(#filter0_d_51_405)">
<rect id="Rectangle 1" x="0.5" y="0.5" width="182" height="44" rx="22" stroke="black"/>
<path id="Atur Jadwal" d="M49.4639 25.0205H44.5068L43.4697 28H41.1582L45.9922 15.2031H47.9873L52.8301 28H50.5098L49.4639 25.0205ZM45.1309 23.2275H48.8398L46.9854 17.9189L45.1309 23.2275ZM56.6006 16.1787V18.4902H58.2793V20.0723H56.6006V25.3809C56.6006 25.7441 56.6709 26.0078 56.8115 26.1719C56.958 26.3301 57.2158 26.4092 57.585 26.4092C57.8311 26.4092 58.0801 26.3799 58.332 26.3213V27.9736C57.8457 28.1084 57.377 28.1758 56.9258 28.1758C55.2852 28.1758 54.4648 27.2705 54.4648 25.46V20.0723H52.9004V18.4902H54.4648V16.1787H56.6006ZM65.6797 27.0684C65.0527 27.8066 64.1621 28.1758 63.0078 28.1758C61.9766 28.1758 61.1943 27.874 60.6611 27.2705C60.1338 26.667 59.8701 25.7939 59.8701 24.6514V18.4902H62.0059V24.625C62.0059 25.832 62.5068 26.4355 63.5088 26.4355C64.5459 26.4355 65.2461 26.0635 65.6094 25.3193V18.4902H67.7451V28H65.7324L65.6797 27.0684ZM74.8994 20.4414C74.6182 20.3945 74.3281 20.3711 74.0293 20.3711C73.0508 20.3711 72.3916 20.7461 72.0518 21.4961V28H69.916V18.4902H71.9551L72.0078 19.5537C72.5234 18.7275 73.2383 18.3145 74.1523 18.3145C74.457 18.3145 74.709 18.3555 74.9082 18.4375L74.8994 20.4414ZM86.1758 15.2031H88.3906V24.1768C88.3906 25.4014 88.0068 26.374 87.2393 27.0947C86.4775 27.8154 85.4697 28.1758 84.2158 28.1758C82.8799 28.1758 81.8486 27.8389 81.1221 27.165C80.3955 26.4912 80.0322 25.5537 80.0322 24.3525H82.2471C82.2471 25.0322 82.4141 25.5449 82.748 25.8906C83.0879 26.2305 83.5771 26.4004 84.2158 26.4004C84.8135 26.4004 85.2881 26.2041 85.6396 25.8115C85.9971 25.4131 86.1758 24.8652 86.1758 24.168V15.2031ZM96.415 28C96.3213 27.8184 96.2393 27.5225 96.1689 27.1123C95.4893 27.8213 94.6572 28.1758 93.6729 28.1758C92.7178 28.1758 91.9385 27.9033 91.335 27.3584C90.7314 26.8135 90.4297 26.1396 90.4297 25.3369C90.4297 24.3232 90.8047 23.5469 91.5547 23.0078C92.3105 22.4629 93.3887 22.1904 94.7891 22.1904H96.0986V21.5664C96.0986 21.0742 95.9609 20.6816 95.6855 20.3887C95.4102 20.0898 94.9912 19.9404 94.4287 19.9404C93.9424 19.9404 93.5439 20.0635 93.2334 20.3096C92.9229 20.5498 92.7676 20.8574 92.7676 21.2324H90.6318C90.6318 20.7109 90.8047 20.2246 91.1504 19.7734C91.4961 19.3164 91.9648 18.959 92.5566 18.7012C93.1543 18.4434 93.8193 18.3145 94.5518 18.3145C95.665 18.3145 96.5527 18.5957 97.2148 19.1582C97.877 19.7148 98.2168 20.5 98.2344 21.5137V25.8027C98.2344 26.6582 98.3545 27.3408 98.5947 27.8506V28H96.415ZM94.0684 26.4619C94.4902 26.4619 94.8857 26.3594 95.2549 26.1543C95.6299 25.9492 95.9111 25.6738 96.0986 25.3281V23.5352H94.9473C94.1562 23.5352 93.5615 23.6729 93.1631 23.9482C92.7646 24.2236 92.5654 24.6133 92.5654 25.1172C92.5654 25.5273 92.7002 25.8555 92.9697 26.1016C93.2451 26.3418 93.6113 26.4619 94.0684 26.4619ZM100.071 23.1748C100.071 21.71 100.411 20.5352 101.091 19.6504C101.771 18.7598 102.682 18.3145 103.824 18.3145C104.832 18.3145 105.646 18.666 106.268 19.3691V14.5H108.403V28H106.47L106.364 27.0156C105.726 27.7891 104.873 28.1758 103.807 28.1758C102.693 28.1758 101.791 27.7275 101.1 26.8311C100.414 25.9346 100.071 24.7158 100.071 23.1748ZM102.207 23.3594C102.207 24.3262 102.392 25.082 102.761 25.627C103.136 26.166 103.666 26.4355 104.352 26.4355C105.225 26.4355 105.863 26.0459 106.268 25.2666V21.2061C105.875 20.4443 105.242 20.0635 104.369 20.0635C103.678 20.0635 103.145 20.3389 102.77 20.8896C102.395 21.4346 102.207 22.2578 102.207 23.3594ZM118.985 25.0557L120.497 18.4902H122.58L119.987 28H118.229L116.19 21.4697L114.187 28H112.429L109.827 18.4902H111.91L113.448 24.9854L115.399 18.4902H117.008L118.985 25.0557ZM129.69 28C129.597 27.8184 129.515 27.5225 129.444 27.1123C128.765 27.8213 127.933 28.1758 126.948 28.1758C125.993 28.1758 125.214 27.9033 124.61 27.3584C124.007 26.8135 123.705 26.1396 123.705 25.3369C123.705 24.3232 124.08 23.5469 124.83 23.0078C125.586 22.4629 126.664 22.1904 128.064 22.1904H129.374V21.5664C129.374 21.0742 129.236 20.6816 128.961 20.3887C128.686 20.0898 128.267 19.9404 127.704 19.9404C127.218 19.9404 126.819 20.0635 126.509 20.3096C126.198 20.5498 126.043 20.8574 126.043 21.2324H123.907C123.907 20.7109 124.08 20.2246 124.426 19.7734C124.771 19.3164 125.24 18.959 125.832 18.7012C126.43 18.4434 127.095 18.3145 127.827 18.3145C128.94 18.3145 129.828 18.5957 130.49 19.1582C131.152 19.7148 131.492 20.5 131.51 21.5137V25.8027C131.51 26.6582 131.63 27.3408 131.87 27.8506V28H129.69ZM127.344 26.4619C127.766 26.4619 128.161 26.3594 128.53 26.1543C128.905 25.9492 129.187 25.6738 129.374 25.3281V23.5352H128.223C127.432 23.5352 126.837 23.6729 126.438 23.9482C126.04 24.2236 125.841 24.6133 125.841 25.1172C125.841 25.5273 125.976 25.8555 126.245 26.1016C126.521 26.3418 126.887 26.4619 127.344 26.4619ZM136.019 28H133.883V14.5H136.019V28Z" fill="black"/>
</g>
<defs>
<filter id="filter0_d_51_405" x="-4" y="0" width="191" height="53" filterUnits="userSpaceOnUse" color-interpolation-filters="sRGB">
<feFlood flood-opacity="0" result="BackgroundImageFix"/>
<feColorMatrix in="SourceAlpha" type="matrix" values="0 0 0 0 0 0 0 0 0 0 0 0 0 0 0 0 0 0 127 0" result="hardAlpha"/>
<feOffset dy="4"/>
<feGaussianBlur stdDeviation="2"/>
<feColorMatrix type="matrix" values="0 0 0 0 0 0 0 0 0 0 0 0 0 0 0 0 0 0 0.25 0"/>
<feBlend mode="normal" in2="BackgroundImageFix" result="effect1_dropShadow_51_405"/>
<feBlend mode="normal" in="SourceGraphic" in2="effect1_dropShadow_51_405" result="shape"/>
</filter>
</defs>
</svg>
