<svg width="71" height="71" viewBox="0 0 71 71" fill="none" xmlns="http://www.w3.org/2000/svg">
<rect width="71" height="71" rx="9" fill="white"/>
<path d="M35 20.9118C45.4945 20.9118 54 17.3477 54 12.9559C54 8.56412 45.4945 5 35 5C24.5055 5 16 8.56412 16 12.9559C16 17.3477 24.5055 20.9118 35 20.9118ZM35 33.6323C27.7488 33.6323 21.3363 31.8801 17.2914 29.1734C16.4676 30.0682 16 31.03 16 32.0441C16 36.4359 24.5055 40 35 40C45.4945 40 54 36.4359 54 32.0441C54 31.03 53.5324 30.0682 52.7086 29.1809C48.6637 31.8801 42.2512 33.6323 35 33.6323ZM35 24.0882C27.7488 24.0882 21.3363 22.336 17.2914 19.6293C16.4676 20.5241 16 21.4859 16 22.5C16 26.8918 24.5055 30.4559 35 30.4559C45.4945 30.4559 54 26.8918 54 22.5C54 21.4859 53.5324 20.5241 52.7086 19.6368C48.6637 22.336 42.2512 24.0882 35 24.0882Z" fill="#F4B81B"/>
<path d="M12.7031 58.3125L14.4785 54.4688H16.4004L13.5996 59.9062V63H11.8125V59.9062L9.01172 54.4688H10.9395L12.7031 58.3125ZM16.418 59.7715C16.418 59.1426 16.5391 58.582 16.7812 58.0898C17.0234 57.5977 17.3711 57.2168 17.8242 56.9473C18.2812 56.6777 18.8105 56.543 19.4121 56.543C20.2676 56.543 20.9648 56.8047 21.5039 57.3281C22.0469 57.8516 22.3496 58.5625 22.4121 59.4609L22.4238 59.8945C22.4238 60.8672 22.1523 61.6484 21.6094 62.2383C21.0664 62.8242 20.3379 63.1172 19.4238 63.1172C18.5098 63.1172 17.7793 62.8242 17.2324 62.2383C16.6895 61.6523 16.418 60.8555 16.418 59.8477V59.7715ZM18.1113 59.8945C18.1113 60.4961 18.2246 60.957 18.4512 61.2773C18.6777 61.5938 19.002 61.752 19.4238 61.752C19.834 61.752 20.1543 61.5957 20.3848 61.2832C20.6152 60.9668 20.7305 60.4629 20.7305 59.7715C20.7305 59.1816 20.6152 58.7246 20.3848 58.4004C20.1543 58.0762 19.8301 57.9141 19.4121 57.9141C18.998 57.9141 18.6777 58.0762 18.4512 58.4004C18.2246 58.7207 18.1113 59.2188 18.1113 59.8945ZM27.2637 62.3555C26.8457 62.8633 26.2676 63.1172 25.5293 63.1172C24.8496 63.1172 24.3301 62.9219 23.9707 62.5312C23.6152 62.1406 23.4336 61.5684 23.4258 60.8145V56.6602H25.1191V60.7559C25.1191 61.416 25.4199 61.7461 26.0215 61.7461C26.5957 61.7461 26.9902 61.5469 27.2051 61.1484V56.6602H28.9043V63H27.3105L27.2637 62.3555ZM33.7441 58.248C33.5137 58.2168 33.3105 58.2012 33.1348 58.2012C32.4941 58.2012 32.0742 58.418 31.875 58.8516V63H30.1816V56.6602H31.7812L31.8281 57.416C32.168 56.834 32.6387 56.543 33.2402 56.543C33.4277 56.543 33.6035 56.5684 33.7676 56.6191L33.7441 58.248ZM44.3613 60.1582C44.2949 61.0762 43.9551 61.7988 43.3418 62.3262C42.7324 62.8535 41.9277 63.1172 40.9277 63.1172C39.834 63.1172 38.9727 62.75 38.3438 62.0156C37.7188 61.2773 37.4062 60.2656 37.4062 58.9805V58.459C37.4062 57.6387 37.5508 56.916 37.8398 56.291C38.1289 55.666 38.541 55.1875 39.0762 54.8555C39.6152 54.5195 40.2402 54.3516 40.9512 54.3516C41.9355 54.3516 42.7285 54.6152 43.3301 55.1426C43.9316 55.6699 44.2793 56.4102 44.373 57.3633H42.6152C42.5723 56.8125 42.418 56.4141 42.1523 56.168C41.8906 55.918 41.4902 55.793 40.9512 55.793C40.3652 55.793 39.9258 56.0039 39.6328 56.4258C39.3438 56.8438 39.1953 57.4941 39.1875 58.377V59.0215C39.1875 59.9434 39.3262 60.6172 39.6035 61.043C39.8848 61.4688 40.3262 61.6816 40.9277 61.6816C41.4707 61.6816 41.875 61.5586 42.1406 61.3125C42.4102 61.0625 42.5645 60.6777 42.6035 60.1582H44.3613ZM45.1406 59.7715C45.1406 59.1426 45.2617 58.582 45.5039 58.0898C45.7461 57.5977 46.0938 57.2168 46.5469 56.9473C47.0039 56.6777 47.5332 56.543 48.1348 56.543C48.9902 56.543 49.6875 56.8047 50.2266 57.3281C50.7695 57.8516 51.0723 58.5625 51.1348 59.4609L51.1465 59.8945C51.1465 60.8672 50.875 61.6484 50.332 62.2383C49.7891 62.8242 49.0605 63.1172 48.1465 63.1172C47.2324 63.1172 46.502 62.8242 45.9551 62.2383C45.4121 61.6523 45.1406 60.8555 45.1406 59.8477V59.7715ZM46.834 59.8945C46.834 60.4961 46.9473 60.957 47.1738 61.2773C47.4004 61.5938 47.7246 61.752 48.1465 61.752C48.5566 61.752 48.877 61.5957 49.1074 61.2832C49.3379 60.9668 49.4531 60.4629 49.4531 59.7715C49.4531 59.1816 49.3379 58.7246 49.1074 58.4004C48.877 58.0762 48.5527 57.9141 48.1348 57.9141C47.7207 57.9141 47.4004 58.0762 47.1738 58.4004C46.9473 58.7207 46.834 59.2188 46.834 59.8945ZM53.9766 63H52.2773V56.6602H53.9766V63ZM52.1777 55.0195C52.1777 54.7656 52.2617 54.5566 52.4297 54.3926C52.6016 54.2285 52.834 54.1465 53.127 54.1465C53.416 54.1465 53.6465 54.2285 53.8184 54.3926C53.9902 54.5566 54.0762 54.7656 54.0762 55.0195C54.0762 55.2773 53.9883 55.4883 53.8125 55.6523C53.6406 55.8164 53.4121 55.8984 53.127 55.8984C52.8418 55.8984 52.6113 55.8164 52.4355 55.6523C52.2637 55.4883 52.1777 55.2773 52.1777 55.0195ZM56.9355 56.6602L56.9883 57.3926C57.4414 56.8262 58.0488 56.543 58.8105 56.543C59.4824 56.543 59.9824 56.7402 60.3105 57.1348C60.6387 57.5293 60.8066 58.1191 60.8145 58.9043V63H59.1211V58.9453C59.1211 58.5859 59.043 58.3262 58.8867 58.166C58.7305 58.002 58.4707 57.9199 58.1074 57.9199C57.6309 57.9199 57.2734 58.123 57.0352 58.5293V63H55.3418V56.6602H56.9355Z" fill="#F4B81B"/>
</svg>
