<svg width="162" height="38" viewBox="0 0 162 38" fill="none" xmlns="http://www.w3.org/2000/svg">
<g filter="url(#filter0_d_25_481)">
<rect width="162" height="38" rx="19" fill="#3498DB"/>
<path d="M59.6689 20.165H57.7412V24H56.0117V14.0469H59.5117C60.6602 14.0469 61.5465 14.3044 62.1709 14.8193C62.7952 15.3343 63.1074 16.0794 63.1074 17.0547C63.1074 17.7201 62.9456 18.2783 62.6221 18.7295C62.3031 19.1761 61.8564 19.5202 61.2822 19.7617L63.5176 23.9111V24H61.665L59.6689 20.165ZM57.7412 18.7773H59.5186C60.1019 18.7773 60.5576 18.6315 60.8857 18.3398C61.2139 18.0436 61.3779 17.6403 61.3779 17.1299C61.3779 16.5967 61.2253 16.1842 60.9199 15.8926C60.6191 15.6009 60.168 15.4505 59.5664 15.4414H57.7412V18.7773ZM67.8447 24.1367C66.792 24.1367 65.9375 23.8063 65.2812 23.1455C64.6296 22.4801 64.3037 21.596 64.3037 20.4932V20.2881C64.3037 19.5498 64.445 18.8913 64.7275 18.3125C65.0146 17.7292 65.4157 17.2757 65.9307 16.9521C66.4456 16.6286 67.0199 16.4668 67.6533 16.4668C68.6605 16.4668 69.4375 16.7881 69.9844 17.4307C70.5358 18.0732 70.8115 18.9824 70.8115 20.1582V20.8281H65.9785C66.0286 21.4388 66.2314 21.9219 66.5869 22.2773C66.9469 22.6328 67.3981 22.8105 67.9404 22.8105C68.7015 22.8105 69.3213 22.5029 69.7998 21.8877L70.6953 22.7422C70.3991 23.1842 70.0026 23.5283 69.5059 23.7744C69.0137 24.016 68.46 24.1367 67.8447 24.1367ZM67.6465 17.7998C67.1908 17.7998 66.8216 17.9593 66.5391 18.2783C66.2611 18.5973 66.0833 19.0417 66.0059 19.6113H69.1709V19.4883C69.1344 18.9323 68.9863 18.513 68.7266 18.2305C68.4668 17.9434 68.1068 17.7998 67.6465 17.7998ZM71.8164 20.2471C71.8164 19.0986 72.0853 18.1826 72.623 17.499C73.1654 16.8109 73.8831 16.4668 74.7764 16.4668C75.6195 16.4668 76.2826 16.7607 76.7656 17.3486L76.8408 16.6035H78.3379V23.7744C78.3379 24.7451 78.0348 25.5107 77.4287 26.0713C76.8271 26.6318 76.0137 26.9121 74.9883 26.9121C74.446 26.9121 73.915 26.7982 73.3955 26.5703C72.8805 26.347 72.4886 26.0531 72.2197 25.6885L73.0059 24.6904C73.5163 25.2965 74.1452 25.5996 74.8926 25.5996C75.444 25.5996 75.8792 25.4492 76.1982 25.1484C76.5173 24.8522 76.6768 24.4147 76.6768 23.8359V23.3369C76.1982 23.8701 75.5602 24.1367 74.7627 24.1367C73.8968 24.1367 73.1882 23.7926 72.6367 23.1045C72.0898 22.4163 71.8164 21.4639 71.8164 20.2471ZM73.4707 20.3906C73.4707 21.1335 73.6211 21.7191 73.9219 22.1475C74.2272 22.5713 74.6488 22.7832 75.1865 22.7832C75.8564 22.7832 76.3532 22.4961 76.6768 21.9219V18.668C76.3623 18.1074 75.8701 17.8271 75.2002 17.8271C74.6533 17.8271 74.2272 18.0436 73.9219 18.4766C73.6211 18.9095 73.4707 19.5475 73.4707 20.3906ZM81.8174 24H80.1562V16.6035H81.8174V24ZM80.0537 14.6826C80.0537 14.4274 80.1335 14.2155 80.293 14.0469C80.457 13.8783 80.6895 13.7939 80.9902 13.7939C81.291 13.7939 81.5234 13.8783 81.6875 14.0469C81.8516 14.2155 81.9336 14.4274 81.9336 14.6826C81.9336 14.9333 81.8516 15.1429 81.6875 15.3115C81.5234 15.4756 81.291 15.5576 80.9902 15.5576C80.6895 15.5576 80.457 15.4756 80.293 15.3115C80.1335 15.1429 80.0537 14.9333 80.0537 14.6826ZM87.7783 21.9902C87.7783 21.694 87.6553 21.4684 87.4092 21.3135C87.1676 21.1585 86.7643 21.0218 86.1992 20.9033C85.6341 20.7848 85.1624 20.6344 84.7842 20.4521C83.9548 20.0511 83.54 19.4701 83.54 18.709C83.54 18.071 83.8089 17.5378 84.3467 17.1094C84.8844 16.681 85.568 16.4668 86.3975 16.4668C87.2816 16.4668 87.9948 16.6855 88.5371 17.123C89.084 17.5605 89.3574 18.1279 89.3574 18.8252H87.6963C87.6963 18.5062 87.5778 18.2419 87.3408 18.0322C87.1038 17.818 86.7894 17.7109 86.3975 17.7109C86.0329 17.7109 85.7344 17.7952 85.502 17.9639C85.2741 18.1325 85.1602 18.3581 85.1602 18.6406C85.1602 18.8958 85.2673 19.0941 85.4814 19.2354C85.6956 19.3766 86.1286 19.5202 86.7803 19.666C87.432 19.8073 87.9424 19.9782 88.3115 20.1787C88.6852 20.3747 88.9609 20.6117 89.1387 20.8896C89.321 21.1676 89.4121 21.5049 89.4121 21.9014C89.4121 22.5667 89.1364 23.1068 88.585 23.5215C88.0335 23.9316 87.3112 24.1367 86.418 24.1367C85.8118 24.1367 85.2718 24.0273 84.7979 23.8086C84.3239 23.5898 83.9548 23.2891 83.6904 22.9062C83.4261 22.5234 83.2939 22.111 83.2939 21.6689H84.9072C84.93 22.0609 85.0781 22.3639 85.3516 22.5781C85.625 22.7878 85.9873 22.8926 86.4385 22.8926C86.876 22.8926 87.2087 22.8105 87.4365 22.6465C87.6644 22.4779 87.7783 22.2591 87.7783 21.9902ZM92.9463 14.8057V16.6035H94.252V17.834H92.9463V21.9629C92.9463 22.2454 93.001 22.4505 93.1104 22.5781C93.2243 22.7012 93.4248 22.7627 93.7119 22.7627C93.9033 22.7627 94.097 22.7399 94.293 22.6943V23.9795C93.9147 24.0843 93.5501 24.1367 93.1992 24.1367C91.9232 24.1367 91.2852 23.4326 91.2852 22.0244V17.834H90.0684V16.6035H91.2852V14.8057H92.9463ZM98.7842 24.1367C97.7314 24.1367 96.877 23.8063 96.2207 23.1455C95.569 22.4801 95.2432 21.596 95.2432 20.4932V20.2881C95.2432 19.5498 95.3844 18.8913 95.667 18.3125C95.9541 17.7292 96.3551 17.2757 96.8701 16.9521C97.3851 16.6286 97.9593 16.4668 98.5928 16.4668C99.5999 16.4668 100.377 16.7881 100.924 17.4307C101.475 18.0732 101.751 18.9824 101.751 20.1582V20.8281H96.918C96.9681 21.4388 97.1709 21.9219 97.5264 22.2773C97.8864 22.6328 98.3376 22.8105 98.8799 22.8105C99.641 22.8105 100.261 22.5029 100.739 21.8877L101.635 22.7422C101.339 23.1842 100.942 23.5283 100.445 23.7744C99.9531 24.016 99.3994 24.1367 98.7842 24.1367ZM98.5859 17.7998C98.1302 17.7998 97.7611 17.9593 97.4785 18.2783C97.2005 18.5973 97.0228 19.0417 96.9453 19.6113H100.11V19.4883C100.074 18.9323 99.9258 18.513 99.666 18.2305C99.4062 17.9434 99.0462 17.7998 98.5859 17.7998ZM106.919 18.1211C106.7 18.0846 106.475 18.0664 106.242 18.0664C105.481 18.0664 104.968 18.3581 104.704 18.9414V24H103.043V16.6035H104.629L104.67 17.4307C105.071 16.7881 105.627 16.4668 106.338 16.4668C106.575 16.4668 106.771 16.4987 106.926 16.5625L106.919 18.1211Z" fill="white"/>
</g>
<defs>
<filter id="filter0_d_25_481" x="-4" y="0" width="170" height="46" filterUnits="userSpaceOnUse" color-interpolation-filters="sRGB">
<feFlood flood-opacity="0" result="BackgroundImageFix"/>
<feColorMatrix in="SourceAlpha" type="matrix" values="0 0 0 0 0 0 0 0 0 0 0 0 0 0 0 0 0 0 127 0" result="hardAlpha"/>
<feOffset dy="4"/>
<feGaussianBlur stdDeviation="2"/>
<feColorMatrix type="matrix" values="0 0 0 0 0 0 0 0 0 0 0 0 0 0 0 0 0 0 0.25 0"/>
<feBlend mode="normal" in2="BackgroundImageFix" result="effect1_dropShadow_25_481"/>
<feBlend mode="normal" in="SourceGraphic" in2="effect1_dropShadow_25_481" result="shape"/>
</filter>
</defs>
</svg>
