<svg width="229" height="54" viewBox="0 0 229 54" fill="none" xmlns="http://www.w3.org/2000/svg">
<g filter="url(#filter0_dddddd_20:118)">
<rect x="1.5" y="1.5" width="226" height="51" rx="25.5" fill="white" stroke="#3498DB" stroke-width="3"/>
<path d="M83.6992 32.6328H91.4453V35H80.7344V17.9375H83.6992V32.6328ZM92.9102 28.543C92.9102 27.3008 93.1562 26.1836 93.6484 25.1914C94.1406 24.1914 94.832 23.4258 95.7227 22.8945C96.6133 22.3555 97.6367 22.0859 98.793 22.0859C100.504 22.0859 101.891 22.6367 102.953 23.7383C104.023 24.8398 104.602 26.3008 104.688 28.1211L104.699 28.7891C104.699 30.0391 104.457 31.1562 103.973 32.1406C103.496 33.125 102.809 33.8867 101.91 34.4258C101.02 34.9648 99.9883 35.2344 98.8164 35.2344C97.0273 35.2344 95.5938 34.6406 94.5156 33.4531C93.4453 32.2578 92.9102 30.668 92.9102 28.6836V28.543ZM95.7578 28.7891C95.7578 30.0938 96.0273 31.1172 96.5664 31.8594C97.1055 32.5938 97.8555 32.9609 98.8164 32.9609C99.7773 32.9609 100.523 32.5859 101.055 31.8359C101.594 31.0859 101.863 29.9883 101.863 28.543C101.863 27.2617 101.586 26.2461 101.031 25.4961C100.484 24.7461 99.7383 24.3711 98.793 24.3711C97.8633 24.3711 97.125 24.7422 96.5781 25.4844C96.0312 26.2188 95.7578 27.3203 95.7578 28.7891ZM106.609 28.5664C106.609 26.5977 107.07 25.0273 107.992 23.8555C108.922 22.6758 110.152 22.0859 111.684 22.0859C113.129 22.0859 114.266 22.5898 115.094 23.5977L115.223 22.3203H117.789V34.6133C117.789 36.2773 117.27 37.5898 116.23 38.5508C115.199 39.5117 113.805 39.9922 112.047 39.9922C111.117 39.9922 110.207 39.7969 109.316 39.4062C108.434 39.0234 107.762 38.5195 107.301 37.8945L108.648 36.1836C109.523 37.2227 110.602 37.7422 111.883 37.7422C112.828 37.7422 113.574 37.4844 114.121 36.9688C114.668 36.4609 114.941 35.7109 114.941 34.7188V33.8633C114.121 34.7773 113.027 35.2344 111.66 35.2344C110.176 35.2344 108.961 34.6445 108.016 33.4648C107.078 32.2852 106.609 30.6523 106.609 28.5664ZM109.445 28.8125C109.445 30.0859 109.703 31.0898 110.219 31.8242C110.742 32.5508 111.465 32.9141 112.387 32.9141C113.535 32.9141 114.387 32.4219 114.941 31.4375V25.8594C114.402 24.8984 113.559 24.418 112.41 24.418C111.473 24.418 110.742 24.7891 110.219 25.5312C109.703 26.2734 109.445 27.3672 109.445 28.8125ZM123.754 35H120.906V22.3203H123.754V35ZM120.73 19.0273C120.73 18.5898 120.867 18.2266 121.141 17.9375C121.422 17.6484 121.82 17.5039 122.336 17.5039C122.852 17.5039 123.25 17.6484 123.531 17.9375C123.812 18.2266 123.953 18.5898 123.953 19.0273C123.953 19.457 123.812 19.8164 123.531 20.1055C123.25 20.3867 122.852 20.5273 122.336 20.5273C121.82 20.5273 121.422 20.3867 121.141 20.1055C120.867 19.8164 120.73 19.457 120.73 19.0273ZM129.508 22.3203L129.59 23.7852C130.527 22.6523 131.758 22.0859 133.281 22.0859C135.922 22.0859 137.266 23.5977 137.312 26.6211V35H134.465V26.7852C134.465 25.9805 134.289 25.3867 133.938 25.0039C133.594 24.6133 133.027 24.418 132.238 24.418C131.09 24.418 130.234 24.9375 129.672 25.9766V35H126.824V22.3203H129.508Z" fill="#3498DB"/>
</g>
<defs>
<filter id="filter0_dddddd_20:118" x="-80" y="0" width="389" height="234" filterUnits="userSpaceOnUse" color-interpolation-filters="sRGB">
<feFlood flood-opacity="0" result="BackgroundImageFix"/>
<feColorMatrix in="SourceAlpha" type="matrix" values="0 0 0 0 0 0 0 0 0 0 0 0 0 0 0 0 0 0 127 0" result="hardAlpha"/>
<feOffset dy="2.76726"/>
<feGaussianBlur stdDeviation="1.1069"/>
<feColorMatrix type="matrix" values="0 0 0 0 0 0 0 0 0 0 0 0 0 0 0 0 0 0 0.0196802 0"/>
<feBlend mode="normal" in2="BackgroundImageFix" result="effect1_dropShadow_20:118"/>
<feColorMatrix in="SourceAlpha" type="matrix" values="0 0 0 0 0 0 0 0 0 0 0 0 0 0 0 0 0 0 127 0" result="hardAlpha"/>
<feOffset dy="6.6501"/>
<feGaussianBlur stdDeviation="2.66004"/>
<feColorMatrix type="matrix" values="0 0 0 0 0 0 0 0 0 0 0 0 0 0 0 0 0 0 0.0282725 0"/>
<feBlend mode="normal" in2="effect1_dropShadow_20:118" result="effect2_dropShadow_20:118"/>
<feColorMatrix in="SourceAlpha" type="matrix" values="0 0 0 0 0 0 0 0 0 0 0 0 0 0 0 0 0 0 127 0" result="hardAlpha"/>
<feOffset dy="12.5216"/>
<feGaussianBlur stdDeviation="5.00862"/>
<feColorMatrix type="matrix" values="0 0 0 0 0 0 0 0 0 0 0 0 0 0 0 0 0 0 0.035 0"/>
<feBlend mode="normal" in2="effect2_dropShadow_20:118" result="effect3_dropShadow_20:118"/>
<feColorMatrix in="SourceAlpha" type="matrix" values="0 0 0 0 0 0 0 0 0 0 0 0 0 0 0 0 0 0 127 0" result="hardAlpha"/>
<feOffset dy="22.3363"/>
<feGaussianBlur stdDeviation="8.93452"/>
<feColorMatrix type="matrix" values="0 0 0 0 0 0 0 0 0 0 0 0 0 0 0 0 0 0 0.0417275 0"/>
<feBlend mode="normal" in2="effect3_dropShadow_20:118" result="effect4_dropShadow_20:118"/>
<feColorMatrix in="SourceAlpha" type="matrix" values="0 0 0 0 0 0 0 0 0 0 0 0 0 0 0 0 0 0 127 0" result="hardAlpha"/>
<feOffset dy="41.7776"/>
<feGaussianBlur stdDeviation="16.711"/>
<feColorMatrix type="matrix" values="0 0 0 0 0 0 0 0 0 0 0 0 0 0 0 0 0 0 0.0503198 0"/>
<feBlend mode="normal" in2="effect4_dropShadow_20:118" result="effect5_dropShadow_20:118"/>
<feColorMatrix in="SourceAlpha" type="matrix" values="0 0 0 0 0 0 0 0 0 0 0 0 0 0 0 0 0 0 127 0" result="hardAlpha"/>
<feOffset dy="100"/>
<feGaussianBlur stdDeviation="40"/>
<feColorMatrix type="matrix" values="0 0 0 0 0 0 0 0 0 0 0 0 0 0 0 0 0 0 0.07 0"/>
<feBlend mode="normal" in2="effect5_dropShadow_20:118" result="effect6_dropShadow_20:118"/>
<feBlend mode="normal" in="SourceGraphic" in2="effect6_dropShadow_20:118" result="shape"/>
</filter>
</defs>
</svg>
