<svg width="191" height="53" viewBox="0 0 191 53" fill="none" xmlns="http://www.w3.org/2000/svg">
<g filter="url(#filter0_d_51_402)">
<rect x="4" width="183" height="45" rx="22.5" fill="#1F1F20"/>
<path d="M48.5244 26.2246H54.334V28H46.3008V15.2031H48.5244V26.2246ZM58.1045 28H55.9688V18.4902H58.1045V28ZM55.8369 16.0205C55.8369 15.6924 55.9395 15.4199 56.1445 15.2031C56.3555 14.9863 56.6543 14.8779 57.041 14.8779C57.4277 14.8779 57.7266 14.9863 57.9375 15.2031C58.1484 15.4199 58.2539 15.6924 58.2539 16.0205C58.2539 16.3428 58.1484 16.6123 57.9375 16.8291C57.7266 17.04 57.4277 17.1455 57.041 17.1455C56.6543 17.1455 56.3555 17.04 56.1445 16.8291C55.9395 16.6123 55.8369 16.3428 55.8369 16.0205ZM62.543 19.5273C63.2402 18.7188 64.1221 18.3145 65.1885 18.3145C67.2158 18.3145 68.2441 19.4717 68.2734 21.7861V28H66.1377V21.8652C66.1377 21.209 65.9941 20.7461 65.707 20.4766C65.4258 20.2012 65.0098 20.0635 64.459 20.0635C63.6035 20.0635 62.9648 20.4443 62.543 21.2061V28H60.4072V14.5H62.543V19.5273ZM76.1221 28C76.0283 27.8184 75.9463 27.5225 75.876 27.1123C75.1963 27.8213 74.3643 28.1758 73.3799 28.1758C72.4248 28.1758 71.6455 27.9033 71.042 27.3584C70.4385 26.8135 70.1367 26.1396 70.1367 25.3369C70.1367 24.3232 70.5117 23.5469 71.2617 23.0078C72.0176 22.4629 73.0957 22.1904 74.4961 22.1904H75.8057V21.5664C75.8057 21.0742 75.668 20.6816 75.3926 20.3887C75.1172 20.0898 74.6982 19.9404 74.1357 19.9404C73.6494 19.9404 73.251 20.0635 72.9404 20.3096C72.6299 20.5498 72.4746 20.8574 72.4746 21.2324H70.3389C70.3389 20.7109 70.5117 20.2246 70.8574 19.7734C71.2031 19.3164 71.6719 18.959 72.2637 18.7012C72.8613 18.4434 73.5264 18.3145 74.2588 18.3145C75.3721 18.3145 76.2598 18.5957 76.9219 19.1582C77.584 19.7148 77.9238 20.5 77.9414 21.5137V25.8027C77.9414 26.6582 78.0615 27.3408 78.3018 27.8506V28H76.1221ZM73.7754 26.4619C74.1973 26.4619 74.5928 26.3594 74.9619 26.1543C75.3369 25.9492 75.6182 25.6738 75.8057 25.3281V23.5352H74.6543C73.8633 23.5352 73.2686 23.6729 72.8701 23.9482C72.4717 24.2236 72.2725 24.6133 72.2725 25.1172C72.2725 25.5273 72.4072 25.8555 72.6768 26.1016C72.9521 26.3418 73.3184 26.4619 73.7754 26.4619ZM82.8545 16.1787V18.4902H84.5332V20.0723H82.8545V25.3809C82.8545 25.7441 82.9248 26.0078 83.0654 26.1719C83.2119 26.3301 83.4697 26.4092 83.8389 26.4092C84.085 26.4092 84.334 26.3799 84.5859 26.3213V27.9736C84.0996 28.1084 83.6309 28.1758 83.1797 28.1758C81.5391 28.1758 80.7188 27.2705 80.7188 25.46V20.0723H79.1543V18.4902H80.7188V16.1787H82.8545ZM96.0996 15.2031H98.3145V24.1768C98.3145 25.4014 97.9307 26.374 97.1631 27.0947C96.4014 27.8154 95.3936 28.1758 94.1396 28.1758C92.8037 28.1758 91.7725 27.8389 91.0459 27.165C90.3193 26.4912 89.9561 25.5537 89.9561 24.3525H92.1709C92.1709 25.0322 92.3379 25.5449 92.6719 25.8906C93.0117 26.2305 93.501 26.4004 94.1396 26.4004C94.7373 26.4004 95.2119 26.2041 95.5635 25.8115C95.9209 25.4131 96.0996 24.8652 96.0996 24.168V15.2031ZM106.339 28C106.245 27.8184 106.163 27.5225 106.093 27.1123C105.413 27.8213 104.581 28.1758 103.597 28.1758C102.642 28.1758 101.862 27.9033 101.259 27.3584C100.655 26.8135 100.354 26.1396 100.354 25.3369C100.354 24.3232 100.729 23.5469 101.479 23.0078C102.234 22.4629 103.312 22.1904 104.713 22.1904H106.022V21.5664C106.022 21.0742 105.885 20.6816 105.609 20.3887C105.334 20.0898 104.915 19.9404 104.353 19.9404C103.866 19.9404 103.468 20.0635 103.157 20.3096C102.847 20.5498 102.691 20.8574 102.691 21.2324H100.556C100.556 20.7109 100.729 20.2246 101.074 19.7734C101.42 19.3164 101.889 18.959 102.48 18.7012C103.078 18.4434 103.743 18.3145 104.476 18.3145C105.589 18.3145 106.477 18.5957 107.139 19.1582C107.801 19.7148 108.141 20.5 108.158 21.5137V25.8027C108.158 26.6582 108.278 27.3408 108.519 27.8506V28H106.339ZM103.992 26.4619C104.414 26.4619 104.81 26.3594 105.179 26.1543C105.554 25.9492 105.835 25.6738 106.022 25.3281V23.5352H104.871C104.08 23.5352 103.485 23.6729 103.087 23.9482C102.688 24.2236 102.489 24.6133 102.489 25.1172C102.489 25.5273 102.624 25.8555 102.894 26.1016C103.169 26.3418 103.535 26.4619 103.992 26.4619ZM109.995 23.1748C109.995 21.71 110.335 20.5352 111.015 19.6504C111.694 18.7598 112.605 18.3145 113.748 18.3145C114.756 18.3145 115.57 18.666 116.191 19.3691V14.5H118.327V28H116.394L116.288 27.0156C115.649 27.7891 114.797 28.1758 113.73 28.1758C112.617 28.1758 111.715 27.7275 111.023 26.8311C110.338 25.9346 109.995 24.7158 109.995 23.1748ZM112.131 23.3594C112.131 24.3262 112.315 25.082 112.685 25.627C113.06 26.166 113.59 26.4355 114.275 26.4355C115.148 26.4355 115.787 26.0459 116.191 25.2666V21.2061C115.799 20.4443 115.166 20.0635 114.293 20.0635C113.602 20.0635 113.068 20.3389 112.693 20.8896C112.318 21.4346 112.131 22.2578 112.131 23.3594ZM128.909 25.0557L130.421 18.4902H132.504L129.911 28H128.153L126.114 21.4697L124.11 28H122.353L119.751 18.4902H121.834L123.372 24.9854L125.323 18.4902H126.932L128.909 25.0557ZM139.614 28C139.521 27.8184 139.438 27.5225 139.368 27.1123C138.688 27.8213 137.856 28.1758 136.872 28.1758C135.917 28.1758 135.138 27.9033 134.534 27.3584C133.931 26.8135 133.629 26.1396 133.629 25.3369C133.629 24.3232 134.004 23.5469 134.754 23.0078C135.51 22.4629 136.588 22.1904 137.988 22.1904H139.298V21.5664C139.298 21.0742 139.16 20.6816 138.885 20.3887C138.609 20.0898 138.19 19.9404 137.628 19.9404C137.142 19.9404 136.743 20.0635 136.433 20.3096C136.122 20.5498 135.967 20.8574 135.967 21.2324H133.831C133.831 20.7109 134.004 20.2246 134.35 19.7734C134.695 19.3164 135.164 18.959 135.756 18.7012C136.354 18.4434 137.019 18.3145 137.751 18.3145C138.864 18.3145 139.752 18.5957 140.414 19.1582C141.076 19.7148 141.416 20.5 141.434 21.5137V25.8027C141.434 26.6582 141.554 27.3408 141.794 27.8506V28H139.614ZM137.268 26.4619C137.689 26.4619 138.085 26.3594 138.454 26.1543C138.829 25.9492 139.11 25.6738 139.298 25.3281V23.5352H138.146C137.355 23.5352 136.761 23.6729 136.362 23.9482C135.964 24.2236 135.765 24.6133 135.765 25.1172C135.765 25.5273 135.899 25.8555 136.169 26.1016C136.444 26.3418 136.811 26.4619 137.268 26.4619ZM145.942 28H143.807V14.5H145.942V28Z" fill="white"/>
</g>
<defs>
<filter id="filter0_d_51_402" x="0" y="0" width="191" height="53" filterUnits="userSpaceOnUse" color-interpolation-filters="sRGB">
<feFlood flood-opacity="0" result="BackgroundImageFix"/>
<feColorMatrix in="SourceAlpha" type="matrix" values="0 0 0 0 0 0 0 0 0 0 0 0 0 0 0 0 0 0 127 0" result="hardAlpha"/>
<feOffset dy="4"/>
<feGaussianBlur stdDeviation="2"/>
<feColorMatrix type="matrix" values="0 0 0 0 0 0 0 0 0 0 0 0 0 0 0 0 0 0 0.25 0"/>
<feBlend mode="normal" in2="BackgroundImageFix" result="effect1_dropShadow_51_402"/>
<feBlend mode="normal" in="SourceGraphic" in2="effect1_dropShadow_51_402" result="shape"/>
</filter>
</defs>
</svg>
