<svg width="15" height="14" viewBox="0 0 15 14" fill="none" xmlns="http://www.w3.org/2000/svg">
<path d="M7.5 6.36472C11.6426 6.36472 15 4.93907 15 3.18236C15 1.42565 11.6426 0 7.5 0C3.35742 0 0 1.42565 0 3.18236C0 4.93907 3.35742 6.36472 7.5 6.36472ZM7.5 11.4529C4.6377 11.4529 2.10645 10.752 0.509766 9.66936C0.18457 10.0273 0 10.412 0 10.8176C0 12.5744 3.35742 14 7.5 14C11.6426 14 15 12.5744 15 10.8176C15 10.412 14.8154 10.0273 14.4902 9.67235C12.8936 10.752 10.3623 11.4529 7.5 11.4529ZM7.5 7.63528C4.6377 7.63528 2.10645 6.93438 0.509766 5.85173C0.18457 6.20963 0 6.59438 0 7C0 8.75671 3.35742 10.1824 7.5 10.1824C11.6426 10.1824 15 8.75671 15 7C15 6.59438 14.8154 6.20963 14.4902 5.85471C12.8936 6.93438 10.3623 7.63528 7.5 7.63528Z" fill="#F4B81B"/>
</svg>
