<svg width="32" height="26" viewBox="0 0 32 26" fill="none" xmlns="http://www.w3.org/2000/svg">
<g clip-path="url(#clip0_32:199)">
<path d="M31.8469 3.16603C30.675 3.68566 29.4158 4.03685 28.0942 4.19484C29.4433 3.38623 30.4792 2.10576 30.967 0.580092C29.6845 1.34116 28.2813 1.87739 26.8181 2.16559C25.6262 0.895824 23.9282 0.102264 22.0489 0.102264C18.4405 0.102264 15.5149 3.0277 15.5149 6.63585C15.5149 7.14802 15.5728 7.64662 15.6841 8.12494C10.254 7.85238 5.4396 5.25126 2.21697 1.29826C1.65467 2.26325 1.33247 3.38573 1.33247 4.58297C1.33247 6.84982 2.48605 8.84959 4.23912 10.0213C3.20154 9.98883 2.1868 9.70859 1.2796 9.20401C1.27922 9.23137 1.27922 9.25874 1.27922 9.28624C1.27922 12.4519 3.5314 15.0927 6.52028 15.6929C5.55814 15.9546 4.54892 15.9929 3.56971 15.8049C4.40109 18.4007 6.81412 20.2896 9.67312 20.3425C7.437 22.0948 4.61967 23.1394 1.55863 23.1394C1.03117 23.1394 0.511167 23.1084 0 23.0481C2.89147 24.9019 6.32584 25.9836 10.0156 25.9836C22.0337 25.9836 28.6055 16.0276 28.6055 7.39359C28.6055 7.1102 28.5993 6.82843 28.5866 6.54827C29.8657 5.62358 30.9698 4.47824 31.8469 3.16603Z" fill="#55ACEE"/>
</g>
<defs>
<clipPath id="clip0_32:199">
<rect width="31.8469" height="26" fill="white"/>
</clipPath>
</defs>
</svg>
