<svg width="26" height="26" viewBox="0 0 26 26" fill="none" xmlns="http://www.w3.org/2000/svg">
<g clip-path="url(#clip0_76_969)">
<path d="M19.0808 16.8089C20.6543 14.6618 21.359 11.9997 21.054 9.35528C20.749 6.71086 19.4568 4.27909 17.4359 2.5465C15.415 0.813916 12.8144 -0.091725 10.1544 0.0107688C7.4944 0.113263 4.9712 1.21633 3.08959 3.09929C1.20797 4.98225 0.106707 7.50624 0.00611629 10.1663C-0.0944742 12.8264 0.813027 15.4263 2.54706 17.446C4.2811 19.4657 6.71378 20.7562 9.35843 21.0592C12.0031 21.3623 14.6646 20.6557 16.8106 19.0807H16.809C16.8578 19.1457 16.9098 19.2074 16.9683 19.2675L23.2245 25.5238C23.5292 25.8287 23.9426 26.0001 24.3736 26.0002C24.8047 26.0004 25.2182 25.8293 25.5231 25.5246C25.828 25.2199 25.9994 24.8066 25.9995 24.3755C25.9997 23.9444 25.8286 23.531 25.5239 23.226L19.2676 16.9698C19.2096 16.911 19.1471 16.8567 19.0808 16.8073V16.8089ZM19.5 10.5624C19.5 11.7361 19.2688 12.8983 18.8197 13.9826C18.3705 15.067 17.7122 16.0523 16.8823 16.8822C16.0524 17.7121 15.0671 18.3704 13.9828 18.8196C12.8984 19.2687 11.7362 19.4999 10.5625 19.4999C9.38883 19.4999 8.22664 19.2687 7.14229 18.8196C6.05794 18.3704 5.07268 17.7121 4.24276 16.8822C3.41283 16.0523 2.7545 15.067 2.30535 13.9826C1.8562 12.8983 1.62502 11.7361 1.62502 10.5624C1.62502 8.19205 2.56665 5.91876 4.24276 4.24265C5.91886 2.56655 8.19215 1.62492 10.5625 1.62492C12.9329 1.62492 15.2062 2.56655 16.8823 4.24265C18.5584 5.91876 19.5 8.19205 19.5 10.5624Z" fill="white"/>
</g>
<defs>
<clipPath id="clip0_76_969">
<rect width="26" height="26" fill="white"/>
</clipPath>
</defs>
</svg>
