<svg width="22" height="22" viewBox="0 0 22 22" fill="none" xmlns="http://www.w3.org/2000/svg">
<path d="M22 20.562C22 20.7337 21.9033 20.8911 21.71 21.0341C21.5166 21.1772 21.2194 21.2953 20.8184 21.3883C20.4173 21.4813 20.0055 21.5672 19.583 21.6459C19.1605 21.7246 18.6198 21.7854 17.9609 21.8283C17.3021 21.8712 16.7292 21.9034 16.2422 21.9249C15.7552 21.9463 15.1286 21.9642 14.3623 21.9785C13.596 21.9928 13.016 22 12.6221 22H9.37793L7.6377 21.9785L5.75781 21.9249L4.03906 21.8283L2.41699 21.6459L1.18164 21.3883L0.290039 21.0341L0 20.562C0.0286458 19.3028 0.816406 18.1902 2.36328 17.2244C3.91016 16.2585 5.8724 15.6182 8.25 15.3034V14.5951C7.50521 14.266 6.86068 13.801 6.31641 13.2C5.77214 12.599 5.34245 11.8943 5.02734 11.0859C4.71224 10.2774 4.48307 9.41171 4.33984 8.48878C4.19661 7.56585 4.125 6.5678 4.125 5.49463C4.125 4.57886 4.30404 3.76325 4.66211 3.0478C5.02018 2.33236 5.51432 1.75642 6.14453 1.32C6.77474 0.883577 7.49805 0.554472 8.31445 0.332683C9.13086 0.110894 10.026 0 11 0C11.974 0 12.8691 0.110894 13.6855 0.332683C14.502 0.554472 15.2253 0.883577 15.8555 1.32C16.4857 1.75642 16.9798 2.33236 17.3379 3.0478C17.696 3.76325 17.875 4.57886 17.875 5.49463C17.875 10.5028 16.5 13.5506 13.75 14.638V15.3034C16.1276 15.6182 18.0898 16.2585 19.6367 17.2244C21.1836 18.1902 21.9714 19.3028 22 20.562Z" fill="#3498DB"/>
</svg>
