<svg width="34" height="34" viewBox="0 0 34 34" fill="none" xmlns="http://www.w3.org/2000/svg">
<path d="M17 15.5834H12.75M17 11.3334V15.5834V11.3334ZM17 15.5834V19.8334V15.5834ZM17 15.5834H21.25H17Z" stroke="white" stroke-width="2" stroke-linecap="round"/>
<path d="M19.8333 26.9167C25.1756 26.9167 27.8474 26.9167 29.5063 25.2563C31.1667 23.5974 31.1667 20.9256 31.1667 15.5833C31.1667 10.2411 31.1667 7.56925 29.5063 5.91033C27.8474 4.25 25.1756 4.25 19.8333 4.25H14.1667C8.82443 4.25 6.15259 4.25 4.49368 5.91033C2.83334 7.56925 2.83334 10.2411 2.83334 15.5833C2.83334 20.9256 2.83334 23.5974 4.49368 25.2563C5.41876 26.1828 6.65834 26.5923 8.50001 26.7722" stroke="white" stroke-width="2" stroke-linecap="round" stroke-linejoin="round"/>
<path d="M19.8333 26.9166C18.0823 26.9166 16.1528 27.625 14.3919 28.5387C11.5614 30.0078 10.1462 30.743 9.44917 30.2741C8.75217 29.8066 8.88392 28.3545 9.14884 25.4518L9.20834 24.7916" stroke="white" stroke-width="2" stroke-linecap="round"/>
</svg>
