<svg width="21" height="21" viewBox="0 0 21 21" fill="none" xmlns="http://www.w3.org/2000/svg">
<path d="M12.4688 15.75H2.625L2.62303 5.84456L10.1266 11.0394C10.2363 11.1154 10.3666 11.156 10.5 11.156C10.6334 11.156 10.7637 11.1154 10.8734 11.0394L18.375 5.84719V11.8125H19.6875V5.25C19.687 4.90206 19.5485 4.56853 19.3025 4.3225C19.0565 4.07647 18.7229 3.93802 18.375 3.9375H2.625C2.27701 3.93785 1.94337 4.07624 1.69731 4.32231C1.45124 4.56837 1.31285 4.90201 1.3125 5.25V15.75C1.31302 16.0979 1.45147 16.4315 1.6975 16.6775C1.94353 16.9235 2.27706 17.062 2.625 17.0625H12.4688V15.75ZM16.9306 5.25L10.5 9.702L4.06941 5.25H16.9306Z" fill="#3498DB"/>
<path d="M17.0625 18.375C18.5122 18.375 19.6875 17.1997 19.6875 15.75C19.6875 14.3003 18.5122 13.125 17.0625 13.125C15.6128 13.125 14.4375 14.3003 14.4375 15.75C14.4375 17.1997 15.6128 18.375 17.0625 18.375Z" fill="#3498DB"/>
</svg>
