<svg width="57" height="57" viewBox="0 0 57 57" fill="none" xmlns="http://www.w3.org/2000/svg">
<path d="M25.691 21.6778C24.0923 22.8636 22.156 23.5065 20.1656 23.5125C18.094 23.5125 16.1934 22.8178 14.6383 21.6778C13.3024 22.7911 11.97 24.3853 10.8799 26.35C8.34518 30.9153 8.06553 35.5982 10.2565 36.8131C11.2326 37.3688 12.2622 36.952 13.3238 35.9296C13.125 37.0311 13.0255 38.1483 13.0263 39.2676C13.0263 44.5009 15.0569 48.7296 17.556 48.7296C19.063 48.7296 19.8093 47.1888 20.1673 44.8322C20.5236 47.1728 21.2717 48.7296 22.768 48.7296C25.2564 48.7296 27.303 44.4992 27.303 39.2676C27.303 38.092 27.1926 36.9698 27.0038 35.9313C28.0725 36.9556 29.0985 37.3795 30.0782 36.8166C32.2638 35.6018 31.9806 30.9207 29.4477 26.3536C28.3611 24.3871 27.0252 22.7946 25.6892 21.6813L25.691 21.6778ZM20.1638 21.7312C21.1651 21.7309 22.1565 21.5333 23.0814 21.1498C24.0063 20.7663 24.8467 20.2044 25.5544 19.4961C26.2622 18.7879 26.8235 17.9471 27.2064 17.0219C27.5892 16.0967 27.7861 15.1052 27.7857 14.1039C27.7854 13.1026 27.5878 12.1112 27.2043 11.1863C26.8208 10.2614 26.2589 9.42102 25.5507 8.71325C24.8424 8.00549 24.0017 7.44415 23.0765 7.0613C22.1513 6.67845 21.1597 6.48158 20.1584 6.48193C18.1358 6.48264 16.1963 7.28682 14.7665 8.71755C13.3368 10.1483 12.534 12.0884 12.5347 14.111C12.5354 16.1337 13.3396 18.0732 14.7703 19.5029C16.201 20.9327 18.1411 21.7355 20.1638 21.7348V21.7312ZM39.1644 31.4747C41.8505 31.4747 44.0307 29.2944 44.0307 26.6047C44.0307 23.915 41.8469 21.7312 39.1626 21.7312C37.8702 21.7317 36.6309 22.2453 35.717 23.1592C34.8032 24.073 34.2896 25.3123 34.2891 26.6047C34.29 27.8971 34.8041 29.1362 35.7183 30.0498C36.6325 30.9633 37.872 31.4764 39.1644 31.4764V31.4747ZM45.0959 34.4262C44.4012 33.1704 43.5498 32.1515 42.6948 31.439C41.6973 32.1693 40.4861 32.6147 39.1626 32.6147C37.8373 32.6147 36.6225 32.1693 35.6304 31.439C34.7754 32.1515 33.9239 33.1704 33.2257 34.4262C31.6047 37.3439 31.4266 40.3364 32.8267 41.113C33.4501 41.4692 34.1092 41.2021 34.7861 40.5501C34.6622 41.2541 34.6002 41.9675 34.6008 42.6823C34.6008 46.031 35.8976 48.7332 37.4953 48.7332C38.4572 48.7332 38.9382 47.7482 39.1662 46.243C39.3942 47.7392 39.8715 48.7314 40.8298 48.7314C42.4205 48.7314 43.7279 46.0275 43.7279 42.6823C43.7279 41.9342 43.6567 41.2145 43.5356 40.5519C44.2178 41.2056 44.8751 41.4782 45.5021 41.1166C46.895 40.3435 46.7133 37.3492 45.0959 34.4315V34.4262Z" fill="#3498DB"/>
</svg>
