<svg width="43" height="43" viewBox="0 0 43 43" fill="none" xmlns="http://www.w3.org/2000/svg">
<g clip-path="url(#clip0_160_2899)">
<path d="M21.5 39.4168C11.6046 39.4168 3.58331 31.3955 3.58331 21.5002C3.58331 11.6048 11.6046 3.5835 21.5 3.5835C24.2818 3.58141 27.0258 4.22809 29.514 5.47217C32.0021 6.71625 34.1659 8.52344 35.8333 10.7502H30.9779C28.9089 8.92582 26.3575 7.73723 23.6298 7.32701C20.902 6.91679 18.1138 7.30238 15.5998 8.43751C13.0858 9.57263 10.9527 11.4091 9.45652 13.7265C7.96034 16.0438 7.16462 18.7437 7.16485 21.5022C7.16508 24.2606 7.96125 26.9603 9.45782 29.2775C10.9544 31.5946 13.0878 33.4307 15.602 34.5654C18.1162 35.7001 20.9044 36.0852 23.6321 35.6745C26.3598 35.2639 28.911 34.0749 30.9797 32.2502H35.8351C34.1675 34.4771 32.0035 36.2845 29.515 37.5286C27.0265 38.7727 24.2821 39.4192 21.5 39.4168ZM34.0416 28.6668V23.2918H19.7083V19.7085H34.0416V14.3335L43 21.5002L34.0416 28.6668Z" fill="#FE1111"/>
</g>
<defs>
<clipPath id="clip0_160_2899">
<rect width="43" height="43" fill="white"/>
</clipPath>
</defs>
</svg>
